<svg xmlns="http://www.w3.org/2000/svg" width="23.371" height="23.371" viewBox="0 0 23.371 23.371"><defs><style>.a{fill:#fff;}</style></defs><path class="a" d="M16.068,0H7.3A7.3,7.3,0,0,0,0,7.3v8.764a7.3,7.3,0,0,0,7.3,7.3h8.764a7.3,7.3,0,0,0,7.3-7.3V7.3A7.3,7.3,0,0,0,16.068,0ZM21.18,16.068a5.118,5.118,0,0,1-5.112,5.112H7.3a5.118,5.118,0,0,1-5.112-5.112V7.3A5.118,5.118,0,0,1,7.3,2.191h8.764A5.118,5.118,0,0,1,21.18,7.3Z"/><g transform="translate(5.843 5.843)"><path class="a" d="M133.843,128a5.843,5.843,0,1,0,5.843,5.843A5.843,5.843,0,0,0,133.843,128Zm0,9.495a3.652,3.652,0,1,1,3.652-3.652A3.657,3.657,0,0,1,133.843,137.495Z" transform="translate(-128 -128)"/></g><g transform="translate(17.188 4.626)"><circle class="a" cx="0.779" cy="0.779" r="0.779"/></g></svg>