<svg xmlns="http://www.w3.org/2000/svg" width="23.37" height="23.37" viewBox="0 0 23.37 23.37"><defs><style>.a{fill:#fff;}</style></defs><path class="a" d="M21.033,0H2.337A2.344,2.344,0,0,0,0,2.337v18.7A2.344,2.344,0,0,0,2.337,23.37h18.7a2.344,2.344,0,0,0,2.337-2.337V2.337A2.344,2.344,0,0,0,21.033,0ZM7.011,19.865H3.506V9.348H7.011ZM5.258,7.362a2.1,2.1,0,1,1,2.1-2.1A2.095,2.095,0,0,1,5.258,7.362Zm14.606,12.5H16.359V13.671a1.753,1.753,0,1,0-3.505,0v6.193H9.348V9.348h3.506v1.4a3.775,3.775,0,0,1,2.921-1.636,4.14,4.14,0,0,1,4.09,4.09Z"/></svg>