<svg xmlns="http://www.w3.org/2000/svg" width="29.5" height="23.969" viewBox="0 0 29.5 23.969"><defs><style>.a{fill:#fff;}</style></defs><g transform="translate(0 -48)"><g transform="translate(0 48)"><path class="a" d="M29.5,50.838a12.609,12.609,0,0,1-3.485.955,6.014,6.014,0,0,0,2.661-3.343,12.086,12.086,0,0,1-3.835,1.464,6.047,6.047,0,0,0-10.461,4.135,6.227,6.227,0,0,0,.14,1.379A17.118,17.118,0,0,1,2.054,49.1a6.049,6.049,0,0,0,1.858,8.083,5.972,5.972,0,0,1-2.732-.745v.066a6.076,6.076,0,0,0,4.845,5.942,6.036,6.036,0,0,1-1.586.2,5.347,5.347,0,0,1-1.145-.1,6.105,6.105,0,0,0,5.651,4.213,12.152,12.152,0,0,1-7.5,2.579A11.329,11.329,0,0,1,0,69.255a17.026,17.026,0,0,0,9.278,2.714c11.129,0,17.213-9.219,17.213-17.209,0-.267-.009-.525-.022-.782A12.065,12.065,0,0,0,29.5,50.838Z" transform="translate(0 -48)"/></g></g></svg>