<svg xmlns="http://www.w3.org/2000/svg" width="757.884" height="757.645" viewBox="0 0 757.884 757.645"><defs><style>.a{fill:#222;}.b{fill:#e74c3c;}</style></defs><g transform="translate(-487.717 -295.87)"><path class="a" d="M608.765,343.155,505.38,663.39a379.575,379.575,0,0,0,56.327,41.349l47.187-142.7L670.684,748.7a379.375,379.375,0,0,0,76.166,9.618Z" transform="translate(110.267 295.192)"/><path class="a" d="M866.655,295.87c-209.282,0-378.938,169.656-378.938,378.938a377.033,377.033,0,0,0,70.748,220.349L715.881,419.02a3.2,3.2,0,0,1,6.084,0L935.8,1047.344c176.247-32.513,309.8-186.88,309.8-372.536C1245.6,465.527,1075.937,295.87,866.655,295.87ZM834.584,565.644H870.82a87.433,87.433,0,0,1,9.677.485c55.1,4.9,98.263,51.468,98.263,108.237a108.717,108.717,0,0,1-74.015,103.247ZM953.106,923.586l-23.634-71.3A187.4,187.4,0,0,0,1058.1,674.367c0-100.19-78.693-181.991-177.609-187.025-3.2-.174-6.439-.261-9.677-.261a185.743,185.743,0,0,0-59.087,9.539l-27.1-81.757H880.5c143.343,0,259.547,116.16,259.547,259.5C1140.043,792.5,1061.125,892.2,953.106,923.586Z" transform="translate(0 0)"/><path class="b" d="M535.608,333.117h36.236a87.429,87.429,0,0,1,9.677.485c55.1,4.9,98.263,51.468,98.263,108.237A108.717,108.717,0,0,1,605.77,545.086Z" transform="translate(298.975 232.527)"/></g></svg>