<svg xmlns="http://www.w3.org/2000/svg" width="470.283" height="334.201" viewBox="0 0 470.283 334.201"><defs><style>.a,.d{fill:#222;}.a{opacity:0.5;}.b,.g{fill:#e74c3c;}.c{fill:#a0616a;}.e{fill:#d0cde1;}.f{fill:#f2f2f2;}.g{stroke:#f2f2f2;stroke-miterlimit:10;stroke-width:2.717px;}.h{opacity:0.1;isolation:isolate;}.i{stroke:none;}.j{fill:none;}</style></defs><g transform="translate(-12142.547 -2741.413)"><ellipse class="a" cx="201.894" cy="15.773" rx="201.894" ry="15.773" transform="translate(12142.547 3044.068)"/><circle class="b" cx="153.092" cy="153.092" r="153.092" transform="translate(12306.646 2741.413)"/><path class="c" d="M-140.8,717.554l-1.7,12.468,11.9,1.133-1.7-15.3Z" transform="translate(12310.657 2317.561)"/><path class="c" d="M-270.336,302.457s-1.133,15.3-1.133,15.868S-263.535,358-263.535,358s11.335,21.535,0,20.969-7.934-20.4-7.934-20.4l-11.9-32.87,5.1-23.236Z" transform="translate(12496.299 2561.507)"/><path class="c" d="M-202.811,717.554l1.7,12.468-11.9,1.133,1.7-15.3Z" transform="translate(12410.072 2317.561)"/><path class="d" d="M-193.718,431.108l2.834,3.967s1.7,17,0,22.669-5.1,31.736-5.1,33.437-.567,2.834,0,3.4,2.267.567,1.133,1.7-1.133,4.534-1.133,4.534v2.834l-7.368,41.938s4.534,5.1,1.133,5.1-15.868,0-15.3-5.667l1.133-.567s1.7-37.4,1.134-39.1,0-5.1,0-5.1,1.133-1.7,0-2.267-1.134-5.1-1.134-5.1l-5.1-34.57s-4.534,23.236-7.368,25.5-2.267,7.934-2.267,7.934l-2.267,49.872s2.267,5.667,0,6.8-11.9,5.1-12.468-.567-3.4-54.972-3.4-57.239.566-3.4,0-5.1.566-1.7,0-1.7,1.133-1.7,1.133-2.834V453.21s-.567-5.667-1.133-6.8.566-2.267,0-3.967,1.133-7.368,1.133-7.368l25.5-6.8Z" transform="translate(12414.014 2487.262)"/><circle class="c" cx="14.735" cy="14.735" r="14.735" transform="translate(12198.194 2789.723)"/><path class="c" d="M-212.465,175.4s-2.267,11.335-2.267,13.035-9.634,6.8-9.634,6.8l-10.768-13.6s6.8-9.635,6.8-11.9Z" transform="translate(12430.494 2639.831)"/><path class="e" d="M-224.678,202.421s4.939-1.315,6.437-3.491c0,0,15.666,15.392,15.666,18.226l-12.468,22.1s0,7.934-1.133,8.5,0,0,0,2.267,3.4,17,2.267,19.269-2.267.567-1.133,3.967,3.967,21.536,3.967,21.536-10.2-3.4-24.936,2.267-32.3-2.267-32.3-2.267,4.534-10.2,3.4-13.6,2.834-9.635,2.834-9.635l2.834-52.139s-3.967-23.236-1.133-24.369l5.667-2.267,18.149-2.23S-232.046,201.854-224.678,202.421Z" transform="translate(12434.206 2627.54)"/><path class="e" d="M-261.754,245.771l5.667,3.967s2.834,8.5,0,12.468a29.061,29.061,0,0,0-3.967,9.634l-11.335-1.133Z" transform="translate(12487.718 2594.958)"/><path class="d" d="M-231.705,106.222l2.556-1.023s-5.344-5.884-12.78-5.372l2.091-2.3s-5.112-2.046-9.759,3.326c-2.443,2.824-5.269,6.144-7.031,9.883h-2.737l1.142,2.515-4,2.516,4.1-.452a13.926,13.926,0,0,0,.388,6.515l-.11,1.988s4.757-7.36,4.757-8.384v2.558s2.556-2.3,2.556-3.837l1.394,1.791.7-2.814,8.6,2.814-1.394-2.3,5.344.767-2.091-2.814s6.041,3.326,6.274,6.139,3.253,6.4,3.253,6.4l1.394-2.558S-224.967,110.059-231.705,106.222Z" transform="translate(12455.884 2682.664)"/><path class="e" d="M-138.869,201.528h-8.5S-153.6,202.661-155.3,214s-3.4,14.168-1.7,14.168,22.1-.567,22.1-1.133S-138.869,201.528-138.869,201.528Z" transform="translate(12321.194 2621.065)"/><rect class="f" width="250.651" height="176.074" transform="translate(12229.599 2883.648)"/><rect class="d" width="62.935" height="109.864" transform="translate(12396.214 2950.828)"/><rect class="f" width="16.953" height="15.804" transform="translate(12430.555 2957.419)"/><rect class="f" width="16.953" height="15.804" transform="translate(12407.854 2957.419)"/><rect class="f" width="16.953" height="16.378" transform="translate(12430.555 2978.969)"/><rect class="f" width="16.953" height="16.378" transform="translate(12407.854 2978.969)"/><circle class="b" cx="4.002" cy="4.002" r="4.002" transform="translate(12400.216 3009.155)"/><rect class="d" width="124.416" height="104.407" transform="translate(12250.698 2940.399)"/><path class="d" d="M-938.751,309.72h303.036l-20.2-42.243-4.522-9.458-5.916-12.369-4.522-9.458-5.242-10.957H-914.876l-3.1,10.957-2.674,9.458-3.5,12.369-2.674,9.458Z" transform="translate(13142.157 2607.077)"/><rect class="b" width="4.365" height="26.92" transform="translate(12366.383 2983.69)"/><rect class="f" width="4.365" height="3.274" transform="translate(12366.383 2987.692)"/><rect class="f" width="4.365" height="3.274" transform="translate(12366.383 3003.334)"/><rect class="b" width="10.55" height="26.92" transform="translate(12353.65 2983.69)"/><rect class="f" width="10.55" height="3.274" transform="translate(12353.65 2987.692)"/><rect class="f" width="10.55" height="3.274" transform="translate(12353.65 3003.334)"/><rect class="b" width="4.365" height="26.92" transform="translate(12346.738 2983.69)"/><rect class="f" width="4.365" height="3.274" transform="translate(12346.738 2987.692)"/><rect class="f" width="4.365" height="3.274" transform="translate(12346.738 3003.334)"/><rect class="b" width="4.365" height="26.92" transform="translate(12340.19 2983.69)"/><rect class="f" width="4.365" height="3.274" transform="translate(12340.19 2987.692)"/><rect class="f" width="4.365" height="3.274" transform="translate(12340.19 3003.334)"/><rect class="b" width="4.365" height="26.92" transform="translate(12330.573 3010.515) rotate(-159.346)"/><rect class="f" width="4.365" height="3.274" transform="translate(12337.502 2992.133) rotate(-159.346)"/><rect class="f" width="4.365" height="3.274" transform="translate(12331.984 3006.771) rotate(-159.346)"/><rect class="b" width="10.55" height="26.92" transform="translate(12254.7 2983.69)"/><rect class="f" width="10.55" height="3.274" transform="translate(12254.7 2987.692)"/><rect class="f" width="10.55" height="3.274" transform="translate(12254.7 3003.334)"/><rect class="b" width="4.365" height="26.92" transform="translate(12267.796 2983.69)"/><rect class="f" width="4.365" height="3.274" transform="translate(12267.796 2987.692)"/><rect class="f" width="4.365" height="3.274" transform="translate(12267.796 3003.334)"/><rect class="b" width="4.365" height="26.92" transform="translate(12274.345 2983.69)"/><rect class="f" width="4.365" height="3.274" transform="translate(12274.345 2987.692)"/><rect class="f" width="4.365" height="3.274" transform="translate(12274.345 3003.334)"/><rect class="b" width="26.92" height="4.365" transform="translate(12288.327 3010.515) rotate(-110.654)"/><rect class="f" width="3.274" height="4.365" transform="translate(12281.397 2992.133) rotate(-110.654)"/><rect class="f" width="3.274" height="4.365" transform="translate(12286.915 3006.771) rotate(-110.654)"/><rect class="f" width="124.416" height="2.547" transform="translate(12250.698 3010.61)"/><rect class="b" width="22.919" height="26.92" transform="translate(12297.99 2983.69)"/><rect class="f" width="11.641" height="5.093" transform="translate(12303.629 2989.51)"/><rect class="f" width="2.183" height="23.282" transform="translate(12311.814 2940.399)"/><circle class="f" cx="3.638" cy="3.638" r="3.638" transform="translate(12309.269 2960.044)"/><path class="b" d="M-864,261.423h254.288l-4.522-9.458H-861.322Z" transform="translate(13085.508 2591.302)"/><path class="b" d="M-889.459,314.674h270.9l-4.522-9.458h-263.7Z" transform="translate(13104.801 2559.879)"/><g class="g" transform="translate(12454.123 2885.368)"><circle class="i" cx="48.532" cy="48.532" r="48.532"/><circle class="j" cx="48.532" cy="48.532" r="49.891"/></g><circle class="h" cx="41.738" cy="41.738" r="41.738" transform="translate(12460.918 2892.163)"/><path class="c" d="M-269.927,258.214s3.282,8.439,2.6,16.789a8.848,8.848,0,0,1-1.463,4.18h0l40.206,19.088s18.167,1.881,13.633,9.815-20.969-3.967-20.969-3.967S-279,297.885-282.4,291.651s-5.667-32.3-5.667-32.3Z" transform="translate(12453.953 2587.615)"/><path class="d" d="M-225.774,740.809s-2.834-2.834,1.133-2.834a18.446,18.446,0,0,1,7.368,1.7l2.834,10.2s11.618,9.351-1.417,8.217-11.051-.283-11.051-.283-3.967-1.133-4.534-2.267,1.134-17.569,1.134-17.569S-228.608,742.509-225.774,740.809Z" transform="translate(12426.234 2304.508)"/><path class="d" d="M-134.848,740.809s2.834-2.834-1.134-2.834a18.445,18.445,0,0,0-7.367,1.7l-2.834,10.2s-11.618,9.351,1.417,8.217,12.752-.283,12.752-.283,3.967-1.133,4.533-2.267-2.834-17.569-2.834-17.569S-132.014,742.509-134.848,740.809Z" transform="translate(12310.939 2304.508)"/><path class="f" d="M-946.056,462.072V456a14.108,14.108,0,0,1-8.1-2.647l1.27-4.03a12.948,12.948,0,0,0,7.624,2.586c3.759,0,6.3-2.466,6.3-5.894,0-3.308-2.065-5.353-5.983-7.157-5.4-2.406-8.736-5.173-8.736-10.405a9.457,9.457,0,0,1,7.995-9.684v-6.075h3.282v5.835a12.877,12.877,0,0,1,6.883,2.1l-1.324,3.97a11.7,11.7,0,0,0-6.671-2.045c-4.077,0-5.612,2.767-5.612,5.173,0,3.128,1.959,4.691,6.565,6.857,5.453,2.526,8.207,5.654,8.207,11.007a10.065,10.065,0,0,1-8.366,10.225v6.256Z" transform="translate(13446.777 2496.458)"/></g></svg>