<svg xmlns="http://www.w3.org/2000/svg" width="430.459" height="337" viewBox="0 0 430.459 337"><defs><style>.a{fill:#e74c3c;}.b{fill:#e6e6e6;}.c{fill:#222;}.d{fill:#575a89;}.e{fill:#a0616a;}.f{fill:#fff;}.g{opacity:0.1;isolation:isolate;}</style></defs><g transform="translate(93.458 0.028)"><circle class="a" cx="168.5" cy="168.5" r="168.5" transform="translate(0.001 -0.028)"/><g transform="translate(40.51 30.305)"><path class="b" d="M-5671.527,650.06c7.121,9.535,21.9,10.539,21.9,10.539s3.236-14.457-3.884-23.992-21.9-10.539-21.9-10.539S-5678.647,640.524-5671.527,650.06Z" transform="translate(5749.717 -399.788)"/><path class="b" d="M-5597.891,670.553c-4.7,6.292-14.451,6.955-14.451,6.955s-2.135-9.54,2.563-15.832,14.451-6.954,14.451-6.954S-5593.192,664.261-5597.891,670.553Z" transform="translate(5712.353 -416.696)"/><rect class="c" width="327.874" height="1.106" transform="translate(-37.217 260.352)"/><path class="d" d="M-4948.354,213.973l-2.856,1.428s-15.472,38.8-10.236,48.082,21.662,26.659,21.662,26.659l3.094-8.807-12.656-27.437Z" transform="translate(4828.559 -156.611)"/><path class="a" d="M-4948.354,213.973l-2.856,1.428s-15.472,38.8-10.236,48.082,21.662,26.659,21.662,26.659l3.094-8.807-12.656-27.437Z" transform="translate(4828.559 -156.611)"/><path class="d" d="M-4967.7,687.244s-4.047,9.283-1.9,10a24.315,24.315,0,0,0,7.379.714c2.618,0,5.712-.952,6.188-1.9s-1.9-7.141-1.9-7.141Z" transform="translate(4851 -435.888)"/><path class="d" d="M-5102.673,696.459s-2.618,8.331-1.428,8.807,5,2.618,7.141,1.9a24.635,24.635,0,0,0,6.188-3.094c.714-.714,0-4.523,0-4.523l-3.333-4.76Z" transform="translate(5040.482 -440.343)"/><path class="c" d="M-5094.165,392.251l-3.412,1.19s-.873,8.093.08,10.949,3.094,23.565,1.9,27.849-.476,11.187-.476,11.187-7.141,23.327-5.712,28.326,1.189,12.139-.238,15.71-2.619,5-1.9,7.855,2.143,4.285.714,6.665-4.284,3.095-2.856,5.237,2.856,3.808,2.381,5.236,12.615,4.047,13.806,1.9c0,0-3.809-3.332,0-5.237s2.618-9.045,2.618-9.045,6.666-27.373,6.427-29.516,10.473-35.466,10.473-35.466,15.71,47.606,16.662,49.748-1.19,7.379,0,8.807-.476,5,1.189,6.427-2.855,6.665,0,8.569,4.285,7.855,4.047,9.045,11.9-.238,11.9-1.9a12.108,12.108,0,0,1,.952-5.951c1.191-2.857,1.9-4.761.952-5.713s-1.667-2.143-.714-5.475-1.428-13.568-.714-15.472.476-14.758.476-14.758-2.38-18.8-1.666-21.9a7.623,7.623,0,0,0-.238-5c-.238-1.19-1.667-14.044-2.618-15.948s-2.143-34.514-7.618-36.181S-5094.165,392.251-5094.165,392.251Z" transform="translate(4985.082 -259.909)"/><path class="c" d="M-4981.223,700.129s-8.569-1.428-9.045,0-1.9,12.616,1.428,12.854,9.044.952,10-1.19,5.475-3.57,5.475-3.57,6.665-1.9,6.665-4.047-.238-5.475-1.428-5.713-5.951-2.856-5.951-3.808S-4981.223,700.129-4981.223,700.129Z" transform="translate(4870.235 -440.204)"/><path class="c" d="M-5121.519,708.2s-6.188-1.9-7.617-.714-3.332,14.282,0,14.044,12.14,1.19,12.616-.714,6.9-2.38,6.9-2.38,6.9-3.332,6.427-6.9-1.19-4.761-4.046-5-5-3.57-5.237-3.808-2.336-1.978-2.6-.037S-5118.424,708.913-5121.519,708.2Z" transform="translate(5064.088 -444.466)"/><ellipse class="e" cx="14.52" cy="14.52" rx="14.52" ry="14.52" transform="translate(-91.469 4.044)"/><path class="e" d="M-5044.925,127.449s-.952,15.948-4.522,17.376,18.09,1.428,18.09,1.428.238-10,3.333-12.377S-5044.925,127.449-5044.925,127.449Z" transform="translate(4955.36 -105.553)"/><rect class="b" width="312.765" height="156.914" transform="translate(-57 8.749)"/><rect class="f" width="284.042" height="131.383" transform="translate(-42.639 21.514)"/><path class="a" d="M-5572.583,189.917l-11.968-11.968-21.01,21.011-25.8-25.8-43.883,43.883-19.946-19.947-43.617,43.617-24.468-24.468-45.589,45.589.752.752,44.837-44.836,24.468,24.468,43.617-43.617,19.946,19.947,43.883-43.883,25.8,25.8,21.01-21.011,11.968,11.968,38.142-38.142-.752-.752Z" transform="translate(5771.034 -120.351)"/><circle class="a" cx="6.383" cy="6.383" r="6.383" transform="translate(131.43 47.977)"/><circle class="a" cx="6.383" cy="6.383" r="6.383" transform="translate(90.473 89.998)"/><circle class="a" cx="6.383" cy="6.383" r="6.383" transform="translate(1.643 89.998)"/><path class="a" d="M-5059.059,158.65s14.758-5.475,20,3.094c0,0,16.662,7.855,17.852,12.615s-10,40.465-10,40.465,0,29.516,2.38,32.61,6.9,6.427,3.809,7.141-51.652,5.951-51.415,2.856,3.332-5.713,0-7.617-.476-4.047-2.618-10.235-7.379-57.365-7.379-57.365,3.571-6.427,4.285-7.141S-5059.059,158.65-5059.059,158.65Z" transform="translate(4963.781 -122.947)"/><path class="e" d="M-5102.382,415.476s9.283,20.947,1.19,23.8-7.617-22.137-7.617-22.137Z" transform="translate(5049.712 -275.518)"/><path class="c" d="M-5059.779,95.295c.841-1.686,2.1-3.632,3.983-3.529a6.878,6.878,0,0,1,2.621,1.079,2.679,2.679,0,0,0,2.71.15c1.135-.81.783-2.732,1.8-3.688,1.108-1.044,3.335-.461,4.051-1.8.381-.717.073-1.608.239-2.4a8.647,8.647,0,0,0,3.43-.4,2.947,2.947,0,0,0,1.975-2.6,2.975,2.975,0,0,0-1.063-2.047c-1.463-1.331-3.58-1.586-5.386-2.393-1.437-.642-2.686-1.643-4.1-2.338a15.33,15.33,0,0,0-7.936-1.221,18.126,18.126,0,0,0-11.205,4.509c-2.97,2.837-4.542,7.313-3.261,11.216.726,2.211,2.264,4.07,3.122,6.233a21.822,21.822,0,0,1,1.087,4.572l.6,3.7c-.094-.575,1.169-2.019,1.583-2.362.9-.749,2.219-.495,3.058-1.188C-5061.227,99.748-5060.509,96.757-5059.779,95.295Z" transform="translate(4975.865 -74.03)"/><path class="g" d="M-5087.984,195.195l3.808,2.38s6.189,37.371,5.476,42.607,2.856,34.752,1.666,37.132-1.666,2.857-1.666,4.285,3.333,6.665,1.19,7.617-10,2.618-10,0,1.428-6.189-1.189-7.855-4.523-12.377-4.523-12.377-1.189-10.949-2.38-13.092-2.856-10-2.856-13.33-2.856-16.9-1.19-23.8S-5097.505,193.29-5087.984,195.195Z" transform="translate(5025.079 -145.449)"/><path class="a" d="M-5092.05,193.453l3.809,2.38s6.188,37.37,5.474,42.607,2.856,34.752,1.667,37.132-1.667,2.857-1.667,4.285,3.333,6.665,1.19,7.617-10,2.618-10,0,1.428-6.189-1.19-7.855-4.522-12.377-4.522-12.377-1.19-10.949-2.38-13.092-2.856-10-2.856-13.33-2.857-16.9-1.19-23.8S-5101.571,191.548-5092.05,193.453Z" transform="translate(5030.811 -144.421)"/></g></g></svg>