<svg xmlns="http://www.w3.org/2000/svg" width="455.384" height="336.937" viewBox="0 0 455.384 336.937"><defs><style>.a{fill:#e74c3c;}.b{fill:#e6e6e6;}.c{fill:#222;}.d{fill:#fff;}.e{fill:#3f3d56;}.f{fill:#ffb9b9;}.g{fill:#2f2e41;}.h{fill:#6c63ff;}.i{fill:#d34139;}.j{opacity:0.2;isolation:isolate;}</style></defs><circle class="a" cx="168.469" cy="168.469" r="168.469" transform="translate(0)"/><g transform="translate(16.901 27.11)"><rect class="b" width="2.963" height="2.469" transform="translate(19.505 157.374)"/><path class="c" d="M-4396.889,452.682h-5.839v-2.469h5.839Zm-11.677,0h-5.838v-2.469h5.838Zm-11.677,0h-5.838v-2.469h5.838Zm-11.676,0h-5.839v-2.469h5.839Zm-11.677,0h-5.838v-2.469h5.838Zm-11.677,0h-5.838v-2.469h5.838Zm-11.676,0h-5.838v-2.469h5.838Zm-11.677,0h-5.838v-2.469h5.838Zm-11.677,0h-5.838v-2.469h5.838Zm-11.676,0h-5.838v-2.469h5.838Zm-11.677,0h-5.838v-2.469h5.838Zm-11.676,0h-5.838v-2.469h5.838Zm-11.677,0h-5.838v-2.469h5.838Zm-11.677,0h-5.838v-2.469h5.838Zm-11.677,0h-5.838v-2.469h5.838Zm-11.676,0h-5.838v-2.469h5.838Zm-11.677,0h-5.838v-2.469h5.838Zm-11.676,0h-5.839v-2.469h5.839Zm-11.677,0h-5.838v-2.469h5.838Zm-11.677,0h-5.838v-2.469h5.838Zm-11.677,0h-5.838v-2.469h5.838Zm-11.677,0h-5.838v-2.469h5.838Zm-11.676,0h-5.838v-2.469h5.839Zm-11.677,0h-5.838v-2.469h5.838Z" transform="translate(4699.595 -292.839)"/><rect class="b" width="2.963" height="2.469" transform="translate(19.505 94.663)"/><path class="c" d="M-4396.889,299.691h-5.839v-2.469h5.839Zm-11.677,0h-5.838v-2.469h5.838Zm-11.677,0h-5.838v-2.469h5.838Zm-11.676,0h-5.839v-2.469h5.839Zm-11.677,0h-5.838v-2.469h5.838Zm-11.677,0h-5.838v-2.469h5.838Zm-11.676,0h-5.838v-2.469h5.838Zm-11.677,0h-5.838v-2.469h5.838Zm-11.677,0h-5.838v-2.469h5.838Zm-11.676,0h-5.838v-2.469h5.838Zm-11.677,0h-5.838v-2.469h5.838Zm-11.676,0h-5.838v-2.469h5.838Zm-11.677,0h-5.838v-2.469h5.838Zm-11.677,0h-5.838v-2.469h5.838Zm-11.677,0h-5.838v-2.469h5.838Zm-11.676,0h-5.838v-2.469h5.838Zm-11.677,0h-5.838v-2.469h5.838Zm-11.676,0h-5.839v-2.469h5.839Zm-11.677,0h-5.838v-2.469h5.838Zm-11.677,0h-5.838v-2.469h5.838Zm-11.677,0h-5.838v-2.469h5.838Zm-11.677,0h-5.838v-2.469h5.838Zm-11.676,0h-5.838v-2.469h5.839Zm-11.677,0h-5.838v-2.469h5.838Z" transform="translate(4699.595 -202.559)"/><rect class="b" width="2.963" height="2.469" transform="translate(19.505 31.953)"/><path class="c" d="M-4396.889,146.7h-5.839v-2.469h5.839Zm-11.677,0h-5.838v-2.469h5.838Zm-11.677,0h-5.838v-2.469h5.838Zm-11.676,0h-5.839v-2.469h5.839Zm-11.677,0h-5.838v-2.469h5.838Zm-11.677,0h-5.838v-2.469h5.838Zm-11.676,0h-5.838v-2.469h5.838Zm-11.677,0h-5.838v-2.469h5.838Zm-11.677,0h-5.838v-2.469h5.838Zm-11.676,0h-5.838v-2.469h5.838Zm-11.677,0h-5.838v-2.469h5.838Zm-11.676,0h-5.838v-2.469h5.838Zm-11.677,0h-5.838v-2.469h5.838Zm-11.677,0h-5.838v-2.469h5.838Zm-11.677,0h-5.838v-2.469h5.838Zm-11.676,0h-5.838v-2.469h5.838Zm-11.677,0h-5.838v-2.469h5.838Zm-11.676,0h-5.839v-2.469h5.839Zm-11.677,0h-5.838v-2.469h5.838Zm-11.677,0h-5.838v-2.469h5.838Zm-11.677,0h-5.838v-2.469h5.838Zm-11.677,0h-5.838v-2.469h5.838Zm-11.676,0h-5.838v-2.469h5.839Zm-11.677,0h-5.838v-2.469h5.838Z" transform="translate(4699.595 -112.279)"/><rect class="c" width="24.196" height="88.882" transform="translate(91.844 158.115)"/><rect class="d" width="24.196" height="88.882" transform="translate(96.289 158.115)"/><rect class="c" width="24.196" height="151.593" transform="translate(149.124 95.404)"/><rect class="d" width="24.196" height="151.593" transform="translate(153.568 95.404)"/><rect class="c" width="24.196" height="214.303" transform="translate(206.403 32.693)"/><rect class="d" width="24.196" height="214.303" transform="translate(210.847 32.693)"/><circle class="c" cx="5.925" cy="5.925" r="5.925" transform="translate(13.826 27.262)"/><circle class="c" cx="5.925" cy="5.925" r="5.925" transform="translate(13.826 89.972)"/><circle class="c" cx="5.925" cy="5.925" r="5.925" transform="translate(13.826 152.683)"/><rect class="e" width="438.483" height="1.106" transform="translate(0 246.443)"/><circle class="c" cx="16.807" cy="16.807" r="16.807" transform="translate(356.666 12.719)"/><path class="f" d="M-3932.389,408.156l-.908,5.451s-5,18.624,1.363,17.715,4.088-16.807,4.088-16.807l.909-5Z" transform="translate(4265.207 -268.021)"/><path class="c" d="M-3855.024,345.544h-36.794s-10.448,16.353-6.359,44.97,2.271,92.666,2.271,92.666h14.082l9.539-100.388L-3852.3,483.18l13.173-1.362-7.268-115.833Z" transform="translate(4243.941 -231.073)"/><path class="c" d="M-3885.343,677.447l-.454,16.807s-5.905,16.807,2.725,14.99,9.539-5.451,9.539-6.814-2.271-24.983-2.271-24.983Z" transform="translate(4237.239 -426.93)"/><path class="c" d="M-3772,674.331l2.6,17.974s8.006,15.914-.786,15.216-10.158-4.186-10.333-5.538-.943-26.431-.943-26.431Z" transform="translate(4174.505 -425.091)"/><circle class="f" cx="12.265" cy="12.265" r="12.265" transform="translate(361.435 21.577)"/><path class="f" d="M-3823.6,161.584l5,17.261-9.994,9.993-5.451-9.539-1.817-13.628Z" transform="translate(4206.608 -122.519)"/><path class="b" d="M-3839.226,183.88s-.668-4.582-2.151-4.108-14.656,3.653-14.656,5.016v5.905l-10.9,42.245-2.726,17.262,28.617-.455,4.543-59.96Z" transform="translate(4226.553 -133.231)"/><path class="c" d="M-3819.109,178.207l3.18.908,5.224,5.224s12.719-2.271,14.535,3.634-9.993,79.493-9.993,79.493-19.987,6.814-23.167-10.448-2.952-32.025,3.407-42.926S-3819.109,178.207-3819.109,178.207Z" transform="translate(4203.938 -132.328)"/><path class="c" d="M-3873.6,188.1l-1.812.943-1.59,7.041s-13.173,3.634-14.082,8.63.455,32.252.455,32.252-12.719,25.892-10.448,36.794c0,0,5.451,4.542,9.539-1.363s14.082-41.337,14.536-43.608S-3871.564,188.743-3873.6,188.1Z" transform="translate(4245.255 -138.163)"/><path class="c" d="M-3904.664,224.2l-4.864,1.319-3.312,9.583-6.814,24.529-13.173,40.428,9.085,4.088,14.536-29.526Z" transform="translate(4263.828 -159.466)"/><path class="c" d="M-3837.983,126.651c-7.81-2.817-10.452-4.547-19.078,0l-3.18-12.719h25.438Z" transform="translate(4220.995 -94.399)"/><circle class="c" cx="9.539" cy="9.539" r="9.539" transform="translate(362.571 2.271)"/><path class="g" d="M-3861.549,75.818a9.532,9.532,0,0,1,9.085-9.516c-.152-.007-.3-.023-.454-.023a9.539,9.539,0,0,0-9.539,9.539,9.539,9.539,0,0,0,9.539,9.539c.153,0,.3-.016.454-.023A9.531,9.531,0,0,1-3861.549,75.818Z" transform="translate(4222.303 -66.279)"/><rect class="h" width="35.431" height="15.077" transform="translate(353.366 141.77)"/><rect class="i" width="35.431" height="15.077" transform="translate(353.366 141.77)"/><circle class="j" cx="4.146" cy="4.146" r="4.146" transform="translate(366.936 145.162)"/><path class="j" d="M-3867.8,427.718h-6.785V414.9h7.161v.754h-6.408v11.308h6.031Z" transform="translate(4229.459 -272.002)"/><path class="j" d="M-3805.813,427.718h-6.785v-.754h6.031V415.657h-6.407V414.9h7.161Z" transform="translate(4193.103 -272.002)"/><rect class="a" width="35.431" height="15.077" transform="translate(350.562 153.752) rotate(-17.341)"/><circle class="j" cx="4.146" cy="4.146" r="4.146" transform="translate(365.573 151.522)"/><path class="j" d="M-3870.477,450.052l-6.476,2.022-3.82-12.233,6.836-2.135.225.719-6.117,1.91,3.371,10.794,5.757-1.8Z" transform="translate(4233.11 -285.459)"/><path class="j" d="M-3811.306,431.575l-6.476,2.023-.225-.72,5.756-1.8-3.371-10.794-6.116,1.91-.225-.72,6.836-2.135Z" transform="translate(4198.407 -274.622)"/><path class="f" d="M-3811.88,387.38l-2.079,5.12s-5.492,18.484-10.435,14.381,5.315-16.46,5.315-16.46l1.842-4.733Z" transform="translate(4200.636 -254.762)"/><path class="c" d="M-3797.129,203.4l6.36-1.362a66.566,66.566,0,0,1,2.192,8.176c.909,4.543-.493,40.428-1.4,44.062s-17.381,27.847-17.381,27.847l-14.824-3.216,21.422-32.353Z" transform="translate(4198.538 -146.388)"/><path class="j" d="M-3796.406,261.685l-3.95,21.727-14.813,30.121,13.332-31.6Z" transform="translate(4194.399 -181.588)"/></g></svg>