<svg xmlns="http://www.w3.org/2000/svg" xmlns:xlink="http://www.w3.org/1999/xlink" width="427.766" height="363.273" viewBox="0 0 427.766 363.273"><defs><style>.a{fill:#e74c3c;}.b,.c{fill:#222;}.b{opacity:0.5;}.d{fill:#535461;}.e,.m{opacity:0.1;}.e{isolation:isolate;}.f{fill:#fff;}.g{opacity:0.2;}.h{fill:url(#a);}.i{fill:#ffb9b9;}.j{fill:#cbcdda;}.k{fill:#4c4c78;}.l{fill:none;stroke:blue;stroke-miterlimit:10;stroke-width:0.959px;}</style><linearGradient id="a" x1="-2.245" y1="-6.348" x2="-2.245" y2="-5.348" gradientUnits="objectBoundingBox"><stop offset="0" stop-color="gray" stop-opacity="0.251"/><stop offset="0.54" stop-color="gray" stop-opacity="0.122"/><stop offset="1" stop-color="gray" stop-opacity="0.102"/></linearGradient></defs><circle class="a" cx="181.636" cy="181.636" r="181.636" transform="translate(0)"/><g transform="translate(64.952 60.743)"><path class="b" d="M-1799.307,776.826c-10.044-6.334-87.424-11.261-181.407-11.261s-171.362,4.928-181.407,11.261Z" transform="translate(2162.121 -488.038)"/><path class="c" d="M-1958.27,318.3l-.466.962-3.021,6.208-31.693,65.076-53.778,131.77-7.687.059,53.808-131.829,36.667-75.3,2.683,1.326,3.021,1.5Z" transform="translate(2102.293 -236.729)"/><path class="c" d="M-1743.06,522.371l-6.327-.059-53.782-131.77-30.858-63.368-3.852-7.916-.47-.962.47-.233,3.852-1.907,1.852-.915,36.116,75.3Z" transform="translate(1981.436 -236.729)"/><rect class="c" width="6.877" height="224.83" transform="translate(140.536 60.811)"/><path class="d" d="M-1849.171,191.377a8.758,8.758,0,0,0-8.75,8.75v3.127a8.754,8.754,0,0,0,8.56,8.945,8.755,8.755,0,0,0,8.945-8.56c0-.129,0-.257,0-.385v-3.127A8.763,8.763,0,0,0-1849.171,191.377Zm6.564,11.865a6.568,6.568,0,0,1-6.568,6.569,6.568,6.568,0,0,1-6.568-6.569v-3.127a6.568,6.568,0,0,1,6.568-6.568,6.568,6.568,0,0,1,6.568,6.568h0Z" transform="translate(1992.36 -167.606)"/><path class="e" d="M-1848.969,368.19h-7.11l-30.858-63.368V368.19h-6.873V303.115L-1925.5,368.19h-7.657l36.667-75.3,2.682,1.326V275.19h6.873v18.615l1.852-.915Z" transform="translate(2034.347 -214.378)"/><path class="e" d="M-1840.417,211.886V214.7a8.755,8.755,0,0,1-8.56,8.945,8.754,8.754,0,0,1-8.945-8.56c0-.129,0-.257,0-.385v-2.814h2.186V214.7a6.568,6.568,0,0,0,6.568,6.568,6.568,6.568,0,0,0,6.568-6.568v-2.814Z" transform="translate(1992.36 -179.051)"/><rect class="c" width="264.459" height="119.413" transform="translate(10.961 33.462)"/><rect class="f" width="254.454" height="108.786" transform="translate(15.652 37.212)"/><g class="g" transform="translate(40.781 49.039)"><rect class="a" width="12.03" height="5.479"/></g><g class="g" transform="translate(40.781 59.637)"><rect class="a" width="12.03" height="5.479"/></g><g class="g" transform="translate(40.781 70.231)"><rect class="a" width="12.03" height="5.479"/></g><g class="g" transform="translate(40.781 80.825)"><rect class="a" width="12.03" height="5.479"/></g><g class="g" transform="translate(40.781 91.423)"><rect class="a" width="12.03" height="5.479"/></g><g class="g" transform="translate(40.781 102.017)"><rect class="a" width="12.03" height="5.479"/></g><g class="g" transform="translate(40.781 112.611)"><rect class="a" width="12.03" height="5.479"/></g><g class="g" transform="translate(40.781 123.204)"><rect class="a" width="12.03" height="5.479"/></g><g class="g" transform="translate(63.43 128.688)"><rect class="a" width="12.03" height="5.479"/></g><g class="g" transform="translate(84.622 128.688)"><rect class="a" width="12.03" height="5.479"/></g><g class="g" transform="translate(105.81 128.688)"><rect class="a" width="12.03" height="5.479"/></g><g class="g" transform="translate(127.001 128.688)"><rect class="a" width="12.03" height="5.479"/></g><g class="g" transform="translate(148.189 128.688)"><rect class="a" width="12.03" height="5.479"/></g><g class="g" transform="translate(169.381 128.688)"><rect class="a" width="12.03" height="5.479"/></g><g class="g" transform="translate(190.568 128.688)"><rect class="a" width="12.03" height="5.479"/></g><g class="g" transform="translate(211.76 128.688)"><rect class="a" width="12.03" height="5.479"/></g><g class="g" transform="translate(232.948 128.688)"><rect class="a" width="12.03" height="5.479"/></g><rect class="a" width="12.03" height="34.341" transform="translate(63.43 88.864)"/><rect class="a" width="12.03" height="50.236" transform="translate(84.622 72.973)"/><rect class="a" width="12.03" height="63.571" transform="translate(105.81 59.637)"/><rect class="a" width="12.03" height="56.656" transform="translate(127.001 66.549)"/><rect class="a" width="12.03" height="68.686" transform="translate(148.189 54.523)"/><g class="g" transform="translate(169.381 80.825)"><rect class="a" width="12.03" height="42.379"/></g><g class="g" transform="translate(190.568 80.825)"><rect class="a" width="12.03" height="42.379"/></g><g class="g" transform="translate(211.76 80.825)"><rect class="a" width="12.03" height="42.379"/></g><g class="g" transform="translate(232.948 80.825)"><rect class="a" width="12.03" height="42.379"/></g><path class="d" d="M-1768.224,320.265l-103.014,6.339v2.009l105.209-4.174Z" transform="translate(1999.79 -239.533)"/><path class="h" d="M-1517.2,260.17s5.39-8.865,3.958-22.772-6.615-36.417-6.615-36.417,2.25-12.611-9.954-14.382c0,0-7.585-1.411-13.009-4.822a12.473,12.473,0,0,1-4.661-4.661s-.072.207-.212.589a6.682,6.682,0,0,1-.331-.589s-.03.076-.076.212l-2.072-3.229s-.284.3-.763.8a21.566,21.566,0,0,1-2.119-3.813,11.051,11.051,0,0,0,1.513-.483,2.967,2.967,0,0,0,1.233-.788,3.127,3.127,0,0,0,.56-1.394,16.938,16.938,0,0,0,.28-4.9,24.109,24.109,0,0,1-.284-3.835c.093-1.378.58-2.708.648-4.089a10.452,10.452,0,0,0-2.581-6.674c-.89-1.149-1.89-2.216-2.661-3.445-.67-1.068-1.157-2.245-1.877-3.284a11.339,11.339,0,0,0-7.42-4.343,26.4,26.4,0,0,0-8.784.288,73.081,73.081,0,0,1-7.628,1.187c-2.22.127-4.03-.623-6.064.848a5.863,5.863,0,0,0-2.364,4.237,2.241,2.241,0,0,0,.064.848,6.078,6.078,0,0,0,.423.826c.9,1.78-.47,3.894-.292,5.881a3.928,3.928,0,0,0,3.474,3.424c-.08.169-.169.335-.246.509a17.577,17.577,0,0,0,8.958,23.187,17.585,17.585,0,0,0,5.394,1.42l.788.606c1.78,1.377,3.78,3.025,5.708,4.818l-.038.03-.313-.178a16.934,16.934,0,0,1-1.848,1.271,17.274,17.274,0,0,1-7.9,2.674s-5.8,3.072-7.793,13.2c-2.865,2.568-9,7.2-17.1,8.411-11.386,1.7-25.425,2.25-25.425,2.25s-.114.2-.275.576l-1.3-.237a2.323,2.323,0,0,1-.055.424l-.508-.229c-4.021-1.758-12.056-4.322-13.073,2.742-1.364,9.475,7.67,8.386,7.67,8.386a42.083,42.083,0,0,1,5.479-1.665l.5-.1a2.8,2.8,0,0,0,.356.7h1.229a14.532,14.532,0,0,0,1.538,2.5l28.637-.627a30.065,30.065,0,0,1,9.411-.39c-1.97,14.73-4.3,30.883-4.3,30.883s-4.873,25.582-1.462,28.256a51.9,51.9,0,0,1,6.043-1.619,27.529,27.529,0,0,0,.5,4.708l2.182,14.285s.848,14.594,3.683,23.306l2.5,11.908,2.094,9,1.178,15.277a145.054,145.054,0,0,1,3.5,19.679c1.106,10.263,7.111,26.849,7.911,29.031-2.051,2.9-6.263,7.827-11.547,8.335-7.542.729-7.725,5.275-2.453,6.911s16.365,0,16.365,0l15.645-3.869c-.47,2.886-.716,5.166-.373,5.412,1,.729,16.183,4.661,16.73-1.636q.064-.78.114-1.513a32.033,32.033,0,0,0-1.589-11.908c-.123-.377-.233-.758-.331-1.14a7.048,7.048,0,0,0,.619-.8s1.093-17,1.911-23.094c.064-.487.106-1.081.127-1.75.377-7.305-2.288-26.522-2.288-26.522s-3.293-12.5-3.17-18.247a5.475,5.475,0,0,1,.242-1.407,1.56,1.56,0,0,0-.042-.3.812.812,0,0,1,.064-.242s-1.67-11.441-1.437-18.247a14.1,14.1,0,0,1,.424-3.008,19.8,19.8,0,0,0,.4-3.928c.212-4.661-.034-12.712-.373-20.264.038-.127.076-.254.106-.4a3.944,3.944,0,0,0-.208-1.78c-.026-.487-.047-.97-.072-1.45.14-.479.254-.987.356-1.513h.221v.03s14.246-.682,17.522-4.5c0,0-3.309-10.285-5.144-18.645Zm-61.393-31.989-.224-.081c.36-1.271.788-2.75,1.271-4.3C-1577.958,225.477-1578.314,227-1578.594,228.181Zm14.458-42.159.064.059-.068-.038Zm17.8,220.571c-.767-2.64-3.814-13.4-3.716-18.535a5.223,5.223,0,0,1,.233-1.314,9.815,9.815,0,0,0,.424-2.869c.305-5.356-1.746-14.954-1.746-14.954s-4.589-12.946-4.238-23.226c0-.259.03-.517.047-.776.076-.974.135-2.03.178-3.144v-.021c.174-3.97.136-8.75.021-13.208l-.025-.165c-.157-5.9-.45-11.217-.572-13.319.424,3.038,3.136,21.951,4.305,25.044a63.516,63.516,0,0,0,3.547,16.1l3.187,19.179s.818,22.823,2.178,29.277c.61,2.873,1.127,4.81,1.513,6.072-.551,2.573-1.441,6.882-2.038,10.45-.352-2.327-1.589-11.192-3.293-14.594Z" transform="translate(1870.731 -137.588)"/><path class="c" d="M-1482.7,743.715s-5.318,9.64-12.8,10.36-7.657,5.225-2.432,6.848,16.221,0,16.221,0l15.678-3.873s-1.894-15.5-4.415-16.311S-1482.7,743.715-1482.7,743.715Z" transform="translate(1793.468 -474.121)"/><path class="c" d="M-1419.629,746.6s-3.966,17.84-2.966,18.564,16.039,4.594,16.581-1.623q.064-.784.115-1.5a31.81,31.81,0,0,0-1.576-11.8,9.445,9.445,0,0,1-.61-3.64C-1407.836,744.081-1419.629,746.6-1419.629,746.6Z" transform="translate(1749.51 -476.831)"/><path class="i" d="M-1464.7,209.6s-12.166,29.883-10,20.285c1.432-6.356-7.827-14.8-14.23-19.763-3.259-2.543-5.776-4.157-5.776-4.157s22.84-26.629,21.221-15.14a17.3,17.3,0,0,0,1.246,9.271A24.3,24.3,0,0,0-1464.7,209.6Z" transform="translate(1789.662 -165.691)"/><path class="i" d="M-1622.8,318.951a6.966,6.966,0,0,0-2.784.174,41.829,41.829,0,0,0-5.428,1.648s-8.954,1.081-7.6-8.31c1-7,8.967-4.458,12.954-2.721,1.356.6,2.254,1.1,2.254,1.1Z" transform="translate(1870.05 -232.592)"/><path class="e" d="M-1606.794,321.371a6.965,6.965,0,0,0-2.783.174c-.975-2.458-.233-8.285-.077-9.382,1.356.6,2.254,1.1,2.254,1.1Z" transform="translate(1854.044 -235.012)"/><path class="j" d="M-1606.081,312.174l-2.344-.423s-1.2,8.051.369,10.17h2.695Z" transform="translate(1853.369 -234.782)"/><path class="k" d="M-1514.6,343.919s-7.161-4.284-8.018,1.123-1.983,14.645-1.983,14.645l-1.983,11.759-2.568,23.561.36,4.008s7.627-2.568,9.416-1.665,3.246-9.912,3.246-9.912l2.966-11.174.45-23.7Z" transform="translate(1808.883 -251.835)"/><path class="c" d="M-1514.6,343.919s-7.161-4.284-8.018,1.123-1.983,14.645-1.983,14.645l-1.983,11.759-2.568,23.561.36,4.008s7.627-2.568,9.416-1.665,3.246-9.912,3.246-9.912l2.966-11.174.45-23.7Z" transform="translate(1808.883 -251.835)"/><path class="k" d="M-1561.923,283.148s-7.433,8.382-18.717,10.068-25.209,2.233-25.209,2.233a12.215,12.215,0,0,0,1.555,12.975l28.391-.627s6.284-1.364,11.153,0Z" transform="translate(1852.348 -218.82)"/><path class="c" d="M-1561.923,283.148s-7.433,8.382-18.717,10.068-25.209,2.233-25.209,2.233a12.215,12.215,0,0,0,1.555,12.975l28.391-.627s6.284-1.364,11.153,0Z" transform="translate(1852.348 -218.82)"/><path class="l" d="M-1644.566,360.987" transform="translate(1873.293 -262.259)"/><path class="e" d="M-1473.443,199.835c-2.771,5.933-7.589,10.306-14.577,10.306-.309,0-.61,0-.911-.021-3.259-2.543-5.776-4.157-5.776-4.157s22.84-26.629,21.221-15.14C-1473.986,194.339-1474.558,197.2-1473.443,199.835Z" transform="translate(1789.662 -165.691)"/><path class="i" d="M-1484.161,175.539a17.412,17.412,0,0,1-17.425,17.4,17.412,17.412,0,0,1-17.4-17.424,17.412,17.412,0,0,1,17.416-17.4,17.374,17.374,0,0,1,17.408,17.34Z" transform="translate(1803.211 -149.043)"/><path class="j" d="M-1467.247,325.933s-38.833,3.428-40.257-1.53,3.962-18.382,3.962-18.382l-1.755-18.743-.063-.716s4.864-20.277,4.687-21.895c-.17-1.458,7.831-18.472,9.475-21.951.195-.4.3-.623.3-.623l.31.178.135.08,1.9,1.11,7.513-1.78,9.056-4.742.847,51.872Z" transform="translate(1796.938 -193.033)"/><path class="e" d="M-1473.729,249.908a3.094,3.094,0,0,0-3.7,1.937,27.484,27.484,0,0,1-1.441,3.335l-1.034,6.17-1.894,9.746-1.4,43.117.632,7.657,3.471-6.17.631-40.3v-5.013a36.29,36.29,0,0,1,2.89-12.585l.483-1.132,3.017-3.877Z" transform="translate(1783.236 -200.22)"/><path class="c" d="M-1474.947,248.68a3.092,3.092,0,0,0-3.695,1.936,27.391,27.391,0,0,1-1.445,3.335l-1.034,6.174-1.894,9.746-1.394,43.116.631,7.661,3.47-6.191.632-40.278v-5.026a36.492,36.492,0,0,1,2.89-12.585l.487-1.131,3.017-3.873Z" transform="translate(1783.916 -199.535)"/><path class="e" d="M-1453.016,223.613s-9.191,9.746-12.437,10.9c0,0,1.623,7.391,3.246,8.831,0,0,9.645-9.835,11.352-10.632l1.432-3.5Z" transform="translate(1773.337 -185.596)"/><path class="j" d="M-1453.016,222.357s-9.191,9.747-12.437,10.9c0,0,1.623,7.391,3.246,8.831,0,0,9.645-9.835,11.352-10.632l1.432-3.5Z" transform="translate(1773.337 -184.895)"/><path class="e" d="M-1487.353,248.6l-.094.254-2.945,7.894-5.267,14.9s-.047.152-.14.424c-.873,2.712-5.564,17.429-6.488,21.7l-.063-.716s4.864-20.277,4.687-21.9c-.17-1.458,7.831-18.471,9.475-21.951.263-.178.466-.33.606-.445Z" transform="translate(1793.927 -199.54)"/><path class="c" d="M-1503.929,248.591l-3.043,8.153-5.267,14.9s-.047.152-.14.424c-.924,2.89-6.191,19.386-6.615,22.4-.479,3.314-7.1,21.226-7.1,21.226l-3.784,31.014c-3.39-2.631,1.423-27.968,1.423-27.968s5.407-37.574,6.687-50.075,8.182-16.153,8.182-16.153a17.262,17.262,0,0,0,7.827-2.649A16.594,16.594,0,0,0-1503.929,248.591Z" transform="translate(1809.966 -199.535)"/><path class="e" d="M-1456.7,544.765c-.809,6.038-1.89,22.882-1.89,22.882-3.784,5.674-12.166,2.611-12.166,2.611s-.9-1.695-2.25-8.11-2.161-29.015-2.161-29.015l-3.157-18.984a62.746,62.746,0,0,1-3.513-15.95c-1.271-3.335-4.327-25.23-4.327-25.23s1.271,19.641.453,30.006,4.14,24.311,4.14,24.311,2.8,13.068,1.352,17.124,3.606,20.81,3.606,20.81c-.424,4.869-14.772,2.886-14.772,2.886s-6.75-18.115-7.932-29.018a144.178,144.178,0,0,0-3.471-19.493l-1.17-15.141-2.076-8.95-2.475-11.8c-2.8-8.649-3.649-23.111-3.649-23.111l-2.165-14.191c-1.416-7.018.423-15.255,1.644-19.565.53-1.869.953-3.009.953-3.009,1.242.882,8.352,1.915,12.03,2.755a21.105,21.105,0,0,0,6.144.491,136.938,136.938,0,0,0,27.455-5.034c.606-.182.928-.288.928-.288l.191,1.623.449,3.865.8,6.861s2.432,36.582.992,41.528.992,21.611.992,21.611c-1.352,3.954,2.881,20.022,2.881,20.022S-1455.885,538.727-1456.7,544.765Z" transform="translate(1800.894 -296.168)"/><path class="c" d="M-1456.7,543.593c-.809,6.039-1.89,22.883-1.89,22.883-3.784,5.678-12.166,2.61-12.166,2.61s-.9-1.695-2.25-8.106-2.161-29.018-2.161-29.018l-3.157-19.01a63.878,63.878,0,0,1-3.513-15.971c-1.271-3.335-4.327-25.23-4.327-25.23s1.271,19.641.453,30.006,4.14,24.327,4.14,24.327,2.8,13.068,1.352,17.124,3.606,20.815,3.606,20.815c-.424,4.865-14.772,2.881-14.772,2.881s-6.75-18.094-7.932-29a144.173,144.173,0,0,0-3.471-19.492l-1.17-15.136-2.076-8.92-2.475-11.8c-2.8-8.653-3.649-23.116-3.649-23.116l-2.165-14.191c-1.416-7.018.423-15.255,1.644-19.565.53-1.865.953-3,.953-3,1.242.881,8.352,1.911,12.03,2.75a20.935,20.935,0,0,0,6.144.492,136.938,136.938,0,0,0,27.455-5.034l.928-.284.191,1.619.449,3.869.8,6.861s2.432,36.578.992,41.528.992,21.611.992,21.611c-1.352,3.95,2.881,20.019,2.881,20.019S-1455.885,537.546-1456.7,543.593Z" transform="translate(1800.894 -295.526)"/><path class="e" d="M-1482.251,175.556a17.374,17.374,0,0,1-2.305,8.678,9.111,9.111,0,0,1-7.628-1.843c-1.39-1.225-2.288-2.9-3.483-4.318a26.213,26.213,0,0,0-2.488-2.454,7.88,7.88,0,0,0-1.962-1.428,2.664,2.664,0,0,0-2.352-.026c-.958.534-1.271,1.725-1.826,2.674a3.572,3.572,0,0,1-2,1.742,2.119,2.119,0,0,1-2.386-.809c-.589-1.013-.157-2.593-1.144-3.212a6.29,6.29,0,0,0-.805-.331c-1.271-.576-1.42-2.284-1.53-3.683a2.3,2.3,0,0,0-.78-1.831,3.6,3.6,0,0,0-2.022-.169,2.626,2.626,0,0,1-.606-.047,17.412,17.412,0,0,1,22.977-8.856,17.412,17.412,0,0,1,10.351,15.911Z" transform="translate(1801.301 -149.06)"/><path class="c" d="M-1520.956,143.038a5.814,5.814,0,0,0-2.343,4.212,2.162,2.162,0,0,0,.064.826,5.543,5.543,0,0,0,.424.822c.889,1.767-.471,3.86-.3,5.831a3.878,3.878,0,0,0,3.814,3.39c.686,0,1.441-.2,2.021.169a2.29,2.29,0,0,1,.78,1.831c.11,1.4.25,3.106,1.526,3.683a7.084,7.084,0,0,1,.805.331c.991.619.559,2.2,1.148,3.212a2.119,2.119,0,0,0,2.386.809,3.558,3.558,0,0,0,1.991-1.737c.547-.954.873-2.119,1.83-2.674a2.653,2.653,0,0,1,2.352.021,7.932,7.932,0,0,1,1.962,1.432,25.7,25.7,0,0,1,2.487,2.454c1.2,1.416,2.094,3.089,3.483,4.314,2.618,2.3,6.627,2.542,9.857,1.216a2.994,2.994,0,0,0,1.224-.78,3.113,3.113,0,0,0,.555-1.386,16.811,16.811,0,0,0,.28-4.852,24.082,24.082,0,0,1-.284-3.814c.089-1.365.576-2.683.644-4.047a10.426,10.426,0,0,0-2.543-6.619c-.881-1.14-1.873-2.2-2.636-3.416-.665-1.059-1.148-2.225-1.86-3.25a11.206,11.206,0,0,0-7.356-4.31,26.154,26.154,0,0,0-8.7.288,70.73,70.73,0,0,1-7.576,1.174C-1517.147,142.326-1518.939,141.576-1520.956,143.038Z" transform="translate(1805.627 -139.188)"/><path class="e" d="M-1480.3,248.591l-3.043,8.153-5.267,14.9s-.047.152-.14.424v.021l6.628-22.23A16.619,16.619,0,0,0-1480.3,248.591Z" transform="translate(1786.34 -199.535)"/><path class="i" d="M-1407.1,454.824s.314,9.865-2.343,12.344l-7.072-13.335,5.933-2.885Z" transform="translate(1746.025 -312.462)"/><path class="e" d="M-1416.81,334.663c-3.246,3.784-17.374,4.462-17.374,4.462l-13.984-22.035s-3.309-2.3-9.526-12.641-6.013-18.31-5.665-24.26,4.237-23.047,4.237-23.047c.606-3.848,9.323-27.968,9.323-27.968a12.388,12.388,0,0,0,4.61,4.611c5.382,3.39,12.9,4.78,12.9,4.78,12.1,1.758,9.869,14.259,9.869,14.259s.136,48.592-.61,54.405S-1416.81,334.663-1416.81,334.663Z" transform="translate(1772.248 -188.699)"/><path class="j" d="M-1406.059,456.714l-.407,3.606-4.911-1.8-3.6-5.454,2.7-2.119Z" transform="translate(1745.169 -312.462)"/><path class="e" d="M-1459.234,426.154l-2.568.262-24.76,2.475a40.1,40.1,0,0,1-11.907-.585l-11.484-2.3c.53-1.865.953-3,.953-3,1.242.881,8.352,1.911,12.031,2.75a20.952,20.952,0,0,0,6.144.491,136.934,136.934,0,0,0,27.455-5.034l1.119,1.335Z" transform="translate(1798.171 -295.869)"/><g class="m" transform="translate(289.167 125.069)"><path d="M-1507.543,425.4a2.377,2.377,0,0,1-.237-.136.131.131,0,0,1-.025.064Z" transform="translate(1507.805 -423.201)"/><path d="M-1403.215,516.095s-4.238-16.069-2.881-20.018c0,0-2.433-16.654-.988-21.611s-1-41.528-1-41.528l-.8-6.86-.449-3.869-.186-1.618-.932.284-.576.169.072.628.449,3.864.8,6.861s2.432,36.582,1,41.528.987,21.612.987,21.612c-1.352,3.954,2.881,20.018,2.881,20.018s2.966,21.45,2.166,27.484-1.894,22.883-1.894,22.883c-2.763,4.148-7.979,3.632-10.594,3.051l.046.1s8.382,3.068,12.166-2.61c0,0,1.081-16.853,1.894-22.883S-1403.215,516.095-1403.215,516.095Z" transform="translate(1456.104 -420.59)"/><path d="M-1450.741,607.2c1.441-4.055-1.351-17.124-1.351-17.124s-4.954-13.984-4.144-24.328c.339-4.318.318-10.242.174-15.679-1.148-7.013-2.25-14.831-2.25-14.831s1.271,19.641.458,30,4.14,24.332,4.14,24.332,2.8,13.064,1.352,17.119,3.6,20.794,3.6,20.794c-.36,3.9-9.619,3.39-13.293,3.051l.14.373s14.327,1.983,14.776-2.882C-1447.134,628.016-1452.181,611.256-1450.741,607.2Z" transform="translate(1482.276 -484.571)"/></g><path class="c" d="M-1415.6,334.663c-3.242,3.784-17.374,4.462-17.374,4.462l-13.984-22.035s-3.31-2.3-9.53-12.641-6.009-18.31-5.666-24.26,4.237-23.047,4.237-23.047c.606-3.848,9.323-27.968,9.323-27.968a12.326,12.326,0,0,0,4.61,4.611c5.382,3.39,12.895,4.78,12.895,4.78,12.1,1.758,9.865,14.259,9.865,14.259s.135,48.592-.61,54.405S-1415.6,334.663-1415.6,334.663Z" transform="translate(1771.572 -188.699)"/><path class="e" d="M-1445.818,241.117l-3.043,1.131,2.026,1.419-15.128,36.494c.352-5.933,4.238-23.048,4.238-23.048.606-3.848,9.323-27.968,9.323-27.968a12.327,12.327,0,0,0,4.61,4.61Z" transform="translate(1771.389 -188.683)"/><path class="e" d="M-1417.175,398.3l15.476-3.987,2.03,6.284-15.814,3.856Z" transform="translate(1746.395 -280.859)"/><path class="e" d="M-1408.413,260.909s-7.03,6.615-4.377,21.357,6.894,30.747,6.894,30.747l-11.441,31.7s7.975,8.314,11.895,9.323l11.42-25.345s5.339-8.784,3.92-22.569-6.555-36.091-6.555-36.091S-1396.655,256.451-1408.413,260.909Z" transform="translate(1746.486 -205.908)"/><path class="c" d="M-1407.217,260.909s-7.034,6.615-4.39,21.357,6.89,30.747,6.89,30.747l-11.441,31.7s7.975,8.314,11.894,9.323l11.442-25.345s5.339-8.784,3.92-22.569-6.556-36.091-6.556-36.091S-1395.458,256.451-1407.217,260.909Z" transform="translate(1745.827 -205.908)"/><path class="e" d="M-1417.457,453.122s8.92,12.348,8.246,15.637-3.288,1.53-3.288,1.53l-3.513-4.818-3.157-9.013S-1418.86,452.566-1417.457,453.122Z" transform="translate(1747.508 -313.645)"/><path class="e" d="M-1419.9,453.122s8.9,12.348,8.247,15.637-3.288,1.53-3.288,1.53l-3.517-4.818-3.153-9.013S-1421.3,452.566-1419.9,453.122Z" transform="translate(1748.872 -313.645)"/><path class="c" d="M-1418.675,453.122s8.9,12.348,8.242,15.637-3.288,1.53-3.288,1.53l-3.513-4.818-3.153-9.013S-1420.082,452.566-1418.675,453.122Z" transform="translate(1748.187 -313.645)"/></g></svg>