<svg xmlns="http://www.w3.org/2000/svg" width="459.102" height="332.064" viewBox="0 0 459.102 332.064"><defs><style>.a{fill:#e74c3c;}.b{fill:#f2f2f2;}.c{fill:#3f3d56;}.d{fill:#222;}.e{fill:#ffb8b8;}.f{fill:#d0cde1;}</style></defs><path class="a" d="M338.153,203.829A165.6,165.6,0,0,1,287.114,323.61V145.029H64.1V330.014A166.078,166.078,0,1,1,338.153,203.829Z" transform="translate(-6.001 -37.753)"/><g transform="translate(38.652)"><path class="b" d="M359.668,278.809V457.39a166.085,166.085,0,0,1-223.019,6.4V278.809Z" transform="translate(-117.207 -171.62)"/><path class="c" d="M208.385,398.564a139.536,139.536,0,0,1,36.033-6.424,112.745,112.745,0,0,1,18.373.719,114.947,114.947,0,0,1,17.832,3.817c5.764,1.669,11.447,3.6,17.192,5.329a160.405,160.405,0,0,0,17.767,4.335,150.638,150.638,0,0,0,18.053,2.152,109.915,109.915,0,0,0,18.031-.222,55.159,55.159,0,0,0,16.223-4.112,49.541,49.541,0,0,0,13.194-8.462q1.468-1.31,2.824-2.736c.534-.558-.313-1.406-.848-.848a49.558,49.558,0,0,1-28.587,14.6,95.279,95.279,0,0,1-17.975.721,147.917,147.917,0,0,1-18.271-1.846,152.793,152.793,0,0,1-17.7-4.028c-5.71-1.655-11.343-3.562-17.034-5.282A128.13,128.13,0,0,0,265.96,392.1a110.252,110.252,0,0,0-17.992-1.249,137.58,137.58,0,0,0-35.56,5.266q-2.18.612-4.34,1.292c-.734.23-.421,1.388.318,1.156Z" transform="translate(-156.636 -233.836)"/><path class="c" d="M208.385,466.874a139.534,139.534,0,0,1,36.033-6.424,112.786,112.786,0,0,1,18.373.719,114.906,114.906,0,0,1,17.832,3.818c5.764,1.668,11.447,3.6,17.192,5.329a160.317,160.317,0,0,0,17.767,4.335,150.638,150.638,0,0,0,18.053,2.152,109.908,109.908,0,0,0,18.031-.222,55.158,55.158,0,0,0,16.223-4.112,49.54,49.54,0,0,0,13.194-8.462q1.468-1.31,2.824-2.736c.534-.558-.313-1.407-.848-.848a49.558,49.558,0,0,1-28.587,14.6,95.294,95.294,0,0,1-17.975.721,147.917,147.917,0,0,1-18.271-1.846,152.692,152.692,0,0,1-17.7-4.028c-5.71-1.655-11.343-3.562-17.034-5.282a128.131,128.131,0,0,0-17.537-4.178,110.262,110.262,0,0,0-17.992-1.249,137.561,137.561,0,0,0-35.56,5.266q-2.18.612-4.34,1.292c-.734.23-.421,1.388.318,1.156Z" transform="translate(-156.636 -271.771)"/><path class="c" d="M208.385,336.546a139.521,139.521,0,0,1,36.033-6.424,112.8,112.8,0,0,1,18.373.719,114.892,114.892,0,0,1,17.832,3.818c5.764,1.669,11.447,3.6,17.192,5.329a160.408,160.408,0,0,0,17.767,4.336,150.632,150.632,0,0,0,18.053,2.152,110.01,110.01,0,0,0,18.031-.222,55.162,55.162,0,0,0,16.223-4.113,49.549,49.549,0,0,0,13.194-8.462q1.468-1.311,2.824-2.736c.534-.558-.313-1.407-.848-.848a49.558,49.558,0,0,1-28.587,14.6,95.246,95.246,0,0,1-17.975.721,147.917,147.917,0,0,1-18.271-1.846,152.61,152.61,0,0,1-17.7-4.028c-5.71-1.654-11.343-3.562-17.034-5.282a128.265,128.265,0,0,0-17.537-4.178,110.31,110.31,0,0,0-17.992-1.249,137.581,137.581,0,0,0-35.56,5.266q-2.18.612-4.34,1.292c-.734.23-.421,1.388.318,1.157Z" transform="translate(-156.636 -199.395)"/><path class="c" d="M204.947,226.305c2.9-1.286,6.224-1.061,9.235-.316,3.246.8,6.3,2.2,9.5,3.167a32.881,32.881,0,0,0,17.577.333,32.391,32.391,0,0,0,9.2-3.946c.652-.41.051-1.447-.6-1.035a31.772,31.772,0,0,1-16.914,4.822,31.036,31.036,0,0,1-8.854-1.3c-3.172-.951-6.2-2.332-9.418-3.151a15.78,15.78,0,0,0-10.329.394c-.7.312-.095,1.346.605,1.036Z" transform="translate(-154.626 -141.295)"/><circle class="d" cx="18.385" cy="18.385" r="18.385" transform="translate(121.024 232.092)"/><circle class="b" cx="9.992" cy="9.992" r="9.992" transform="translate(73.717 4.279)"/><circle class="b" cx="6.794" cy="6.794" r="6.794" transform="translate(164.443 35.853)"/><circle class="b" cx="6.794" cy="6.794" r="6.794" transform="translate(54.134 101)"/><rect class="c" width="0.749" height="133.988" transform="translate(32.823 57.319)"/><ellipse class="d" cx="14.611" cy="33.342" rx="14.611" ry="33.342" transform="translate(18.732 113.139)"/><ellipse class="d" cx="14.611" cy="33.342" rx="14.611" ry="33.342" transform="translate(18.732 37.089)"/><path class="c" d="M138.325,92.172l-.718-.215c.045-.151,4.45-15.246-2.782-24.963-4.085-5.488-11.1-8.271-20.835-8.271v-.749c9.991,0,17.2,2.885,21.438,8.576C142.884,76.571,138.371,92.017,138.325,92.172Z" transform="translate(-104.623 -48.982)"/><circle class="d" cx="9.366" cy="9.366" r="9.366"/><path class="d" d="M814.023,583.824l-8.239,75.8h56.851l2.472-5.767,3.3,5.767h53.555s-4.12-78.273-11.535-80.745S814.023,583.824,814.023,583.824Z" transform="translate(-543.545 -327.561)"/><ellipse class="e" cx="28.837" cy="28.837" rx="28.837" ry="28.837" transform="translate(290.253 32.155)"/><path class="e" d="M892.4,201.935s2.472,26.365,0,28.014,39.549.824,39.549.824-5.768-23.894,0-35.429Z" transform="translate(-589.788 -122.817)"/><path class="f" d="M858.856,253.517s21.2,3.3,22.959-3.293l10.822,14.827.824,148.307s-88.16,10.711-91.455-6.591,33.781-154.074,33.781-154.074l9.334-.6S857.209,253.517,858.856,253.517Z" transform="translate(-541.414 -152.152)"/><path class="d" d="M807.433,239.693l-14.137,4.9-40.372,9.887,1.648,98.871s-34.6,98.872-18.95,106.287,37.9-9.887,44.492-22.246,29.661-183.736,29.661-187.032S807.433,239.693,807.433,239.693Z" transform="translate(-503.867 -146.523)"/><path class="d" d="M969.923,239.693l5.584,4.9,39.549,18.127-19.774,99.7s26.366,90.632,16.478,95.576-24.717,18.95-28.013,10.711S961.043,248.8,969.923,239.693Z" transform="translate(-630.051 -146.523)"/><path class="e" d="M978.2,514.234s-37.077-15.654-37.9-1.648,42.02,23.894,42.02,19.774S978.2,514.234,978.2,514.234Z" transform="translate(-615.442 -289.281)"/><path class="e" d="M813.779,510.425s42.844,32.133,26.366,40.373-37.9-28.837-37.9-28.837Z" transform="translate(-541.652 -291.239)"/><path class="d" d="M901.816,78.551a1.591,1.591,0,0,1,1.53-.909c-13.2-.789-27.108.749-38.153,8.025-3.094,2.037-5.982,4.529-9.5,5.677l2.859,2.242-3.415,1.041,5.026,3.248a4.356,4.356,0,0,1-4.149,1.39,7.552,7.552,0,0,1,4.61,4.706,22.327,22.327,0,0,1,1.1,6.709c.844-3.277,4.421-5.207,7.8-5.4s6.674.919,9.962,1.72a55.112,55.112,0,0,0,21.875.842c-2.47,4.957-.387,10.87,1.71,16l4.187,10.236c2.324.234,3.968-2.078,5.719-3.624,1.6-1.409-4.758,10.985-3.774,10.532,1.278-.59,14.766-15.482,15.4-16.74a38.3,38.3,0,0,0,4.351-18.559,27.069,27.069,0,0,0-7.032-17.495c-3-3.161-7.158-3.715-10.219-6.342-1.205-1.034-1.21-1.842-2.865-2.445A48.281,48.281,0,0,0,901.816,78.551Z" transform="translate(-569.923 -59.801)"/><path class="d" d="M727.621,273.931l-5.768-2.472-46.14,75.8s-8.239,19.774,6.591,28.837,49.435,36.253,49.435,36.253l19.774-30.485s-40.372-18.951-37.9-26.366,15.654-27.19,15.654-27.19Z" transform="translate(-472.797 -163.503)"/><path class="d" d="M1025.7,285.62l10.711,1.648s44.492,87.337,33.781,103.815-54.379,39.549-54.379,39.549-.824-27.19-8.239-37.077l25.541-9.887-14.007-54.379Z" transform="translate(-651.411 -171.072)"/></g></svg>