<svg xmlns="http://www.w3.org/2000/svg" width="464.904" height="324.228" viewBox="0 0 464.904 324.228"><defs><style>.a{fill:#e74c3c;}.b{fill:#222;}.c{fill:#ddd;}.d{fill:#3f3d56;}</style></defs><g transform="translate(3720.406 -1742.699)"><circle class="a" cx="112.801" cy="112.801" r="112.801" transform="translate(-3502.146 1742.699)"/><rect class="a" width="155.446" height="105.902" transform="translate(-3582.023 1961.025)"/><path class="b" d="M-3417.908,1948.638h-152.967a1.862,1.862,0,0,0-1.859,1.859v103.424a1.859,1.859,0,0,0,1.859,1.859h152.967a1.859,1.859,0,0,0,1.859-1.859h0V1950.5A1.862,1.862,0,0,0-3417.908,1948.638Zm.62,105.283a.619.619,0,0,1-.616.62h-152.971a.619.619,0,0,1-.62-.616V1950.5a.621.621,0,0,1,.62-.619h152.967a.62.62,0,0,1,.62.619Z"/><rect class="b" width="69.982" height="8.051" rx="0.904" transform="translate(-3564.682 2021.717)"/><path class="b" d="M-3430.914,2014.906h-22.292a1.858,1.858,0,0,0-1.858,1.858h0V2034.1a1.858,1.858,0,0,0,1.858,1.858h22.292a1.858,1.858,0,0,0,1.858-1.858h0v-17.339a1.858,1.858,0,0,0-1.858-1.859Zm.619,19.2a.619.619,0,0,1-.619.619h-22.292a.619.619,0,0,1-.619-.619v-17.339a.617.617,0,0,1,.616-.62h22.295a.618.618,0,0,1,.619.616V2034.1Z"/><rect class="b" width="15.197" height="3.144" rx="0.904" transform="translate(-3449.658 2018.907)"/><rect class="b" width="15.197" height="3.144" rx="0.904" transform="translate(-3449.658 2023.861)"/><rect class="b" width="15.197" height="3.144" rx="0.904" transform="translate(-3449.658 2028.816)"/><rect class="b" width="32.204" height="13.625" rx="0.904" transform="translate(-3562.824 1956.071)"/><path class="a" d="M-3544.245,1962.883c0,2.395-1.109,4.336-2.478,4.336s-2.477-1.941-2.477-4.336,2.477-4.335,2.477-4.335S-3544.245,1960.489-3544.245,1962.883Z"/><path class="b" d="M-3312.485,1900.629h-.9v101.128h-102.659v.9h103.564Z"/><path class="b" d="M-3582.023,2002.661h-103.564V1900.629h.9v101.128h102.66Z"/><path class="b" d="M-3255.792,1844.538h-.58v-1.014h.435a.29.29,0,0,0,.29-.29v-5.217a.29.29,0,0,0-.29-.29h-.435v-2.962a6.311,6.311,0,0,0-6.311-6.312h-.644v-.724a.29.29,0,0,0-.29-.29h-5.217a.29.29,0,0,0-.29.29h0v.724h-94.255a6.312,6.312,0,0,0-6.311,6.312h0v134.314a6.312,6.312,0,0,0,6.311,6.311h100.7a6.31,6.31,0,0,0,6.311-6.311h0V1850.334h.58a.289.289,0,0,0,.29-.289v-5.217a.29.29,0,0,0-.29-.29Z"/><rect class="c" width="103.756" height="137.666" rx="0.861" transform="translate(-3364.474 1832.582)"/><rect class="d" width="17.799" height="5.275" rx="0.904" transform="translate(-3324.511 1900.05)"/><rect class="d" width="60.835" height="2.261" rx="0.904" transform="translate(-3346.029 1858.985)"/><rect class="d" width="60.835" height="2.261" rx="0.904" transform="translate(-3346.029 1866.143)"/><rect class="d" width="60.835" height="2.261" rx="0.904" transform="translate(-3346.029 1873.301)"/><rect class="d" width="60.835" height="2.261" rx="0.904" transform="translate(-3346.029 1880.459)"/><rect class="d" width="60.835" height="2.261" rx="0.904" transform="translate(-3346.029 1887.618)"/><circle class="a" cx="18.895" cy="18.895" r="18.895" transform="translate(-3336.66 1927.022)"/><path class="d" d="M-3312.2,1960.491a23.689,23.689,0,0,1-23.689-23.689,23.689,23.689,0,0,1,23.689-23.69,23.689,23.689,0,0,1,23.69,23.69h0A23.717,23.717,0,0,1-3312.2,1960.491Zm0-46.517a22.828,22.828,0,0,0-22.828,22.828,22.829,22.829,0,0,0,22.828,22.828,22.828,22.828,0,0,0,22.828-22.828h0A22.853,22.853,0,0,0-3312.2,1913.974Z"/><path class="b" d="M-3650.086,1867.2h-.775v-21.227a12.285,12.285,0,0,0-12.286-12.286h-44.973a12.285,12.285,0,0,0-12.286,12.286h0v116.456a12.285,12.285,0,0,0,12.286,12.286h44.973a12.285,12.285,0,0,0,12.286-12.286h0v-80.118h.775Z"/><path class="c" d="M-3653.477,1846.691v116.286a9.175,9.175,0,0,1-9.174,9.177h-45.19a9.175,9.175,0,0,1-9.174-9.177V1846.691a9.175,9.175,0,0,1,9.174-9.174h5.482a4.36,4.36,0,0,0,2.391,5.682,4.356,4.356,0,0,0,1.646.322h25.765a4.358,4.358,0,0,0,4.358-4.358,4.366,4.366,0,0,0-.322-1.646h5.87A9.176,9.176,0,0,1-3653.477,1846.691Z"/><rect class="d" width="12.106" height="3.587" rx="0.904" transform="translate(-3691.299 1906.027)"/><rect class="d" width="41.377" height="1.537" rx="0.769" transform="translate(-3705.935 1878.096)"/><rect class="d" width="41.377" height="1.537" rx="0.769" transform="translate(-3705.935 1882.964)"/><path class="d" d="M-3705.166,1887.833h39.84a.768.768,0,0,1,.768.769h0a.769.769,0,0,1-.768.769h-39.84a.769.769,0,0,1-.768-.769h0A.768.768,0,0,1-3705.166,1887.833Z"/><path class="d" d="M-3705.166,1892.7h39.84a.768.768,0,0,1,.768.769h0a.768.768,0,0,1-.768.768h-39.84a.768.768,0,0,1-.768-.768h0A.768.768,0,0,1-3705.166,1892.7Z"/><path class="d" d="M-3705.166,1897.571h39.84a.768.768,0,0,1,.768.768h0a.768.768,0,0,1-.768.769h-39.84a.768.768,0,0,1-.768-.769h0A.768.768,0,0,1-3705.166,1897.571Z"/><circle class="a" cx="13.03" cy="13.03" r="13.03" transform="translate(-3701.836 1930.344)"/><path class="d" d="M-3684.965,1953.425a16.337,16.337,0,0,1-16.337-16.337,16.337,16.337,0,0,1,16.337-16.338,16.337,16.337,0,0,1,16.337,16.337h0A16.356,16.356,0,0,1-3684.965,1953.425Zm0-32.081a15.743,15.743,0,0,0-15.743,15.744,15.743,15.743,0,0,0,15.743,15.743,15.743,15.743,0,0,0,15.743-15.743A15.761,15.761,0,0,0-3684.965,1921.344Z"/><rect class="c" width="12.663" height="12.663" transform="translate(-3653.698 1997.116)"/><path class="b" d="M-3633.347,2002.543h-15.376v-15.376h15.376Zm-14.708-.668h14.039v-14.039h-14.039Z"/><rect class="c" width="12.663" height="12.663" transform="translate(-3370.141 1997.116)"/><path class="b" d="M-3349.79,2002.543h-15.376v-15.376h15.376Zm-14.707-.668h14.039v-14.039H-3364.5Z"/></g></svg>