<svg xmlns="http://www.w3.org/2000/svg" width="436.089" height="334.51" viewBox="0 0 436.089 334.51"><defs><style>.a{fill:#e74c3c;}.b{fill:#e6e6e6;}.c{fill:#3f3d56;}.d{fill:#f2f2f2;}.e{fill:#222;}.f{opacity:0.1;isolation:isolate;}.g{fill:#2f2e41;}.h{fill:#a0616a;}</style></defs><g transform="translate(4213.06 -1737.559)"><circle class="a" cx="166.596" cy="166.596" r="166.596" transform="translate(-4213.06 1737.559)"/><path class="b" d="M-4064.035,1981.579c-1.711,0-3.432-.055-5.127-.162l.055-.854c1.678.107,3.383.161,5.068.161h.05v.856h-.046Zm5.222-.17-.056-.853c1.7-.111,3.412-.279,5.1-.5l.111.848C-4055.364,1981.128-4057.1,1981.3-4058.813,1981.409Zm-15.5-.49c-1.706-.221-3.425-.5-5.109-.834l.165-.84c1.666.329,3.367.607,5.055.825Zm25.762-.855-.166-.839c1.667-.33,3.345-.721,4.987-1.161l.221.827c-1.66.444-3.356.839-5.042,1.173Zm-35.915-1.146c-1.658-.442-3.325-.945-4.956-1.5l.274-.811c1.613.546,3.263,1.044,4.9,1.481Zm45.912-1.531-.275-.81c1.6-.545,3.214-1.152,4.783-1.8l.328.791C-4035.307,1976.222-4036.934,1976.836-4038.556,1977.387Zm-55.723-1.79c-1.587-.657-3.176-1.376-4.722-2.139l.379-.767c1.529.754,3.1,1.466,4.671,2.115Zm65.268-2.172-.379-.767c1.524-.753,3.041-1.566,4.509-2.416l.429.74C-4025.937,1971.841-4027.47,1972.664-4029.011,1973.425Zm-74.56-2.411c-1.489-.86-2.969-1.781-4.4-2.737l.475-.711c1.415.946,2.879,1.857,4.352,2.707Zm83.51-2.769-.477-.711c1.411-.944,2.81-1.948,4.159-2.985l.522.678C-4017.221,1966.276-4018.636,1967.291-4020.061,1968.245Zm-92.119-2.987c-1.363-1.046-2.71-2.151-4-3.285l.564-.643c1.28,1.122,2.612,2.215,3.961,3.25Zm100.323-3.317-.565-.643c1.277-1.122,2.535-2.3,3.737-3.5l.6.6C-4009.295,1959.616-4010.566,1960.807-4011.857,1961.941Zm-108.108-3.506c-1.216-1.215-2.408-2.485-3.542-3.776l.643-.564c1.121,1.276,2.3,2.533,3.5,3.735Zm115.426-3.812-.643-.565c1.122-1.278,2.217-2.61,3.253-3.959l.678.522C-4002.3,1951.984-4003.4,1953.33-4004.539,1954.623Zm-122.257-3.961c-1.048-1.362-2.064-2.776-3.021-4.2l.711-.477c.946,1.412,1.952,2.81,2.988,4.157Zm128.566-4.25-.711-.475c.947-1.415,1.859-2.878,2.711-4.351l.74.429C-3996.351,1943.5-3997.273,1944.983-3998.23,1946.412Zm-134.327-4.341c-.862-1.487-1.685-3.021-2.445-4.558l.766-.379c.753,1.52,1.567,3.037,2.42,4.508Zm139.514-4.625-.767-.378c.753-1.525,1.466-3.1,2.118-4.67l.791.328C-3991.561,1934.317-3992.282,1935.905-3993.043,1937.446Zm-144.1-4.64c-.659-1.585-1.274-3.212-1.827-4.835l.81-.276c.547,1.605,1.155,3.215,1.807,4.783Zm148.07-4.933-.811-.275c.546-1.61,1.046-3.26,1.484-4.9l.827.221C-3988.018,1924.577-3988.522,1926.244-3989.074,1927.873Zm-151.4-4.856c-.446-1.659-.842-3.356-1.177-5.041l.839-.167c.332,1.667.724,3.345,1.164,4.987Zm154.074-5.143-.839-.166c.33-1.667.608-3.367.828-5.053l.848.11c-.222,1.7-.5,3.424-.837,5.109Zm-156.095-5.006c-.223-1.7-.394-3.432-.508-5.151l.854-.056c.112,1.7.282,3.414.5,5.1Zm157.434-5.255-.854-.055c.109-1.691.164-3.413.164-5.118v-.2h.856v.2c0,1.727-.056,3.467-.166,5.176Zm-157.259-5.071h-.856v-.1c0-1.686.053-3.392.159-5.068l.854.053c-.1,1.659-.158,3.347-.158,5.018Zm156.391-5.424c-.113-1.7-.284-3.411-.508-5.1l.848-.113c.226,1.7.4,3.436.514,5.151Zm-155.744-4.793-.848-.11c.22-1.7.5-3.423.83-5.11l.84.165C-4141.183,1888.938-4141.459,1890.639-4141.677,1892.325Zm154.394-5.354c-.334-1.666-.727-3.343-1.171-4.985l.827-.223c.447,1.66.846,3.356,1.183,5.04Zm-152.421-4.691-.827-.219c.442-1.663.945-3.33,1.494-4.958l.811.274C-4138.77,1878.986-4139.267,1880.636-4139.7,1882.28Zm149.753-5.191c-.549-1.607-1.159-3.215-1.813-4.781l.79-.329c.661,1.583,1.277,3.209,1.833,4.833Zm-146.475-4.514-.791-.327c.657-1.589,1.376-3.179,2.136-4.723l.768.378C-4135.066,1869.431-4135.776,1871-4136.426,1872.575Zm142.538-4.92c-.753-1.516-1.569-3.032-2.425-4.505l.739-.43c.866,1.489,1.691,3.022,2.452,4.555Zm-138.011-4.275-.741-.427c.859-1.489,1.779-2.97,2.735-4.4l.711.475C-4130.139,1860.443-4131.049,1861.908-4131.9,1863.38Zm132.87-4.568c-.949-1.412-1.956-2.809-2.994-4.153l.678-.523c1.048,1.359,2.067,2.771,3.026,4.2Zm-127.182-3.952-.679-.521c1.046-1.364,2.151-2.712,3.283-4.005l.644.563C-4124.083,1852.177-4125.176,1853.51-4126.211,1854.86Zm120.93-4.151c-1.123-1.274-2.3-2.529-3.509-3.731l.6-.606c1.219,1.214,2.412,2.483,3.547,3.771Zm-114.184-3.555-.606-.6c1.214-1.217,2.483-2.409,3.773-3.544l.565.642C-4117.009,1844.771-4118.265,1845.951-4119.465,1847.154Zm106.93-3.671c-1.282-1.121-2.616-2.213-3.965-3.245l.52-.68c1.364,1.044,2.713,2.148,4.008,3.281Zm-99.245-3.091-.523-.678c1.361-1.048,2.774-2.065,4.2-3.023l.477.71c-1.411.948-2.809,1.954-4.155,2.991Zm91.112-3.135c-1.416-.944-2.881-1.853-4.355-2.7l.426-.741c1.491.858,2.972,1.777,4.4,2.731Zm-82.617-2.569-.43-.74c1.484-.862,3.017-1.686,4.556-2.449l.38.767C-4100.3,1833.021-4101.817,1833.836-4103.285,1834.688Zm73.737-2.545c-1.528-.751-3.1-1.461-4.673-2.109l.326-.791c1.59.656,3.18,1.373,4.725,2.133Zm-64.576-2-.329-.789c1.585-.661,3.211-1.276,4.834-1.83l.277.809C-4090.948,1828.882-4092.556,1829.491-4094.124,1830.144Zm55.1-1.908c-1.61-.542-3.261-1.038-4.9-1.474l.219-.827c1.662.44,3.33.942,4.959,1.491Zm-45.419-1.4-.222-.827c1.658-.446,3.354-.843,5.04-1.18l.168.839c-1.668.333-3.345.726-4.986,1.168Zm35.524-1.227c-1.666-.326-3.366-.6-5.055-.818l.109-.848c1.707.218,3.426.5,5.111.826Zm-25.487-.779-.112-.848c1.7-.225,3.433-.4,5.152-.511l.057.854c-1.7.113-3.416.283-5.1.505Zm15.335-.525c-1.643-.1-3.314-.155-4.967-.155h-.153v-.855h.151c1.673,0,3.362.053,5.022.157Z"/><path class="b" d="M-4064.007,1957.624v-.856c1.671,0,3.358-.079,5.012-.231l.079.852C-4060.6,1957.544-4062.31,1957.623-4064.007,1957.624Zm-5.09-.229c-1.688-.153-3.386-.387-5.047-.694l.155-.842c1.636.3,3.307.533,4.97.684Zm15.227-.706-.157-.841c1.639-.306,3.282-.691,4.884-1.147l.234.823c-1.627.463-3.3.855-4.961,1.165Zm-25.237-1.147c-1.628-.462-3.254-1.005-4.833-1.616l.308-.8c1.555.6,3.156,1.137,4.758,1.59Zm35.029-1.639-.309-.8c1.551-.6,3.094-1.285,4.587-2.03l.381.766c-1.515.756-3.083,1.45-4.659,2.062Zm-44.526-2.035c-1.515-.754-3.013-1.589-4.452-2.48l.45-.728c1.417.878,2.892,1.7,4.384,2.443Zm53.634-2.513-.451-.726c1.414-.878,2.8-1.834,4.136-2.841l.516.682c-1.351,1.023-2.765,1.994-4.2,2.885Zm-62.291-2.848c-1.35-1.019-2.669-2.114-3.922-3.255l.576-.632c1.233,1.123,2.533,2.2,3.861,3.2Zm70.41-3.3-.577-.632c1.231-1.122,2.424-2.316,3.548-3.549l.632.577c-1.141,1.251-2.354,2.464-3.6,3.6Zm-77.939-3.559c-1.143-1.251-2.24-2.569-3.261-3.917l.682-.516c1.005,1.327,2.085,2.624,3.211,3.856Zm84.8-3.965-.682-.516c1.006-1.33,1.961-2.723,2.838-4.138l.727.451C-4018,1932.921-4018.969,1934.336-4019.991,1935.687Zm-90.947-4.151c-.894-1.437-1.731-2.933-2.488-4.447l.765-.383c.745,1.49,1.569,2.963,2.449,4.379Zm96.313-4.5-.765-.382c.743-1.49,1.425-3.034,2.028-4.59l.8.309C-4013.177,1923.951-4013.87,1925.519-4014.625,1927.033Zm-100.866-4.6c-.613-1.577-1.159-3.2-1.624-4.831l.823-.235c.457,1.6,1,3.2,1.6,4.756Zm104.545-4.893-.823-.234c.455-1.6.839-3.247,1.144-4.884l.841.156C-4010.093,1914.24-4010.484,1915.909-4010.946,1917.538Zm-107.337-4.9c-.31-1.66-.547-3.358-.7-5.047l.852-.079c.154,1.663.387,3.334.692,4.969Zm109.2-5.111-.853-.078c.152-1.655.228-3.341.228-5.011v-.128h.856v.123C-4008.855,1904.136-4008.933,1905.849-4009.086,1907.529Zm-109.282-5.026h-.856v-.063c0-1.675.076-3.366.226-5.026l.852.077c-.147,1.634-.222,3.3-.222,4.949Zm108.418-5.2c-.157-1.664-.392-3.335-.7-4.968l.841-.158c.312,1.659.55,3.356.709,5.046Zm-107.515-4.781-.841-.155c.307-1.664.7-3.334,1.156-4.963l.823.233C-4116.78,1889.239-4117.163,1890.883-4117.465,1892.521Zm105.662-5.068c-.46-1.6-1-3.2-1.6-4.753l.8-.311c.615,1.576,1.164,3.2,1.63,4.828Zm-102.936-4.576-.8-.309c.61-1.578,1.3-3.147,2.055-4.664l.766.381C-4113.459,1879.778-4114.139,1881.323-4114.739,1882.877Zm99.293-4.761c-.746-1.487-1.572-2.959-2.454-4.375l.726-.452c.9,1.438,1.735,2.933,2.492,4.444Zm-94.831-4.216-.728-.45c.891-1.439,1.859-2.855,2.879-4.207l.683.515C-4108.447,1871.09-4109.4,1872.483-4110.277,1873.9Zm89.529-4.29c-1.008-1.327-2.089-2.622-3.215-3.852l.631-.578c1.143,1.249,2.242,2.565,3.265,3.912Zm-83.493-3.715-.633-.576c1.139-1.252,2.35-2.466,3.6-3.608l.577.631C-4101.927,1863.467-4103.119,1864.662-4104.241,1865.9Zm76.722-3.678c-1.234-1.122-2.534-2.2-3.864-3.2l.514-.684c1.351,1.018,2.672,2.112,3.926,3.25Zm-69.324-3.088-.518-.682c1.349-1.023,2.761-1.995,4.2-2.89l.452.727c-1.414.88-2.805,1.838-4.132,2.845Zm61.316-2.943c-1.417-.876-2.893-1.7-4.386-2.438l.38-.766c1.518.753,3.017,1.586,4.456,2.476Zm-52.807-2.354-.383-.765c1.513-.758,3.08-1.453,4.657-2.067l.31.8C-4085.3,1852.4-4086.844,1853.086-4088.334,1853.832Zm43.828-2.1c-1.556-.6-3.157-1.132-4.76-1.584l.232-.824c1.629.459,3.256,1,4.835,1.61ZM-4079,1850.2l-.235-.823c1.628-.465,3.3-.859,4.96-1.171l.158.841C-4075.751,1849.35-4077.393,1849.738-4079,1850.2Zm24.844-1.188c-1.636-.3-3.308-.529-4.97-.678l.076-.852c1.688.152,3.387.383,5.049.689Zm-14.993-.66-.08-.852c1.68-.157,3.393-.238,5.089-.24l0,.855c-1.671,0-3.357.083-5.011.237Z"/><path class="c" d="M-4056.549,2014.723a25.859,25.859,0,0,1-7.469-3.775l1.461,3.586a112.4,112.4,0,0,1-108.834-79.844,112.447,112.447,0,0,1,46.5-126.406l.77,3.795a25.863,25.863,0,0,1,4.128-7.28,25.838,25.838,0,0,1-8.362.331l3.019,2.423a113.739,113.739,0,0,0-44.3,54.792,112.964,112.964,0,0,0,39.727,131.849,113.76,113.76,0,0,0,65.866,21.211c.506,0,1.013-.009,1.519-.016l-1.171,3.69A25.844,25.844,0,0,1-4056.549,2014.723Z"/><path class="c" d="M-3955.892,1869.946a112.972,112.972,0,0,0-103.768-80.38l1.364-3.62a25.862,25.862,0,0,1-7.366,3.971,25.844,25.844,0,0,1,7.258,4.166l-1.269-3.661a112.118,112.118,0,0,1,107.616,116.445,112.114,112.114,0,0,1-45.805,86.053l-.991-3.745a25.874,25.874,0,0,1-3.694,7.509,25.846,25.846,0,0,1,8.328-.821l-3.154-2.24A112.989,112.989,0,0,0-3955.892,1869.946Z"/><circle class="d" cx="17.539" cy="17.539" r="17.539" transform="translate(-4081.578 1884.9)"/><path class="e" d="M-3778.7,1977.147c-10.363,27.058-66.26,60.306-138.328,80.011-84.79,23.189-159.852,18.853-167.656-9.685s68.788,9.157,153.582-14.032c46.3-12.664,85.467-40.859,112.761-59.2,22.688-15.254,37.17-23.7,40.712-10.741A21.669,21.669,0,0,1-3778.7,1977.147Z"/><ellipse class="f" cx="38.539" cy="3.854" rx="38.539" ry="3.854" transform="translate(-4025.654 2045.317)"/><ellipse class="f" cx="17.535" cy="3.854" rx="17.535" ry="3.854" transform="translate(-4076.525 2041.848)"/><path class="g" d="M-4000.323,1775.384h0c-10.682,0-18.458,7.253-21.08,17.609l-3.25,15.535h2.312l5.011-12.718-1.055,12.718h2.6l1.927-6.552-.406,6.552h31.237v-15.852a17.292,17.292,0,0,0-17.292-17.292Z"/><path class="c" d="M-4020.413,1891.41l7.322,35.388,40.081.59-10.02-37.157Z"/><path class="f" d="M-4020.413,1891.41l7.322,35.388,40.081.59-10.02-37.157Z"/><path class="e" d="M-4014.44,1863.831s-15.8,21.967-15.03,30.831,10.791,153.385,10.791,153.385l23.508,1.156-6.937-104.055,5.781-28.133,14.26,131.032,28.9.771-25.821-169.957-5.01-15.03Z"/><path class="h" d="M-4009.045,1796.773s5.01,9.25-1.541,15.416-9.635,22.738-9.635,22.738l37-2.7-3.083-20.811s-8.093-5.01-6.166-13.874Z"/><path class="f" d="M-4009.045,1796.773s5.01,9.25-1.541,15.416-9.635,22.738-9.635,22.738l37-2.7-3.083-20.811s-8.093-5.01-6.166-13.874Z"/><path class="a" d="M-4015.211,1821.438s2.312,6.937,12.333,6.166a34.389,34.389,0,0,0,16.957-6.166v45.091l-30.831-1.157V1838.01Z"/><path class="e" d="M-4008.026,1808.511l-2.946,2.136-17.727,8.479,6.166,31.987,4.239,6.937v8.479l-10.405,14.644a158.883,158.883,0,0,0-3.854,31.6c-.386,17.728,4.239,13.1,6.551,12.718s7.323-1.541,7.323-1.541l-8.094-37.768,13.489-19.655,2.312-7.708s-.77-18.113-3.853-25.436C-4014.825,1833.385-4008.934,1814.083-4008.026,1808.511Z"/><path class="e" d="M-3991.822,1804.866l7.057,6.937,13.874,4.24-6.552,36.226-3.854,7.708.771,7.708s14.442,15.489,16.572,46.247c1.119,16.153-1.194,15.382-1.194,15.382l-28.481-.352-4.625-63.975,8.864-48.174Z"/><path class="h" d="M-3962.8,1897.36s3.854,16.572-3.854,18.5-5.01-18.5-5.01-18.5Z"/><path class="h" d="M-4030.776,1880.159s14.84,8.322,11.069,15.315-17.043-8.766-17.043-8.766Z"/><path class="e" d="M-3976.672,1816.813l5.781-.77s3.468,4.624,3.854,8.093,6.551,62.048,6.551,62.048l6.167,11.176s-.386,1.927-3.469,1.927h-3.083l-1.156,4.624s-2.312-8.864-11.176-4.239l-3.469-1.156,2.312-4.239s-2.312-20.426-2.312-30.061-.771-20.04-.771-20.04Z"/><ellipse class="g" cx="5.48" cy="2.055" rx="5.48" ry="2.055" transform="translate(-4010.072 2046.573)"/><ellipse class="g" cx="5.48" cy="2.055" rx="5.48" ry="2.055" transform="translate(-3973.081 2046.573)"/><path class="e" d="M-4024.46,1818.74l-4.239.386-9.635,37.383s-3.854,24.664-3.083,25.821,0,3.083-.771,3.854,3.083,11.561,6.937,11.176,5.4-1.542,5.4-1.542-3.468-10.02,5.4-13.488l2.312-7.708-2.312-12.718,3.083-17.728Z"/><ellipse class="h" cx="0.578" cy="1.927" rx="0.578" ry="1.927" transform="translate(-3988.041 1791.185)"/><ellipse class="h" cx="0.578" cy="1.927" rx="0.578" ry="1.927" transform="translate(-4014.247 1791.185)"/><circle class="h" cx="12.718" cy="12.718" r="12.718" transform="translate(-4013.284 1779.431)"/><path class="g" d="M-4006.154,1785.4l-.325,3.083h8.8l1.156-2.312-.244,2.312h10.649l-7.323-11.562-16.186.385-3.854,11.176h5.781Z"/><path class="c" d="M-4060.334,2030.249c2.585,9.554,11.437,15.471,11.437,15.471s4.663-9.573,2.078-19.127-11.437-15.471-11.437-15.471S-4062.918,2020.695-4060.334,2030.249Z"/><path class="e" d="M-4056.536,2028.2c7.092,6.9,7.958,17.517,7.958,17.517s-10.632-.581-17.724-7.485-7.958-17.516-7.958-17.516S-4063.628,2021.292-4056.536,2028.2Z"/></g></svg>