<svg xmlns="http://www.w3.org/2000/svg" width="482.799" height="337" viewBox="0 0 482.799 337"><defs><style>.a{fill:#e74c3c;}.b{fill:#ddd;}.c{fill:#404040;}.d{fill:#222;}.e{fill:#ffb8b8;}.f{fill:#2f2e41;}.g{fill:#3f3d56;}</style></defs><g transform="translate(0)"><ellipse class="a" cx="151.391" cy="151.391" rx="151.391" ry="151.391" transform="translate(180.017)"/><g transform="translate(0 32.497)"><path class="b" d="M-1846.161,2016.569a7.882,7.882,0,0,1,5.478,2.628c4.668-16.824,11.9-27.636,20.015-27.636s15.346,10.812,20.015,27.636a7.883,7.883,0,0,1,5.478-2.628c9.224,0,16.7,21.273,16.7,47.514h-84.39C-1862.863,2037.842-1855.385,2016.569-1846.161,2016.569Z" transform="translate(1870.111 -1768.81)"/><path class="b" d="M-2095.814,1989.681a9.288,9.288,0,0,1,5.478,1.928c4.668-12.338,11.9-20.267,20.015-20.267s15.346,7.929,20.015,20.267a9.289,9.289,0,0,1,5.478-1.928c9.224,0,16.7,15.6,16.7,34.845h-84.39C-2112.516,2005.282-2105.038,1989.681-2095.814,1989.681Z" transform="translate(2369.417 -1768.81)"/><path class="c" d="M-2215.142,2073.313h443.917c-.4-36.067-99.624-65.27-221.959-65.27S-2214.742,2037.246-2215.142,2073.313Z" transform="translate(2215.142 -1768.81)"/><ellipse class="b" cx="56.777" cy="56.777" rx="56.777" ry="56.777" transform="translate(331.104 49.137)"/><path class="d" d="M-2160.48,2037.272h3.206v-155.94a53.69,53.69,0,0,0-1.6-13.018h0a53.69,53.69,0,0,0-1.6,13.018Z" transform="translate(2546.529 -1768.81)"/><path class="d" d="M-2132.874,1923.01l1.688-2.724-23.715-14.7a10.09,10.09,0,0,0-5.484-1.513h0a10.089,10.089,0,0,0,3.8,4.237Z" transform="translate(2520.346 -1768.81)"/><path class="d" d="M-2177.1,1908.2l-1.688-2.725,16.32-10.113a6.076,6.076,0,0,1,4.338-.8h0a6.074,6.074,0,0,1-2.65,3.528Z" transform="translate(2565.685 -1768.81)"/><path class="d" d="M-2177.1,1970.472l-1.688-2.725,16.32-10.113a6.07,6.07,0,0,1,4.338-.8h0a6.075,6.075,0,0,1-2.65,3.527Z" transform="translate(2565.685 -1768.81)"/><ellipse class="b" cx="54.502" cy="54.502" rx="54.502" ry="54.502" transform="translate(32.301 52.213)"/><path class="d" d="M-1856.709,2031.558h-3.077v-149.69a51.5,51.5,0,0,1,1.539-12.5h0a51.5,51.5,0,0,1,1.538,12.5Z" transform="translate(1945.27 -1768.81)"/><path class="d" d="M-1883.208,1921.876l-1.621-2.616,22.765-14.106a9.692,9.692,0,0,1,5.264-1.453h0a9.689,9.689,0,0,1-3.644,4.068Z" transform="translate(1970.404 -1768.81)"/><path class="d" d="M-1840.76,1907.659l1.621-2.615-15.666-9.708a5.831,5.831,0,0,0-4.164-.771h0a5.827,5.827,0,0,0,2.543,3.386Z" transform="translate(1926.883 -1768.81)"/><path class="d" d="M-1840.76,1967.435l1.621-2.615-15.666-9.708a5.831,5.831,0,0,0-4.164-.771h0a5.827,5.827,0,0,0,2.543,3.386Z" transform="translate(1926.883 -1768.81)"/><path class="b" d="M-2163.987,2067.842a3.538,3.538,0,0,1,1.426.3,6.252,6.252,0,0,1,5.213-3.183,6.252,6.252,0,0,1,5.212,3.183,3.538,3.538,0,0,1,1.426-.3c2.4,0,4.35,2.45,4.35,5.471h-21.976C-2168.336,2070.292-2166.389,2067.842-2163.987,2067.842Z" transform="translate(2543.471 -1768.81)"/><path class="b" d="M-2027.732,2064.1a2.4,2.4,0,0,1,1.426.51c1.216-3.263,3.1-5.36,5.213-5.36s4,2.1,5.212,5.36a2.4,2.4,0,0,1,1.426-.51c2.4,0,4.35,4.126,4.35,9.215h-21.977C-2032.082,2068.224-2030.134,2064.1-2027.732,2064.1Z" transform="translate(2270.962 -1768.81)"/><path class="b" d="M-1838.3,2064.1a2.4,2.4,0,0,1,1.426.51c1.216-3.263,3.1-5.36,5.212-5.36s4,2.1,5.213,5.36a2.4,2.4,0,0,1,1.426-.51c2.4,0,4.35,4.126,4.35,9.215h-21.977C-1842.645,2068.224-1840.7,2064.1-1838.3,2064.1Z" transform="translate(1892.088 -1768.81)"/><path class="d" d="M-1937.54,1980.694l.7,3.316.873,3.316,2.792,39.446-9.6.7-4.363-43.112.7-2.269Z" transform="translate(2109.091 -1768.81)"/><path class="d" d="M-1953.987,2021.362l4.015,6.109s11.17,9.076,3.142,9.6-11-5.41-11-5.41-2.792-.873-3.141-1.746.7-8.552.7-8.552Z" transform="translate(2133.741 -1768.81)"/><path class="d" d="M-1942.08,2026.074s4.015,10.124,3.491,11.869-1.4,1.745-1.222,3.316.7,5.237-5.934,5.411-3.491-8.727-3.491-8.727l.873-11.869Z" transform="translate(2117.296 -1768.81)"/><path class="d" d="M-1929.2,1951.2s2.444,4.189,2.095,6.807-5.411,30.719-5.411,30.719l-4.015,34.21-8.9-.7,3.491-31.591-.873-25.134-1.571,18.5-10.3.349-6.109-26.355s4.538-7.331,5.411-7.855S-1929.2,1951.2-1929.2,1951.2Z" transform="translate(2116.63 -1768.81)"/><ellipse class="e" cx="7.505" cy="7.505" rx="7.505" ry="7.505" transform="translate(167.798 114.403)"/><path class="e" d="M-1936.144,1895.518l-1.047,9.949-11.52-1.745,6.283-11.694Z" transform="translate(2113.629 -1768.81)"/><path class="b" d="M-1951.2,1900.755s5.935,4.363,11.694,1.92l8.727,22.166v27.752s-13.09,3.84-20.421-.7c0,0-5.236-1.047-6.109-.873s3.142-47.3,3.142-47.3Z" transform="translate(2116.995 -1768.81)"/><path class="d" d="M-1923.751,1901.8l-4.014,5.76a6.945,6.945,0,0,0-.7,4.712c.524,2.793,1.048,39.272-3.84,40.668a26.889,26.889,0,0,1-8.028,1.222s4.363-20.945,2.792-24.61l-4.887-21.992,12.916-7.331s.808-3.316,2.149-1.484A12.4,12.4,0,0,0-1923.751,1901.8Z" transform="translate(2094.953 -1768.81)"/><path class="d" d="M-1963.344,1934.266l-5.962-33.511,5.962,3.141s6.807,2.793,8.2,6.109,6.982,19.2,6.982,19.2-1.4,9.6-6.632,5.585-4.015-5.934-4.015-5.934,4.538,18.5,3.84,19.025-1.047,5.41-1.047,5.41l-5.411-1.047Z" transform="translate(2146.24 -1768.81)"/><path class="e" d="M-1949.022,1915.591l-2.269-3.317s-5.132-10.3-8.849-6.807,6.929,11.52,6.929,11.52Z" transform="translate(2138.725 -1768.81)"/><path class="e" d="M-1927.94,1951.72l1.4,1.792-3.491,4.492-1.571-3.142Z" transform="translate(2086.924 -1768.81)"/><path class="f" d="M-1943.561,1884.5a3.907,3.907,0,0,1,2.076.923,3.257,3.257,0,0,0,2.114.789,2.278,2.278,0,0,0,1.657-1.266,6.73,6.73,0,0,0,.582-2.08l-.871.307.705-.8-7.5-2.277c-2.268-.69-4.832-1.354-6.91-.213a6.805,6.805,0,0,0-2.511,2.737,14.265,14.265,0,0,0,.2,14.046,2.7,2.7,0,0,0,2.086-2.441c.187-1.139.005-2.318.235-3.449s1.093-2.289,2.247-2.254l.607,1.3c-.389-.828,1.92-2.852,2.47-3.228a7.532,7.532,0,0,0,1.345-.98C-1944.55,1885.11-1944.43,1884.493-1943.561,1884.5Z" transform="translate(2121.875 -1768.81)"/><path class="d" d="M-1965.457,1913.671l-4.189,2.618,4.189,17.454s6.633,8.2,9.076,0c2.045-6.867-5.692-16.3-8.269-19.194C-1965.151,1913.986-1965.457,1913.671-1965.457,1913.671Z" transform="translate(2154.462 -1768.81)"/><path class="d" d="M-1923.4,1907.213h-4.015s-3.491,6.807-3.84,10.472-.349,18.152-.349,18.152l6.807,20.247,5.236-3.84-4.363-12.043s.524-2.618,0-3.84,1.571-7.505,1.92-7.854S-1923.4,1907.213-1923.4,1907.213Z" transform="translate(2079.942 -1768.81)"/><rect class="d" width="47.23" height="4.209" transform="translate(204.15 53.054)"/><rect class="d" width="47.23" height="4.209" transform="translate(204.15 68.558)"/><rect class="d" width="47.23" height="4.209" transform="translate(204.15 82.447)"/><path class="d" d="M-2050.554,1864.511l-23.166-23.6h-26.188v-.879h26.555l.129.13,23.295,23.735Z" transform="translate(2378.611 -1768.81)"/><ellipse class="b" cx="5.168" cy="5.168" rx="5.168" ry="5.168" transform="translate(261.07 51.282)"/><ellipse class="b" cx="5.168" cy="5.168" rx="5.168" ry="5.168" transform="translate(261.07 66.786)"/><ellipse class="b" cx="5.168" cy="5.168" rx="5.168" ry="5.168" transform="translate(261.07 80.675)"/><path class="d" d="M-2029.388,1823.968a5.492,5.492,0,0,0-5.491-5.491,5.491,5.491,0,0,0-5.491,5.491,5.491,5.491,0,0,0,5.491,5.491h0A5.5,5.5,0,0,0-2029.388,1823.968Zm-.646,0a4.845,4.845,0,0,1-4.845,4.845,4.845,4.845,0,0,1-4.845-4.845,4.845,4.845,0,0,1,4.845-4.845,4.852,4.852,0,0,1,4.845,4.845Z" transform="translate(2298.533 -1768.81)"/><path class="d" d="M-2029.388,1839.472a5.491,5.491,0,0,0-5.491-5.491,5.491,5.491,0,0,0-5.491,5.491,5.491,5.491,0,0,0,5.491,5.491h0A5.5,5.5,0,0,0-2029.388,1839.472Zm-.646,0a4.845,4.845,0,0,1-4.845,4.845,4.845,4.845,0,0,1-4.845-4.845,4.845,4.845,0,0,1,4.845-4.845h0a4.851,4.851,0,0,1,4.845,4.845Z" transform="translate(2298.533 -1768.81)"/><path class="d" d="M-2029.388,1853.361a5.491,5.491,0,0,0-5.491-5.491,5.491,5.491,0,0,0-5.491,5.491,5.491,5.491,0,0,0,5.491,5.491h0A5.5,5.5,0,0,0-2029.388,1853.361Zm-.646,0a4.845,4.845,0,0,1-4.845,4.845,4.845,4.845,0,0,1-4.845-4.845,4.845,4.845,0,0,1,4.845-4.845,4.851,4.851,0,0,1,4.845,4.845Z" transform="translate(2298.533 -1768.81)"/><rect class="d" width="47.23" height="4.209" transform="translate(161.716 3.387)"/><rect class="d" width="47.23" height="4.209" transform="translate(161.716 18.891)"/><rect class="d" width="47.23" height="4.209" transform="translate(161.716 32.78)"/><path class="g" d="M-1904.991,1819.24l18.771-28h26.188v-.879h-26.555l-.129.13-18.9,28.13Z" transform="translate(1994.425 -1768.81)"/><ellipse class="a" cx="5.168" cy="5.168" rx="5.168" ry="5.168" transform="translate(141.69 1.615)"/><ellipse class="a" cx="5.168" cy="5.168" rx="5.168" ry="5.168" transform="translate(141.69 17.119)"/><ellipse class="a" cx="5.168" cy="5.168" rx="5.168" ry="5.168" transform="translate(141.69 31.008)"/><path class="d" d="M-1920.667,1779.792a5.491,5.491,0,0,0,5.491-5.491,5.492,5.492,0,0,0-5.491-5.491,5.491,5.491,0,0,0-5.491,5.491h0A5.5,5.5,0,0,0-1920.667,1779.792Zm0-10.336a4.845,4.845,0,0,1,4.845,4.845,4.845,4.845,0,0,1-4.845,4.845,4.845,4.845,0,0,1-4.845-4.845A4.85,4.85,0,0,1-1920.667,1769.456Z" transform="translate(2070.109 -1768.81)"/><path class="d" d="M-1920.667,1795.3a5.491,5.491,0,0,0,5.491-5.491,5.492,5.492,0,0,0-5.491-5.491,5.491,5.491,0,0,0-5.491,5.491h0A5.5,5.5,0,0,0-1920.667,1795.3Zm0-10.336a4.845,4.845,0,0,1,4.845,4.845,4.845,4.845,0,0,1-4.845,4.845,4.845,4.845,0,0,1-4.845-4.845h0A4.851,4.851,0,0,1-1920.667,1784.96Z" transform="translate(2070.109 -1768.81)"/><path class="d" d="M-1920.667,1809.185a5.491,5.491,0,0,0,5.491-5.491,5.491,5.491,0,0,0-5.491-5.491,5.49,5.49,0,0,0-5.491,5.491h0A5.5,5.5,0,0,0-1920.667,1809.185Zm0-10.336a4.845,4.845,0,0,1,4.845,4.845,4.845,4.845,0,0,1-4.845,4.845,4.845,4.845,0,0,1-4.845-4.845A4.85,4.85,0,0,1-1920.667,1798.849Z" transform="translate(2070.109 -1768.81)"/><rect class="d" width="32.986" height="2.939" transform="translate(211.94 165.78)"/><rect class="d" width="32.986" height="2.939" transform="translate(211.94 176.608)"/><rect class="d" width="32.986" height="2.939" transform="translate(211.94 186.308)"/><path class="d" d="M-2035.671,1964.375l-16.179-16.485h-18.291v-.614h18.547l.09.091,16.27,16.577Z" transform="translate(2334.15 -1768.81)"/><ellipse class="b" cx="3.609" cy="3.609" rx="3.609" ry="3.609" transform="translate(251.694 164.542)"/><ellipse class="b" cx="3.609" cy="3.609" rx="3.609" ry="3.609" transform="translate(251.694 175.37)"/><ellipse class="b" cx="3.609" cy="3.609" rx="3.609" ry="3.609" transform="translate(251.694 185.071)"/><path class="d" d="M-2020.888,1936.059a3.835,3.835,0,0,0-3.835-3.835,3.835,3.835,0,0,0-3.835,3.835,3.835,3.835,0,0,0,3.835,3.835A3.839,3.839,0,0,0-2020.888,1936.059Zm-.451,0a3.384,3.384,0,0,1-3.384,3.384,3.384,3.384,0,0,1-3.383-3.384,3.383,3.383,0,0,1,3.383-3.383A3.387,3.387,0,0,1-2021.339,1936.059Z" transform="translate(2278.221 -1768.81)"/><path class="d" d="M-2020.888,1946.888a3.835,3.835,0,0,0-3.835-3.835,3.835,3.835,0,0,0-3.835,3.835,3.835,3.835,0,0,0,3.835,3.835A3.84,3.84,0,0,0-2020.888,1946.888Zm-.451,0a3.384,3.384,0,0,1-3.384,3.383,3.384,3.384,0,0,1-3.383-3.383,3.384,3.384,0,0,1,3.383-3.384A3.388,3.388,0,0,1-2021.339,1946.888Z" transform="translate(2278.221 -1768.81)"/><path class="d" d="M-2020.888,1956.588a3.835,3.835,0,0,0-3.835-3.835,3.835,3.835,0,0,0-3.835,3.835,3.835,3.835,0,0,0,3.835,3.835A3.839,3.839,0,0,0-2020.888,1956.588Zm-.451,0a3.384,3.384,0,0,1-3.384,3.384,3.384,3.384,0,0,1-3.383-3.384,3.384,3.384,0,0,1,3.383-3.384A3.388,3.388,0,0,1-2021.339,1956.588Z" transform="translate(2278.221 -1768.81)"/></g></g></svg>