<svg xmlns="http://www.w3.org/2000/svg" width="467.832" height="333.193" viewBox="0 0 467.832 333.193"><defs><style>.a{fill:#e74c3c;}.b{fill:#222;}.c{fill:#ddd;}.d{fill:#a0616a;}.e{opacity:0.1;}.e,.i{isolation:isolate;}.f{fill:#f2f2f2;}.g{fill:#ffc1c7;}.h{fill:#3f3d56;}.i{opacity:0.2;}</style></defs><g transform="translate(0)"><ellipse class="a" cx="166.596" cy="166.596" rx="166.596" ry="166.596" transform="translate(134.64)"/><ellipse class="b" cx="178.775" cy="9.565" rx="178.775" ry="9.565" transform="translate(0 251.377)"/><ellipse cx="159.994" cy="7.652" rx="159.994" ry="7.652" transform="translate(19.13 250.333)"/><path class="b" d="M-3093.034,1810.37V1994.2a2.508,2.508,0,0,0,2.508,2.508h298.976a2.5,2.5,0,0,0,2.5-2.5V1810.37a2.5,2.5,0,0,0-2.5-2.508h-298.968a2.506,2.506,0,0,0-2.518,2.5Z" transform="translate(3119.819 -1738.217)"/><path class="c" d="M-3093.034,1809.535v5.631h303.988v-5.631a1.673,1.673,0,0,0-1.673-1.673h-300.642a1.674,1.674,0,0,0-1.673,1.673Z" transform="translate(3119.819 -1738.217)"/><ellipse class="b" cx="1.739" cy="1.739" rx="1.739" ry="1.739" transform="translate(323.469 71.384)"/><ellipse class="b" cx="1.739" cy="1.739" rx="1.739" ry="1.739" transform="translate(318.599 71.384)"/><ellipse class="b" cx="1.739" cy="1.739" rx="1.739" ry="1.739" transform="translate(313.73 71.384)"/><rect width="92.518" height="4.869" transform="translate(132.516 95.209)"/><rect class="c" width="71.301" height="83.475" transform="translate(230.599 144.599)"/><rect class="c" width="71.301" height="83.475" transform="translate(143.299 144.599)"/><rect class="c" width="71.301" height="83.475" transform="translate(55.998 144.599)"/><path class="d" d="M-3020.864,1925.242c.212,1.255,1.454,2.045,2.626,2.535A7.125,7.125,0,0,1-3015,1929.7c1.012,1.391.587,3.384-.348,4.827a16.641,16.641,0,0,1-4.24,4.059,7.644,7.644,0,0,1-2.3,1.339,6.809,6.809,0,0,1-1.954.209,35.63,35.63,0,0,1-6.32-.567c-2.675-.487-5.534-1.461-6.956-3.784-1.155-1.9-1.082-4.278-.971-6.5a8.122,8.122,0,0,0,3.458-1.458c1.266-.786,2.633-1.7,3.043-3.13.431-1.5-.257-3.349.769-4.521a3.9,3.9,0,0,1,2.925-.915q2.139-.055,4.274-.059c.981,0,3.172-.411,3.979.243C-3018.154,1920.626-3021.131,1923.649-3020.864,1925.242Z" transform="translate(3290.303 -1738.217)"/><path class="e" d="M-3020.864,1925.242c.212,1.255,1.454,2.045,2.626,2.535A7.125,7.125,0,0,1-3015,1929.7c1.012,1.391.587,3.384-.348,4.827a16.641,16.641,0,0,1-4.24,4.059,7.644,7.644,0,0,1-2.3,1.339,6.809,6.809,0,0,1-1.954.209,35.63,35.63,0,0,1-6.32-.567c-2.675-.487-5.534-1.461-6.956-3.784-1.155-1.9-1.082-4.278-.971-6.5a8.122,8.122,0,0,0,3.458-1.458c1.266-.786,2.633-1.7,3.043-3.13.431-1.5-.257-3.349.769-4.521a3.9,3.9,0,0,1,2.925-.915q2.139-.055,4.274-.059c.981,0,3.172-.411,3.979.243C-3018.154,1920.626-3021.131,1923.649-3020.864,1925.242Z" transform="translate(3290.303 -1738.217)"/><ellipse class="d" cx="10.201" cy="10.201" rx="10.201" ry="10.201" transform="translate(254.379 165.905)"/><path class="f" d="M-3049.047,1939.081a4.383,4.383,0,0,0,.574,1.739,2.931,2.931,0,0,0,.313.4,9.086,9.086,0,0,0,2.132,1.485c2.087,1.269,4.427,2.922,4.817,5.339a18.3,18.3,0,0,0,.525,2.226c.487,1.655,1.124,3.283,1.5,4.939a11.252,11.252,0,0,1,.309,2.932,8.815,8.815,0,0,1-.083.921,15.039,15.039,0,0,1-2.95,6.449c-.153.216-.306.431-.462.643l-.1.136h33.3c-.055-.212-.111-.421-.163-.633-.007-.033-.015-.065-.024-.1-.331-1.326-.62-2.658-.821-4a25.456,25.456,0,0,1-.31-3.6,3.226,3.226,0,0,0-1.1-2.782c-.059-.212-.115-.428-.171-.64a19.877,19.877,0,0,1,.049-9.61c.049-.195.1-.39.156-.584.025-.087.053-.174.077-.261a28.328,28.328,0,0,0,.737-2.821,9.341,9.341,0,0,1,.856-3.329,8.634,8.634,0,0,1,2.595-2.219,5.944,5.944,0,0,0,1.227-1.116h0a2.731,2.731,0,0,0,.661-1.6,2.339,2.339,0,0,0-.038-.522,4,4,0,0,0-1.061-1.895,11.576,11.576,0,0,0-8.521-3.346h0c-.491,0-.978,0-1.461.041a4.118,4.118,0,0,0-1.638.369,2.5,2.5,0,0,0-.818.675,4.025,4.025,0,0,0-.7,1.315,7.277,7.277,0,0,0-.278,1.175,9.682,9.682,0,0,1-.891,3.635c-1.186,1.941-3.888,2.3-6.121,1.875a13.806,13.806,0,0,1-9.471-6.957,12.689,12.689,0,0,0-.7-1.262,3.094,3.094,0,0,0-.473-.56,19.4,19.4,0,0,0-8.476,3.826,9.245,9.245,0,0,0-2.01,2.087A8.239,8.239,0,0,0-3049.047,1939.081Z" transform="translate(3292.311 -1738.217)"/><path class="d" d="M-3045.424,1960.086a9.814,9.814,0,0,0,1.277,2.733,6.558,6.558,0,0,0,1.474,1.885c1.235.971,2.943.95,4.522.86h.125l.783-.046,4.49-.267a25.28,25.28,0,0,0,3.548-.38c.313-.062.622-.139.932-.222a26.318,26.318,0,0,1,5.238-1.263c.522-.031,1.043,0,1.576,0h.146a7.906,7.906,0,0,0,1.043-.069,17.312,17.312,0,0,1,1.711-.292c1.489-.077,2.8.817,4.073,1.631l.348.215a15.55,15.55,0,0,0,2.88,1.433h6.031a2.023,2.023,0,0,0,.282-.26,2.2,2.2,0,0,0,.271-.373c.017-.031.035-.062.049-.094a3.174,3.174,0,0,0,0-2.681,5.283,5.283,0,0,0-.88-1.322,12.077,12.077,0,0,0-1.273-1.2,18.158,18.158,0,0,0-8.038-4.174c-.209-.038-.421-.073-.63-.1a27.982,27.982,0,0,0-4.521-.15l-1.416.028-5.93.122h-.164c-2.382.045-4.886.063-7.039-.887a8.225,8.225,0,0,1-.8-.41,1.506,1.506,0,0,1-.553-.48,1.656,1.656,0,0,1-.164-.905l.021-3.13.042-6.034h0q0-2.223.028-4.442a3.052,3.052,0,0,0-.852-2.529c-.867-1.088-2.978-4.932-4.473-4.994a1.2,1.2,0,0,0-.748.209h0c-1.273.848-1.28,4.065-1.311,5.151q-.053,1.8-.157,3.593a122.034,122.034,0,0,1-1.739,14.608A10.246,10.246,0,0,0-3045.424,1960.086Z" transform="translate(3287.644 -1738.217)"/><path class="e" d="M-3045.424,1960.086a9.814,9.814,0,0,0,1.277,2.733,6.558,6.558,0,0,0,1.474,1.885c1.235.971,2.943.95,4.522.86h.125l.783-.046,4.49-.267a25.28,25.28,0,0,0,3.548-.38c.313-.062.622-.139.932-.222a26.318,26.318,0,0,1,5.238-1.263c.522-.031,1.043,0,1.576,0h.146a7.906,7.906,0,0,0,1.043-.069,17.312,17.312,0,0,1,1.711-.292c1.489-.077,2.8.817,4.073,1.631l.348.215a15.55,15.55,0,0,0,2.88,1.433h6.031a2.023,2.023,0,0,0,.282-.26,2.2,2.2,0,0,0,.271-.373c.017-.031.035-.062.049-.094a3.174,3.174,0,0,0,0-2.681,5.283,5.283,0,0,0-.88-1.322,12.077,12.077,0,0,0-1.273-1.2,18.158,18.158,0,0,0-8.038-4.174c-.209-.038-.421-.073-.63-.1a27.982,27.982,0,0,0-4.521-.15l-1.416.028-5.93.122h-.164c-2.382.045-4.886.063-7.039-.887a8.225,8.225,0,0,1-.8-.41,1.506,1.506,0,0,1-.553-.48,1.656,1.656,0,0,1-.164-.905l.021-3.13.042-6.034h0q0-2.223.028-4.442a3.052,3.052,0,0,0-.852-2.529c-.867-1.088-2.978-4.932-4.473-4.994a1.2,1.2,0,0,0-.748.209h0c-1.273.848-1.28,4.065-1.311,5.151q-.053,1.8-.157,3.593a122.034,122.034,0,0,1-1.739,14.608A10.246,10.246,0,0,0-3045.424,1960.086Z" transform="translate(3287.644 -1738.217)"/><path class="b" d="M-3019.136,1898.147a3.2,3.2,0,0,1,2.341,1.12,5.46,5.46,0,0,1,.476,2.007,4.455,4.455,0,0,0,1.711,2.737c.731.539,1.614.842,2.369,1.346a2.563,2.563,0,0,1,1.322,2.233c-.087.79-.717,1.392-1.012,2.136-.547,1.356.1,2.869.7,4.205s1.162,2.908.477,4.2c-.727,1.36-2.6,1.875-3.131,3.318-.657,1.739,1.044,3.593.825,5.447a3.641,3.641,0,0,1-3.211,2.835,2.6,2.6,0,0,1-2.087-.453,2.737,2.737,0,0,1-.751-2.007c-.094-2.831,1.517-5.429,1.986-8.225a4.413,4.413,0,0,0-.254-2.741c-.271-.525-.7-.957-.932-1.5-.469-1.137.063-2.511-.442-3.634a9.444,9.444,0,0,0-.984-1.391,1.644,1.644,0,0,1-.285-1.6,5.619,5.619,0,0,0-2.07,2.351c-.657-.132-.64-1.544-1.283-1.342-.181.059-.285.25-.4.4a1.814,1.814,0,0,1-1.927.508,3.793,3.793,0,0,1-1.7-1.221l-1.1,1.363a1.256,1.256,0,0,0-1.207-.765,2.907,2.907,0,0,0-1.426.49c-2.087,1.249-3.652,3.805-2.852,6.1a25.4,25.4,0,0,0,1.51,2.716,2.544,2.544,0,0,1-.16,2.908,5.705,5.705,0,0,0-.48.438c-.546.644-.2,1.625-.365,2.435-.289,1.492-2.049,2.087-3.531,2.435-1.043.236-2.285.414-3.015-.348-.8-.835-.442-2.2.041-3.252s1.044-2.264.526-3.294-2.038-1.391-2.585-2.466c-.695-1.367.533-2.866,1.023-4.32.671-1.989-.077-4.222.473-6.26a8.749,8.749,0,0,1,1.537-2.825,18.3,18.3,0,0,1,5.986-5.457,11.609,11.609,0,0,1,7.1-1.088C-3023.675,1897.963-3021.4,1897.81-3019.136,1898.147Z" transform="translate(3290.436 -1738.217)"/><path class="f" d="M-3010.484,1944.375a.848.848,0,0,0,.4-.553q1.158-3.255,2.17-6.556a2.555,2.555,0,0,0,.163-1.221,2.375,2.375,0,0,0-.932-1.27,13.915,13.915,0,0,0-3.808-2.233c-1-.393-2.48-1.092-3.478-.455-1.239.789.083,2.782.535,3.826a39.549,39.549,0,0,0,2.087,4.173C-3013.11,1940.5-3010.8,1944.5-3010.484,1944.375Z" transform="translate(3261.96 -1738.217)"/><path class="d" d="M-3052.444,1965.564a2.121,2.121,0,0,0,.326.466,1.171,1.171,0,0,0,.126.125,1.571,1.571,0,0,0,.156.136h6.049a15.759,15.759,0,0,0,2.88-1.433l.347-.216c1.27-.814,2.585-1.708,4.073-1.631a17.3,17.3,0,0,1,1.711.292,7.921,7.921,0,0,0,1.044.069h.146c.525,0,1.043-.024,1.576,0a26.392,26.392,0,0,1,5.238,1.263c.309.083.619.16.932.223a25.451,25.451,0,0,0,3.547.379l5.273.313h.126c1.575.09,3.283.111,4.521-.859a6.578,6.578,0,0,0,1.475-1.885,9.791,9.791,0,0,0,1.276-2.734,10.181,10.181,0,0,0-.2-4.254,122.467,122.467,0,0,1-1.889-18.2c-.031-1.088-.038-4.316-1.318-5.154a1.118,1.118,0,0,0-.483-.188h0a1.232,1.232,0,0,0-.258,0c-1.5.063-3.606,3.906-4.473,4.995a3.05,3.05,0,0,0-.852,2.528q0,2.144.028,4.292v.195q.024,4.57.059,9.137a1.659,1.659,0,0,1-.163.9,1,1,0,0,1-.181.22,2.272,2.272,0,0,1-.372.26c-2.313,1.364-5.155,1.35-7.84,1.3h-.163l-5.931-.122-1.415-.028a28.008,28.008,0,0,0-4.522.15c-.208.028-.421.062-.629.1a16.357,16.357,0,0,0-6.365,2.872q-.87.617-1.691,1.3a7.261,7.261,0,0,0-2.153,2.518A3.176,3.176,0,0,0-3052.444,1965.564Z" transform="translate(3301.934 -1738.217)"/><path class="f" d="M-3046.191,1944.375a.857.857,0,0,1-.4-.553q-1.158-3.255-2.17-6.556a2.6,2.6,0,0,1-.16-1.221,2.374,2.374,0,0,1,.932-1.27,13.853,13.853,0,0,1,3.8-2.233c1-.393,2.477-1.092,3.478-.455,1.239.789-.08,2.782-.535,3.826a39.177,39.177,0,0,1-2.087,4.173C-3043.565,1940.5-3045.875,1944.5-3046.191,1944.375Z" transform="translate(3326.865 -1738.217)"/><path class="b" d="M-2845.391,1904.895c-2.07-.505-3.677,2.921-5.76,2.514-1.144-.222-2.028-1.579-3.186-1.478-1.318.115-1.882,1.917-2.556,3.235a5.98,5.98,0,0,1-5.823,3.388,4.125,4.125,0,0,1-.215-3.583,12.834,12.834,0,0,0,.935-3.589c.018-1.666-.9-3.51-.069-4.87.636-1.043,1.937-1.127,2.893-1.77a12,12,0,0,0,1.9-2.024,6.274,6.274,0,0,1,3.872-2.035,11.431,11.431,0,0,1,3.686.39l5.691,1.231a1.578,1.578,0,0,1,.886.407,3.064,3.064,0,0,1,.46,1.165c.539,1.767,2.229,2.595,3.61,3.575s2.692,2.922,1.93,4.574c-.431.936-1.447,1.513-1.554,2.564a3.548,3.548,0,0,0,1.137,2.4c2.348,2.942-2.915,4.473-4.174,2.476C-2843.131,1911.27-2842.431,1905.618-2845.391,1904.895Z" transform="translate(2937.881 -1738.217)"/><path class="d" d="M-2844.829,1923.4a16.8,16.8,0,0,1,1.534,1.888,4.344,4.344,0,0,1,.23,3.259,12.309,12.309,0,0,1-1.486,2.992,17.393,17.393,0,0,1-2.608,3.478,6.349,6.349,0,0,1-3.826,1.9,9,9,0,0,1-4.445-1.2,4.882,4.882,0,0,1-1.6-1.043,4.973,4.973,0,0,1-.779-1.416l-1.207-2.89a7.966,7.966,0,0,1-.7-2.219,8.2,8.2,0,0,1,.7-3.523l2.209-6.077a2.049,2.049,0,0,1,.529-.921,1.983,1.983,0,0,1,.814-.348,23.607,23.607,0,0,1,4.267-.7c1.072-.073,3.5-.452,4.438.153.859.56.5,1.986.6,2.908A7.37,7.37,0,0,0-2844.829,1923.4Z" transform="translate(2940.328 -1738.217)"/><path class="e" d="M-2844.829,1923.4a16.8,16.8,0,0,1,1.534,1.888,4.344,4.344,0,0,1,.23,3.259,12.309,12.309,0,0,1-1.486,2.992,17.393,17.393,0,0,1-2.608,3.478,6.349,6.349,0,0,1-3.826,1.9,9,9,0,0,1-4.445-1.2,4.882,4.882,0,0,1-1.6-1.043,4.973,4.973,0,0,1-.779-1.416l-1.207-2.89a7.966,7.966,0,0,1-.7-2.219,8.2,8.2,0,0,1,.7-3.523l2.209-6.077a2.049,2.049,0,0,1,.529-.921,1.983,1.983,0,0,1,.814-.348,23.607,23.607,0,0,1,4.267-.7c1.072-.073,3.5-.452,4.438.153.859.56.5,1.986.6,2.908A7.37,7.37,0,0,0-2844.829,1923.4Z" transform="translate(2940.328 -1738.217)"/><ellipse class="d" cx="9.634" cy="9.634" rx="9.634" ry="9.634" transform="translate(78.637 164.486)"/><path class="b" d="M-2878.191,1936.4a19.293,19.293,0,0,0,2.052,7.652c1.054,2.435,2.393,4.838,3.423,7.339.083.2.163.407.243.612q2.658,6.866,4.7,13.944l.1.348h29.877c-1.363-5.218-2.532-10.435.738-14.035.1-.111.2-.226.3-.347,2.139-2.578,3.1-6.094,5.641-8.285a6.269,6.269,0,0,0,1.625-1.635,2.981,2.981,0,0,0,.306-1.357,9.131,9.131,0,0,0-.077-1.238c-.25-2.261-.574-4.633-1.937-6.455a9.513,9.513,0,0,0-2.209-2.052,17.61,17.61,0,0,0-6.159-2.751c-2.491-.571-5.239-.654-7.27-2.209a8.511,8.511,0,0,0-1.391-1.043l-.139-.06a1.449,1.449,0,0,0-1.5.16,2.065,2.065,0,0,0-.5,1.044q-.554,2.023-1.11,4.048a4.13,4.13,0,0,1-.838,1.823c-.984,1.022-2.866.9-3.631,2.087-.459.72-1.666-.118-2.191-.786a29.516,29.516,0,0,1-3.287-5.2,8.311,8.311,0,0,0-1.217-2.027,2.753,2.753,0,0,0-1.343-.814,1.8,1.8,0,0,0-.772-.021,3.633,3.633,0,0,0-1.812,1.342,40.667,40.667,0,0,1-10.692,8.5,1.776,1.776,0,0,0-.782.647,1.331,1.331,0,0,0-.133.56A1.052,1.052,0,0,0-2878.191,1936.4Z" transform="translate(2945.114 -1738.217)"/><path class="b" d="M-2846.436,1904.4c-1.611-.347-2.859,1.965-4.48,1.691-.891-.146-1.579-1.044-2.477-.992-1.026.077-1.464,1.287-1.989,2.171a4.812,4.812,0,0,1-4.522,2.278,2.441,2.441,0,0,1-.167-2.407,7.7,7.7,0,0,0,.731-2.41c0-1.124-.7-2.362-.056-3.277.494-.7,1.506-.758,2.251-1.189a9.5,9.5,0,0,0,1.478-1.36,5.14,5.14,0,0,1,3.008-1.367,10.236,10.236,0,0,1,2.866.261l4.424.828a1.307,1.307,0,0,1,.7.271,1.9,1.9,0,0,1,.348.783c.421,1.189,1.739,1.739,2.807,2.4s2.087,1.965,1.5,3.075c-.347.629-1.123,1.015-1.207,1.739-.076.629.453,1.147.884,1.613,1.822,1.976-2.268,3.006-3.252,1.663C-2844.679,1908.689-2844.134,1904.891-2846.436,1904.4Z" transform="translate(2937.886 -1738.217)"/><path class="b" d="M-2835.339,1966.291h8.136c-.132-3.333,1.224-6.717,1.391-10.115a25.153,25.153,0,0,1,.212-3.826,8.388,8.388,0,0,1,.261-.963c.2-.644.456-1.277.65-1.924a22.246,22.246,0,0,0,.592-6.709q-.056-3.732-.119-7.457c0-.647.192-1.6-.4-1.871-1.325-.612-2.7.6-3.92,1.391-.73.487-1.565.87-2.275,1.391a4.258,4.258,0,0,0-1.081,1.078,6.05,6.05,0,0,0-.72,1.875q-1.479,5.644-2.574,11.384a36.9,36.9,0,0,0-.7,5.043C-2836.091,1959.15-2835.349,1962.743-2835.339,1966.291Z" transform="translate(2897.74 -1738.217)"/><path class="b" d="M-2879.058,1962.416a6.281,6.281,0,0,1,.671,2.664,4.172,4.172,0,0,1-.278,1.211h7.37a27.235,27.235,0,0,0,.835-3.826,28.779,28.779,0,0,0-.171-7.607,27.753,27.753,0,0,0-1.276-5.763,58.816,58.816,0,0,0-3.36-6.821c-.272-.525-.518-1.116-.807-1.638-.619-1.144-1.419-1.986-3.012-1.217-3.962,1.909-5.663,8.6-4.56,12.493a.083.083,0,0,0,0,.031,19.269,19.269,0,0,0,1.176,2.877Q-2880.676,1958.583-2879.058,1962.416Z" transform="translate(2991.99 -1738.217)"/><path class="b" d="M-2932.877,1900.025a3.524,3.524,0,0,0-1.86,1.579,14.755,14.755,0,0,0-.522,2.126c-.456,1.471-1.826,2.434-2.678,3.721a10.133,10.133,0,0,0-1.211,6.042,21.692,21.692,0,0,1-.173,6.243c-.247.988-.668,1.927-.839,2.932-.205,1.217-.034,2.49-.348,3.687a9.578,9.578,0,0,1-1.551,2.967l-2.706,3.954a31.1,31.1,0,0,0,3.572-1.075,6.408,6.408,0,0,1-1.93,2.919l1.955-2.366a5.606,5.606,0,0,1,1.457-1.391,7.919,7.919,0,0,1,2.372-.636,5.516,5.516,0,0,0,3.857-2.5c1.012-1.857.348-4.191.929-6.229a22.847,22.847,0,0,1,2.139-4.087c1.6-3.106,1.5-6.769,2-10.226a31.464,31.464,0,0,0,.549-4.41c0-1.1-.107-3.176-1.255-3.736C-2930.115,1899.069-2931.951,1899.632-2932.877,1900.025Z" transform="translate(3110.368 -1738.217)"/><path class="g" d="M-2943.732,1924.9c-.163,1.816-.542,3.958-2.2,4.72a11.574,11.574,0,0,1-3.04.438,6.37,6.37,0,0,0-4.382,3.513,15.372,15.372,0,0,0-1.391,5.624c-.261,2.418-.348,5.044.984,7.082a8.173,8.173,0,0,0,4.835,3.168,13.491,13.491,0,0,0,11.258-2.086,25.078,25.078,0,0,0,4.143-4.094c2.758-3.21,5.533-6.73,6.1-10.925a1.356,1.356,0,0,0-.347-1.336,1.466,1.466,0,0,0-.887-.177l-2.644.049a2.436,2.436,0,0,1-1.885-.505,2.293,2.293,0,0,1-.41-1.739q.1-3.825.2-7.669a1.1,1.1,0,0,0-.173-.775,1.02,1.02,0,0,0-.609-.261c-1.457-.247-2.981,0-4.407-.4-1.356-.372-3.478-1.93-4.483-.33C-2943.909,1920.543-2943.6,1923.36-2943.732,1924.9Z" transform="translate(3120.031 -1738.217)"/><path class="e" d="M-2943.732,1924.9c-.163,1.816-.542,3.958-2.2,4.72a11.574,11.574,0,0,1-3.04.438,6.37,6.37,0,0,0-4.382,3.513,15.372,15.372,0,0,0-1.391,5.624c-.261,2.418-.348,5.044.984,7.082a8.173,8.173,0,0,0,4.835,3.168,13.491,13.491,0,0,0,11.258-2.086,25.078,25.078,0,0,0,4.143-4.094c2.758-3.21,5.533-6.73,6.1-10.925a1.356,1.356,0,0,0-.347-1.336,1.466,1.466,0,0,0-.887-.177l-2.644.049a2.436,2.436,0,0,1-1.885-.505,2.293,2.293,0,0,1-.41-1.739q.1-3.825.2-7.669a1.1,1.1,0,0,0-.173-.775,1.02,1.02,0,0,0-.609-.261c-1.457-.247-2.981,0-4.407-.4-1.356-.372-3.478-1.93-4.483-.33C-2943.909,1920.543-2943.6,1923.36-2943.732,1924.9Z" transform="translate(3120.031 -1738.217)"/><ellipse class="g" cx="10.104" cy="10.104" rx="10.104" ry="10.104" transform="translate(172.852 165.982)"/><path class="a" d="M-2958.59,1957.571a9.309,9.309,0,0,0,.289,1.221,28.6,28.6,0,0,0,1.113,2.744c.16.372.309.744.438,1.127.1.3.188.6.264.911s.167.72.23,1.085c.094.539.163,1.085.219,1.632h26.368a16.422,16.422,0,0,1,.149-4,26.274,26.274,0,0,1,1.628-5.3,96.934,96.934,0,0,0,4.591-13.186v-.017a26.2,26.2,0,0,0,.64-8.918c-.021-.174-.045-.348-.07-.529a13.65,13.65,0,0,0-.253-1.343,7.4,7.4,0,0,0-1.68-3.4,4.093,4.093,0,0,0-4.717-1.089,4.778,4.778,0,0,0-1.958,2.324c-.292.612-.539,1.259-.8,1.874a19.132,19.132,0,0,1-3.993,5.965,13.365,13.365,0,0,1-1.016.964c-.351.306-.657.563-1,.828-1.116.859-2.462,1.947-3.919,1.986-.846.024-1.708,0-2.581,0-.765,0-1.537-.032-2.3,0-1.631.031-3.478-.432-4.268-1.861a5.715,5.715,0,0,1-.348-3.284q.12-1.3.244-2.612v-.135c.055-.63.115-1.252.174-1.882h0c.028-.3.055-.609.087-.911h0l.062-.675q-.435-.048-.876-.083a6.551,6.551,0,0,0-3.8.563,5.051,5.051,0,0,0-2.164,2.842,11.378,11.378,0,0,0-.542,2.608c-.39,3.948.24,7.93.024,11.888C-2958.489,1951.769-2959.094,1954.743-2958.59,1957.571Z" transform="translate(3119.057 -1738.217)"/><path class="g" d="M-2924.91,1966.291h7.976c.066-.905.118-1.809.149-2.717.028-.626.049-1.255.059-1.882q.052-2.532-.041-5.05a11.4,11.4,0,0,1-5.131,1.465,9.827,9.827,0,0,0-1.739,2.758,13.339,13.339,0,0,0-.594,1.707.054.054,0,0,0,0,.025A22.924,22.924,0,0,0-2924.91,1966.291Z" transform="translate(3079.356 -1738.217)"/><path class="a" d="M-2926.57,1960.854a37.138,37.138,0,0,1,8.938,1.183,19.338,19.338,0,0,0,0-5.809l-1.29-13.29c-.094-.984.087-10.02-1.819-8.424-.7.588-1.586,5.871-1.805,6.72-.331,1.284-.592,2.581-.825,3.882-.476,2.671-.8,5.363-1.262,8.038C-2924.765,1953.926-2925.882,1960.861-2926.57,1960.854Z" transform="translate(3081.715 -1738.217)"/><path class="b" d="M-2965.71,1901.455a1.743,1.743,0,0,1,.209-.908,1.51,1.51,0,0,1,1.082-.57c1.457-.226,3.057.348,4.375-.306.7-.348,1.221-1.044,1.917-1.43,1.641-.929,3.714,0,5.168,1.2a15.083,15.083,0,0,1,4.845,7.38c.647,2.233.908,4.845,2.758,6.261a10.162,10.162,0,0,1,2.313,1.687,4.317,4.317,0,0,1,.612,2.086,13.7,13.7,0,0,1-.094,5.085c-.347,1.228-.991,2.341-1.391,3.548a9.42,9.42,0,0,0,2.567,9.8,3.063,3.063,0,0,1-2.261.393,1.939,1.939,0,0,0,.327,1c-2.365-.077-4.42-2.379-6.733-1.875-1.767.383-2.752,2.2-4.07,3.443a6.113,6.113,0,0,1-6.466,1.319,4.681,4.681,0,0,1-2.521-5.788c1.043-2.435,4.205-3.412,5.307-5.829.852-1.875.219-4.059.4-6.108a28.77,28.77,0,0,1,1.391-5.1,6.292,6.292,0,0,0-.348-5.127c-1.022-1.572-2.981-2.184-4.761-2.782C-2965.091,1907.545-2965.863,1905.51-2965.71,1901.455Z" transform="translate(3144.816 -1738.217)"/><path class="g" d="M-2945.574,1937.78a7.739,7.739,0,0,1-.066-4.257c.946-2.511,4.038-3.294,6.177-4.911a8.343,8.343,0,0,0,2.747-3.662c.39-1.019.442-2.435-.514-2.95a2.324,2.324,0,0,0-1.193-.209c-3.332.077-6.386,1.889-8.943,4.032a12.208,12.208,0,0,0-3.638,4.469,14.629,14.629,0,0,0-.845,4.017l-.522,4.522a70.989,70.989,0,0,0-.6,7.815,34.482,34.482,0,0,0,.281,4.483,6.72,6.72,0,0,0,.95,3.009c1.155,1.61,3.374,1.972,5.356,2.028a9.266,9.266,0,0,0,2.237-.143c3.294-.716,5.791-5.328,3.3-8.177-1.043-1.21-2.65-1.242-3.252-2.9C-2944.907,1942.747-2945.1,1940.086-2945.574,1937.78Z" transform="translate(3127.163 -1738.217)"/><path class="a" d="M-2956.4,1938.573l-2.6,4.247a1.937,1.937,0,0,0-.316.734c-.073.553.348,1.043.668,1.492,2.239,3.061,1.669,7.269.994,11a19.966,19.966,0,0,0,13.725-16.162c.327-2.223.856-5.882-1.117-7.329C-2949.79,1929.071-2954.165,1934.935-2956.4,1938.573Z" transform="translate(3140.658 -1738.217)"/><path class="h" d="M-2933.135,1930.062a11.4,11.4,0,0,0,3.04-.438c1.656-.762,2.035-2.9,2.2-4.72,0-.167.025-.347.032-.546a15.15,15.15,0,0,0-1.924-1.673,9.457,9.457,0,0,0-1.965-.866l-1.836-.647a10.568,10.568,0,0,0-.4,1.5c-.205,1.217-.035,2.49-.348,3.687a9.578,9.578,0,0,1-1.551,2.967l-2.706,3.954c.491-.115.978-.247,1.461-.386A6.14,6.14,0,0,1-2933.135,1930.062Z" transform="translate(3104.196 -1738.217)"/><path class="i" d="M-2795.369,1999.152c7.739.062,17.978-1.2,20.041-2.459,1.569-.957,2.2-4.39,2.407-5.972h.226s-.431,5.527-2.494,6.782-12.3,2.522-20.041,2.459c-2.236-.017-3-.81-2.963-1.989C-2797.884,1998.7-2797.031,1999.141-2795.369,1999.152Z" transform="translate(2808.627 -1738.217)"/></g></svg>