<?xml version="1.0" encoding="utf-8"?>
<!-- Generator: Adobe Illustrator 24.0.1, SVG Export Plug-In . SVG Version: 6.00 Build 0)  -->
<svg version="1.1" id="Layer_1" xmlns="http://www.w3.org/2000/svg" xmlns:xlink="http://www.w3.org/1999/xlink" x="0px" y="0px"
	 viewBox="0 0 441.5 490.5" style="enable-background:new 0 0 441.5 490.5;" xml:space="preserve">
<style type="text/css">
	.st0{fill:#E74C3C;}
	.st1{fill:#222222;}
</style>
<title>1</title>
<path class="st0" d="M138.3,231.5L80.6,410.2c9.7,8.6,20.3,16.4,31.4,23.1l26.3-79.6l34.5,104.2c14,3.2,28.2,5,42.5,5.4L138.3,231.5
	z"/>
<g>
	<path class="st1" d="M368.87,216.01c0.12,0.46,0.23,0.93,0.34,1.39c0.1-0.13,0.19-0.27,0.29-0.4c0.1-0.1,0.1-0.2,0.2-0.3
		c-0.2-0.2-0.4-0.3-0.6-0.5C369.02,216.13,368.95,216.07,368.87,216.01z"/>
	<path class="st1" d="M293.9,114.7c-0.2,0.1-0.3,0.3-0.5,0.4c-0.4,0.3-0.9,0.6-1.3,0.9c-0.3,0.2-0.6,0.4-0.9,0.6
		c-0.4,0.2-0.7,0.5-1.1,0.7c0,0.6,0,1.2,0,1.8c0,0.49,0.02,0.97,0.04,1.46c2.95,1.39,5.84,2.88,8.67,4.45
		c-1.24-2.49-2.17-5.07-2.61-7.81C294.9,116.3,294.9,116.3,293.9,114.7z"/>
	<path class="st1" d="M326.85,68.84l-0.35,0.46c0,0.1,0,0.1,0,0.2c0.3,1.2-0.1,2.5-0.9,3.4c-0.8,1-1.6,1.9-2.4,2.7
		c-0.7,0.6-1.5,1.3-2.3,2c-0.9,0.8-1.9,1.6-2.8,2.5c-0.4,0.4-0.8,0.8-1.3,1.2c-0.1,0.2-0.3,0.3-0.5,0.5l0.5,0.9
		c1.1,2.1,1.1,4.6-0.1,6.6c-0.7,1.2-1.5,2.2-2.6,3c-1,0.8-2.1,1.6-3.2,2.2c-2,1.1-3.8,2.8-5.2,4.7c-0.8,1.2-1.8,2.1-3,2.7
		c0,0.1,0,0.1,0,0.1c0,0.1,0,0.1,0,0.1c0,0.2,0.1,0.4,0.1,0.6c0.1,0.4,0.2,0.9,0.3,1.3c0.2,0.5,0.4,1.1,0.7,1.6
		c0.2,0.4,0.5,0.8,0.7,1.2c0.1,0.2,0.2,0.4,0.3,0.6c0.7,1.2,1.1,2.5,1.3,3.8c0.8,0.4,1.6,1.1,2.1,1.9c4.3,5.5,7.9,10.4,11,15.1
		c0.5,0.5,0.7,1.1,0.6,1.7h1.1c1.9-0.1,3.9,0,5.8,0.2c3.7,0.5,7.2,1.8,10.2,4c4.2,3,7.8,6.9,10.3,11.4c0.6,1.1,1.2,2.2,1.8,3.3
		c0.2,0.4,0.4,0.7,0.6,1.1c0.6,1,1.1,2,1.6,3c0.8,1.6,1.7,3.3,2.6,4.9c0.5,0.9,1.1,1.9,1.8,2.9c1.1,1.7,2.5,3.2,4.2,4.3
		c1.6,1.1,3.2,2.3,4.7,3.4c0.5,0.4,1,0.7,1.5,1.1c0.6,0.3,1.1,0.7,1.6,1.1c1.8,1.3,3.6,2.7,5.5,3.9c6.8,4.5,12.3,8.2,17.4,11.9
		c0.1,0.1,0.2,0.2,0.4,0.3c1.4,0.7,2.7,1.7,3.7,3c0.6,0.7,1.2,1.4,1.8,2.1c0.6,0.7,1.2,1.4,1.8,2.1c0.5,0.6,1,1.2,1.5,1.7
		c0.4,0.3,0.7,0.7,1.1,1.1c1.1,1.2,2.6,2.1,4.2,2.6c0.6,0.2,1.2,0.5,1.7,0.9c0.2,0.1,0.3,0.2,0.5,0.3c0.3,0.2,0.6,0.4,0.9,0.6
		c2.2,1.2,3.5,3.7,3.1,5.9c-0.1,2.1-0.5,4.1-1.1,6.1c-0.2,0.8-0.4,1.6-0.7,2.4l-0.2,0.5c-0.3,0.9-0.5,1.8-0.4,2.8
		c0.1,2.3-0.2,4.6-1,6.8c-1.4,4.6-3.7,8.8-6.6,12.5c-3.6,4.8-7.7,9.3-12.1,13.4l-1.5,1.4c-0.7,0.4-1.1,1.1-1.3,1.8
		c0.1,0.2-0.1,0.4-0.2,0.5l-0.1,0.1l0.2,0.8c0.6,1.7,0.1,3.6-1.2,4.9c-0.5,0.6-1.1,1.1-1.8,1.5c-0.4,0.3-0.9,0.6-1.4,0.8
		c-1.2,0.6-2.2,1.4-3.1,2.4c-2.24,2.51-4.57,4.96-6.98,7.33c-3.26,21.93-11.46,42.47-23.61,60.26c0,0.01,0.01,0.02,0.01,0.02
		c-4.42,6.47-9.35,12.55-14.74,18.2c-0.1,0.1-0.19,0.2-0.29,0.3c-0.51,0.54-1.03,1.07-1.56,1.6c-0.2,0.21-0.41,0.41-0.61,0.62
		c-0.45,0.45-0.89,0.89-1.35,1.33c-0.29,0.29-0.59,0.57-0.88,0.86c-0.38,0.37-0.77,0.73-1.15,1.09c-0.38,0.36-0.77,0.72-1.16,1.07
		c-0.32,0.29-0.63,0.58-0.95,0.86c-0.48,0.43-0.97,0.86-1.46,1.29c-0.24,0.21-0.48,0.42-0.72,0.63c-0.6,0.52-1.21,1.04-1.82,1.55
		c-0.14,0.11-0.27,0.23-0.4,0.34c-8.65,7.19-18.2,13.41-28.49,18.48c-0.02,0.01-0.03,0.02-0.05,0.03c-0.9,0.44-1.8,0.87-2.7,1.3
		c-0.06,0.03-0.12,0.06-0.18,0.08c-0.87,0.4-1.74,0.8-2.61,1.18c-0.09,0.04-0.19,0.08-0.28,0.12c-0.84,0.37-1.68,0.73-2.53,1.08
		c-0.13,0.05-0.25,0.11-0.38,0.16c-0.82,0.34-1.64,0.67-2.46,0.99c-0.16,0.06-0.31,0.12-0.47,0.18c-0.79,0.31-1.59,0.61-2.4,0.9
		c-0.18,0.07-0.37,0.14-0.55,0.21c-0.79,0.29-1.58,0.56-2.37,0.83c-0.2,0.07-0.39,0.14-0.59,0.21c-0.81,0.28-1.63,0.54-2.45,0.8
		c-0.18,0.06-0.35,0.12-0.53,0.17c-1,0.31-1.99,0.62-3,0.91l-13.2-39.8l-0.04-0.12L211.22,216.2c0-0.01,0.01-0.02,0.01-0.03
		l-3.79-11.45c-0.01,0.01-0.01,0.02-0.01,0.03l-16.33-49.33c0.01-0.01,0.01-0.03,0.02-0.04l-1.02-3.08L175,106.8h53.5
		c2.45,0,4.89,0.06,7.32,0.18c-0.38-0.46-0.75-0.92-1.12-1.38c-0.5-0.7-1-1.4-1.4-2.2c-0.6-1.1-1-2.4-1-3.7c-0.1-2.5,0.3-5.1,1-7.5
		c1-3.2,2.3-6.3,4-9.2c0.9-1.8,2.3-3.4,3.9-4.6c0.5-0.3,0.8-0.8,1-1.3l0.1-0.4c0.2-0.6,0.4-1.2,0.5-1.8c0-0.5,0.1-1,0.1-1.5
		c-0.5-0.3-0.9-0.5-1.3-0.8c-0.3-0.3-0.6-0.6-0.9-1c-1.6-2.2-3.1-4.5-4.5-6.8c-0.9-1.5-1.5-3.2-1.9-4.9c-0.4-0.9-0.2-1.9,0.4-2.7
		c-0.3-2.4-0.4-4.9-0.4-7.3s0.3-4.8,0.8-7.1c0-0.1,0.1-0.3,0.1-0.4s0.1-0.3,0.1-0.4c0.03-0.42,0.15-0.81,0.33-1.17
		c-4.93-0.34-9.91-0.53-14.93-0.53C103.9,40.3,9.2,135,9.2,251.8c0,44.2,13.8,87.2,39.5,123L136.6,109c0.3-0.9,1.3-1.4,2.3-1.1
		c0.5,0.2,1,0.6,1.1,1.1l119.4,350.7c98.4-18.1,172.9-104.3,172.9-207.9C432.23,173.69,389.85,105.47,326.85,68.84z"/>
</g>
<path class="st0" d="M348.13,333.32c-2.13-4.26-4.25-8.54-6.33-12.82c-0.3-0.4-0.4-0.8-0.5-1.3l0.8-0.1c0.8,0,1.6-0.2,2.3-0.7
	c0.4-0.4,1-0.5,1.6-0.3c0.4,0.1,0.7,0.1,1.1,0.1c0.3,0,0.7-0.1,1-0.3c0.5-0.4,1-0.7,1.5-0.9c0.4-0.2,0.9-0.4,1.3-0.6
	c1.1-0.5,2.3-1,3.5-1.5c1.2-0.4,2-1.7,1.8-2.9v-0.7c-0.3-2.6-1.3-5.1-2.7-7.2c-0.1-0.2-0.2-0.4-0.4-0.6l0.2-0.3
	c0.3-0.4,0.6-0.7,0.9-1.1c1.1-1.2,1.6-2.8,1.5-4.4c-0.1-0.8-0.1-1.5-0.2-2.3c0-0.4-0.1-0.8-0.1-1.1c-0.1-1-0.2-1.9-0.2-2.9
	c1.8-0.9,3.1-2.6,3.5-4.6v-0.1c0-0.1,0.1-0.1,0.1-0.2c0.2-0.8,0.6-1.6,1.2-2.2c0.7-0.6,1.3-1.3,1.9-1.9c1.2-1.2,2.4-2.4,3.7-3.6
	c4.6-4.1,9-8.5,13.1-13.1c0.9-1,1.9-1.8,3.1-2.4c0.5-0.2,1-0.5,1.4-0.8c0.7-0.4,1.3-0.9,1.8-1.5c1.3-1.3,1.8-3.2,1.2-4.9l-0.2-0.8
	l0.1-0.1c0.1-0.1,0.3-0.3,0.2-0.5c0.2-0.7,0.6-1.4,1.3-1.8l1.5-1.4c4.4-4.1,8.5-8.6,12.1-13.4c2.9-3.7,5.2-7.9,6.6-12.5
	c0.8-2.2,1.1-4.5,1-6.8c-0.1-1,0.1-1.9,0.4-2.8l0.2-0.5c0.3-0.8,0.5-1.6,0.7-2.4c0.6-2,1-4,1.1-6.1c0.4-2.2-0.9-4.7-3.1-5.9
	c-0.3-0.2-0.6-0.4-0.9-0.6c-0.2-0.1-0.3-0.2-0.5-0.3c-0.5-0.4-1.1-0.7-1.7-0.9c-1.6-0.5-3.1-1.4-4.2-2.6c-0.4-0.4-0.7-0.8-1.1-1.1
	c-0.5-0.5-1-1.1-1.5-1.7c-0.6-0.7-1.2-1.4-1.8-2.1c-0.6-0.7-1.2-1.4-1.8-2.1c-1-1.3-2.3-2.3-3.7-3c-0.2-0.1-0.3-0.2-0.4-0.3
	c-5.1-3.7-10.6-7.4-17.4-11.9c-1.9-1.2-3.7-2.6-5.5-3.9c-0.5-0.4-1-0.8-1.6-1.1c-0.5-0.4-1-0.7-1.5-1.1c-1.5-1.1-3.1-2.3-4.7-3.4
	c-1.7-1.1-3.1-2.6-4.2-4.3c-0.7-1-1.3-2-1.8-2.9c-0.9-1.6-1.8-3.3-2.6-4.9c-0.5-1-1-2-1.6-3c-0.2-0.4-0.4-0.7-0.6-1.1
	c-0.6-1.1-1.2-2.2-1.8-3.3c-2.5-4.5-6.1-8.4-10.3-11.4c-3-2.2-6.5-3.5-10.2-4c-1.9-0.2-3.9-0.3-5.8-0.2h-1.1
	c0.1-0.6-0.1-1.2-0.6-1.7c-3.1-4.7-6.7-9.6-11-15.1c-0.5-0.8-1.3-1.5-2.1-1.9c-0.2-1.3-0.6-2.6-1.3-3.8c-0.1-0.2-0.2-0.4-0.3-0.6
	c-0.2-0.4-0.5-0.8-0.7-1.2c-0.3-0.5-0.5-1.1-0.7-1.6c-0.1-0.4-0.2-0.9-0.3-1.3c0-0.2-0.1-0.4-0.1-0.6c0,0,0,0,0-0.1c0,0,0,0,0-0.1
	c1.2-0.6,2.2-1.5,3-2.7c1.4-1.9,3.2-3.6,5.2-4.7c1.1-0.6,2.2-1.4,3.2-2.2c1.1-0.8,1.9-1.8,2.6-3c1.2-2,1.2-4.5,0.1-6.6l-0.5-0.9
	c0.2-0.2,0.4-0.3,0.5-0.5c0.5-0.4,0.9-0.8,1.3-1.2c0.9-0.9,1.9-1.7,2.8-2.5c0.8-0.7,1.6-1.4,2.3-2c0.8-0.8,1.6-1.7,2.4-2.7
	c0.8-0.9,1.2-2.2,0.9-3.4c0-0.1,0-0.1,0-0.2l3.3-4.4c1.5-2,2.5-4.4,2.9-6.8c0.3-1.3,0.3-2.7,0.1-4c0-1.2-0.8-2.3-2-2.7
	c-0.2-0.1-0.4-0.2-0.5-0.2l0.1-0.3c0.1-0.3,0.2-0.7,0.2-1c0.2-1,0.4-2.1,0.5-3.1c0.3-1.3-0.1-2.7-1-3.6c0.1-0.2,0.1-0.4,0.2-0.6
	c0.1-0.4,0.2-0.7,0.4-1.1c0.4-1.1,0.5-2.3,0.4-3.4c0-0.4-0.1-0.8-0.2-1.1c-0.3-0.8-1.2-1.3-2-1.1c-0.4,0.1-0.8,0.2-1.2,0.4
	c-2.4,0.8-4.7,1.8-7,3c-0.2,0.1-0.5,0.2-0.7,0.3c-0.8-1.3-1.3-1.4-2.7-1.2l-0.8,0.2l-3.9,0.9c-0.1-0.1-0.3-0.2-0.4-0.3
	c-0.5-0.4-1.2-0.5-1.7-0.1l-0.4,0.3c-2.6,1.9-4.6,4.6-5.9,7.6c-0.1,0.2-0.2,0.3-0.3,0.6c-0.2-0.2-0.3-0.3-0.4-0.5
	c-0.8-1-1.6-2-2.5-3c-3-3-6.8-5.3-10.8-6.7c-5.2-1.8-10.6-2.7-16.1-2.7c-2.1,0-4.2,0.1-6.3,0.4l-3.2,0.5c-0.1-0.4-0.2-0.7-0.2-1
	c0-0.2-0.1-0.4-0.1-0.6c-0.2-0.6-0.7-1-1.2-1.3c-0.6-0.3-1.2-0.3-1.8-0.1c-0.3,0.1-0.6,0.2-0.9,0.3c-0.2,0-0.3,0.1-0.5,0.1
	c-0.8-0.8-2-1-3-0.6l-0.3,0.1c-0.3,0.1-0.6,0.2-0.9,0.2c-0.1,0-0.3,0-0.4,0.1c-0.1-0.5,0-0.9,0.1-1.4c0.1-0.7,0-1.4-0.2-2.1
	c-0.3-0.9-1-1.5-2-1.5h-0.7c0-0.1-0.1-0.1-0.1-0.1c-0.1-0.1-0.1-0.1-0.1-0.2c-0.7-1.1-2-1.7-3.3-1.5c-1.1,0.1-2,0.4-2.8,1.1
	c-0.8,0.7-1.6,1.5-2.4,2.3c-2.1,2.6-3.9,5.5-5.4,8.5c-0.2,0.4-0.4,0.8-0.6,1.2v0.1c-1.4,0.3-2.4,1.4-2.5,2.8c0,0.1-0.1,0.3-0.1,0.4
	s-0.1,0.3-0.1,0.4c-0.5,2.3-0.8,4.7-0.8,7.1s0.1,4.9,0.4,7.3c-0.6,0.8-0.8,1.8-0.4,2.7c0.4,1.7,1,3.4,1.9,4.9
	c1.4,2.3,2.9,4.6,4.5,6.8c0.3,0.4,0.6,0.7,0.9,1c0.4,0.3,0.8,0.5,1.3,0.8c0,0.5-0.1,1-0.1,1.5c-0.1,0.6-0.3,1.2-0.5,1.8l-0.1,0.4
	c-0.2,0.5-0.5,1-1,1.3c-1.6,1.2-3,2.8-3.9,4.6c-1.7,2.9-3,6-4,9.2c-0.7,2.4-1.1,5-1,7.5c0,1.3,0.4,2.6,1,3.7
	c0.4,0.8,0.9,1.5,1.4,2.2c0.8,1,1.6,2,2.5,3c0.3,0.3,0.5,0.6,0.8,0.9l0.5,0.6c-0.1,0.2-0.1,0.5-0.1,0.7c0,0.7-0.2,1.3-0.6,1.8
	c-0.1,0.1-0.2,0.3-0.2,0.4c-0.2,0.7-0.5,1.3-1,1.9c-1.1,1.6-1.9,3.5-2.4,5.4c-0.1,0.5-0.1,1,0,1.6c0.1,0.6,0.7,1.1,1.3,1h0.8
	c0.2,1.5,0.4,2.9,0.6,4.3c-0.9,0-1.7,0.3-2.3,0.8l-0.1,0.1c-0.3,0.2-0.6,0.4-0.9,0.6c-0.5,0.4-1.2,0.5-1.7,0.1
	c-0.8-0.5-1.8-0.4-2.5,0.2c-0.2,0.1-0.4,0.3-0.6,0.4c-0.1,0.1-0.2,0.2-0.3,0.2c-1-1-2.1-1-3.3-0.1L225,130c-0.3-0.2-0.7-0.3-1-0.4
	c-1-0.5-2-0.8-3-1c-6.1-1.1-12.3,0.5-17.1,4.5c-4.6,3.6-7.9,8.5-9.7,14.1c-0.8,2.7-1.8,5.4-3,8c-0.03,0.07-0.07,0.15-0.1,0.22
	l16.33,49.33c1.2-2.26,2.22-4.61,2.97-7.06c0.5-1.6,1.1-3.3,1.7-4.9c0.1-0.3,0.2-0.6,0.4-0.9c0-0.1,0.1-0.1,0.1-0.2
	c0.1,0.2,0.1,0.5,0.1,0.7c0,0.2,0,0.4,0,0.6c0,0.1,0,0.3,0,0.4c0,0.2,0,0.4,0.1,0.5c0,0.1,0,0.3,0,0.4c0,0.2,0,0.4,0.1,0.5
	c0,0.2,0,0.3,0,0.5s0.1,0.4,0.1,0.6c0,0.1,0,0.3,0.1,0.4v0.2c0,0.3,0.1,0.6,0.1,0.9c0.1,0.3,0.1,0.6,0.2,0.9
	c0.1,0.3,0.2,0.6,0.3,0.9c0.1,0.2,0.1,0.4,0.2,0.7l0.1,0.3c0.1,0.2,0.2,0.4,0.2,0.6l0.2,0.5c0.1,0.2,0.1,0.4,0.2,0.6
	c-0.3,0.4-0.5,0.8-0.8,1.4c-0.3,0.6-0.6,1.2-0.9,1.9c-0.4,1-0.5,2.1-0.2,3.2c0.1,0.3,0.1,0.5,0.2,0.8c0.1,0.3,0.2,0.7,0.3,1.1
	c0.3,1,0.2,2.1-0.4,3c-0.55,0.96-1.06,1.93-1.58,2.9l44.58,134.7l13.2,39.8C301.7,381.17,329.46,360.65,348.13,333.32z M325.1,196.3
	c0.3-1.5,0.6-2.9,0.9-4.4c0.2-0.9,0.3-1.7,0.5-2.6c0-0.1,0.1-0.2,0.1-0.3c0.2,0.2,0.3,0.4,0.5,0.6c0.2,0.4,0.5,0.8,0.7,1.2
	c0.7,1.2,1.5,2.5,2.1,3.8c2.5,5.1,4.5,10.5,6,16c0.9,3.4,1.5,6.9,1.8,10.4c0.2,2.2,0.5,4.4,0.7,6.6l0.1,0.8c0.1,0.5,0.2,1,0.4,1.5
	c0.1,0.2,0.1,0.4,0.3,0.5c0.6,0.9,1.8,1.1,2.7,0.5l0.8-0.4v0.3c0.1,0.5,0.1,0.9,0.2,1.3c0,0.3,0,0.6,0,0.9c0,0.3,0,0.5,0,0.8
	c0.1,0.7,0.2,1.4,0.4,2c0.2,0.7,0.5,1.3,1.1,1.8c1.4,1.3,3.7,1.3,5-0.2c0.5-0.4,0.9-0.9,1.2-1.4c0.5-0.8,1-1.6,1.4-2.5
	c2-4.3,3.2-8.9,3.5-13.7c0.2-2.8,0.2-5.6,0-8.4v-1.2h0.1c0.2,0,0.3,0.1,0.5,0.1l3.9,1.3l0.7,0.2c1.6,0.5,3.2,1,4.7,1.6
	c0.8,0.3,1.5,0.8,2.1,1.4c0.5,0.5,1,0.9,1.6,1.4c0.2,0.2,0.4,0.3,0.6,0.5c-0.1,0.1-0.1,0.2-0.2,0.3c-3.5,4.4-5.7,9.7-6.4,15.3
	c0.2,1.4,0,2.3-0.1,3.2c-0.1,0.5-0.1,1.1-0.2,1.6c0,0.2-0.1,0.4-0.1,0.6c0,0.1-0.1,0.3-0.1,0.4l-1.3,0.5c-1.4,0.4-2.6,1.2-3.6,2.3
	c-0.5,0.6-0.9,1.3-1.1,2c-0.1,0.4-0.2,0.7-0.3,1.1c-0.2,1.1-0.6,2.2-1.2,3.1c-2.1,3.2-4.2,6.4-6.3,9.5c-0.4,0.6-0.7,1.2-1.2,2
	c-0.5,0.9-1,1.7-1.6,2.5c-0.3-0.1-0.3-0.2-0.3-0.4c-0.3-1.6-0.9-3.2-1.7-4.7l-0.3-0.6c-0.9-1.7-1.9-3.4-3-5
	c-2.4-3.7-4.6-7.7-6.5-11.7c-0.3-0.6-0.6-1.2-1-1.8c-0.2-0.4-0.4-0.7-0.6-1.1c-0.7-1.2-0.9-2.6-0.5-3.9c0.2-0.9,0.2-1.9,0-2.8
	c-0.3-1.4-0.7-2.7-1.2-4l-0.2-0.6c-1.1-2.7-2.1-5.6-3-8.4c-1.3-4.5-2.3-9.2-2.8-13.8C324.6,200.3,324.7,198.3,325.1,196.3z
	 M290.1,117.3c0.4-0.2,0.7-0.5,1.1-0.7c0.3-0.2,0.6-0.4,0.9-0.6c0.4-0.3,0.9-0.6,1.3-0.9c0.2-0.1,0.3-0.3,0.5-0.4
	c1,1.6,1,1.6,2.3,2.5c0.5,3.1,1.6,6,3.1,8.8c-0.5-0.4-0.9-0.4-1.4-0.5c-0.5,0-1,0.2-1.5,0.5c-0.4,0.3-0.8,0.6-1.1,1
	c-1-0.3-2.4-1.3-5-3.2c-0.1-1.5-0.2-3.1-0.2-4.7C290.1,118.5,290.1,117.9,290.1,117.3z"/>
</svg>
