<svg id="Layer_1" data-name="Layer 1" xmlns="http://www.w3.org/2000/svg" xmlns:xlink="http://www.w3.org/1999/xlink" viewBox="0 0 441.45 490.46"><defs><style>.cls-1{fill:none;}.cls-2{clip-path:url(#clip-path);}.cls-3{fill:#fff;}.cls-4{fill:#e74c3c;}.cls-5{fill:#222;}.cls-6{clip-path:url(#clip-path-2);}.cls-7{clip-path:url(#clip-path-3);}</style><clipPath id="clip-path"><circle class="cls-1" cx="127.82" cy="-864.69" r="361.43"/></clipPath><clipPath id="clip-path-2"><path class="cls-1" d="M190.07,152.39,175,106.76,254.87-42.75c80,0,177.31,172.21,177.31,252.21,0,13.94-60.84,69.55-64.51,82.31A145.11,145.11,0,0,1,269,390.69L255.78,350.9Z"/></clipPath><clipPath id="clip-path-3"><path class="cls-1" d="M-233.73-810.71c0,154.79-97.31,286.86-234.1,338.36-54.45-37.73-239.45-560.73-252-677.71a360.81,360.81,0,0,1,124.68-22.08C-395.54-1172.14-233.73-1010.33-233.73-810.71Z"/></clipPath></defs><title>4</title><g class="cls-2"><path class="cls-3" d="M168.44,214.66c-3.18-41.73-5.51-83.39-8.3-126.13a23.24,23.24,0,0,1,1.5,2.4c.76,1.91,1.39,3.88,2.22,5.76.92,2.08,2.54,2.91,4.06,2.3,1.71-.7,2.34-2.19,1.68-4.32-.51-1.67-1.17-3.28-1.77-4.92-2.21-6.09-4.54-12.15-6.62-18.3-4-11.88-6.36-24.16-8.05-36.56-1-7.53-1.78-15.09-2.59-22.64-.25-2.35-.3-4.72-.46-7.47,1.47.6,1.61,1.7,2,2.56,4.84,11.18,9.5,22.44,14.54,33.53,8.42,18.56,19.57,35.44,32.26,51.33,3.76,4.71,7.55,9.38,11.33,14.06a19.16,19.16,0,0,0,1.9,2.12,3.18,3.18,0,0,0,3.94.3,3,3,0,0,0,.71-3.86,26.14,26.14,0,0,0-2.23-3c-5.78-7.34-11.63-14.62-17.33-22-11.37-14.75-20.26-31-28-47.85C160.29,12.45,152.92-7.58,146-27.81c-6.27-18.43-12.79-36.77-17.94-55.55-1.12-4.12-2.18-8.26-3.34-12.37a16,16,0,0,0-1.41-3.49,2.83,2.83,0,0,0-3.33-1.11,2.85,2.85,0,0,0-2,2.92,20.5,20.5,0,0,0,.66,2.76l2.91,11.4c-.88-.54-1.37-.68-1.63-1-4.37-5.66-8.24-11.57-10.64-18.4A277.79,277.79,0,0,1,100-137c-3.26-15.33-5.59-30.82-7.8-46.33-1.32-9.24-2.86-18.45-4.33-27.67a14.4,14.4,0,0,0-.83-3.19,2.74,2.74,0,0,0-3.18-1.47,2.54,2.54,0,0,0-2.09,2.29,21.58,21.58,0,0,0,.17,4.25C85.09-189,88-168.75,91.47-148.64A295.15,295.15,0,0,0,102.65-103a66.5,66.5,0,0,0,10,19.3c4.24,5.51,8.61,10.94,12.87,16.45A11.41,11.41,0,0,1,127.33-64c2.19,6.44,4.4,12.88,6.37,19.39a25.1,25.1,0,0,1,.73,12.16,76.29,76.29,0,0,1-15.59,34.2A146.45,146.45,0,0,1,97.2,23c-1.6,1.3-3.22,2.57-4.79,3.9a11.82,11.82,0,0,0-2,2,2.93,2.93,0,0,0,.3,3.52,2.78,2.78,0,0,0,3,.7,7.15,7.15,0,0,0,2-1.15c10.48-8.23,20.51-16.92,28.7-27.55A77.78,77.78,0,0,0,138.19-22c.32-1.14.78-2.24,1.24-3.57,1.44,2,3.55,7.13,3.57,8.4a1,1,0,0,1,0,.46c-1.94,3.55-.15,7.15-.05,10.71.13,4.58.72,9.15,1.05,13.73a23.88,23.88,0,0,1-.2,3.26,17.34,17.34,0,0,0-.19,3.28,17.71,17.71,0,0,1-1.5,9.26c-.91,2.19-1.91,4.34-2.9,6.5-.46,1-1,2-1.46,3a3,3,0,0,0,1.19,4.09c1.35.8,2.88.35,4.08-1.26a21.91,21.91,0,0,0,1.23-2l1.14-1.9c1.11-.13,1.1.57,1.21,1.16q2.34,12.84,4.67,25.68c.23,1.24.62,2.45.89,3.69a10.56,10.56,0,0,1,.21,5.54c-.55,1.87-.12,4.07,0,6.11.81,9.62,1.83,19.23,2.49,28.86,1.34,19.42,2.48,38.86,3.72,58.3q1.59,24.87,3.2,49.76c.08,1.25,0,2.51,0,3.62-1.42,2-3.28,2.53-5.45,2.66-25.28,1.53-50.56,3.15-75.89,3.48-14.89.2-29.76-.33-44.62-1.25A351.91,351.91,0,0,1-2.35,215.2,420.43,420.43,0,0,1-81.9,193.55,417.46,417.46,0,0,1-174.58,144c-4.51-3.2-8.83-6.68-13.25-10-.63-.47-1.29-.9-1.91-1.34.74-2.1,1.26-3.74,1.88-5.35q35.34-92.68,70.71-185.39Q-76-165.93-34.94-273.72c.56-1.48,1.08-3,1.74-4.41,1.06-2.33,3-3,5.47-2.11A377.66,377.66,0,0,0,25.9-264.45a532.8,532.8,0,0,0,59.93,9.74c18.11,1.84,36.21,3.78,54.34,5.25,20.22,1.64,40.49,1.69,60.76,1.34a493,493,0,0,0,56.27-4.68c15.07-2,30.1-4.2,44.86-7.85,9.67-2.39,19.22-5.27,28.82-7.92,1.33-.37,2.66-.7,4.14-1.08.45,1.69.82,3,1.17,4.4a17.87,17.87,0,0,0,6.6,10.17q9,6.66,18.16,13a8.57,8.57,0,0,0,11.19-1.49c3.07-3.26,3.69-7.24,3.22-11.49-.15-1.34-.46-2.66-.84-4.78,1.4,1.2,2.24,1.86,3,2.59,3.21,3.05,6.4,6.13,9.62,9.18s6.64,5.37,11,6.13a7.57,7.57,0,0,1,1.51.7c.76,1.53,1.61,3.22,2.42,4.92q75,157,149.91,314.06c1.08,2.27,1.91,4.69,3.93,6.42a5.18,5.18,0,0,1,1.2,2,48.72,48.72,0,0,1,3.92,17.49,10,10,0,0,1-2.57,6.89A269.27,269.27,0,0,1,537,133.29a450.27,450.27,0,0,1-88.58,66.65c-21.48,12.35-44.49,20.5-68.64,25.59A140.16,140.16,0,0,1,350,228.14c-12-.07-24.05-.42-36.08-.82-11.39-.37-22.77-.93-34.16-1.47-4.25-.2-8.55-.12-12.69-1.49a4.68,4.68,0,0,0-2.79-.12c-2.37.81-4.7.32-7.05.11-8-.73-16.08-1.37-24.11-2.19-9.92-1-19.82-2.16-29.73-3.27q-16-1.8-32.07-3.64C170.41,215.15,169.51,214.89,168.44,214.66Zm269-178A44.82,44.82,0,0,0,392,81.76c-.07,26.82,21.65,45.11,44.76,45.35s45.46-17.82,45.65-44.94A44.81,44.81,0,0,0,437.39,36.67ZM304,88.08c1.46-.17,3-.29,4.6-.52,9.95-1.47,19.29-4.93,28.4-9a71.47,71.47,0,0,0,26.74-20.78,111,111,0,0,0,12.32-19.13C387.27,16.7,393-7,397.68-30.93a5.59,5.59,0,0,0,0-1.87,2.93,2.93,0,0,0-2.52-2.48,2.66,2.66,0,0,0-2.78,1.42,9.41,9.41,0,0,0-.91,2.66c-.95,4.33-1.82,8.67-2.79,13-3.13,14.07-6.91,28-12.35,41.33a125.17,125.17,0,0,1-16.06,29,66.86,66.86,0,0,1-24.73,20.27,119.86,119.86,0,0,1-21.83,7.89,80.36,80.36,0,0,1-9.84,1.39c-1.09.14-2.22.06-3.3.25A3.21,3.21,0,0,0,298,84.83a3.26,3.26,0,0,0,2.62,3A32.58,32.58,0,0,0,304,88.08ZM22.9,142.54a84.64,84.64,0,0,0,19.3-2.06c9.61-2.16,18.7-5.77,27.67-9.76a9.94,9.94,0,0,0,1.25-.66c1.72-1.08,2.32-2.54,1.64-4a3,3,0,0,0-4-1.58c-1.19.39-2.31,1-3.49,1.46-5.61,2.16-11.15,4.5-16.84,6.38A81.36,81.36,0,0,1,9.56,135.3a120.32,120.32,0,0,1-46.23-17.5c-3.2-2-6.37-4.13-9.57-6.17A16.93,16.93,0,0,0-49.13,110a2.82,2.82,0,0,0-3.33,1.13,2.75,2.75,0,0,0,.22,3.49,11.83,11.83,0,0,0,2.16,1.83A196.34,196.34,0,0,0-29,129.28,120.05,120.05,0,0,0,22.9,142.54Z"/><path class="cls-3" d="M68.69,227.14c-2,4.17-4,7.61-5.32,11.29s-1.84,7.33-2.74,11.11c-.88.26-1.09-.64-1.52-1.21a37.15,37.15,0,0,0-2.56-3.39,2.65,2.65,0,0,0-3.49-.1,2.8,2.8,0,0,0-1,3.35,23.17,23.17,0,0,0,1.77,3.34c2.46,3.88,5,7.72,7.46,11.58C63.87,267.2,66,271.59,69.7,275c2.53,2.31,4.28,5.47,6.43,8.21,2.44,3.11,4.74,6.37,7.44,9.24A91.63,91.63,0,0,1,99,315.14c4.52,9.27,8.58,18.7,10.79,28.83a124.34,124.34,0,0,1,2.08,39.66,191.72,191.72,0,0,1-10.19,44.3c-5.27,14.92-10.06,30-15.25,44.95-4.68,13.45-5.34,27.24-4.13,41.25a84.73,84.73,0,0,0,4.27,19.42c5,15,9.93,30,14.63,45.14,1.69,5.42,2.69,11.06,3.95,16.61a19.1,19.1,0,0,1-1.36,12.52c-1.27,2.72-2.69,5.37-4,8C97.15,621,92.87,624,87.65,626a42.7,42.7,0,0,1-14.9,2.56,235.62,235.62,0,0,1-35.51-2.21,139.43,139.43,0,0,0-44.43.49A64.88,64.88,0,0,0-22,631.63c-2-.41-2.87-2-4.1-3.2-8.72-8.28-17.34-16.68-26.12-24.89a293.09,293.09,0,0,0-31.09-25.3c.38-5-1-10,1.32-15,2.72-1.55,5.48-3.11,8.21-4.69,14.67-8.46,29.41-16.8,44-25.45,9.94-5.91,19.08-13,28.25-20a22.53,22.53,0,0,0,6.65-7.94A12.6,12.6,0,0,0,6.21,496c-1.9-7-3.74-14.06-5.47-21.13-4.83-19.68-10.94-39-16.65-58.42C-22,395.76-27.29,374.91-33.1,354.19c-6.32-22.55-12.79-45.05-19.25-67.56a106.86,106.86,0,0,0-5.93-16,53.13,53.13,0,0,0-9.14-13.79c-1.41-1.51-2.79-3-4.17-4.56A30.89,30.89,0,0,1-78.1,240.8a14.77,14.77,0,0,1-.76-7.47c1.16-6.06,2.32-12.12,3.57-18.16.77-3.7,1.7-7.36,2.62-11.27,1.31.32,2.38.5,3.38.84A434,434,0,0,0-16.6,218.85a362.64,362.64,0,0,0,43.67,6.24C40,226.13,53,226.81,66,226.9,66.7,226.91,67.45,227,68.69,227.14Zm8.54,336.51c0-4.27-.75-6.9-3.16-11.56q-5-9.68-10-19.31a9.72,9.72,0,0,0-1.89-2.67,2.53,2.53,0,0,0-3.08-.33,2.89,2.89,0,0,0-1.58,3.13,14.1,14.1,0,0,0,1.06,2.62c3.24,6.31,6.39,12.68,9.79,18.9,3.84,7,3.92,13.45-2,19.47a20.11,20.11,0,0,0-3,4.77,3.51,3.51,0,0,0-.09,2.27,2.71,2.71,0,0,0,2.35,2,2.92,2.92,0,0,0,2.86-1.32c1.81-2.38,3.63-4.75,5.35-7.2A17.53,17.53,0,0,0,77.23,563.65Z"/><path class="cls-3" d="M409.17,224.17c.72,4.12,1.31,7.69,2,11.25,2.12,11.2,4.3,22.38,6.42,33.57,1.18,6.22,2.28,12.46,3.45,18.68a17.82,17.82,0,0,0,1,3.62,2.59,2.59,0,0,0,2.73,1.5,2.81,2.81,0,0,0,2.64-2.32,12.94,12.94,0,0,0-.21-3.28c-1.58-8.72-3.2-17.43-4.79-26.15-.15-.85-.17-1.73-.34-3.6,1.39,1.72,2.23,2.62,2.91,3.64q8,11.79,15.91,23.64,8.21,12.21,16.4,24.45l.82,1.16a99,99,0,0,1,17.29,39.72c2,10.57,4.62,21,5.86,31.73.95,8.17,1.57,16.39,2.31,24.58,1.25,14,2.44,28.07,3.74,42.1,1.33,14.5,2.76,29,4.13,43.5.91,9.61,2.08,19.19,3.79,28.7a10.52,10.52,0,0,0,.65,2.27,2.92,2.92,0,0,0,3,1.79,3,3,0,0,0,2.54-2.48,11.16,11.16,0,0,0-.15-2.82c-.62-4.06-1.31-8.12-1.95-12.19a10.37,10.37,0,0,1-.18-4.68c4.77,4.75,8.41,14.39,8.39,22-.19.23-.34.57-.58.68-3.6,1.58-4.21,2.46-3.21,6.06a100.91,100.91,0,0,0,7.32,19.53c4.15,8,8.63,15.84,13,23.75l2.48,4.51c-1.39-.15-2.3-.17-3.18-.34-14.71-3-29.58-3.19-44.45-2a136.64,136.64,0,0,0-46.61,12.19,45.3,45.3,0,0,1-5.75,2.18c-7.1,2.16-14.27,4.09-21.37,7.39-.09-4.33,1.3-8.08,1.56-12s.53-7.86.84-12.52c1,1,1.5,1.48,1.91,2,.57.76,1,1.64,1.58,2.37a3.07,3.07,0,0,0,4.18,1c1.31-.84,1.7-2.45.87-4.23-.46-1-1.11-1.9-1.67-2.86-1.76-3-3.68-5.93-5.22-9a39.23,39.23,0,0,1-2.48-7.12,7.25,7.25,0,0,1,1.31-6.29,56.5,56.5,0,0,0,7.58-15.76c.91-2.82,2.49-5.38,2.87-8.45a14.26,14.26,0,0,0-1.44-8.74A64.21,64.21,0,0,0,413,510q-9.75-13.75-19.66-27.39c-12.78-17.53-25.67-35-38.44-52.51a200.25,200.25,0,0,1-18.44-30.41c-5.94-12.22-9.27-25.2-11.35-38.56-1.87-12.06-2.6-24.23-3.72-36.37-.24-2.67-.53-5.34-.8-8a6.33,6.33,0,0,1,.85-1.16,3.92,3.92,0,0,0,1.16-4.7c-1.3-3.9-2.29-7.92-3.81-11.73q-7.59-18.94-15.49-37.77c-2-4.66-4.37-9.13-6.59-13.68a29.27,29.27,0,0,0-9.39-11.14c-1.4-1-2.71-2.12-4-3.13a2.23,2.23,0,0,1,.19-.67.51.51,0,0,1,.37-.21c7.43-.11,14.84.33,22.27.9A29.83,29.83,0,0,0,308,236.7c3.28,4.26,6.68,8.43,9.94,12.71a20.53,20.53,0,0,0,7.14,6.11c6.06,3.09,12.06,6.3,18.09,9.45a11.82,11.82,0,0,0,2.16.95,2.86,2.86,0,0,0,3.59-1.48,3,3,0,0,0-1.07-3.78,21.4,21.4,0,0,0-2.83-1.73c-5.18-2.74-10.31-5.55-15.57-8.13a18.17,18.17,0,0,1-7.2-6c-2.44-3.49-5.07-6.85-7.52-10.13.37-1.29,1.25-1.11,2-1.09,7.75.26,15.5.59,23.26.78a225.31,225.31,0,0,0,28.93-1,170.38,170.38,0,0,0,32.9-7C404.1,225.65,406.36,225,409.17,224.17Zm-13,16c0,.77,0,1.09,0,1.4a3,3,0,0,0,2.29,3.17,2.85,2.85,0,0,0,3.35-2c.8-3,1.47-6.12,2-9.22a3,3,0,0,0-2.54-3.43A3.25,3.25,0,0,0,398,232.3a2,2,0,0,0-.17.44C397.27,235.35,396.68,238,396.19,240.14Z"/><path class="cls-3" d="M577.85,80a19.12,19.12,0,0,0-1.47,10.79c.09.63,0,1.27.14,1.89.88,5.09-.55,9.72-2.74,14.2-1.51,3.11-1.94,3.32-6,3-.69-1.65-.43-3.4-.42-5.12a55,55,0,0,0-5.08-22.51,6.91,6.91,0,0,0-1.35-2.48c-2.5-2.18-3.5-5.22-4.85-8.05Q482-83.34,408-238.42c-.74-1.56-1.43-3.14-2.25-5a16,16,0,0,0,5.81-12.25c1.83,1.27,2.23,3,3,4.5q17.57,35.53,35.07,71.09Q512.32-52.72,575.07,74.57C575.91,76.27,576.79,78,577.85,80Z"/><path class="cls-3" d="M583.51,78.17c-1.27-2.74-2.34-5.19-3.52-7.59L409.2-276a15.62,15.62,0,0,1-1.68-5A16.08,16.08,0,0,1,409-279.6c2,2.45,3.93,5,6,7.37,3.32,3.82,6.52,7.78,10.18,11.26a28.92,28.92,0,0,1,6,8.36Q511.05-92.73,591,67.13c.71,1.41,1.39,2.84,2.13,4.24.61,1.15,1.46,2.23,2.84,2.28,1.69.06,2.5,1.15,3.38,2.28,1.47,1.86,3.09,3.63,4.38,5.61A44.54,44.54,0,0,1,607,87.8a7.26,7.26,0,0,1,.53,3.24c-.15,3.45-2,4.48-5,2.76a34.74,34.74,0,0,1-9-7.61C590.56,82.82,587.44,79.69,583.51,78.17Z"/><path class="cls-3" d="M436.84,122.68c-17.18-1.12-34.26-10.82-39.51-32.85A34.44,34.44,0,0,1,398,71.59c5.23-17.4,17-27.12,34.73-30.21a32.2,32.2,0,0,1,14.51,1.18c18.78,5.3,28.54,19.31,30.73,36.9a28.66,28.66,0,0,1-.83,9.88c-4.69,21-20.55,31.69-38.26,33.24C438.07,122.65,437.28,122.66,436.84,122.68Z"/></g><path class="cls-4" d="M138.33,231.49,80.63,410.23a212.92,212.92,0,0,0,31.43,23.08l26.34-79.65,34.49,104.18a211,211,0,0,0,42.51,5.37Z"/><path class="cls-5" d="M220.72,40.34c-116.8,0-211.5,94.7-211.5,211.5a210.52,210.52,0,0,0,39.49,123l87.86-265.75a1.79,1.79,0,0,1,3.4,0L259.32,459.77c98.37-18.15,172.9-104.31,172.9-207.93C432.22,135,337.53,40.34,220.72,40.34Zm-30.65,112L175,106.76h53.5A144.86,144.86,0,0,1,269,390.69L255.78,350.9"/><g class="cls-6"><g id="E9BDwQ"><path class="cls-4" d="M351.07,448.21h-4.71a4.21,4.21,0,0,0-.49-.09,75,75,0,0,1-8.84-1c-2.13-.31-4.18-1-6.33-1.26a3.74,3.74,0,0,1-3.2-3.26c-.18-.91-.3-1.82-.45-2.74-.31-1.93-.65-3.86-.92-5.8s-.31-3.93-.73-5.83a32.84,32.84,0,0,1-.36-5.76,36.71,36.71,0,0,1,.64-8.36,4.15,4.15,0,0,1,1.45-2.86,5,5,0,0,0,1.89-3.32c.23-1,.45-2,.7-2.94.31-1.16.6-2.26-.15-3.42a1.21,1.21,0,0,1,.32-1.73,2.72,2.72,0,0,0,1-1.3,23.21,23.21,0,0,1,1.64-3.49,3.63,3.63,0,0,0,0-4.28,1.6,1.6,0,0,1-.1-.23.91.91,0,0,0-1-.65,24.66,24.66,0,0,1-2.85.08,22.63,22.63,0,0,1-8.81-2.56,25.84,25.84,0,0,1-8.32-6c-.69-.78-1-1.89-1.85-2.48a26.67,26.67,0,0,1-4.28-4.48q-7-8.28-13.42-17c-.29-.4-.48-.56-1-.19-2.64,1.93-5.34,3.8-8,5.73a45.21,45.21,0,0,0-5.56,4.06,1,1,0,0,1-.58.31c-.75,0-1,.52-1.25,1.05a15.08,15.08,0,0,1-3,4.36,1.47,1.47,0,0,1-1.1.54,1,1,0,0,0-1,.62,13.48,13.48,0,0,1-2.2,2.63,2.46,2.46,0,0,1-2.46.74c-1-.28-.82.27-.79.85.27,4.54.41,9.06-1,13.49-.54,1.68-.86,3.42-1.28,5.14a4.51,4.51,0,0,0,.24,2.71c.85,2.3,1.76,4.59,2.69,6.87,1.42,3.45,2.25,7,.43,10.64-.12.24-.11.45.12.59,1.56.92,1.86,2.49,2.09,4.1.61,4.14-1.19,6.75-5.4,7.67a45.43,45.43,0,0,1-7.19.64,101,101,0,0,0-10.28,1c-5.06.81-10.16,1.34-15.25,1.86-4.57.46-9.13,1-13.7,1.48a43.65,43.65,0,0,1-9.56.06c-2.11-.25-4.07-.88-5.24-2.89-.38-.66-.71-1.33-1-2-1.4-2.89-1.09-6-1.2-9.06.91-1.72.22-3.18-.76-4.6v-2a8.27,8.27,0,0,1,.64-1.17,2.93,2.93,0,0,0,.91-2.4c-.07-.4.26-.78.54-1.1a7.4,7.4,0,0,1,3.28-2.28,11.5,11.5,0,0,1,6.94-.08,1.09,1.09,0,0,0,1.22-.2A33.06,33.06,0,0,1,224.74,399a1.14,1.14,0,0,0,.76-.47c.72-1.19,1.11-1.21,2.35-.47.61.37,1.33.81,2.11.36,2-1.19,4.09-2.33,6.23-3.33.57-.26.61-.59.37-1.12-.63-1.41-1.22-2.83-1.82-4.26a126.59,126.59,0,0,1-7.87-27.24A36.91,36.91,0,0,0,223.66,352c-.74-1.48-1.39-3-2-4.53a32.5,32.5,0,0,1-2.41-14.06A4.81,4.81,0,0,1,220,331a39.38,39.38,0,0,1,5.13-6.1,71.32,71.32,0,0,1,12.46-10.87c2.89-1.92,5.81-3.81,8.86-5.48.57-.31.88-.68.67-1.34a17.64,17.64,0,0,1-.35-4.58,56.1,56.1,0,0,1,4.43-24.12c.72-1.76,1.47-3.51,2.22-5.26.23-.55.14-.84-.5-.91a5.84,5.84,0,0,0-1.67,0,19.67,19.67,0,0,1-6.36,0,25.35,25.35,0,0,1-12.73-6.06,91.9,91.9,0,0,1-8.68-7.81A20,20,0,0,1,219,252a35.26,35.26,0,0,1-1.85-14.48,51.45,51.45,0,0,1,1.53-8c.31-1.41.94-2.66.82-4.27s1.09-3.23,1.91-4.75a2.42,2.42,0,0,0,.48-1.12,7.81,7.81,0,0,1,1.48-4.12c1.94-3.12,3.75-6.32,5.46-9.57a22.38,22.38,0,0,1,1.78-3.23,7.9,7.9,0,0,0,1.74-3.93c.23-2,.87-3.93.1-6.11-1.33-3.78-1.72-7.81-2.39-11.75a23.54,23.54,0,0,1-.48-4.34c0-1.08.51-1.57,1.51-1.61s1.16-.27.89-1.24c-.13-.47-.36-1-.07-1.38a.93.93,0,0,0-.12-1.27,50.4,50.4,0,0,1-8.67-17.51,25.33,25.33,0,0,1-1.3-7.43,2.21,2.21,0,0,1,.78-1.95c.43-.31.42-.61.29-1.07a94.93,94.93,0,0,1-3.66-16.56,19.33,19.33,0,0,1-.14-5.53c.36-1.92,1.72-2.59,3.5-1.77a8.51,8.51,0,0,1,2.13,1.49c.26.23.52.49.85.12.88-1,1.95-.83,3-.49a21.55,21.55,0,0,1,3.34,1.38c5,2.56,10.55,4.11,15.55,6.8.63.34,1.22.63,1.88-.05.3-.31.85-.23,1.3-.2a8.76,8.76,0,0,1,2.2.49,47,47,0,0,0,5.06,1.58,76.67,76.67,0,0,1,7.93,2.76c4.34,1.51,8.75,2.82,13,4.47a1.17,1.17,0,0,0,1.75-1c.37-2.81,2.06-4.85,3.88-6.82a1.71,1.71,0,0,1,2.06-.47,1.77,1.77,0,0,1,1.09,1.74,7.17,7.17,0,0,1-.25,1.66c-.05.27-.27.59-.07.8s.52,0,.78-.13c.75-.23,1.48-.51,2.24-.71a26.93,26.93,0,0,1,9.83-.8,2,2,0,0,1,1.95,2.34c-.15.77-.87,1-1.45,1.51,2.25.47,4.42.91,6.57,1.39a3.38,3.38,0,0,0,1.73-.07c2-.56,4.05-1.12,6.09-1.65,6-1.57,12.1-3.09,18.14-4.71,7-1.88,13.84-4.16,20.84-6,4.62-1.19,9.27-2.24,14.08-2.08a10.05,10.05,0,0,1,3.86.75,4,4,0,0,1,2.54,4.89,7.21,7.21,0,0,1-1.76,3.3c-.23.27-.58.54-.43.94.65,1.75.07,3.38-.48,5a42.74,42.74,0,0,1-3.42,7.2c-.27.46-.32.78.19,1.11a2,2,0,0,1,.85,2,5.72,5.72,0,0,1-.35,1.64,56.28,56.28,0,0,1-2.25,5.16,150,150,0,0,1-8.45,14.73c-1.64,2.56-3,5.35-5.29,7.44a.72.72,0,0,0-.23.91.85.85,0,0,0,.82.47,12.1,12.1,0,0,1,1.59.08,28.57,28.57,0,0,1,7.86,2.64,24.08,24.08,0,0,1,12,11.87c1.22,2.69,2.16,5.47,3.16,8.24A137.77,137.77,0,0,0,385,217.15a25.63,25.63,0,0,0,6.13,8.15c3.17,2.69,7,3.34,10.91,3.4a3.58,3.58,0,0,0,2.59-.79,1.29,1.29,0,0,1,1.71.1,3.08,3.08,0,0,1,1.13,1.82,6.94,6.94,0,0,1-1.91,6.87,42.9,42.9,0,0,1-4.79,3.82,7.06,7.06,0,0,1-6.75,1.09c-2.19-.69-4.4-1.33-6.6-2-11.17-3.36-19.2-10.45-24.51-20.73-2.66-5.15-4.08-10.73-5.64-16.26a84.74,84.74,0,0,0-4.67-13.58,1.52,1.52,0,0,0-.57-.85c-.07.56-.14,1-.21,1.5a4.39,4.39,0,0,1-.77,2.36,1,1,0,0,0-.11,1.29,9.13,9.13,0,0,1,.57,6.4,15.27,15.27,0,0,1-4.79,7.27c-.41.37-.5.64-.19,1.12a9.58,9.58,0,0,1,1.11,3.07,33,33,0,0,1,.44,9.87,1,1,0,0,0,.77,1.25c1,.38,2,.84,2.95,1.21a11.55,11.55,0,0,1,5.23,4,54.52,54.52,0,0,1,8.26,16.72,2.16,2.16,0,0,1-.06,1.81c-.39.62-.17,1,.19,1.5a64.15,64.15,0,0,1,6.31,10.41c3.33,6.95,5.78,14.13,5.33,22a22.69,22.69,0,0,1-7.22,16,2.31,2.31,0,0,0-.75.89.89.89,0,0,1-.95.67c-.63,0-.72.3-.69.85a22.87,22.87,0,0,1-.68,6.75c-1,3.79-2.53,7.21-6.24,9.16-1.23.65-1.21.68-.54,1.95.09.17.15.36.23.54,2.5,5.74,4.49,11.67,6.69,17.52a143.12,143.12,0,0,1,5.17,16.69,17.7,17.7,0,0,1,.48,8,3.74,3.74,0,0,1-1.48,2.45,2.35,2.35,0,0,0-.89,1q-1.08,2.64-2.19,5.27a10,10,0,0,1-2.9,4.26,1.71,1.71,0,0,0-.67,1.2c-.46,3.33-1,6.65-1.42,10a94.85,94.85,0,0,0-1.09,14.58,1.23,1.23,0,0,0,.81,1.29,4.89,4.89,0,0,1,2.45,2.42,107,107,0,0,0,6.68,11.37c1.33,1.93,3,3.52,4.42,5.4a4,4,0,0,1,.72,2.68c-.25,5.16-.4,10.31.94,15.37a2.51,2.51,0,0,1-.5,2.35,19.68,19.68,0,0,1-6.43,5.32c-3.42,1.82-7.18,2.49-10.91,3.26A80.16,80.16,0,0,1,351.07,448.21ZM250.74,240.36a2,2,0,0,0,1.28-.46,27,27,0,0,0,2.68-2.77c.25-.28.19-.5-.13-.67a11.9,11.9,0,0,1-3.86-3.19c-.4-.5-.8-.49-1.22.06a4.83,4.83,0,0,1-2.19,1.86c-1.21.43-1.25,1.22-.24,2.07a2.42,2.42,0,0,1,1,1.14,1.74,1.74,0,0,0,1,1.44A7.45,7.45,0,0,0,250.74,240.36Z"/></g></g><g class="cls-7"><path class="cls-5" d="M-856.15,288.14c-8.89-1.18-17.62-2.26-26.33-3.5-5.83-.83-11.63-1.81-17.42-2.87a22.55,22.55,0,0,1-10.43-5.18c-6.32-5.24-11.64-11.22-14.9-18.88-4.3-10.09-4.23-20.08.79-29.84,2.11-4.1,4.81-7.89,7.38-12.06-1.1-1.27-2.19-2.56-3.33-3.82-1.81-2-3.75-3.89-5.46-6-5.34-6.5-8.74-13.64-6.61-22.25-.73-.3-1.21-.7-1.57-.61-8.6,2.08-15.5-.95-21-7.37-9-10.49-10.41-22.39-5.71-35.15,1-2.74,2.48-5.32,3.69-7.89-3.32-11-30.42-61-38-70-.72,0-1.68,0-2.63,0-5.87.32-9.81-2.74-12.52-7.51A32.1,32.1,0,0,1-1014,36a45.75,45.75,0,0,1,3.83-14.91c2.54-5.57,5.37-11,8.16-16.47,1.11-2.16,2.43-4.21,3.78-6.51-1.89-2.78-3.6-5.46-5.48-8C-1010-18.39-1016-27-1022.61-35.31c-21.19-26.66-36.13-56.53-46.53-88.85-6.4-19.9-10.86-40.23-14.83-60.72-3.65-18.81-6.3-37.75-8.64-56.75-.72-5.83-1.35-11.68-2-17.52a21.81,21.81,0,0,0-3.6-10.24,49.38,49.38,0,0,1-7.58-20.55c-1.6-10.9,2.8-19.69,10.34-27.1a59,59,0,0,1,8.23-6.16c4.64-3.2,9.38-6.28,14.07-9.42,10.88-7.28,17.46-17.71,21.58-29.87,1.18-3.48,2-7.08,3.08-10.6a98,98,0,0,1,13-27.9q6.32-9.06,12.66-18.1a221.84,221.84,0,0,1,35-38.69c18.75-16.63,36.52-34.26,53.84-52.35,10-10.46,19.72-21.21,29.46-31.93a100.57,100.57,0,0,0,19.46-31c2.33-5.93,5-11.75,7.58-17.57a349,349,0,0,0,16.06-42.67c9.2-30.58,26.85-55.65,51.38-75.61,26.54-21.61,57.23-29.35,91.09-24a56.55,56.55,0,0,1,16.08,5.09c2.2,1.07,4.45,2,6.87,3.12,5.93-5,11.89-5.64,17.38.64,2-1.57,3.45-2.86,5-4,3.91-2.79,8.3-3.67,12.44-1.17,3.86,2.33,6.9,1.47,10.15-.8,1.81-1.26,3.72-2.39,5.61-3.53,4-2.4,7.87-4.92,13-4.39-1.09-8.38-2.12-16.31-3.18-24.52-1.73,0-3.39.09-5,0-3.49-.22-5.35-1.76-6.43-5-.88-2.68-.49-5.31.14-8a83.81,83.81,0,0,1,12.75-28.77c2.24-3.24,4.67-6.3,5.58-10.25a5.25,5.25,0,0,1,.92-2,15.9,15.9,0,0,0,3.23-10.32,21.11,21.11,0,0,1,.78-3.94c-1-1.14-2.08-2.4-3.16-3.7-5.81-7-11.77-13.82-17.36-21a92.93,92.93,0,0,1-7.46-11.81A42.46,42.46,0,0,1-657-886.9a124.79,124.79,0,0,1,5.23-40,229.31,229.31,0,0,1,21.16-49.26c5.4-9.4,11.61-18.2,20.86-24.37a12.34,12.34,0,0,0,5.09-7c1.15-4,2.4-8,3.23-12.07a71.75,71.75,0,0,0,.75-8.67c-2.59-1.51-5-2.56-7-4.2a33.77,33.77,0,0,1-4.77-5.58,338.9,338.9,0,0,1-24.11-36.1,93.17,93.17,0,0,1-9.88-26c-1.23-5.25-1.51-10.23,2.3-14.3a298.35,298.35,0,0,1-2.24-39.28c.27-12.79,1.31-25.49,4.26-38,.34-1.43.77-2.84,1.12-4.26,1.77-7.16,5.3-12.7,13.29-14.14,1.25-2.5,2.45-4.9,3.67-7.3,8.11-16,17-31.59,28.63-45.34a116.38,116.38,0,0,1,12.57-12.35A25.3,25.3,0,0,1-568-1281c7.12-.61,13.1,1.39,17.15,7.69.39.61.9,1.14,1.63,2,1.19.07,2.63.17,4.06.23,5.08.21,8,3.12,9.79,7.61,1.4,3.54,1.09,7.21,1,10.9-.07,2.62-1.25,5.23-.3,8.13a28.24,28.24,0,0,0,3-.41c2.14-.54,4.25-1.17,6.37-1.78,5.76-1.66,11.17-1.5,15.68,3.19,2.79-.78,5.33-1.66,7.95-2.2,8.78-1.79,13.56,1.18,15.95,9.78.52,1.85,1,3.71,1.52,5.84,6.14-1,11.87-2,17.63-2.93a193.53,193.53,0,0,1,33.74-2.38c29.36.6,58.17,4.5,86,14.38A153.59,153.59,0,0,1-289.23-1185c4.84,4.81,8.85,10.47,13.24,15.75.75.9,1.47,1.84,2.66,3.33.89-1.8,1.58-3,2.08-4.23,6.58-16.39,17.46-29.44,31.26-40.21.78-.6,1.57-1.19,2.39-1.72,2.75-1.79,5.44-2.08,8.07.28.72.64,1.56,1.14,2.47,1.8l21.56-4.74c1.44-.32,2.88-.61,4.32-.9,7.59-1.51,9.69-.6,14.15,6.4,1.44-.67,3-1.3,4.43-2.07a249.07,249.07,0,0,1,37.18-15.89,52.45,52.45,0,0,1,6.35-1.87c4.69-.93,8.24,1,9.9,5.51a21.82,21.82,0,0,1,1.14,5.74,43.81,43.81,0,0,1-2.36,18.12c-1,3-2,6-3,9.23,5.65,5.26,6.57,11.91,5.55,19-.81,5.57-1.82,11.12-2.83,16.66-.44,2.37-1.1,4.7-1.73,7.38a35,35,0,0,0,3.35,1.63c6,2.12,8.67,6.82,9.79,12.72a54.32,54.32,0,0,1-.52,21.22c-2.69,13.14-7.56,25.38-15.57,36.24q-8.73,11.85-17.5,23.66a3.91,3.91,0,0,0-.24,1.43c1.56,6.78-.55,12.7-4.64,17.89a131.61,131.61,0,0,1-12.59,14.37c-8.92,8.41-18.29,16.36-27.45,24.53-3.46,3.09-6.86,6.24-10.44,9.5,1,2.05,1.88,3.76,2.71,5.5,5.59,11.66,5.44,23.2-.74,34.61a49.87,49.87,0,0,1-13.53,16.33,140.73,140.73,0,0,1-17,11.58,85,85,0,0,0-28.16,25.46c-4.24,5.89-9.05,11-15.73,14-.39.18-.63.7-1,1.13.71,3.52,1.2,7.16,2.21,10.65a55.62,55.62,0,0,0,3.58,8.82c1.62,3.3,3.58,6.43,5.29,9.69a59.54,59.54,0,0,1,6.73,20.24c5.07,2.09,8.35,6.08,11.53,10.12,20.67,26.23,40.65,53,59.15,80.78,1.78,2.67,3.8,5.22,2.81,9.15,2.6.08,4.75.2,6.9.21,10.3,0,20.59-.12,30.87,1.17a116.47,116.47,0,0,1,54.29,21.11,191.94,191.94,0,0,1,54.76,60.83c4.42,7.64,8.41,15.53,12.53,23.35,7.44,14.1,14.73,28.29,22.29,42.33,2.91,5.39,6.25,10.57,9.64,15.67a85.73,85.73,0,0,0,22.55,23c11.25,7.9,22.15,16.27,33.33,24.27,12.58,9,25.08,18.11,38,26.61,31.36,20.66,62.44,41.72,92.88,63.72a13.64,13.64,0,0,0,2.38,1.72c8.18,3.49,14,9.89,19.68,16.28,6.72,7.49,13.11,15.28,19.79,22.81,4.55,5.14,9.41,10,14,15.1a49.26,49.26,0,0,0,22.89,14.14c3.45,1,6.1,2.94,8.89,4.86,2.4,1.67,4.64,3.6,7.16,5.07,12.54,7.28,17.93,18.36,17.32,32.55-.47,11.1-2.79,21.9-5.83,32.54-1.48,5.19-3.18,10.31-4.8,15.46a39.06,39.06,0,0,0-2.09,15.23c1.12,12.48-1.58,24.43-5.16,36.21-7.44,24.48-19.92,46.27-35.34,66.61a560.74,560.74,0,0,1-64.64,71.44c-2.69,2.52-5.33,5.08-8,7.6-3,2.85-6.26,5.49-6.91,10.05-.15,1.09-1.23,2.06-1.86,3.06.47,1.54.91,2.94,1.34,4.34,3.06,9.89.41,18.48-6.43,25.79a62.89,62.89,0,0,1-9.7,7.82,77.15,77.15,0,0,1-7.66,4.4A59.63,59.63,0,0,0,126.09,2.46c-21.73,25.12-46,47.72-70.33,70.2-10.27,9.48-20.09,19.46-30.12,29.21a22.36,22.36,0,0,0-6.86,11.92,14.35,14.35,0,0,1-.49,1.39c-3,10.55-8.32,19.38-18.85,24.34-.14,5.55.87,10.84,1.29,16.17.48,6.11,1,12.22,1.44,18.34a30.32,30.32,0,0,1-7.83,23c-2.12,2.38-4.08,4.9-6.36,7.65.71,1.19,1.37,2.44,2.16,3.59,7.91,11.59,12,24.58,14.17,38.31.18,1.21.12,2.45.19,3.68C5,257.49,2,262.54-4.72,265.43c-8.58,3.65-17.06,7.52-25.59,11.28-2.89,1.28-5.89,2.25-8.37,4.47a8.32,8.32,0,0,1-4.74,1.53,19.19,19.19,0,0,1-5.84-.55,9.75,9.75,0,0,0-8.9,2c-3.38,2.62-7.66,3.08-11.83,3.46-1.63.15-3.27.28-5.07.43.16,3.22,1.82,5.44,3,7.8Q-41,358.08-9.9,420.29,79.46,599.06,168.82,777.82q1.16,2.29,2.29,4.61a6,6,0,0,0,3.65,3.28,11.3,11.3,0,0,1,4.55,3.44c3.46,4.14,6.69,8.47,10,12.74a45.08,45.08,0,0,1,7.22,14.39,18.46,18.46,0,0,1-1.69,14.92c-3,5.5-8.25,7.82-14.3,6.18a27.29,27.29,0,0,1-6.67-3,62.3,62.3,0,0,1-15.09-12.81c-2.55-2.93-5-6.05-8.39-7.76-1.87.58-1.67,1.94-1.64,3.09q.13,7,.43,14c.4,9.26-3.31,17.29-8,24.86-3.42,5.57-11.71,7.67-18.43,5.43-.7-.23-1.32-.65-2-.92s-1.33-.44-2-.67a18.75,18.75,0,0,0-1.72,1.47C72.88,910.85,22.1,952.67-34.42,987.64c-19.22,11.89-38.76,23.15-59.78,31.62-5.22,2.1-10.5,4.07-15.88,6.15-.7,3.91.78,7.42,1.24,11,.83,6.32,1.61,12.73,3.4,18.81s6.85,10,10.45,15c11.76,16,22.75,32.59,33.56,49.28,7.87,12.16,16.12,24.06,24.2,36.07,1.65,2.45,3.3,4.88,5,7.3,12.66,18.25,20.38,38.52,24.59,60.21,2.81,14.45,5.8,28.87,8.12,43.4,1.71,10.64,2.63,21.43,3.58,32.18,1.26,14.42,2.1,28.88,3.33,43.31,1.08,12.71,2.42,25.41,3.67,38.11q1.85,18.68,3.7,37.36c.53,5.37.91,10.77,1.61,16.12a14.59,14.59,0,0,0,2,5.41c2.25,3.79,4.83,7.39,7.18,11.13,2.49,4,4.94,7.91,7.26,12a73.8,73.8,0,0,1,10.11,37.2c0,7.58.85,15.17,1.43,22.75a26.87,26.87,0,0,0,3.24,11.24q12.45,22.13,25,44.2c1,1.72,2.06,3.35,4.33,3.63a2.81,2.81,0,0,1,1.93.88c2.33,4.09,6.76,4.58,10.48,6.25,3.35,1.51,6.77,2.87,10.15,4.33,22,9.55,34.74,27.24,42.64,49.06,1.17,3.22,2.06,6.55,2.93,9.87.75,2.84,1.17,5.77,1.95,8.6.72,2.58-1.34,5.86.87,7.66,2.44,2,1.28,4.49,1.94,6.62,1.29,4.16,1.67,8.65,2.12,13a19.89,19.89,0,0,0,4.11,10.83c1.83,2.3,3.51,4.72,5.17,7.16a15.63,15.63,0,0,1,2.8,11.86,11,11,0,0,0-.17,4.34c2.17,8.94,1.55,18,1.6,27.09a47.08,47.08,0,0,1-1.56,10.14,21.54,21.54,0,0,1-7.85,12.14,57.47,57.47,0,0,1-6.6,4.68c-22.82,13.81-46.92,24.59-73.19,30-7.44,1.51-15,2.52-22.52,3.51-10.22,1.34-20.46,2.46-30.7,3.63-6.82.78-13.64,1.84-20.49,2.17-22.3,1.06-44.61,2.4-66.94.26-16.62-1.6-33.16-3.64-49.2-8.59a84.11,84.11,0,0,1-21.94-10.19c-7.39-4.9-12.07-11.33-12.81-20.37-1-12.47-2.14-24.93-3.12-37.4-.23-2.92,0-5.86,0-8.72-1.72-1.62-3.17-2.9-4.53-4.28-2.92-3-5.93-5.88-8.64-9a25.87,25.87,0,0,1-6.22-15.44c-.55-8.17,0-16.15,3.45-23.78a19.85,19.85,0,0,0,1.05-5.66c.61-4.87.84-9.8,1.74-14.6a54.54,54.54,0,0,1,11.36-24.47,79.73,79.73,0,0,1,10-10.75,17.14,17.14,0,0,0,5.59-9.1c4.94-17.47,5.87-35.28,5.24-53.27-.05-1.47-.54-3-.18-4.38a16.05,16.05,0,0,0-.34-8.7c-1.89-6.64-.22-12.47,3.43-18.15a117,117,0,0,0,7.75-14.16,36.74,36.74,0,0,0,3-23,7.13,7.13,0,0,1-.39-2.9c1.5-5.5-1.63-9.47-4.46-13.41q-15.9-22.12-32-44.09c-19.25-26.37-38.61-52.65-57.77-79.08a324.65,324.65,0,0,1-25.75-42c-10.11-19.61-16.25-40.47-19.84-62.14-3.09-18.66-4.6-37.5-6.09-56.34-1.09-13.7-2.67-27.36-4.11-41a19.05,19.05,0,0,0-1.34-4.94c-8.53-21.69-16.7-43.54-26.85-64.54s-8.75-18.81-28.15-32.85c-10.61-7.67-11.64-7.54-24.39-8.63-20.29-1.72-40.57-3.58-60.82-5.74-25.37-2.71-50.7-5.8-76.05-8.68a48.75,48.75,0,0,0-5.29,0,21.25,21.25,0,0,1-1.91,3c-1.84,2.07-3.43,2.62-5.79,1.09-2.53-1.63-5.06-1.55-7.75-1.38-18.86,1.18-37.71,2.57-56.58,3.48-20.34,1-40.71,1.52-61.06,2.21-2.94.1-5.88,0-9,0-12.33,13.89-18,29.62-14.82,48.18a33.49,33.49,0,0,0,7.43,16.51c4.9,5.81,9.27,12.06,14,18.06,3.32,4.26,6.49,8.68,10.19,12.58,11,11.52,19.24,24.77,26.12,39,7.94,16.39,14.8,33.18,17.88,51.25,3,17.73,4.23,35.5,2.56,53.52a307,307,0,0,1-15.6,72.47c-8.35,24.1-16.41,48.31-24.59,72.47-5.83,17.21-7.71,34.81-6.55,53a147.7,147.7,0,0,0,7.57,38.1c8,23.71,15.52,47.56,23,71.44,2.12,6.77,3.53,13.78,5,20.72a49.33,49.33,0,0,1,.61,16.13c-.22,1.93-.51,3.86-.82,6.18,1.32,1,2.6,2.08,4,3,10.09,6.44,13.85,16,13.76,27.54-.08,11,0,22.1,0,33.15,0,3.88-.34,7.77,1.22,11.59.68,1.67.12,3.84.12,5.67-3.68,3.54-7.13,7-10.76,10.28a12.84,12.84,0,0,1-4.41,2.59c-5.78,2-11.53,4.35-17.5,5.48-11.55,2.19-23.23,3.78-34.9,5.32a151,151,0,0,1-16.88,1.08c-7.36.13-14.72-.19-22.09-.18-20.61,0-41.24-.25-61.84.35-13.45.39-26.93,1.25-40.22,4.13-8.85,1.92-18,2.46-26.84,4.43-14.86,3.32-30,5-44.9,7.93-5,1-9.83,3-14.75,4.46a59.48,59.48,0,0,1-7.74,2.18,367,367,0,0,1-69,4.09c-26-.79-52-2.38-77.47-8.19-24.78-5.65-47.39-15.91-67.15-32a147.16,147.16,0,0,1-13.32-12.64,24.16,24.16,0,0,1-6.2-13.1c-2.42-14.76-5.43-29.43-6.93-44.35a70.75,70.75,0,0,0-1.88-8.28c1.77-4.34,5.85-5.63,10.79-6.11.45-1.29.92-2.62,1.37-4a26.83,26.83,0,0,1,10.47-13.84,31.34,31.34,0,0,0,7.94-7.55c6.22-8.64,15.06-12.34,25.34-12.8,4.13-.19,8.3.5,12.46.78,1.7.12,3.78.9,5,.2,4.19-2.33,8.08-.69,12.09.13.21,0,.45-.12.68-.18,1.9-5.82,1.89-5.83,7.36-9.13a45.35,45.35,0,0,1,5.15-2.84c10.34-4.5,20.65-9.12,31.13-13.28,4-1.61,8.48-2.13,13.53-3.33,1.21-1.52,3-3.81,4.83-6.06,7.13-8.7,16.44-13,27.58-13.36q7.73-.29,15.46-.44c4.41-.11,8.83-.09,13.25-.24,5.17-.17,10.3-.15,15.29,2,9.1-5,18.22-9.79,27.12-14.94,19.13-11.05,38.44-21.8,57.1-33.6,14.07-8.9,27.26-19.22,40.81-28.94a30.68,30.68,0,0,0,3.31-2.93c5.13-5,7-10.67,5-18-10.13-37.66-19.84-75.41-31.36-112.71-9.76-31.62-17.74-63.8-26.7-95.68-10.49-37.31-21.18-74.56-31.81-111.83-1-3.53-2.21-7-3.38-10.5-4.61-13.67-11.28-26.09-21.72-36.29a57.33,57.33,0,0,1-13-19.43c-3.26-7.91-4.69-15.89-2.74-24.42,2.52-11,4.7-22.07,7-33.11a72.13,72.13,0,0,0,1.42-8,4.13,4.13,0,0,0-2.81-4.65c-1.85-.67-3.68-1.36-5.52-2.06a652.43,652.43,0,0,1-143.15-76.37c-7.82-5.51-15.4-11.36-23.14-17.09a4.4,4.4,0,0,0-1.37-.15c-10.06,1.88-16.88-2-19.6-11.71a74.32,74.32,0,0,1-2.37-14.47c-.46-6.1,1.13-11.72,6.12-15.83,2.47-2,3-5,4-7.75q16.26-43,32.38-86.1Q-945.79,529.43-859,298.26C-857.83,295.13-856,292.11-856.15,288.14ZM-699.63,245c-2-1.5-3.94-2.2-5.85.11a64.57,64.57,0,0,1-6.54-.84,512.48,512.48,0,0,1-51.71-14.3c-8.32-2.84-16.88-5.14-24.62-9.9-2.14,1.75-4,3.7-6.31,5a19.28,19.28,0,0,1-6.8,2.51c-2.6.37-5.32-.07-8-.2-2.5-.13-4.56-2.33-8.4-1.92a41.18,41.18,0,0,0,4.63,3.9,43.77,43.77,0,0,0,6.62,3.18c13.77,5.16,27.4,10.77,41.39,15.25,43.81,14,88.83,22.52,134.43,27.92,25.81,3.06,51.7,5.45,77.58,7.88a943.35,943.35,0,0,0,97,3.9c20.62-.19,41.22-1.07,61.7-3.24C-373,282-351.65,279-330.29,276a524.53,524.53,0,0,0,88.61-21c1.81-.58,3.52-1.47,5.61-2.36-.46-3.6-.88-6.93-1.35-10.59a32.16,32.16,0,0,0-4,.54c-4.49,1.24-8.94,2.63-13.42,3.87-27,7.52-54.45,12.5-82.15,16.39-28.19,4-56.47,7.12-84.91,8.19a911.74,911.74,0,0,1-101.5-1.55c-24.2-1.79-48.35-4.31-72.52-6.64-26.12-2.52-52.13-5.94-77.94-10.72-8.64-1.6-17.16-3.86-25.74-5.82l1.55-.48Zm572.16,13.84.12,1-.53-.15.63-.77c-2.31-4.24-4.57-8.51-7-12.68-.63-1.08-.61-2.95-2.74-2.9-1.8,2.44-2,4.88.08,7.25,2.22,2.59,4.46,5.17,6.85,7.59C-129.51,258.71-128.33,258.6-127.47,258.79Zm-354.07-1478.1a35.58,35.58,0,0,0-5.7.82A91.75,91.75,0,0,0-511-1207.06a156.33,156.33,0,0,0-32.35,28.72,108.15,108.15,0,0,0-21.52,39c-.54,1.79-.89,3.64-1.73,7.11a39.18,39.18,0,0,0,7.73-9.85,37.46,37.46,0,0,1,14.4-14.27,99.15,99.15,0,0,1,19.37-8.8c1.79-.56,3.5-1.38,5.08-2,0-13,2.71-16.69,8.31-25a65.43,65.43,0,0,1,14-15c4.25-3.31,8.78-6.25,13.16-9.39,1.11-.8,2.8-1.11,2.84-3l1.25-.09-.47-.74C-481.12-1220-481.33-1219.64-481.54-1219.31ZM-744-490.38c.62-.59,1.58-1.07,1.83-1.8,4.94-14.09,10.27-28.08,14.58-42.37q12.33-40.8,23.66-81.9c6.72-24.32,12.86-48.79,19.21-73.21,1.17-4.5,2.31-9,3-13.62,1-5.9-.76-11-5.8-15.4-1.07,1.61-2.44,2.86-2.77,4.34a78.84,78.84,0,0,0-2,12.29,102.78,102.78,0,0,1-2.8,19.61c-6.76,26.09-13.17,52.27-20.37,78.23-9.77,35.18-19.7,70.3-27.48,106-.57,2.6-.67,5.3-1,8l-1.1,2.38.95.27Zm301.49,158.74c.82-.28,2-.3,2.41-.87,2.5-3.93,4.94-7.9,7.19-12,10.58-19.17,18.59-39.48,26.15-60q8.4-22.76,15.83-45.86c12.67-39.2,25.95-78.2,38.57-117.41,6.53-20.3,12.13-40.9,18.27-61.33,3.74-12.44,8.06-24.72,11.49-37.25,6-22,11.56-44.11,17.29-66.19a35.18,35.18,0,0,0,.88-4.32,2.34,2.34,0,0,0-3-2.34c-3.09.6-4.25,2.72-5,5.58-3.81,14.46-7.75,28.89-11.68,43.32-5.86,21.52-10.86,43.27-17.69,64.54-6.53,20.31-12.24,40.87-18.48,61.27-15.23,49.71-32.13,98.87-48.65,148.15-9.67,28.86-20,57.44-33.37,84.83a11.65,11.65,0,0,0-.59,1.17c-.05.13.13.35.2.52.26-.25.72-.51.71-.74A3.26,3.26,0,0,0-442.47-331.64ZM-690.62,187.49c-.59-1.34-1.42-1.5-2.94-.2h3.13c-.88,1.64-2.43,1.53-3.85,1.26-2.88-.55-5.73-1.27-8.59-1.94C-727.64,180.8-752.08,173.93-776,164a67.64,67.64,0,0,1-1.94,7.27,53.27,53.27,0,0,1-3.37,6.49c-1.14,2.05-4.24,2.29-5.2,5.23,1.65.15,2.91.58,4,.31,3.78-.91,7.25-.12,10.76,1.24,4.12,1.6,8.29,3.05,12.48,4.43,41.14,13.53,83.42,22,126.24,27.91,30.62,4.23,61.38,7.34,92.18,9.84,27.15,2.2,54.35,3.59,81.6,3.62,21.36,0,42.72-.19,64-2.14,19.77-1.8,39.5-4.26,59.2-6.74A553.13,553.13,0,0,0-257.43,206a147.77,147.77,0,0,0,15.84-5.77c3.65-1.49,7.13-3.31,11.38-2.34,5.42-6.5,10.32-13.18,15.57-19.56.49-.6,1.48-1.5-.16-2.81-6.9,3.05-14,6.19-21.13,9.36a4.2,4.2,0,0,0-1.81,1.23c-1.68,2.55-4.44,3-7,3.6-13.59,3.23-27.14,6.72-40.84,9.43-24.3,4.81-48.87,8-73.49,10.75a746.81,746.81,0,0,1-77.11,4.51,1130,1130,0,0,1-122.71-6c-29.29-2.95-58.56-6-87.63-10.69-12.82-2.08-25.67-4-38.21-7.54-1.5-.43-2.49-.68-3.09-2.25C-688,187.51-689.65,187.63-690.62,187.49Zm197.46,826.63c1.66.34,3.05.75,4.47.91q24.85,2.85,49.72,5.64c15.36,1.72,30.72,3.5,46.09,5.07,12.45,1.27,24.92,2.27,37.39,3.4,3.64.33,7.25,1.09,10.93-.18a7.31,7.31,0,0,1,4.33.19c6.41,2.12,13.07,2,19.67,2.32,17.65.82,35.3,1.7,53,2.28,18.64.61,37.28,1.16,55.93,1.27,15.47.09,30.95-.86,46.13-4.06,37.43-7.88,73.12-20.52,106.41-39.66A698.63,698.63,0,0,0,78.19,888c11.66-11.25,23.06-22.75,33.37-35.31a15.43,15.43,0,0,0,4-10.67,75.55,75.55,0,0,0-6.07-27.13,8.16,8.16,0,0,0-1.85-3.13c-3.14-2.68-4.43-6.43-6.1-10Q-14.71,558.36-130.89,314.91c-1.26-2.64-2.58-5.26-3.75-7.63A11.37,11.37,0,0,0-137,306.2c-6.81-1.18-12.23-4.86-17.12-9.5S-164,287.19-169,282.46c-1.19-1.13-2.49-2.15-4.66-4,.59,3.29,1.08,5.34,1.31,7.42.73,6.59-.23,12.75-5,17.82-4.62,4.91-11.77,6.1-17.35,2.3q-14.29-9.75-28.16-20.1a27.62,27.62,0,0,1-10.23-15.76c-.54-2.11-1.12-4.21-1.82-6.82-2.28.59-4.36,1.1-6.42,1.67-14.88,4.12-29.68,8.58-44.67,12.29-22.88,5.66-46.19,9.07-69.54,12.16-29,3.83-58,6.77-87.24,7.26-31.43.54-62.86.46-94.19-2.08-28.12-2.28-56.18-5.28-84.24-8.14a826.78,826.78,0,0,1-92.92-15.09,588.26,588.26,0,0,1-83.14-24.49c-3.78-1.44-6.83-.34-8.48,3.27-1,2.23-1.82,4.55-2.7,6.85L-935.9,591.17q-54.81,143.72-109.63,287.41c-1,2.49-1.77,5-2.9,8.3,1,.66,2,1.33,3,2.07,6.84,5.19,13.55,10.58,20.54,15.55a646.63,646.63,0,0,0,143.68,76.89A653.14,653.14,0,0,0-757.93,1015a544.18,544.18,0,0,0,59.21,6.71c23,1.42,46.09,2.24,69.16,1.94,39.27-.51,78.47-3,117.66-5.4,3.36-.2,6.24-1,8.45-4.13,0-1.72.11-3.67,0-5.61q-2.46-38.57-5-77.15c-1.92-30.12-3.69-60.26-5.76-90.37-1-14.93-2.6-29.82-3.85-44.74-.27-3.16-.94-6.57-.08-9.48.92-3.13.28-5.76-.33-8.59-.41-1.91-1-3.79-1.37-5.72q-3.66-19.89-7.25-39.81c-.17-.9-.15-2-1.88-1.8l-1.76,3a35.65,35.65,0,0,1-1.91,3.15c-1.86,2.5-4.23,3.19-6.32,2-2.29-1.36-3-3.59-1.86-6.34.66-1.58,1.56-3.06,2.27-4.62,1.54-3.34,3.09-6.68,4.5-10.07,1.9-4.59,3-9.31,2.32-14.36a26.47,26.47,0,0,1,.31-5.08,37.52,37.52,0,0,0,.29-5.06c-.5-7.1-1.42-14.18-1.62-21.29-.15-5.51-2.93-11.09.09-16.59a1.51,1.51,0,0,0,0-.71c0-2-3.3-9.86-5.54-13-.71,2.06-1.42,3.77-1.92,5.54-4.25,15.09-11.61,28.56-21.14,41-12.69,16.48-28.25,29.95-44.5,42.72a11.11,11.11,0,0,1-3.17,1.77,4.34,4.34,0,0,1-4.74-1.08,4.57,4.57,0,0,1-.46-5.46,18.92,18.92,0,0,1,3-3.16c2.43-2.06,4.95-4,7.42-6,12.2-10,23.64-20.67,33.55-33a118.34,118.34,0,0,0,24.18-53A38.85,38.85,0,0,0-547,612.11c-3.05-10.09-6.47-20.07-9.87-30.06a18.06,18.06,0,0,0-2.81-5c-6.6-8.54-13.37-17-19.95-25.51a102.63,102.63,0,0,1-15.5-29.92c-7.88-23.06-13.23-46.75-17.34-70.68-5.34-31.19-9.89-62.52-14.73-93.79a32.18,32.18,0,0,1-.27-6.58c.09-1.91,1.48-3,3.24-3.56a4.26,4.26,0,0,1,4.93,2.29,21.24,21.24,0,0,1,1.28,4.94c2.28,14.29,4.67,28.57,6.72,42.89,3.42,24,7,48.06,12.09,71.84a431.68,431.68,0,0,0,14.44,53.22c3.72,10.6,9.73,19.76,16.5,28.54.4.51,1.17.74,2.53,1.58-1.62-6.38-3.07-12-4.51-17.69a30.36,30.36,0,0,1-1-4.26,4.42,4.42,0,0,1,3.06-4.53,4.36,4.36,0,0,1,5.16,1.72,24.18,24.18,0,0,1,2.19,5.4c1.8,6.38,3.43,12.8,5.18,19.18,8,29.12,18.09,57.56,27.81,86.12,10.67,31.36,22.11,62.42,35.93,92.57C-480,757-466.18,782.1-448.56,805c8.84,11.46,17.91,22.75,26.87,34.13a40.72,40.72,0,0,1,3.46,4.74,4.69,4.69,0,0,1-1.11,6,4.92,4.92,0,0,1-6.11-.48,27.85,27.85,0,0,1-2.94-3.28q-8.81-10.87-17.56-21.78c-19.67-24.65-37-50.82-50-79.59-7.8-17.2-15-34.65-22.54-52-.58-1.34-.79-3-3.07-4,.25,4.26.33,7.93.72,11.57,1.25,11.71,2.42,23.43,4,35.1,2.62,19.22,6.25,38.26,12.49,56.69,3.22,9.52,6.83,18.91,10.26,28.37.92,2.53,2,5,2.74,7.61,1,3.3,0,5.63-2.6,6.7-2.36,1-4.88-.34-6.3-3.57-1.29-2.91-2.26-6-3.44-8.92a35.68,35.68,0,0,0-2.33-3.71C-501.7,884.83-498.09,949.42-493.16,1014.12ZM-295.71-729.65c-.68,1.89-1.26,3.24-1.63,4.64-1.57,5.93-3,11.89-4.61,17.81-6.62,24.63-12.46,49.46-20.48,73.73-6.24,18.85-11.25,38.11-17.13,57.08C-357-519.91-376.19-464-395.29-408a523.87,523.87,0,0,1-20,49.86c-7.92,17.22-17.18,33.65-28.95,48.58-9.5,12.06-20.29,22.65-33.83,30.2A36.64,36.64,0,0,0-483.9-275c-16,13.8-34.71,20.86-55.73,22.16a186.32,186.32,0,0,1-39.63-1.94A93.72,93.72,0,0,1-611-266c-8.52-4.77-14.82-12-21.57-18.75a32.66,32.66,0,0,1-4.23-5.09c-6-9.25-11.73-18.69-16.05-28.92a219.74,219.74,0,0,1-12.8-42.18c-6.39-31.65-8.48-63.71-8.37-95.92.08-23.08,1.47-46.1,3.6-69.1a557.1,557.1,0,0,1,10.17-66.9c5.32-24.44,10.52-48.92,15.85-73.36,4.22-19.4,7.58-39,15.08-57.58,1.06-2.64.19-5-1.56-7.17-5.43,3.3-10.5,6.27-15.46,9.43-6,3.86-12.18,5-18.68,1.15a6.45,6.45,0,0,0-1.77-.3c-3.12,1.73-6.24,4-5.41,8.29,1.21,6.26.09,12.23-1.38,18.18-3.88,15.72-7.65,31.47-11.94,47.08-8.3,30.27-16.88,60.46-25.42,90.67-2.4,8.49-5,16.91-7.59,25.35-1.87,6.09-3.72,12.2-5.8,18.22-5.22,15.07-10.6,30.08-15.84,45.14-4.13,11.84-7.41,23.92-8.72,36.43-.79,7.56-1.18,15.16-1.79,22.74-.31,3.87.16,7.87-2.45,11.31-.63.84-.5,2.37-.46,3.57.61,16.51,2.49,32.79,9.07,48.19,1.16,2.7,2.35,5.41,3.27,8.2s.3,4.75-2.53,6a7.94,7.94,0,0,0-4.2,3.8c-1.54,3.06-3.11,6.12-4.42,9.28A17.68,17.68,0,0,0-753-306c1,3.28,1.54,6.69,2.5,10,2.32,8,1,15.31-3.2,22.56a699.62,699.62,0,0,0-43.08,88.64A1465,1465,0,0,0-845.45-46c-3.94,13.44-7.88,26.84-9.39,40.81-2,18.72-1.49,37.26,4.47,55.34,1.84,5.58,4.33,11,5.73,16.68,1.19,4.81,5.31,7.5,7.15,11.79.67,1.58,2.91,2.51,4.47,3.69a226.62,226.62,0,0,1,48.76,49.78c5,7,9.44,14.32,12,22.81,1.27.58,2.56,1.3,3.93,1.78,11.12,3.87,22.12,8.12,33.39,11.46,44.82,13.28,90.68,21.37,137.08,26.5,21.7,2.4,43.45,4.34,65.19,6.38q42.9,4,86,3.92c13.74,0,27.48-.66,41.21-1.08,1,0,2.5.52,3-1.51-2.17-1.09-4.3-2.21-6.46-3.26a251.36,251.36,0,0,1-31.37-17.73A141.37,141.37,0,0,1-466,159.51a70,70,0,0,1-12.34-18.21c-2-4.51-3.47-9.18-3.15-14.23.42-6.63,3.93-11.17,10.47-12.44a29.92,29.92,0,0,1,10.21-.17c7.74,1.24,15.4,3,23.09,4.58a16.33,16.33,0,0,1,4.14,1.41,4.32,4.32,0,0,1,2,5.06,3.85,3.85,0,0,1-3.68,3.08,32.83,32.83,0,0,1-6.56-.61c-5.05-1-10-2.32-15.12-3.16a70.42,70.42,0,0,0-11-.86,3.63,3.63,0,0,0-3.91,4.28,25.43,25.43,0,0,0,1.81,7.81,69.43,69.43,0,0,0,6.18,10.83A85.24,85.24,0,0,0-447,164.31a201.13,201.13,0,0,0,55.36,31.59,5.53,5.53,0,0,1,3.66,3.29c.39,1.08.76,2.17,1.23,3.49,5-.32,9.66-.4,14.26-1,18-2.18,36-4.39,54-6.79a545.57,545.57,0,0,0,62.08-12.06c2.58-.66,5.12-1.24,7.11-3.48,1-1.13,3-1.41,4.57-2,1.84-.63,3.8-1,5.58-1.72,5.2-2.19,10.44-4.31,15.48-6.83a115.77,115.77,0,0,0,13.35-7.73c5.38-3.68,9.49-8.62,11.18-15a19.2,19.2,0,0,1,4.5-8.3c3-3.25,5.89-6.66,9.33-9.36,7.11-5.58,12.54-13.17,20.86-17.29,1.06-.52,1.8-1.66,2.71-2.48q17.73-16,35.49-32c6.57-5.91,13.17-11.76,17.91-19.38a9.41,9.41,0,0,0,1.44-7.6c-1.48-6.54-1.87-13.24.79-19.57,1.92-4.57,1.82-8.91.78-13.61A136.15,136.15,0,0,0-117.4-15.76q-14.53-28.54-29.36-56.92c-5.69-10.87-11.28-21.78-15.69-33.25a222.74,222.74,0,0,1-12-41.67c-.54-3.09-1-6.21-1.44-9.38-2.18-.63-4-1.24-5.94-1.69a141.74,141.74,0,0,1-40.75-16.53c-2.31-1.39-4.71-2.63-7.09-3.89-26-13.69-45.82-33.35-59.25-59.57a211,211,0,0,1-22.22-78.78c-2.22-25.51-1.71-51-.06-76.5q1.46-22.41,3.34-44.79c1.56-18.34,3.32-36.66,5.06-55,1.7-17.84,3.48-35.66,5.23-53.49,2.12-21.49,4-43,6.41-64.47,3.46-31.23,8.87-62.18,13.7-93.21.83-5.32,1.24-10.72,1.95-16.06.45-3.35-1-5.69-3.57-7.53a13,13,0,0,0-9.7-2.61C-290.92-730.76-293-730.21-295.71-729.65Zm10.06,405.77c5.39-2.23,9.47-4.91,13.7-7.29,10.64-6,18.16-14.78,23.39-25.72A125.39,125.39,0,0,0-240-380.38c4.83-19,8.66-38.28,11.83-57.65,1.54-9.45,2.94-18.91,4.51-28.35a19.93,19.93,0,0,1,1.73-5.57c1.29-2.6,5-2.66,6.78-.31a6.7,6.7,0,0,1,1,5.58c-.88,4.83-1.77,9.66-2.47,14.51q-5.08,35.35-13.29,70.12a139.41,139.41,0,0,1-11.61,32.5c-5.55,10.7-13.13,19.52-23.59,25.68-5.29,3.11-10.67,6.05-16,9.09-1.43.82-2.84,1.7-4.34,2.6.41,4,.77,7.65,1.18,11.29a199.2,199.2,0,0,0,19.76,67.44c12.83,25.59,32.48,44,58,56.38a46.26,46.26,0,0,0,11.81,3.95c8.35,1.53,8.36,1.75,16.14-1.56a13.33,13.33,0,0,0,4.61-3.41,14.25,14.25,0,0,0,2.87-5.08c.46-1.52.09-3.3.09-5l8.68-7.87c-1.13-5.13-2.16-9.9-3.25-14.66-4.23-18.42-8-36.92-10.1-55.73-1.59-13.95-1.66-27.93-1.56-41.92.14-20.15,1.55-40.23,5.37-60.05,3-15.42,6.2-30.78,9.26-46.17a53,53,0,0,0,.52-5.69c-2.46-1-4.54-1.76-6.47-2.76a4.93,4.93,0,0,1-2.21-5.73,4.39,4.39,0,0,1,5.3-2.85,28.09,28.09,0,0,1,5.53,1.92q25.77,11.77,51.5,23.64c1,.47,2.08.85,3.05,1.25,1.16-1.75.11-2.71-.43-3.68a126,126,0,0,0-14.54-21.22,18.68,18.68,0,0,1-3.1-4.91c-.72-1.75.17-3.36,1.67-4.49a3.63,3.63,0,0,1,4.15-.4,13.82,13.82,0,0,1,3.86,3.31c4.58,6.06,9.34,12,13.39,18.44,4.32,6.83,8.08,14,11.79,21.23a349,349,0,0,0,19.77,32.76c13.89,20.93,32.3,36.75,54.27,48.64,2.4,1.29,4.65,2.56,7.62,1.68A3.81,3.81,0,0,1-2-311.13c1.06,3.66,4,4.74,6.88,6.07a133,133,0,0,0,34.16,11.13,13.64,13.64,0,0,1,2.81.79c6.84,2.7,13.67,5.44,20.51,8.15a33.58,33.58,0,0,1,12.75,8.49c1.49,1.63,3.1,3.15,4.72,4.65a14.19,14.19,0,0,0,8.05,4.1c1.7-1.38,3.6-2.91,5.47-4.46A86.61,86.61,0,0,1,115.85-286a20.77,20.77,0,0,1,4.88-1.47,4.22,4.22,0,0,1,4.5,3,4,4,0,0,1-1.85,4.44,33.34,33.34,0,0,1-4.52,2.44c-13,5.92-23.48,15-32.36,26.1a145.69,145.69,0,0,0-23.2,42.43c-4.16,11.59-6.71,23.59-8.7,35.71-1.51,9.17-3,18.35-3.43,27.83a279.93,279.93,0,0,0,25.1,21.68c25.74,19.29,52.45,37.19,79.41,54.72a43.89,43.89,0,0,0,4.44,2.24c1-.84,1.84-1.4,2.54-2.06q10.14-9.65,20.25-19.32a508.64,508.64,0,0,0,63.88-74A182.93,182.93,0,0,0,273-216.39c2.68-8.94,5.11-18.05,4.36-27.48-.69-8.75.72-17,3.32-25.34,2.79-8.88,5.16-17.91,7.28-27a72.06,72.06,0,0,0,2.12-20.45c-.61-10.74-7.24-18.92-17.72-21.67-3.5-.92-7.1-1.48-10.9-2.26-.65-2.95-3.51-3.51-5.94-4.47A64.67,64.67,0,0,1,231-362.25c-5.73-6.39-11.18-13-16.71-19.6q-7.11-8.44-14.11-17c-.93-1.12-2.12-2.28-2.42-3.6-.62-2.71-2.6-4.12-4.51-5.6-6.8-5.24-13.5-10.64-20.56-15.52-21.4-14.8-42.82-29.56-64.46-44C87-481.67,65.48-495.36,45.13-510.81c-7.42-5.63-15.07-11-22.81-16.18a110.43,110.43,0,0,1-35.65-38.55c-1.91-3.43-4-6.76-5.85-10.23-6.4-12.16-12.71-24.36-19-36.55-3.63-7-7.07-14-10.87-20.9-13.14-23.69-30-44.19-51.79-60.53a109.25,109.25,0,0,0-42.36-19.75,138.91,138.91,0,0,0-33.66-2.93c-18.4.47-36.79,1.29-55.19,2-4.13.16-8.25.41-12.55.62-.94,2.28-1.88,4.26-2.57,6.33a42.71,42.71,0,0,0-1.71,6.39c-1.76,10.15-3.5,20.31-5.09,30.49-2.68,17.21-5.64,34.39-7.77,51.67-3.27,26.55-6.09,53.15-8.83,79.76-3.32,32.22-6.36,64.48-9.52,96.72-2.91,29.56-5.29,59.16-6.14,88.86C-286.55-344-286.82-334.5-285.65-323.88ZM-647.8,1033.47c-1.92-.18-3.08-.36-4.24-.37-20.14-.14-40.22-1.2-60.29-2.82a565.53,565.53,0,0,1-67.7-9.67,672.12,672.12,0,0,1-81.67-21.87c-1.56-.53-3.21-.8-5.25-1.31-1.42,6.07-2.87,11.75-4.06,17.48-1.94,9.36-3.73,18.75-5.53,28.14a23,23,0,0,0,1.17,11.59,48.08,48.08,0,0,0,10.09,17.79c2.15,2.35,4.29,4.72,6.47,7a82.49,82.49,0,0,1,14.17,21.39,163.64,163.64,0,0,1,9.19,24.82c10,34.89,20.05,69.78,29.85,104.73,9,32.12,17.25,64.45,26.65,96.45,8.86,30.12,18.33,60.05,25.81,90.56,2.69,11,5.54,21.88,8.48,32.77,1.36,5,.53,9.65-1.72,14.24a34.92,34.92,0,0,1-10.31,12.31c-14.21,10.91-28.39,21.92-43.8,31.09-22.56,13.41-45.42,26.33-68.15,39.45-4.25,2.45-8.52,4.86-12.74,7.27-3.66,7.65-1.46,15.53-2,23.2a454.07,454.07,0,0,1,48.2,39.22c13.62,12.74,27,25.75,40.5,38.6,1.91,1.81,3.31,4.32,6.34,5,7.37-3.22,14.91-6.07,22.95-7.47a216.27,216.27,0,0,1,68.88-.75,364.61,364.61,0,0,0,55,3.42,66.39,66.39,0,0,0,23.1-4c8.09-3,14.73-7.77,18.72-15.68,2.1-4.15,4.31-8.26,6.27-12.48a29.53,29.53,0,0,0,2.11-19.41c-2-8.6-3.5-17.34-6.12-25.74-7.29-23.42-14.93-46.72-22.68-70a130.65,130.65,0,0,1-6.62-30.1c-1.88-21.73-.86-43.1,6.39-64,8.06-23.16,15.48-46.55,23.65-69.68a297.54,297.54,0,0,0,15.81-68.67,193.43,193.43,0,0,0-3.23-61.5c-3.44-15.7-9.73-30.32-16.74-44.68a141.59,141.59,0,0,0-23.88-35.19c-4.19-4.46-7.75-9.5-11.54-14.33-3.32-4.25-6-9.15-10-12.73-5.79-5.28-9-12.07-13.1-18.41-3.84-6-7.75-11.94-11.56-18a36.32,36.32,0,0,1-2.76-5.19,4.35,4.35,0,0,1,1.63-5.19,4.09,4.09,0,0,1,5.4.16,55.71,55.71,0,0,1,4,5.26c.66.88,1,2.27,2.36,1.87,1.4-5.86,2.28-11.74,4.25-17.23C-654,1045.25-650.9,1039.92-647.8,1033.47Zm-234-1128.26a30.24,30.24,0,0,0-.47-4.32,94.35,94.35,0,0,1-3.07-23.29c-.26-10.06-1.09-20.12-.87-30.16.22-10.25-2.22-20.45-.39-30.69a3.06,3.06,0,0,0,0-.74c-1.16-11.46-1.77-23-3.59-34.39-6.28-39.33-28.19-68.83-59.17-92.45a4.57,4.57,0,0,0-4-1.19,6.09,6.09,0,0,1-6.55-2.31c-2.41-3-5.74-4.47-9.11-6a89.35,89.35,0,0,1-9.79-5,21.1,21.1,0,0,1-5.49-4.82c-5.84-7.42-4.66-15.63-2-23.78.34-1,2.2-1.87,3.5-2.14a3.63,3.63,0,0,1,4.15,2.34,10.19,10.19,0,0,1,.7,4.27,55.6,55.6,0,0,1-.95,5.8,8.68,8.68,0,0,0,2.17,7.54A27.84,27.84,0,0,0-960-327.82c2,.27,3.67.19,5.27,1.55,8.4,7.17,17,14.15,25.26,21.43a141.87,141.87,0,0,1,23,25.72c4.74,6.82,9.22,13.84,13.43,21,1.31,2.21,1.1,5.26,2.06,7.75,1.38,3.6,3.2,7,4.72,10.32,3.72.19,6.11-1.67,8.56-3.23A187.8,187.8,0,0,0-847.75-267c14-13.6,25.49-29.15,36.51-45.14a177.15,177.15,0,0,0,19.82-36.87c5.72-14.84,12.06-29.56,13-45.79a13.6,13.6,0,0,1,.47-2.9,3.55,3.55,0,0,1,1-1.92c4.5-3,7.28-8.81,14-8.4.52-9.1,1-17.9,1.53-26.7a428.2,428.2,0,0,1,6.8-54c5.14-26.51,12-52.61,19.24-78.6,10.68-38.27,21.24-76.57,30.58-115.2A143.85,143.85,0,0,0-702.3-697c.63-4.61.89-9.28,1.29-13.92.14-1.65.2-3.31.3-5a59.86,59.86,0,0,0-18.76-7.25,104.91,104.91,0,0,0-34.45-.66,97.64,97.64,0,0,0-45.17,18.56A146.18,146.18,0,0,0-846-646.78a174.39,174.39,0,0,0-6.76,18.66A347.68,347.68,0,0,1-867-590.24c-3.11,6.94-6.26,13.87-9,21-5.06,13-12.63,24.37-21.88,34.67-8.69,9.67-17.42,19.32-26.4,28.73-18,18.82-36.29,37.28-55.82,54.51-14.41,12.73-26.67,27.35-37.93,42.95-10.59,14.68-19.54,30-23.35,47.91a25.87,25.87,0,0,1-1.17,3.48c-4.62,12.77-11.75,23.7-23.13,31.5-4.46,3-8.94,6.06-13.4,9.1-2.43,1.65-5,3.14-7.26,5-7.29,6.05-12.08,15.56-8.16,26.26.84,2.3,1.53,4.68,2.57,6.89,2.18,4.66,4.57,9.23,6.81,13.86.95,2,2.16,3.94,2.54,6,1.29,7,2.27,14,3.31,21.08.14.94.42,2.38,0,2.8-3.08,2.69-1.61,6-1.15,8.91,2.18,14.06,4.44,28.1,7,42.1a431.16,431.16,0,0,0,14.4,57.79c9.78,29.91,23.85,57.47,43.32,82.27,7.28,9.25,14,18.95,21,28.44.86,1.17,1.78,2.3,3.23,4.15,14.82-18.19,30.81-34.67,48.88-49.07A231.12,231.12,0,0,1-881.81-94.79ZM-120,1028.85c-4.35,1.3-7.86,2.3-11.34,3.38a264.78,264.78,0,0,1-51,10.92,349.92,349.92,0,0,1-44.86,1.55c-12-.3-24-.81-36.05-1.2-1.15,0-2.51-.32-3.09,1.68,3.8,5.09,7.87,10.3,11.66,15.71a28.27,28.27,0,0,0,11.16,9.25c8.15,4,16.12,8.36,24.14,12.61a31.48,31.48,0,0,1,4.38,2.68,4.66,4.66,0,0,1,1.66,5.86,4.42,4.42,0,0,1-5.56,2.3,19.19,19.19,0,0,1-3.35-1.48c-9.35-4.88-18.65-9.86-28.05-14.65a32.08,32.08,0,0,1-11.07-9.47c-5.05-6.63-10.31-13.11-15.4-19.71a48.58,48.58,0,0,1-3-5.08c-11.51-.89-23-1.57-34.52-1.4a.91.91,0,0,0-.58.33,4.11,4.11,0,0,0-.3,1c2,1.56,4,3.29,6.18,4.85a45.39,45.39,0,0,1,14.56,17.26c3.44,7.06,7.18,14,10.22,21.22q12.27,29.16,24,58.56c2.36,5.9,3.89,12.13,5.91,18.18,1,2.88.59,5.27-1.79,7.29a10.19,10.19,0,0,0-1.33,1.78c.42,4.16.87,8.3,1.25,12.44,1.73,18.82,2.86,37.69,5.77,56.39,3.22,20.71,8.38,40.83,17.58,59.77a311,311,0,0,0,28.6,47.16c19.8,27.17,39.77,54.22,59.59,81.39q15.39,21.12,30.48,42.46a100,100,0,0,1,6.38,10.75,22.07,22.07,0,0,1,2.24,13.55c-.6,4.75-3,8.73-4.45,13.1a87,87,0,0,1-11.75,24.42,11.27,11.27,0,0,0-2,9.76,60.71,60.71,0,0,0,3.84,11c2.38,4.83,5.36,9.36,8.09,14,.86,1.48,1.88,2.89,2.6,4.44,1.27,2.75.67,5.25-1.36,6.55s-4.62.8-6.48-1.5c-.92-1.14-1.57-2.49-2.45-3.67a42.76,42.76,0,0,0-3-3.14c-.48,7.23-.88,13.32-1.29,19.4s-2.57,11.82-2.43,18.55c11-5.12,22.13-8.12,33.14-11.46a73.2,73.2,0,0,0,8.91-3.39,212.13,212.13,0,0,1,72.25-18.9c23.06-1.79,46.1-1.47,68.91,3.15,1.36.27,2.78.3,4.93.53l-3.84-7c-6.73-12.25-13.67-24.4-20.11-36.81-5-9.59-8.45-19.86-11.34-30.27-1.55-5.59-.61-7,5-9.4.38-.17.61-.69.9-1.05,0-11.86-5.6-26.81-13-34.18-.73,2.54-.08,4.91.29,7.26,1,6.31,2,12.6,3,18.9a17.36,17.36,0,0,1,.22,4.37,4.62,4.62,0,0,1-3.94,3.84,4.54,4.54,0,0,1-4.7-2.77,16.44,16.44,0,0,1-1-3.52C10.8,1473.76,9,1458.91,7.58,1444c-2.12-22.48-4.34-44.94-6.41-67.43-2-21.75-3.85-43.51-5.8-65.26-1.13-12.71-2.09-25.44-3.57-38.11-1.93-16.59-6-32.81-9.09-49.19-4.27-22.62-13.45-43-26.8-61.58-.43-.6-.86-1.19-1.27-1.8q-12.72-19-25.43-37.91-12.31-18.33-24.65-36.65c-1.06-1.57-2.37-3-4.53-5.64.27,2.9.29,4.27.54,5.59,2.46,13.52,5,27,7.41,40.54a19.38,19.38,0,0,1,.34,5.09,4.38,4.38,0,0,1-4.1,3.59,4,4,0,0,1-4.23-2.32,27.81,27.81,0,0,1-1.57-5.63c-1.82-9.64-3.51-19.3-5.34-28.94-3.29-17.36-6.67-34.69-10-52C-117.93,1040.79-118.84,1035.24-120,1028.85ZM-611.42-703.54c-3.12,11.21-6.06,21-8.57,31-1.79,7.13-3.23,14.36-4.41,21.61-1.88,11.61-3.13,23.33-5.2,34.9-2,11.34-4.6,22.59-7.2,33.82-9.81,42.48-14.45,85.58-15.73,129.09-.17,5.64,0,11.31-.54,16.92-1.25,13-1.49,25.94,1.08,38.82a42.54,42.54,0,0,1,.72,5.84,378.89,378.89,0,0,0,4.84,40.17c2.75,16.25,6.76,32.16,13.25,47.37a34.71,34.71,0,0,0,4.06,7.79c11.3,14.5,25.21,25.49,43.29,30.1A139,139,0,0,0-542-262.22c11-.73,21.9-2.65,32.12-7.31,4.13-1.88,7.75-4.26,9.92-8.34a9.48,9.48,0,0,1,6.15-4.83c6.15-1.75,10.81-5.63,14.67-10.55,1.58-2,3.91-3.58,4.4-6.63-4.13-1.6-8-3.11-11.89-4.6a104.19,104.19,0,0,1-22.17-11.45,35.23,35.23,0,0,1-3.57-2.58c-2.15-1.9-2.57-4.55-1.21-6.58s4-2.38,6.63-1.07a19.05,19.05,0,0,1,2.48,1.6c9.5,6.77,20.23,11,31.14,14.76a54.39,54.39,0,0,0,5.77,1.36,64,64,0,0,0,4-5.53c4.88-8.49,10-16.86,14.4-25.62,10-20,17.94-40.86,25.14-62,9.23-27.16,18.26-54.4,27.45-81.58,13.13-38.79,25.69-77.77,36.91-117.17,4.23-14.85,9.54-29.4,13.64-44.29,7.55-27.42,14.59-55,21.79-82.51a21.35,21.35,0,0,0,.23-4.27c-7.87-4-14.33-9.67-22.39-13.82a37.6,37.6,0,0,0,0,4.19c1.44,10.33,5.09,19.92,9.84,29.14.56,1.08,1.32,2.07,1.83,3.18,1.33,2.87.9,5.24-1.07,6.6-2.18,1.5-4.77.76-6.92-2.07a23.84,23.84,0,0,1-1.95-3.11q-1.39-2.6-2.67-5.25c-6.7-14-9.58-28.8-10.24-44.14-.41-9.31-.58-18.64-.9-28-.05-1.38-.36-2.74-.58-4.35-10.37,3.81-20.12,7.67-30,11-10.19,3.4-20.55,6.28-31.11,9.47.13,2.39.18,4.57.37,6.74.5,5.71.67,11.3-3.56,16a9.81,9.81,0,0,0-1.25,2.65c-6.32,14.71-14.72,28.27-23.15,41.81a35.9,35.9,0,0,1-2.55,3.59c-2.52,3.12-5.78,4.82-9.72,3.6-4.41-1.36-7.69.22-10.61,3.17-3.62,3.66-7.06,7.5-10.67,11.17q-5.16,5.25-10.51,10.28c-4.26,4-9.07,5.76-14.81,3.24-.33-.14-.89.24-1.09.3-4.51,7-8.78,13.81-13.34,20.48a41.94,41.94,0,0,1-6.73,7.76c-9.52,8.36-16.76,6.63-23.29-.11-3.57-3.69-6.82-7.7-10.15-11.62-1.32-1.55-2.63-2.89-4.87-2.8-4.52.19-8-2.07-11.09-5-13.28-12.57-25.07-26.27-32.32-43.35A25.72,25.72,0,0,0-611.42-703.54Zm309.2-201.9c-3.2.59-5.67,2.72-8.49,4.09-4.51,2.19-8.2,1.05-10.44-3.37a20.38,20.38,0,0,1-1.7-5.58A66.72,66.72,0,0,1-321.57-938c1.13-4.48.58-8.2-3-11.34-5.59-5-9.37-11.28-13.32-17.51A51.44,51.44,0,0,1-345.94-991a8.86,8.86,0,0,0-1.61-4.7c-2.39-3.41-2.24-4.75.71-7.63,6.07-5.9,10.18-13.16,14.61-20.23,3.31-5.27,5.91-10.69,5.17-17.16a6.53,6.53,0,0,1,.11-1.46,150,150,0,0,0-8.81-65.11,17.24,17.24,0,0,0-3.16-5.67c-10.4-11.47-21.35-22.35-34-31.42-5.36-3.86-11.25-6.19-17.78-6.12s-13.32.17-19.77,1.38c-20,3.75-38.5,11.39-54.88,23.73a42.55,42.55,0,0,1-6.11,4.09,8.77,8.77,0,0,1-11.26-2.28,26.53,26.53,0,0,1-3.1-5,50.83,50.83,0,0,1-6-24.77c.05-2.34.76-4.92-1.21-7.09a17.33,17.33,0,0,0-2.87-.36,92,92,0,0,0-44.59,13.38,21.12,21.12,0,0,0-5.54,4.76c-7.87,10-15.54,20.26-21.45,31.64-.87,1.68-1.47,3.5-2.1,5,.5.57.62.85.8.9a27.83,27.83,0,0,0,2.83.7,145.42,145.42,0,0,1,40.48,13,67.3,67.3,0,0,1,19.28,14.54c5.38,5.8,8.09,12.79,9.36,20.44a13.09,13.09,0,0,1-.07,4.37c-.41,2.38-1.85,4.13-4.34,4.33a14.17,14.17,0,0,1-5.74-.51,25.91,25.91,0,0,1-6.4-3.55c-6.65-4.88-14.21-7.71-22.06-9.81-14.84-4-30-4.67-45.27-4a8.42,8.42,0,0,0-2.18.82,65.34,65.34,0,0,1-6.8,22.36,18.55,18.55,0,0,0-1.9,11.43c1.59,9.92-1.31,18.94-5.62,27.65A26,26,0,0,1-607.38-992a27.31,27.31,0,0,0-9,8.56c-3.28,4.88-6.67,9.72-9.56,14.83a222.81,222.81,0,0,0-15.53,34.92c-5,14.21-8,28.8-8,44A40.08,40.08,0,0,0-644-869.34a130.41,130.41,0,0,0,16.05,21.94,23.93,23.93,0,0,0,3,2.31c2.25-5.39,4.73-10.23,6.3-15.35,2-6.39,9.72-10,16.83-5.84a16.63,16.63,0,0,1,8.14,10.9,36,36,0,0,1,.72,9.45,11.2,11.2,0,0,0,1.69,7c1.08,1.64,2.17,3.27,3.16,5,2.93,5,2.69,8.09-1,12.8-.88,1.13-1.87,2.19-2.89,3.38,2.4,4.59,1.65,8.5-1.38,12.45-2.81,3.67-2.52,6.5.36,10a26.28,26.28,0,0,0,20.61,9.74,14,14,0,0,0,5-1c6.12-2.32,7.79-7.53,4.24-13a37.85,37.85,0,0,0-2.79-3.42,36.17,36.17,0,0,1-2.85-3.36c-2.35-3.56-1.38-7.76,2.52-9.12,3.19-1.12,6.82-.94,10-2,6-2,11.57-.94,17.24,1,9.49,3.31,19,6.51,28.53,9.78a18.58,18.58,0,0,1,3.37,1.44c3.8,2.19,4.48,6.06,1.61,9.25-1,1.08-2.28,1.86-3.33,2.89-4,4-3.92,8.1.26,12.08,3.54,3.37,7.7,5.44,12.62,4.95a55.85,55.85,0,0,0,12.22-2.28c10.92-3.69,17.14-14.91,15-24.1a11.67,11.67,0,0,1-.36-2.18,7.28,7.28,0,0,1,3.34-6.93c1-.66,2.07-1.27,3.29-2a29.47,29.47,0,0,1,7.26-13.3,11.69,11.69,0,0,1,4.62-3.45c4.41-1.43,9-2.43,13.48-3.47,4-.92,5.32-.3,7.17,3.15q3.3,6.15,6.5,12.37a32.35,32.35,0,0,1,3.9,14.06c.07,3,0,5.89-2.27,8.26a4.06,4.06,0,0,0-1.29,2.53c.24,4.79-.14,9.72,2.08,14.4a26.38,26.38,0,0,0,3.21-.46,412.1,412.1,0,0,0,42.68-13.8,137.74,137.74,0,0,0,35.57-20.5c16-12.81,25.35-29.67,30.36-49.19a69.49,69.49,0,0,0,2.28-13.76,41.62,41.62,0,0,1,1.51-9.28c1.62-5.85,2.51-11.91,3.65-17.9C-301.62-904.34-302-904.81-302.22-905.44Zm66.88-296.19c-14.32,11.24-24.62,25.16-29.53,42.8-1.32,4.71-2.12,9.57-3.16,14.36-.58,2.63-1,5.31-1.81,7.88-.93,3-2.85,5.39-6.3,5.16-2.64-.18-4.06,1.11-5.5,2.89-2.77,3.44-5.31,7.15-8.51,10.13-5.35,5-7.79,11.07-9,18q-2.64,15.22-5.76,30.35c-4.49,21.85-12.49,42.29-25,60.84-2.19,3.25-4.51,6.41-6.67,9.45.16,2.64.39,5.07.42,7.5a34.87,34.87,0,0,0,4.89,17.52c4,6.75,7.93,13.55,13.84,18.94a23.54,23.54,0,0,1,3.7,4.55A14.67,14.67,0,0,1-311.43-940c-.29,1.44-.52,2.9-.89,4.32-1.74,6.74-1.87,13.59-1.42,20.47.07,1.12-.24,2.52,1.56,3.18A26.18,26.18,0,0,0-298-922.61a77.78,77.78,0,0,1,24.81-23.72c5.24-3.19,10.48-6.38,15.61-9.73,4.92-3.21,9.89-6.4,14.5-10,5.38-4.25,10.44-8.92,15.57-13.49,12.83-11.42,25.67-22.81,38.39-34.35,6.17-5.6,12.2-11.37,18-17.34a66.49,66.49,0,0,0,7.1-9.35c1.53-2.26,2.35-4.7,1.14-7.63s-.16-5.82,1.49-8.37c1.33-2.06,2.88-4,4.34-5.94,4.83-6.49,9.74-12.93,14.49-19.49,7.64-10.55,11.86-22.5,14-35.24a35.67,35.67,0,0,0-.31-14.62c-.63-2.54-1.8-4.49-4.61-5.14a17,17,0,0,1-4.1-1.58c-3.64-1.91-5.36-5.1-4.72-9.12.38-2.41,1.31-4.73,1.78-7.13,1.2-6.25,2.41-12.51,3.37-18.8.57-3.78,0-7.23-3.55-9.79-2.89-2.12-3.3-5.33-2.33-8.65.76-2.58,1.71-5.11,2.59-7.66,1.68-4.89,3.1-9.84,3-15.07a24.75,24.75,0,0,0-1-4.36c-1.68.48-2.83.76-3.95,1.15-14.64,5-28.86,11-42.18,19a32,32,0,0,1-6.52,3.32c-4.22,1.35-7.21-1-7.6-5.36-.14-1.57,1.36-3.34-.86-5-7.12,1.56-14.58,3-21.92,4.87C-226.07-1200.08-230.54-1199.52-235.34-1201.63ZM151.74-58.55c-6.67-4.42-12.61-8.31-18.49-12.29-28.83-19.51-58.13-38.39-84.15-61.74a8.89,8.89,0,0,0-3.66-2.24c-5.4-1.21-10.75-1-15.69,1.86-6.4,3.73-11.27,8.64-12.32,16.42-1.2,9-5,16.79-9.94,24.27C-10.34-65.26-28-38.14-45.73-11.06c-1.21,1.85-2.53,3.62-3.71,5.49-6.25,9.88-14.88,17.5-23.8,24.79-2.21,1.8-5.1,2.84-7.8,3.93a25.62,25.62,0,0,1-5.72,1.34c-6.58,1-9.55,5.26-10.62,11.45a31.35,31.35,0,0,0,1.13,14.54c6.53,21.61,17.83,40.26,34.92,55.17a151.4,151.4,0,0,0,35.81,22.92c2,.93,3.9,2.19,6,2.68,12,2.81,22.21-2.61,26.66-14a82.17,82.17,0,0,0,2.74-8.39,25.76,25.76,0,0,1,6.5-11.36c4.42-4.59,8.63-9.4,13.26-13.78C43.34,70.72,57.21,57.9,71,45c14.36-13.39,28.4-27.11,41.23-42,9.25-10.7,19.33-20.14,32.18-26.38a36.38,36.38,0,0,0,6.62-4.61,20.75,20.75,0,0,0,3.54-3.71,14,14,0,0,0-1.43-18.71C150.63-52.8,150.08-55.11,151.74-58.55ZM39.71-146c.5-2.24,1.06-4.11,1.34-6,1.12-7.77,2-15.57,3.26-23.32,4.86-30,14.9-57.87,34.31-81.79a17.22,17.22,0,0,0,1.28-2.1c-4.29-3.74-8.52-7.07-12.31-10.84a30.06,30.06,0,0,0-11.66-7.45c-9.74-3.32-19.53-6.5-29.29-9.77-7-2.33-13.92-4.73-20.89-7.05-1.27-.43-2.61-.64-4.14-1,0,2.7-.18,4.9,0,7.06a256.29,256.29,0,0,1,.12,44.84,212,212,0,0,1-18.91,73,104.33,104.33,0,0,1-7.64,13.39A36.94,36.94,0,0,1-31.07-150c-13.24,11.92-27.73,4.17-31.54-8.38a64.51,64.51,0,0,1-1.92-10.82c-.36-2.92-.17-5.89-.44-8.82-.29-3.15-.84-6.27-1.34-9.89-2,1.08-3.45,1.91-4.93,2.66-6.54,3.32-12.21,1.41-15-5.32a28.94,28.94,0,0,1-2-7.8c-1.53-13.16-3-26.32-4.26-39.5a343.91,343.91,0,0,0-9.76-55.74c-7.79-29.77-19-58.28-32.07-86.06-4.36-9.29-10.07-18-15.24-26.86a34.57,34.57,0,0,0-3.24-4,10.14,10.14,0,0,0-1.33,2.29c-2.54,12.49-4.8,25.05-7.59,37.48A94,94,0,0,0-163-338.61a479,479,0,0,0,15.13,74.18c4.75,16.53,11,32.5,17.19,48.53a116.06,116.06,0,0,1,6.37,21.1c.87,4.87,1.21,9.8,0,14.62a27.72,27.72,0,0,0,2.77,21.28c2.86,5.13,6,10.15,8.38,15.5,9.9,22,22.14,42.63,35,63C-72-70.71-66.37-60.64-60.71-50.6a86,86,0,0,1,9.1,24.77c.23,1.07-.09,2.56,2.32,2.92a84.74,84.74,0,0,0,9.08-13.67A114.81,114.81,0,0,1-34-47.42Q-17.28-73-.35-98.39c3.43-5.18,6-10.65,6.76-16.92A33.8,33.8,0,0,1,7.76-121a27.65,27.65,0,0,1,5.9-10.91C18.89-137.68,25-142,32.59-144.12ZM-102.07,66.28c-3.73,4.08-6.64,7.75-10,10.89-7.93,7.32-16.13,14.35-24.16,21.56-7.47,6.7-15.67,12.61-21.93,20.6a5.67,5.67,0,0,1-1.63,1.46c-7.75,4.4-13.91,10.82-20.68,16.45a44.24,44.24,0,0,0-12.17,15.53,114.6,114.6,0,0,0-5.3,13.6,62.36,62.36,0,0,1-10,19.57c-4.46,5.85-9.11,11.56-13.79,17.24-8.78,10.63-9.22,11.9-7.67,26.26.87,8,2.79,15.9,4.21,23.85a19.31,19.31,0,0,1,.68,5.06c-.83,9.45,2.86,16.64,10.47,22,6.2,4.4,12.34,8.9,18.52,13.33,1.6,1.14,3.23,2.24,4.93,3.22,3.42,2,6.52,1.09,7.59-2.58a23,23,0,0,0,.62-7.95c-.3-4-2.17-7.55-4.36-10.82q-3.88-5.81-8.22-11.31a17.4,17.4,0,0,1-3.95-11.58,60.69,60.69,0,0,1,.3-6.61c1.39-10.21,2.84-20.41,4.41-30.59a8.09,8.09,0,0,1,2-4.52c1.89-1.72,2.13-3.66,2.28-5.91.38-5.87.86-11.74,1.4-17.61A33.78,33.78,0,0,1-185,175.56c5.06-10.29,12.91-18.44,20.29-27a7.92,7.92,0,0,1,1.64-1.47,4.45,4.45,0,0,1,4.85-.28,4.27,4.27,0,0,1,2.17,5,13.72,13.72,0,0,1-2.38,4.46c-2.45,3.06-5.21,5.88-7.67,8.93a10.83,10.83,0,0,0-2.37,4.42c-.65,3.43-1.26,6.12-5.36,7.56-2.88,1-4.1,4.76-4.51,8q-1.06,8.38-1.8,16.81c-.29,3.32-1.36,6.77,1.57,9.72.63.63.28,2.35.21,3.56-.83,13,.55,26,2.07,38.9a20.35,20.35,0,0,0,5,11.21,261.59,261.59,0,0,0,26.65,26.41,19.49,19.49,0,0,0,6.29,3.69c5.07,1.75,12.22-.9,11.71-8.88a12.74,12.74,0,0,0-1.33-4.91c-3.92-7.63-7.46-15.51-13.71-21.67-1-1-2-2.2-2.92-3.31a13.91,13.91,0,0,1-3.17-13c1.87-8.35,3.26-16.8,4.82-25.07-1.63-2.13-2.7-4.22-4.37-5.55a11.72,11.72,0,0,1-4.37-9A95.22,95.22,0,0,1-151.8,191c.89-11.12,7.85-18.15,16.75-23.66a4.72,4.72,0,0,1,6.05.86,5,5,0,0,1-.38,6.7,24.41,24.41,0,0,1-4,3.23c-7.08,4.71-9.35,11.65-9.23,19.71.06,4,.77,7.68,4.09,10.57,1.82,1.57,3,3.83,4.55,5.76,10.32,13.12,20.54,26.32,31,39.31,4.46,5.53,9.41,10.68,14.2,15.94a25,25,0,0,0,11,7.14c4.78,1.52,9.55,1.81,14.58-1.08-1.29-1.47-2.34-2.74-3.46-3.94-7.39-7.87-14.81-15.71-22.16-23.62a36,36,0,0,1-4-5.25,4.73,4.73,0,0,1,1-6.56,4.57,4.57,0,0,1,6,.43c1.26,1.15,2.27,2.56,3.43,3.83,6.47,7.05,12.89,14.15,19.48,21.09a111,111,0,0,0,8.69,7.94c3.42,2.92,7.06,3.82,11.51,1.79,11.38-5.17,22.91-10,34.37-15a11.17,11.17,0,0,0,2.18-1.6c1.74-12.43-4.81-32.67-13.82-42.13-4.58,4.84-10.2,8.6-14.24,14.21,2,1.81,3.61,3.26,5.19,4.78a46.44,46.44,0,0,1,9.55,13.87,4.46,4.46,0,0,1-1.75,5.81,4.33,4.33,0,0,1-6-.86,64,64,0,0,1-4.12-6.07c-2.6-3.92-5.55-7.43-10-9.5-5.26-2.44-5.27-2.89-4.75-8.34a9.38,9.38,0,0,1,3.41-6.23c6.79-6.39,13.6-12.77,20.24-19.32,3.31-3.27,6.26-6.9,9.38-10.36a20.88,20.88,0,0,0,5.39-16.29c-.13-1.71-.12-3.44-.3-5.15-.82-7.56-1.64-15.12-2.56-22.68a25.79,25.79,0,0,0-1.25-4.17c-2.71-.13-5.16-.14-7.58-.38-4.17-.42-8.31-1.15-12-3.27-4.23-2.46-8.23-5.3-12.46-7.75-24.22-14-43.18-33-55.15-58.55C-99.66,70.43-100.69,68.78-102.07,66.28Zm82.76,1684.39c1.08.89,1.59,1.42,2.19,1.8,8.37,5.15,17.6,5.9,27,4.73A70.36,70.36,0,0,0,23.43,1754c3.47-1.16,4.7-4.29,3.52-7.79a70.17,70.17,0,0,0-3.07-6.66c-1.54-3.4-2.41-6.74-1.49-10.66s.63-7.81,1-11.72c1.08-10.67-2.74-19.19-11.11-25.78-3.28-2.58-6.58-5.14-9.76-7.83a31.64,31.64,0,0,1-4.62-4.71,4.78,4.78,0,0,1,.4-6.64c1.74-1.54,3.9-1.63,6,.11,5.87,4.82,11.87,9.53,17.43,14.71A34.13,34.13,0,0,1,33,1714.73c-.16,3.43-.34,6.86-.56,10.29-.37,5.84,2.35,11,3.88,16.34.37,1.3,1.67,2.39,2.7,3.43a18.24,18.24,0,0,0,11.11,5.3c8.47.87,16.58-1.1,24.35-4.42a4.15,4.15,0,0,0,2.57-4.82c-.56-2.87-.94-6-2.3-8.46a53.65,53.65,0,0,1-6.7-27.51c.16-6.53-3.05-11.85-8.51-15.47-4.08-2.7-8.42-5-12.66-7.45-1.69-1-3.53-1.73-5.13-2.84a4.33,4.33,0,0,1-1.49-5.24,4.8,4.8,0,0,1,5.44-2.75,13.09,13.09,0,0,1,2.08.71,76.89,76.89,0,0,1,19.07,11,26.27,26.27,0,0,1,10,15.87A81.47,81.47,0,0,1,78,1711.1c.12,3.23.32,6.37,1.83,9.28,3.74,7.2,6.65,14.68,7.63,22.77a27.85,27.85,0,0,0,3.87.94c2.44.24,4.89.32,7.34.4,7.76.25,14.3-2.65,20.22-7.49,3.69-3,4.58-6.66,3.68-11.15-.72-3.55-2.75-6.23-5.07-8.8-5.12-5.67-8.26-12.16-8.1-20,.2-10.23-7.84-19.5-17.29-22.28-2.35-.7-4.77-1.17-7.11-1.88a14.94,14.94,0,0,1-4-1.74c-1.57-1.06-1.88-2.79-1.51-4.6a4,4,0,0,1,3.55-3.2,12,12,0,0,1,2.93,0c22.41,3.12,33.24,18.71,33.16,34.25,0,4.45,1.7,8,4.28,11.46,3.08,4.07,6,8.27,9.29,12.82,8.86,2.86,14.95-3.47,21.93-8a23.9,23.9,0,0,0-6.15-9.27,42.3,42.3,0,0,1-5.75,3.26,21.43,21.43,0,0,1-6.38,1.34,3.76,3.76,0,0,1-3.77-3,4.41,4.41,0,0,1,1.8-5.15,27.8,27.8,0,0,1,3.35-1.46l5.93-2.47c-.72-5.48-1.32-10.58-2.1-15.65a30.58,30.58,0,0,0-1.76-7.11c-1.22-2.94-2.93-5.92-6.37-6.59s-5.64-2.7-8.06-4.76c-3.55-3-7.18-6-10.84-8.84A230.18,230.18,0,0,0,61,1622.26,146.49,146.49,0,0,0,17,1611c-7.39-.67-14.72-.56-21.77,2.16-5.43,2.09-10.45,5.45-16.61,5.31a6.47,6.47,0,0,0-2.06.76,204.39,204.39,0,0,0-59.43,33.28A255.51,255.51,0,0,0-110,1678.37a132,132,0,0,0-20.9,29.25,24.67,24.67,0,0,0-3,14.05c4.14,1.3,5.24,4.86,5.37,9.08,0,1.39.82,2.75,1.19,4.15s1,2.83.87,4.19c-.24,2.52,1,4.2,2.5,5.84,3.64,3.85,8.25,6.15,13.07,8a97.32,97.32,0,0,0,40.31,6.91c3.92-.19,7.85-.35,11.76-.72a89.42,89.42,0,0,0,21.5-4.7c1.28-.45,3.32-1.69,3.27-2.46-.26-3.88,2.77-5.76,4.84-7.76a12.33,12.33,0,0,0,3.71-7.62c.67-4.63,1.26-9.27-1.27-13.63-2.34-4-4.31-8.3-7-12.06-3.4-4.76-4.9-10.06-5.92-15.66-.89-4.82-1.73-9.67-3.07-14.38-1.7-6-5.4-10.4-11.65-12.2-.94-.28-1.92-.46-2.82-.83a4.37,4.37,0,0,1-2.91-4.6,4.48,4.48,0,0,1,3.77-4,13.91,13.91,0,0,1,5.07.27,23.48,23.48,0,0,1,10.1,5.81c4.78,4.6,7.42,10.3,8.76,16.68,1.05,5,1.85,10.13,3,15.14a20.54,20.54,0,0,0,2.68,6.76c3.56,5.27,6,11.17,9.35,16.53,1,1.58,1.22,3.7,1.61,5.6.34,1.64.41,3.33.66,5.45,6.4,0,12.46.2,18.54-.23a35.38,35.38,0,0,1,6.59,0,3.84,3.84,0,0,1,3.27,3.51,4.07,4.07,0,0,1-2,4.4,10.22,10.22,0,0,1-3.46,1.09,74.51,74.51,0,0,1-23.78.32C-17.07,1743.88-18.12,1747.06-19.31,1750.67Zm-833-1677.59c-.93-2.69-1.48-4.53-2.18-6.31C-864.94,40.24-866.87,13-862.12-15c2.22-13.12,5.93-25.81,9.91-38.44,2.78-8.81,1.25-17-2.88-24.82-1.55-2.94-4.18-5.4-6.67-7.72a7.85,7.85,0,0,0-7.62-1.6c-1.89.51-3.76,1.13-5.62,1.74a178.09,178.09,0,0,0-32.18,14.46c-33,18.71-60.1,44-82.52,74.35-3.76,5.1-6.74,10.83-9.7,16.46a62.44,62.44,0,0,0-4.24,11,25.22,25.22,0,0,0,.33,15.92c1.33,3.8,3.62,6.34,8.28,6.4.81-1.3,1.74-2.71,2.58-4.17a207.24,207.24,0,0,1,19.07-27,24.72,24.72,0,0,1,4.22-4,3.35,3.35,0,0,1,4.56,1A4.74,4.74,0,0,1-964,24a49.23,49.23,0,0,1-3.32,4.83c-5,7-10.12,13.88-15,20.91a74.9,74.9,0,0,0-3.9,6.93c7.08,9.7,12.29,20,17.59,30.22,5.63,10.9,11.14,21.86,16.77,32.76a23.46,23.46,0,0,0,2.65,3.4c1.78-1.71,3.2-3.06,4.59-4.42,11.79-11.48,23.78-22.73,36.77-32.85,1.55-1.2,3.13-2.37,4.78-3.42a3.44,3.44,0,0,1,4.12.34,3.89,3.89,0,0,1,1.38,4.58,10.86,10.86,0,0,1-2,3,37.94,37.94,0,0,1-3.91,3.35,402.19,402.19,0,0,0-31.38,27.85,108.2,108.2,0,0,0-14.46,16.57c-6.56,9.59-6.24,22.27,1.1,30.78,2.32,2.68,5,4.69,8.65,5.15,1.69.22,3.5,0,5.09.44,1.44.43,2.67,1.58,4.51,2.74a36.43,36.43,0,0,1,12-17.92c3.07-2.54,3.6-6,2.9-10-1.61-9.21.8-17.51,6.65-24.79,5.73-7.13,12-13.64,20.91-16.88.26-9.61,6-16,12-22.28S-861.79,75.23-852.35,73.08Zm215-847.2c1.5.13,2,.21,2.45.2s1-.2,1.46-.18c5,.26,7.11,2.2,7.69,7a20.31,20.31,0,0,1,.11,2.21c0,13.65,3.23,26.73,7.28,39.64a24.64,24.64,0,0,0,1.79,3.64c8.11-.9,10,.19,12.57,7.18.68,1.84,1.09,3.78,1.83,5.59a113.77,113.77,0,0,0,5.25,12.13c6.67,12.18,15.76,22.46,25.78,31.95a7.92,7.92,0,0,0,5.87,2.59c4.57-.14,7.91,2.22,10.65,5.61,1.7,2.1,3.23,4.34,5.06,6.32,2.32,2.52,4.81,4.89,7.33,7.21a3.56,3.56,0,0,0,4.76.3c2.31-1.76,4.85-3.51,6.51-5.82,4.29-6,8.16-12.23,12.16-18.39,1.47-2.26,2.63-4.74,4.28-6.85,2.51-3.22,5.82-4.35,9.8-2.74,1.32.54,2.68,1,4,1.44,4.69-2.94,8.18-6.72,11.69-10.49,3.84-4.14,7.64-8.31,11.61-12.31,4.74-4.77,10.28-7.5,17.26-6.1a9.92,9.92,0,0,0,2.46-.18c.9-1.27,2-2.61,2.84-4,3.33-5.44,6.83-10.79,9.84-16.41,4.85-9.07,9.22-18.41,14.11-27.46a12.52,12.52,0,0,0,1.63-8.39c-.77-4.82-1.42-9.66-2-14.51-.47-4.13-.57-8.32-1.15-12.44-.87-6.24-1-12.24,3.52-17-1-7.42-4.56-13.16-8.61-19-2.34.63-4.42,1.55-6.54,1.68-3.15.2-4.74,2.13-6.36,4.38a10.19,10.19,0,0,0-1.82,6.23,6.51,6.51,0,0,1-3.65,6c-1,.58-2,1.24-2.89,1.76-.08.81-.17,1.3-.18,1.78,0,.74,0,1.48.05,2.21.16,11.56-5.08,20.2-14.45,26.55-7,4.72-14.83,6-23.09,6.21-7.93.16-14.3-2.89-19.68-8.4s-6.7-11.77-3.82-18.92c.6-1.5,1.12-3,1.78-4.81l-20.45-7.39c-1.85-.66-3.69-1.33-5.55-2a13.4,13.4,0,0,0-11.66,1c.93,2,1.93,3.86,2.75,5.84a17,17,0,0,1-7.08,21.73,22.29,22.29,0,0,1-12.55,3.61c-11.38-.53-20.92-4.89-28.07-13.91-4.92-6.2-5.73-12.84-1.51-19.8.51-.83,1-1.68,1.66-2.82-4-6.61,0-11.36,4.41-15.73a13.5,13.5,0,0,0-1.09-2.34c-4-5.3-6.17-11.09-5-17.86a8,8,0,0,0-.17-2.92c-.64-3-1.8-5.56-5.13-6.86-3.44,3.72-5,8.26-6.49,12.67,3.78,6,3.83,6.79,1.64,13.26-2.68,7.89-5.33,15.79-7.89,23.72a20.77,20.77,0,0,1-3.78,7C-630.63-793.58-634.61-784.45-637.35-774.12Zm-456.83,2431.06a40.74,40.74,0,0,0,0,5q2.23,13.42,4.59,26.84a14.57,14.57,0,0,0,4,7.77,135.64,135.64,0,0,0,10.55,10.22c19.64,16.34,42.23,26.55,67.13,31.89,21.92,4.7,44.17,6.45,66.5,7.18,14.71.49,29.44.16,44.17.11a29.32,29.32,0,0,0,6.53-.8c4.3-1,8.51-2.37,12.81-3.33,11.25-2.5,22.51-4.9,33.79-7.27,14.63-3.08,29.19-6.69,44-9a631.05,631.05,0,0,1,75.44-7c20.85-.7,41.71-.49,62.54-2,14.43-1.06,28.92-1.31,43.39-1.8a63.58,63.58,0,0,0,22.23-4.53A101.54,101.54,0,0,0-577.92,1700c1.4-1,2.71-2,3.59-2.73,0-12,0-23.08,0-34.12a13,13,0,0,0-.59-2.49l-3.42,1.24c-3.2,1.21-6.36,2.58-9.63,3.6-7.53,2.35-15.34,3.27-23.17,3.89-9.05.72-18.12,1.2-27.17,1.89-1.92.15-4.16.18-5.63,1.19a19,19,0,0,1-9.69,3c-5.86.46-11.73,1.17-17.59,1.23-14,.14-28-.19-42-.06-12.51.12-25,.74-37.53.91-12.77.17-25.27,2.87-38,3.68-5.78.36-11.52,2.27-17.18,3.85-17,4.75-34,9.67-50.93,14.54a158.55,158.55,0,0,1-45,6.7c-14.48-.08-29-.21-43.43-.25a44.84,44.84,0,0,0-8,.5q-14.47,2.55-28.9,5.45a79.92,79.92,0,0,0-11.29,3.11,41.54,41.54,0,0,1-18,2.62,81.32,81.32,0,0,1-28.26-7.64,46.27,46.27,0,0,1-17.55-14.23,18.69,18.69,0,0,0-3.3-3.91c-4.55-3.51-8-8-11.26-12.57a33.29,33.29,0,0,0-8.17-8.4,40.06,40.06,0,0,1-10.5-10.19A48.15,48.15,0,0,0-1094.18,1656.94ZM-844.86-78.62c1-2.82,1.65-4.37,2.15-6,9.38-30.22,20.41-59.87,31.7-89.4a738.77,738.77,0,0,1,49.55-105c3.18-5.52,4.05-10.83,2.13-16.83-1-3.26-1.57-6.68-2.48-10a26.17,26.17,0,0,1,1-16.61,103.69,103.69,0,0,1,4.64-10c1.33-2.6,2.88-5.09,4.34-7.66l-1.85-5c-.59-1.61-1.21-3.21-1.76-4.84s-1.07-3.26-1.56-4.9-.93-3.3-1.35-5-.82-3.33-1.13-5c-.36-1.93-.59-3.88-.9-5.82-.27-1.69-.62-3.38-.84-5.08s-.32-3.42-.5-5.12-.44-3.41-.59-5.12-.14-3.43-.28-5.14c-.12-1.54.24-3.24-1.37-5.37-1.31,3-2.43,5.08-3.2,7.32q-4.58,13.22-9,26.48c-4.52,13.78-9.88,27.24-17.17,39.77a305.76,305.76,0,0,1-41.88,56.71c-14,14.84-29.7,27.61-48.55,37,2.71,8.46,2.13,17.76,5.57,26.3a10,10,0,0,1,.47,3.63c.09,13.73.13,27.45.19,41.18,0,4.41-.12,8.83.18,13.22.78,11.25,1.79,22.49,2.64,33.74a69.22,69.22,0,0,0,2,12.89C-858-100.48-851.72-90.29-844.86-78.62Zm526.38-1117.11c-1.1-.85-2.13-1.79-3.29-2.54-16.34-10.5-34.52-16.3-53.21-20.74a13.14,13.14,0,0,0-5.82,0c-19.19,4.53-38,10-53.65,22.89a6.56,6.56,0,0,1-3.18,1.65,4.29,4.29,0,0,1-3.22-1.07,4,4,0,0,1-.75-3.32,7.49,7.49,0,0,1,2.59-3.43c4.15-3,8.3-6.11,12.71-8.73a113.57,113.57,0,0,1,22.92-9.91c1.13-.37,2.41-.65,2.44-2.47-16.57-2.27-33.22-2.38-49.88-1.6a14.65,14.65,0,0,0-6.23,1.94c-9.4,5.3-18.89,10.48-27.94,16.34-5.31,3.43-10,7.84-14.67,12.21a47.73,47.73,0,0,0-10.2,14.32c-1.55,3.28-3,6.67-1.66,10.87,2.15-.14,4-.25,5.93-.39,3.66-.26,7.33-.81,11-.77,9.29.1,12.15,3,12.55,12.44.16,3.68.08,7.37.33,11,.39,5.75,2.51,10.89,6.62,16.43,1.76-1.14,3.63-2.18,5.32-3.48,9.62-7.4,20.35-12.79,31.59-17.15,14.51-5.63,29.43-9.37,45.15-9.21a43.55,43.55,0,0,1,26.12,8.48c14.94,11,28,23.91,39.88,38a12.56,12.56,0,0,1,2.66,5.13c2.73,12.19,5.37,24.41,6.65,36.87.2,1.85.74,3.67,1.21,6,.71-.9,1.13-1.2,1.21-1.56,1.56-7.69,3-15.4,4.62-23.09,1.38-6.71,2.74-13.43,4.31-20.1a24.84,24.84,0,0,1,6.54-11.34c3.52-3.75,6.82-7.73,10.08-11.72,3.12-3.82,6.11-7.73,10.84-8.79,3-5.31,1.86-9.68-.77-14.29a99.81,99.81,0,0,0-16.44-21.6,12.58,12.58,0,0,0-6.15-3.82c-8.9-1.92-17.86-3.65-27-2.71-7.06.73-14.08,2-21.07,3.3-9,1.7-17.32,5.3-25.28,9.78a35.23,35.23,0,0,1-5.23,2.66,4.47,4.47,0,0,1-5.63-2.21,4.3,4.3,0,0,1,1.06-5.34,21.56,21.56,0,0,1,3.57-2.57,96.58,96.58,0,0,1,24.25-10.46A178.79,178.79,0,0,1-318.48-1195.73ZM-140.3-410.11c1.4,2.45,2,3.51,2.59,4.54a240.48,240.48,0,0,1,16.76,31.9c3.92,9.26,7.82,18.53,11.53,27.88,14.93,37.65,24.68,76.51,27.32,117.05.56,8.57,1.7,17.09,2.67,25.62a22.75,22.75,0,0,0,2.65,9.46c1.32-.69,2.39-1.14,3.34-1.77,1.42-.95,2.66-2.2,4.13-3,3.66-2.1,7.24-1.35,9.69,2.09a14,14,0,0,1,2.2,4.6,59.39,59.39,0,0,1,1.53,8.67c.53,5.38.64,10.8,1.31,16.15a24.93,24.93,0,0,0,2.43,8.37c2.62,5,7.88,6.28,12.48,3a28.43,28.43,0,0,0,7.15-7.28A81.12,81.12,0,0,0-24.8-177c3.75-9.32,7.29-18.76,10.2-28.37,5.58-18.45,7.26-37.52,7.65-56.72a256.6,256.6,0,0,0-2-35.26,7.31,7.31,0,0,0-4.28-6.28c-4.58-2.35-9-5-13.46-7.6a146.73,146.73,0,0,1-50.43-47.52c-5.23-8-10.18-16.21-15.2-24.35a14.64,14.64,0,0,0-4.18-4.95c-12.45-8.45-26-14.73-39.67-20.89A36.06,36.06,0,0,0-140.3-410.11Zm-405.28-851.1c-1.07,0-2,0-3,0-4.31.12-7.63-1.48-9.61-5.45-.22-.44-.54-.83-.78-1.25a6.78,6.78,0,0,0-6.12-3.4c-4.32-.15-8.42.75-11.68,3.61a105.77,105.77,0,0,0-11,10.75c-11.34,13.35-20,28.47-27.79,44.07-1.21,2.41-2.36,4.85-3.63,7.23-1.44,2.7-3.45,5-6.62,5.31s-4.72,2.48-5.41,5.19a137.26,137.26,0,0,0-3.37,15.05c-2.88,20-2.65,40.1-.37,60.16.91,7.94,1,8.22-2.58,14.85a76.78,76.78,0,0,0,9.24,26,312.09,312.09,0,0,0,23.27,34.85c1,1.32,2.24,2.51,4.06,4.51,2.52-8.69,8.45-15.48,7.44-24.94-2.34,0-4.27,0-6.19,0s-3.93.21-5.88.09c-5.47-.33-7.76-2.59-8.6-8.08a14.86,14.86,0,0,0-1.08-4.14c-3.9-8.19-1.86-13.61,6.48-16.81,2.26-.86,4.58-1.58,7-2.42,1.15-6.08,5.57-7.77,10.77-8.44a67.55,67.55,0,0,0,11.21-2,53.09,53.09,0,0,0,.93-5.67c.22-3.9-.22-7.89.44-11.7,2.7-15.58,7.35-30.58,15.83-44,16-25.3,37.29-44.67,64.71-57,1.29-.59,2.51-1.32,4.07-2.15-1.13-3.33.12-7.13-3.59-9.47-1.15.23-2.36.4-3.53.73-1.88.55-3.74,1.17-5.58,1.82-6.56,2.32-7,2.2-11.93-3.23-.28-.32-.86-.37-2-.82-3.62,1.17-7.8,2.5-12,3.88-1.39.46-2.71,1.19-4.13,1.53-5.53,1.32-9.26-1.6-9.27-7.21a20.65,20.65,0,0,1,.36-2.91c.51-3.39,1.07-6.78,1.55-10.18C-543.59-1255.56-543.19-1258.26-545.58-1261.21ZM141.53,805.37c-1.63-3.19-3-5.79-4.3-8.43Q40,599.6-57.3,402.24-84.46,347.13-111.66,292c-1.14-2.3-1.76-5-4.6-7a24.83,24.83,0,0,1-9,19c1.27,2.8,2.33,5.26,3.49,7.67Q-7.05,552.13,107.71,792.51c2.09,4.38,3.64,9.09,7.52,12.47,1,.9,1.5,2.51,2.09,3.85,4.89,11.12,7.93,22.65,7.88,34.9,0,2.66-.41,5.38.65,7.93,6.36.53,7,.2,9.38-4.61,3.39-7,5.62-14.14,4.25-22-.16-1-.09-2-.23-2.93A29.75,29.75,0,0,1,141.53,805.37ZM-784.18,212.1c2.83,1.14,5.51,2.29,8.24,3.29,47.42,17.52,96.67,27.2,146.59,33.89,14.34,1.92,28.73,3.46,43.12,4.91,18.79,1.9,37.58,4,56.42,5.15,21.78,1.38,43.61,2.41,65.43,2.61,19.86.19,39.75-.43,59.58-1.61,17.36-1,34.7-3,52-5.19,17.75-2.28,35.49-4.83,53-8.25,17.78-3.48,35.35-8.09,53-12.4,2.73-.67,5.63-1.56,7.89-3.64-.34-3.38-.89-6.53-.93-9.68,0-3.35.4-6.69.65-10.32-1.14.3-2.06.51-3,.78a527.93,527.93,0,0,1-60.06,14.28c-26.1,4.58-52.33,8-78.71,10.62-21.51,2.12-43.06,3.16-64.64,3.36-15.21.14-30.42-.37-45.62-.68-7.36-.15-14.74-.21-22.06-.82q-37.4-3.09-74.76-6.6c-22.71-2.14-45.34-4.93-67.85-8.63-41-6.73-81.37-15.62-120.43-30-2.26-.83-4.52-1.89-7.41-.88.14,3,.43,6.18.37,9.32S-783.84,208-784.18,212.1Zm643,1525.23a27.67,27.67,0,0,0-.49,3.67,246.52,246.52,0,0,0,3.34,36.59,11.26,11.26,0,0,0,4.21,7.5,87.22,87.22,0,0,0,9,6.31c6.18,3.61,13,5.7,19.89,7.51,13.8,3.62,27.88,5.33,42.07,6.52,25.77,2.17,51.45,1,77.11-1.37,10.73-1,21.42-2.5,32.12-3.86,8.26-1,16.57-1.88,24.76-3.39,26.36-4.87,50.47-15.56,73.34-29.26,1.47-.89,2.86-1.91,4.25-2.9a16.44,16.44,0,0,0,6.68-10.18c1.52-6.58.69-13.18.73-19.78,0-3.7-1.87-5.27-5.48-5.89-5.13,3.39-11.5,2.67-16.76,3.67-2.34,3.64-3.89,7.08-6.34,9.68a38.23,38.23,0,0,1-22.44,11.59c-5.94.94-11.76.07-17.58-.59a17.74,17.74,0,0,0-9.1,1.37c-13.51,5.39-27.24,8.31-41.18,1.18a4.66,4.66,0,0,0-1.08-.07c-4,6.34-10.66,8.52-17.79,10C12,1766.91,5.91,1767-.22,1767a42.58,42.58,0,0,1-20.41-5.36c-1.68-.92-3.43-1.72-5.2-2.6-5.23,3.92-11.07,5.73-17.06,7.14a130.58,130.58,0,0,1-41.64,3,100.27,100.27,0,0,1-35.92-10c-7.7-3.83-13.84-9.23-16.66-17.73a11,11,0,0,0-1.76-3.19C-139.22,1737.79-140.08,1737.74-141.2,1737.33ZM150.31,802.52c6.1,2.35,10.94,7.2,15.44,12.44a54,54,0,0,0,14,11.78c4.64,2.67,7.57,1.08,7.81-4.28a11.48,11.48,0,0,0-.82-5,69.27,69.27,0,0,0-5.14-9.71c-2-3.07-4.51-5.81-6.79-8.7-1.37-1.74-2.62-3.44-5.24-3.53-2.14-.08-3.45-1.74-4.4-3.53-1.15-2.17-2.21-4.38-3.3-6.58Q38,537.57-85.82,289.72a45,45,0,0,0-9.33-13c-5.68-5.38-10.65-11.53-15.79-17.46-3.21-3.7-6.18-7.62-9.3-11.41a24.34,24.34,0,0,0-2.28-2.14,24.17,24.17,0,0,0,2.61,7.69Q12.47,522.1,144.85,790.75C146.69,794.47,148.34,798.26,150.31,802.52Zm-1044,753.25a10.55,10.55,0,0,0-2.35-.94,266.36,266.36,0,0,0-41.12,1.26c-5.29.63-9.62,3.47-13.35,7.23a7.43,7.43,0,0,0-2.15,4.52c-1.83,14.1-4.06,28.16-5.51,42.29a277.12,277.12,0,0,0-1.26,29.39c.09,16.47,2.45,32.75,5.32,48.94a34.76,34.76,0,0,0,1.72,5c6.06.5,11.92.84,17.74,1.48,18.49,2,36.72.27,54.81-3.55a26.39,26.39,0,0,0,4.17-1.7c-1.92-5.47-3.7-10.52-5.47-15.58-7.77-22.16-12.26-44.89-11.88-68.48.17-10.3.17-20.61.23-30.91,0-3.92.08-7.85-.06-11.77C-893,1560.6-893.41,1558.21-893.7,1555.77Zm70.35-1320.63c-3.62,8-7.33,15.22-10.2,22.75-6.82,17.86-14,35.56-20.36,53.62-9,25.7-19,51.06-28.53,76.55q-88.9,236.66-177.86,473.29c-1.27,3.39-3,6.61-4.87,10.66.59,8.87,1,10.24,4.84,14.13a25.89,25.89,0,0,0,3-3.9,68.46,68.46,0,0,0,2.76-6.82q108.07-283.3,216.12-566.62,11-28.87,22-57.77c1.12-2.94,2.65-5.86,1.56-9.63C-817.29,239.54-819.45,236.84-823.35,235.14Zm947.6,1392.22c-4.14-8.78-10-16-18.14-20.78-5.69-3.35-11.7-6.18-17.68-9-4-1.88-8.19-3.26-12.76-3.09-1.37,0-3.28-.28-4.07-1.19-3.24-3.74-7.85-3.93-12-4.86a213.65,213.65,0,0,0-46.73-4.92,225.65,225.65,0,0,0-74.43,12.17,142.11,142.11,0,0,0-47.6,27.23c-2,1.77-4.09,3.54-6,5.48-18,18.66-33.81,38.85-44.77,62.56-1.56,3.37-2.09,6.45-.9,9.88.15.47.2,1,.34,1.43,2,6.65,9.73,14.91,17,18.28.93-4,1.65-8.06,2.83-12,2.36-7.85,6.67-14.72,11.45-21.3a240.18,240.18,0,0,1,33.78-36.83C-67,1624.87-33.6,1609,3.43,1600.79a155.93,155.93,0,0,1,67.21-.63c20,4.31,38.45,11.69,53,26.8A3.78,3.78,0,0,0,124.25,1627.36Zm-430.48-2424c3.13,20.67,11.5,38.7,23.31,56a30,30,0,0,1,12.65,7.24c1.53,1.51,3.45,1.6,5.5,1.23,6.21-1.11,11,1.09,14.56,6.27a11.57,11.57,0,0,0,1.83,1.65,67.65,67.65,0,0,0,7.12.45c13-.49,25.95-1.08,38.92-1.7,1.06,0,2.52.28,3-1.29a6.64,6.64,0,0,0-.48-1.41c-19-28.88-39.73-56.53-61.22-83.6-1.48-1.86-2.93-3.9-5.26-4.74C-276.37-807.92-283.73-804-306.23-796.64Zm-493,976.79c-11.15-4.05-20-11.23-27.73-20.05-3.86-4.44-7.7-8.91-11.63-13.29-5.41-6-11-11.85-16.32-18-5.42-6.31-12.29-9.53-20.33-10.71a39.53,39.53,0,0,1-4.34-.82c-5-1.33-9.27.13-12.94,3.4-2.74,2.43-5.23,5.16-7.74,7.85-6.13,6.54-6.92,14.33-5.19,22.68a4.76,4.76,0,0,0,3.66,4.12c3.82.91,7.59,2,11.43,2.75a45.16,45.16,0,0,1,21.15,9.71c7.5,6.34,15,12.62,22.45,19,8.71,7.53,17.21,15.32,26,22.72a60.48,60.48,0,0,0,11.61,7.67c5.21,2.62,9.47,1.17,12.68-3.75a21.21,21.21,0,0,0,2.07-20.35C-796,189.05-797.44,184.93-799.23,180.15ZM-989.87,1622.33c-3.93,1.54-7.58,2.93-11.21,4.39a22.85,22.85,0,0,0-12.68,11.62,103.52,103.52,0,0,1-8.42,13.79,27.92,27.92,0,0,1-14.52,10.8c-1.82.6-3.55,1.44-5.4,2.2,8.4,12.72,22.17,17.09,37.1,11.84.17-1.24.32-2.65.59-4a4.12,4.12,0,0,1,3.38-3.44,4.46,4.46,0,0,1,4.6,1.65c3.15,3.84,4.38,10.74-2.68,14.19a24.6,24.6,0,0,1-3.42,1.36c-16.84,5.25-31.43,1.39-43.87-10.94-2.26-2.23-4.24-4.73-6.42-7-.76-.79-2.89-.08-3,1a14.21,14.21,0,0,0-.16,2.91c.65,11.11,5.84,19.89,15.08,25.63,12.61,7.83,26.16,12.46,41.27,7.56a19.81,19.81,0,0,1,2.12-.63c11.49-2.46,19.1-9.28,23.06-20.34,2.13-6,2.22-6,8.45-8.43-.75-6.93-1.65-14-2.21-21s-.79-14.13-1.17-21.24Zm194,49.81c-.19-4-2.41-6.43-4.82-8.91-17.64-18.14-36.2-35.3-55.35-51.82-7.61-6.57-15.68-12.6-23.57-18.84a31,31,0,0,0-3.83-2.07c-.38,20.25-.26,39.45,4.73,57.47,4.58,3.56,8.62,6.37,12.28,9.61,8.26,7.32,16.33,14.87,24.49,22.3,1.6,1.46,3.28,2.84,4.9,4.24ZM-292.14-287.29a26.66,26.66,0,0,0,0-3.56,311.66,311.66,0,0,1-3.52-44.73c-.32-20.64.77-41.22,2.46-61.78,2.07-25.19,4.19-50.37,6.54-75.54,2-22,4.55-43.93,6.63-65.91,3.34-35.18,6.64-70.37,12.21-105.28,3.47-21.78,5.85-43.77,11.07-65.27a10.69,10.69,0,0,0-1.08-8.5,45,45,0,0,1-2.12-4.46c-5.3-.24-5.75,0-6.32,3.87-.08.48-.08,1-.15,1.46-2.19,15.29-4.15,30.62-6.65,45.86q-6.69,40.68-10.89,81.7c-2.3,22.45-4.28,44.94-6.45,67.41-2.92,30.29-6.12,60.55-8.76,90.86-2.38,27.14-4.38,54.31-4.24,81.59,0,4.41.21,8.89-.45,13.23s.34,8.29.78,12.4c.28,2.66,1.06,5.28,1.25,7.94.65,9.18,3.88,17.7,6.49,26.37C-295.1-288.79-293.61-288.32-292.14-287.29Zm-537.64,504.7c-.79-3.68-3.12-5.2-5.1-7-6.19-5.59-12.36-11.21-18.61-16.73-5.51-4.87-11.18-9.57-16.68-14.45-7.53-6.69-16.06-11.14-26.15-12.41a45.65,45.65,0,0,1-5.72-1.35c-4.69-1.23-8.71.18-12.26,3.19a19.58,19.58,0,0,0-6,9.12c-.6,1.86-.74,4-1.69,5.62-3,5.34-1.45,10,1.92,14.29,2.72,3.45,5.94,6.52,8.87,9.82a16.36,16.36,0,0,0,7.43,4.51c15.82,5.23,31.66,10.41,47.4,15.88,5.77,2,11.26,4.8,16.89,7.2,1.05.44,2.17.75,3.52,1.21,1.72-4.13,4.16-7.56,2.45-12.13-.39-1,.62-2.72,1.28-3.94A18.11,18.11,0,0,1-829.78,217.41Zm664.93-372.95c-.53,5.8,1,10.75,2.22,15.7,5.06,21.13,13.31,41,23.59,60.1,10,18.57,19.6,37.36,29.25,56.12,6.18,12,11.54,24.39,14.36,37.71a10.12,10.12,0,0,0,1.19,2.16c4-1,8.11-1.75,12.06-2.94,3.36-1,4.22-2.61,4-6.07-.08-1.22-.29-2.43-.47-3.65A127.11,127.11,0,0,0-91.17-35.49q-4.64-9.19-9.76-18.14-17.41-30.32-35-60.52c-7.18-12.37-13.07-25.26-16.6-39.17-.35-1.39-.91-2.72-1.48-4.38Zm-623.5,327.19a89.3,89.3,0,0,0,2.84-9.36,17.86,17.86,0,0,0,.07-7.28c-1.76-7.64-4-15.11-9.39-21.24-4.54-5.13-8.56-10.73-13.08-15.89-10.23-11.69-22.24-21.38-34.3-30.46-3.86,0-7.28-.11-10.68,0-2.18.1-4.65,0-6.44,1-7.63,4.22-14.33,9.42-16.54,18.42,1.9,2.42,4.54,2.23,6.87,2.74a34.63,34.63,0,0,1,18.91,10.61c4.62,5.08,9.48,9.93,14.08,15,5.58,6.19,10.89,12.63,16.53,18.77,3.15,3.42,6.7,6.45,10.11,9.62,2.13,2,4.41,3.84,6.49,5.89s4.76,3.45,7.9,3.11C-792.82,172.42-790.69,172-788.35,171.65Zm-63.28,106.73c4.09-10.62,8.22-21,11.8-31.79a45.39,45.39,0,0,0-14.44-7.65c-15.25-5.35-30.54-10.55-45.84-15.74-2.5-.85-5.11-1.35-7.47-2-4.45,3.41-6.94,7.59-9,12a22.81,22.81,0,0,0-.92,17.86c2.22,6.43,6.18,11.59,11.15,16.13A21,21,0,0,0-894.76,273c13.34,1.82,26.67,3.7,40,5.54A20.89,20.89,0,0,0-851.63,278.38Zm712.34-457.24c-2.17,2.33-2.29,5.25-3.75,7.4-2.15,3.17-1.81,6.4-1,9.85a133.85,133.85,0,0,0,13.05,35c3.09,5.57,6.36,11,9.54,16.58,12.68,22.11,25.48,44.17,38,66.38A127.25,127.25,0,0,1-70-7.19c.44,2.12,1,4.22,1.49,6.35,6.76-2.66,8.6-5.1,8.13-11.32-.78-10.37-3-20.43-8-29.63C-73.95-52.16-79.81-62.36-85.76-72.5-91-81.38-96.64-90-101.87-98.86s-10.51-17.69-15-26.9c-2.15-4.37-5.26-8.13-7-12.75-2.45-6.4-5.69-12.48-8.37-18.8a65.75,65.75,0,0,1-2.86-9.06c-.85-3.29-1.37-6.66-2.2-9.95C-137.58-177.12-138.44-177.76-139.29-178.86Zm-189.32-631c-3.28,2.53-6.48,5.1-9.79,7.53-3.52,2.6-7.15,5.07-10.69,7.56.26,12.31-.14,24.31,1.12,35.78,13.78,10.8,21.92,16,27.35,17.73,2-1.86,3.74-4.07,6-5.39a17.78,17.78,0,0,1,7.55-2.38c2.51-.17,5.09.82,8.45,1.45a149.86,149.86,0,0,1-17.31-48.48C-323.08-800.66-323.08-800.66-328.61-809.87Zm31.76-67.51c-.42,2.73-.71,4.4-.93,6.07-2.53,18.85-9.86,35.7-21.16,50.91A13.88,13.88,0,0,0-320-818c2.28,3.14.65,8.13,4.51,10.71a28.92,28.92,0,0,0,16.75-2.2c5.62-2.36,11.18-4.91,16.67-7.57a27.12,27.12,0,0,0,5.42-3.71,7.71,7.71,0,0,0,2.73-7.9,28.85,28.85,0,0,0-1.9-6.3,134.41,134.41,0,0,0-7.26-14.38c-4.24-6.85-6.17-14.31-7.15-22.13-.15-1.19-.15-2.4-.23-3.79Zm-211.5-183.8c-.24-3.17-1.94-5.5-3.74-7.72a53.34,53.34,0,0,0-17.75-14,135.27,135.27,0,0,0-39.75-12.41,59.35,59.35,0,0,0-18.29,0c-1.69.25-3.49.56-4.09,2.52-1.23,4.07-4.49,5.45-8.12,6.62-2.23.72-5,.48-6.23,2.47,1.45,3.3,2.77,6.3,3.93,8.92,13.6-.11,27-.48,40.48-.26,18.36.31,35.89,4.22,51.91,13.65C-509.68-1061.13-509.18-1061.24-508.35-1061.18ZM-661.72-405c0-1.89,0-3.78,0-5.66-.17-9.07-.6-18.15-.48-27.22q.47-34.22,3.64-68.29a562.45,562.45,0,0,1,9.86-66.15q7.26-33.79,14.66-67.54c4.78-21.76,8.25-43.87,16.6-64.72,1-2.49.29-3.73-2.4-5.31a31.49,31.49,0,0,0-3.59-1.54c-.92,2.75-1.81,5-2.42,7.31-1.55,5.92-3.11,11.85-4.42,17.83-6.29,28.73-12.33,57.52-18.77,86.21a641.55,641.55,0,0,0-14.8,112.15C-665.09-460.28-665.48-432.58-661.72-405ZM-969.31,1622c.23-1.19.54-2.33.67-3.49.84-7.81,1.58-15.62,2.48-23.42.53-4.63,1.35-9.23,1.94-13.85s-1.23-6.33-5.91-5.14a59,59,0,0,0-8.33,2.87c-7,2.94-14,6-20.95,9-2.22,1-4.43,2-6.78,3v8C-999,1605.51-975.61,1620.12-969.31,1622ZM-134.42-188.64c.62-4.7-.73-8.43-1.93-12.07-2.59-7.9-5.34-15.77-8.35-23.52A416.13,416.13,0,0,1-165-293.17a17,17,0,0,0-2.26-6,11.6,11.6,0,0,0-.47,4.32c.6,9.53.78,19.11,1.94,28.57a451.46,451.46,0,0,0,11.51,59.07c1,3.75,1.53,7.75,5.63,9.8a4.14,4.14,0,0,1,1.64,2.36c1.21,3.78,3.67,5.49,7.66,5.36C-137.95-189.76-136.52-189.12-134.42-188.64ZM-1064.67,1659c7.59,1,14.2-1.23,20.66-3.21s12.45-5.7,16.1-12c2-3.39,4.2-6.65,5.81-10.2,3.33-7.35,9-12,16.15-15.27,1.67-.75,3.24-1.71,5.5-2.92l-9.16-6.16a56.67,56.67,0,0,0-20.28,8.12c-7.47,4.64-12.65,10.22-13.22,19.73-.28,4.7-2.54,9.06-8.6,10.38C-1058,1648.85-1061.5,1652.63-1064.67,1659Zm1201.51,1.25c.57-3.41.39-5.22-1.73-6.87-5.15-4-10.05-8.3-13.42-14.18-3.58-6.26-8.94-11-14.91-15-15.71-10.34-33.37-14.9-51.82-16.9-1-.1-2.39-.68-2.94,1.19.94.42,1.78.85,2.66,1.17a209.47,209.47,0,0,1,40.06,19.83,242.84,242.84,0,0,1,29.09,21.12A91,91,0,0,0,136.84,1660.26ZM-246.6-922.48c11.67-3.93,25.75-15.27,31.39-25.23a29.9,29.9,0,0,0,4.05-11.73A23.37,23.37,0,0,0-216-976.73a47.33,47.33,0,0,0-9.15,8.56c5.58,16.58-3.29,30.7-23.74,35.33Q-247.73-927.69-246.6-922.48Zm-31.36,15c1.32-2.64,2.4-4.54,3.23-6.54,2.49-6,7-9.21,13.25-10.3,1.86-.33,3.72-.72,5.89-1.14-.45-1.78-.75-3.19-1.17-4.57-1.22-4.06.22-7.21,3.39-9.68,1.72-1.35,3.66-2.43,5.43-3.73,1.1-.8,2.06-1.78,3.16-2.76-3.38-2.87-6.41-2.75-9.69-.58-6.12,4-12.45,7.77-18.5,11.89a52.07,52.07,0,0,0-13.93,13.75c1.37,2.25,2.64,4.33,3.88,6.43C-281.7-912.42-281-909.75-278-907.45ZM-683,1663.88c-7-1-14.07-1.89-21.1-2.88-19.62-2.76-39.18-1.91-58.63,1.37-5.51.93-10.82,3.06-16.19,4.76-.63.2-1,1.19-2.15,2.6,3.72-.16,6.38-.19,9-.42,21.05-1.79,42.15-2.37,63.26-2.48A108.76,108.76,0,0,0-683,1663.88Zm-355.59-52.68c-.79-.19-1.3-.5-1.7-.39-9.94,2.77-16.41,9.29-20,18.8-.61,1.6-.91,3.32-1.58,4.89-1.52,3.55-3.65,4.5-7.64,3.53a21.66,21.66,0,0,1-2.46-.86c-6.17,4-7.63,5.79-9.19,11.21-1.83,6.41-.92,8.56,5.69,12.75,2.3-12.81,11.14-19.5,22.12-23.69,1.53-5.24,2.7-10.23,4.45-15C-1047.15,1617.46-1042.23,1615-1038.64,1611.2ZM-289.73-909.45c-1.7,5.59-3.19,10.46-4.63,15.34a8.43,8.43,0,0,0-.21,2.2c-.1,4.06,2.8,7.12,6.9,6.74a12.39,12.39,0,0,0,6.11-2.16,35.85,35.85,0,0,0,7.31-7.14,133,133,0,0,1,17.61-19.72,27.94,27.94,0,0,0,2-2.3c-8.32-.58-10.42.56-13.57,7.08a46.51,46.51,0,0,1-3,5.88c-3.88,5.75-9.68,6-14,.61C-286.67-904.79-287.93-906.85-289.73-909.45ZM-608.64,1658.82c8.64.06,19-2.16,24.94-5.08a15.67,15.67,0,0,0,6.62-5.55,6.6,6.6,0,0,0,.83-6.27,15.76,15.76,0,0,0-10.17-9.31C-596.89,1649.32-596.89,1649.32-608.64,1658.82Zm453.91,4c1.82-2.54,3.63-5.09,5.47-7.62,2-2.78,4-5.56,6.1-8.31,1.92-2.54,3.87-5.06,5.88-7.54s4.07-4.92,6.17-7.32c2.26-2.58,4.64-5.06,6.9-7.64,2-2.3,4.67-4.09,6.87-8.25-5.78,2.93-10.7,4.31-13.94,8.63a5.85,5.85,0,0,1-2.15,1.91c-7.12,3.1-11.47,9.11-15.64,15.15S-155.86,1654.84-154.73,1662.87Zm-895.59-59.43c-.36-.26-.71-.75-1.07-.75-7.28,0-13.49,2.36-17.91,8.37a43.7,43.7,0,0,1-10.51,10.15c-2.32,1.6-4.06,4.19-5.74,6.56a6.83,6.83,0,0,0-.58,7.31c5.57-3.49,10.23-8.42,16.68-10C-1063.59,1615.76-1064.43,1613.87-1050.32,1603.44Zm199.4,82.94c-3.25-5.54-15.75-17.18-22.28-21a12,12,0,0,0,.21,3c2.39,6.62,4.35,13.42,7.59,19.91C-860.53,1689-856.16,1687.23-850.92,1686.38ZM-158.28-187.13c-1.68,3.55-2.94,6.69-4.59,9.61-1.78,3.16-3.91,6.11-5.88,9.15,3.36,2.74,3.72,3.09,4.87,3,2.64-.32,5.44-.39,6.85-2.6.34-2.35,0-4.63,1-6C-152.66-179-155.09-182.7-158.28-187.13ZM-235-949c4.43-6.7,4.5-7.05,2.35-12.55-3.22,1.74-5.83,4.15-8.71,6.75Zm49.17,1207.94c0-5.29-1.16-9.2-1.93-13.18-1.44,3.48-2,7-.61,10.51C-188,257-187.21,257.46-185.79,258.92ZM-963.37,1690.63a12.2,12.2,0,0,0-1.32-1.69c-.11-.1-1,.29-1,.49a7.87,7.87,0,0,0,.27,1.84Z"/><path class="cls-3" d="M-493.16,1014.12c-4.93-64.7-8.54-129.29-12.87-195.53a35.68,35.68,0,0,1,2.33,3.71c1.18,3,2.15,6,3.44,8.92,1.42,3.23,3.94,4.53,6.3,3.57,2.64-1.07,3.62-3.4,2.6-6.7-.79-2.57-1.82-5.08-2.74-7.61-3.43-9.46-7-18.85-10.26-28.37-6.24-18.43-9.87-37.47-12.49-56.69-1.59-11.67-2.76-23.39-4-35.1-.39-3.64-.47-7.31-.72-11.57,2.28.92,2.49,2.62,3.07,4,7.51,17.33,14.74,34.78,22.54,52,13.05,28.77,30.35,54.94,50,79.59q8.73,10.92,17.56,21.78a27.85,27.85,0,0,0,2.94,3.28,4.92,4.92,0,0,0,6.11.48,4.69,4.69,0,0,0,1.11-6,40.72,40.72,0,0,0-3.46-4.74c-9-11.38-18-22.67-26.87-34.13C-466.18,782.1-480,757-492,730.79c-13.82-30.15-25.26-61.21-35.93-92.57-9.72-28.56-19.83-57-27.81-86.12-1.75-6.38-3.38-12.8-5.18-19.18a24.18,24.18,0,0,0-2.19-5.4,4.36,4.36,0,0,0-5.16-1.72,4.42,4.42,0,0,0-3.06,4.53,30.36,30.36,0,0,0,1,4.26c1.44,5.66,2.89,11.31,4.51,17.69-1.36-.84-2.13-1.07-2.53-1.58-6.77-8.78-12.78-17.94-16.5-28.54a431.68,431.68,0,0,1-14.44-53.22c-5.06-23.78-8.67-47.79-12.09-71.84-2-14.32-4.44-28.6-6.72-42.89a21.24,21.24,0,0,0-1.28-4.94,4.26,4.26,0,0,0-4.93-2.29c-1.76.52-3.15,1.65-3.24,3.56a32.18,32.18,0,0,0,.27,6.58c4.84,31.27,9.39,62.6,14.73,93.79,4.11,23.93,9.46,47.62,17.34,70.68a102.63,102.63,0,0,0,15.5,29.92c6.58,8.55,13.35,17,19.95,25.51a18.06,18.06,0,0,1,2.81,5c3.4,10,6.82,20,9.87,30.06A38.85,38.85,0,0,1-545.88,631a118.34,118.34,0,0,1-24.18,53c-9.91,12.3-21.35,23-33.55,33-2.47,2-5,4-7.42,6a18.92,18.92,0,0,0-3,3.16,4.57,4.57,0,0,0,.46,5.46,4.34,4.34,0,0,0,4.74,1.08,11.11,11.11,0,0,0,3.17-1.77c16.25-12.77,31.81-26.24,44.5-42.72,9.53-12.39,16.89-25.86,21.14-41,.5-1.77,1.21-3.48,1.92-5.54,2.24,3.17,5.5,11,5.54,13a1.51,1.51,0,0,1,0,.71c-3,5.5-.24,11.08-.09,16.59.2,7.11,1.12,14.19,1.62,21.29a37.52,37.52,0,0,1-.29,5.06,26.47,26.47,0,0,0-.31,5.08c.68,5-.42,9.77-2.32,14.36-1.41,3.39-3,6.73-4.5,10.07-.71,1.56-1.61,3-2.27,4.62-1.13,2.75-.43,5,1.86,6.34,2.09,1.24,4.46.55,6.32-2a35.65,35.65,0,0,0,1.91-3.15l1.76-3c1.73-.2,1.71.9,1.88,1.8q3.62,19.9,7.25,39.81c.35,1.93,1,3.81,1.37,5.72.61,2.83,1.25,5.46.33,8.59-.86,2.91-.19,6.32.08,9.48,1.25,14.92,2.83,29.81,3.85,44.74,2.07,30.11,3.84,60.25,5.76,90.37q2.47,38.58,5,77.15c.13,1.94,0,3.89,0,5.61-2.21,3.13-5.09,3.93-8.45,4.13-39.19,2.36-78.39,4.89-117.66,5.4-23.07.3-46.12-.52-69.16-1.94a544.18,544.18,0,0,1-59.21-6.71,653.14,653.14,0,0,1-123.32-33.57,646.63,646.63,0,0,1-143.68-76.89c-7-5-13.7-10.36-20.54-15.55-1-.74-2-1.41-3-2.07,1.13-3.27,2-5.81,2.9-8.3q54.81-143.7,109.63-287.41L-808.46,257c.88-2.3,1.68-4.62,2.7-6.85,1.65-3.61,4.7-4.71,8.48-3.27a588.26,588.26,0,0,0,83.14,24.49,826.78,826.78,0,0,0,92.92,15.09c28.06,2.86,56.12,5.86,84.24,8.14,31.33,2.54,62.76,2.62,94.19,2.08,29.24-.49,58.27-3.43,87.24-7.26,23.35-3.09,46.66-6.5,69.54-12.16,15-3.71,29.79-8.17,44.67-12.29,2.06-.57,4.14-1.08,6.42-1.67.7,2.61,1.28,4.71,1.82,6.82a27.62,27.62,0,0,0,10.23,15.76Q-209,296.21-194.71,306c5.58,3.8,12.73,2.61,17.35-2.3,4.76-5.07,5.72-11.23,5-17.82-.23-2.08-.72-4.13-1.31-7.42,2.17,1.87,3.47,2.89,4.66,4,5,4.73,9.93,9.51,14.91,14.24S-143.8,305-137,306.2a11.37,11.37,0,0,1,2.35,1.08c1.17,2.37,2.49,5,3.75,7.63Q-14.7,558.36,101.51,801.79c1.67,3.52,3,7.27,6.1,10a8.16,8.16,0,0,1,1.85,3.13A75.55,75.55,0,0,1,115.53,842a15.43,15.43,0,0,1-4,10.67C101.25,865.23,89.85,876.73,78.19,888A698.63,698.63,0,0,1-59.13,991.3c-33.29,19.14-69,31.78-106.41,39.66-15.18,3.2-30.66,4.15-46.13,4.06-18.65-.11-37.29-.66-55.93-1.27-17.66-.58-35.31-1.46-53-2.28-6.6-.31-13.26-.2-19.67-2.32a7.31,7.31,0,0,0-4.33-.19c-3.68,1.27-7.29.51-10.93.18-12.47-1.13-24.94-2.13-37.39-3.4-15.37-1.57-30.73-3.35-46.09-5.07q-24.86-2.79-49.72-5.64C-490.11,1014.87-491.5,1014.46-493.16,1014.12Zm417-275.94c-34.65-.79-70.28,26.85-70.4,69.9-.11,41.58,33.56,69.93,69.39,70.3s70.47-27.61,70.76-69.66C-6.15,765.68-41.56,737.71-76.21,738.18ZM-283,817.87c2.26-.24,4.7-.44,7.13-.79,15.42-2.29,29.9-7.65,44-14a111,111,0,0,0,41.46-32.22,171.87,171.87,0,0,0,19.1-29.65c17.38-34,26.26-70.67,33.51-107.83a8.88,8.88,0,0,0,.07-2.91,4.55,4.55,0,0,0-3.9-3.84,4.15,4.15,0,0,0-4.32,2.2,14.64,14.64,0,0,0-1.4,4.12c-1.48,6.71-2.83,13.44-4.33,20.15-4.86,21.81-10.72,43.32-19.16,64.06-6.49,16-14.41,31.16-24.89,44.93A103.76,103.76,0,0,1-234,793.53a185.93,185.93,0,0,1-33.85,12.22c-4.95,1.27-10.16,1.51-15.25,2.16-1.7.22-3.45.1-5.13.39a5,5,0,0,0-4.11,4.55,5,5,0,0,0,4.06,4.63A48.12,48.12,0,0,0-283,817.87Zm-435.79,84.44a131.38,131.38,0,0,0,29.92-3.19c14.91-3.35,29-9,42.9-15.13a15.64,15.64,0,0,0,1.94-1c2.66-1.67,3.59-3.94,2.53-6.12-1.15-2.38-3.4-3.36-6.17-2.45-1.86.61-3.59,1.57-5.42,2.27-8.69,3.34-17.28,7-26.11,9.88a125.79,125.79,0,0,1-60.26,4.54A186.51,186.51,0,0,1-811.13,864c-5-3.16-9.88-6.4-14.84-9.55a26.53,26.53,0,0,0-4.48-2.48,4.4,4.4,0,0,0-5.17,1.75,4.28,4.28,0,0,0,.35,5.42,18.53,18.53,0,0,0,3.34,2.84c10.58,7.11,21.26,14.07,32.66,19.82C-773.95,894.52-747.2,901.67-718.79,902.31Z"/><path class="cls-3" d="M151.74-58.55c-1.66,3.44-1.11,5.75,1.43,8.2a14,14,0,0,1,1.43,18.71,20.75,20.75,0,0,1-3.54,3.71,36.38,36.38,0,0,1-6.62,4.61c-12.85,6.24-22.93,15.68-32.18,26.38C99.43,17.92,85.39,31.64,71,45,57.21,57.9,43.34,70.72,29.63,83.7,25,88.08,20.79,92.89,16.37,97.48a25.76,25.76,0,0,0-6.5,11.36,82.17,82.17,0,0,1-2.74,8.39c-4.45,11.41-14.68,16.83-26.66,14-2.09-.49-4-1.75-6-2.68a151.4,151.4,0,0,1-35.81-22.92C-78.42,90.74-89.72,72.09-96.25,50.48a31.35,31.35,0,0,1-1.13-14.54c1.07-6.19,4-10.42,10.62-11.45A25.62,25.62,0,0,0-81,23.15c2.7-1.09,5.59-2.13,7.8-3.93,8.92-7.29,17.55-14.91,23.8-24.79,1.18-1.87,2.5-3.64,3.71-5.49C-28-38.14-10.34-65.26,7.49-92.27c4.95-7.48,8.74-15.32,9.94-24.27,1.05-7.78,5.92-12.69,12.32-16.42,4.94-2.89,10.29-3.07,15.69-1.86a8.89,8.89,0,0,1,3.66,2.24c26,23.35,55.32,42.23,84.15,61.74C139.13-66.86,145.07-63,151.74-58.55Zm-212,76.6C-64,18.14-66.65,21-66,24a20.55,20.55,0,0,0,2.16,5.4A79,79,0,0,0-49.71,48,187.27,187.27,0,0,0-25.86,67.52a15,15,0,0,0,3.17,1.82,5.13,5.13,0,0,0,6.33-2.26A4.89,4.89,0,0,0-17.11,61c-1.41-1.34-3.1-2.38-4.63-3.6-5.74-4.57-11.61-9-17.16-13.79A70.23,70.23,0,0,1-55.33,23.09,11.61,11.61,0,0,0-57.2,20,15,15,0,0,0-60.31,18.05Z"/><path class="cls-3" d="M141.53,805.37a29.75,29.75,0,0,0-2.28,16.73c.14,1,.07,2,.23,2.93,1.37,7.88-.86,15.06-4.25,22-2.34,4.81-3,5.14-9.38,4.61-1.06-2.55-.67-5.27-.65-7.93,0-12.25-3-23.78-7.88-34.9-.59-1.34-1-3-2.09-3.85-3.88-3.38-5.43-8.09-7.52-12.47Q-7.07,552.12-121.77,311.72c-1.16-2.41-2.22-4.87-3.49-7.67a24.83,24.83,0,0,0,9-19c2.84,2,3.46,4.68,4.6,7q27.21,55.1,54.36,110.21Q40,599.59,137.23,796.94C138.52,799.58,139.9,802.18,141.53,805.37Z"/><path class="cls-3" d="M150.31,802.52c-2-4.26-3.62-8-5.46-11.77Q12.49,522.09-119.91,253.43a24.17,24.17,0,0,1-2.61-7.69,24.34,24.34,0,0,1,2.28,2.14c3.12,3.79,6.09,7.71,9.3,11.41,5.14,5.93,10.11,12.08,15.79,17.46a45,45,0,0,1,9.33,13Q38,537.58,161.88,785.4c1.09,2.2,2.15,4.41,3.3,6.58.95,1.79,2.26,3.45,4.4,3.53,2.62.09,3.87,1.79,5.24,3.53,2.28,2.89,4.79,5.63,6.79,8.7a69.27,69.27,0,0,1,5.14,9.71,11.48,11.48,0,0,1,.82,5c-.24,5.36-3.17,6.95-7.81,4.28a54,54,0,0,1-14-11.78C161.25,809.72,156.41,804.87,150.31,802.52Z"/></g></svg>