<svg id="Layer_1" data-name="Layer 1" xmlns="http://www.w3.org/2000/svg" xmlns:xlink="http://www.w3.org/1999/xlink" viewBox="0 0 441.45 490.46"><defs><style>.cls-1{fill:none;}.cls-2{fill:#e74c3c;}.cls-3{fill:#222;}.cls-4{clip-path:url(#clip-path);}.cls-5{clip-path:url(#clip-path-2);}.cls-6{fill:#fff;}</style><clipPath id="clip-path"><path class="cls-1" d="M190.07,152.39,175,106.76,254.87-42.75c80,0,177.31,172.21,177.31,252.21,0,13.94-60.84,69.55-64.51,82.31A145.12,145.12,0,0,1,269,390.69l-13.2-39.79Z"/></clipPath><clipPath id="clip-path-2"><path class="cls-1" d="M689.17-810.71c0,154.79-97.31,286.86-234.1,338.36-54.45-37.73-239.45-560.73-252-677.71a360.77,360.77,0,0,1,124.68-22.08C527.35-1172.14,689.17-1010.33,689.17-810.71Z"/></clipPath></defs><title>2</title><path class="cls-2" d="M138.33,231.49,80.63,410.23a212.92,212.92,0,0,0,31.43,23.08l26.34-79.65,34.49,104.18a211,211,0,0,0,42.51,5.37Z"/><path class="cls-3" d="M220.72,40.34c-116.8,0-211.5,94.7-211.5,211.5a210.52,210.52,0,0,0,39.49,123l87.86-265.75a1.79,1.79,0,0,1,3.4,0L259.32,459.77c98.37-18.15,172.9-104.31,172.9-207.93C432.22,135,337.53,40.34,220.72,40.34Zm-30.65,112L175,106.76h53.5A144.86,144.86,0,0,1,269,390.69l-13.2-39.79"/><g class="cls-4"><g id="BboV4y"><path class="cls-2" d="M256.38,541.26H244.59c-1.5-.39-3-.49-4.56-.74-2.91-.48-5.83-.87-8.71-1.5a9.87,9.87,0,0,1-3.82-1.69,17.52,17.52,0,0,1-6.9-10.87,8.16,8.16,0,0,1,3.29-8.64,28.49,28.49,0,0,1,3.61-2.43,128.86,128.86,0,0,0,12.73-8.2c2.35-1.73,4.89-3.28,6.57-5.79.29-.42.62-.82.91-1.25a169.75,169.75,0,0,0,12.59-21.22,8.07,8.07,0,0,1,3.43-4,2.49,2.49,0,0,0,1.43-2,135.6,135.6,0,0,0,1.48-14.65c.23-3.35.24-6.72.35-10.09.1-3,.35-6.06.48-9.1s.4-6,.74-8.94c.48-4.32.74-8.66,1.05-13,.23-3.26.37-6.53.72-9.79.18-1.62.25-3.26.36-4.89,0-.48,0-1.11-.44-1.24-.89-.26-.91-.9-1-1.6a3.09,3.09,0,0,0-.45-1c-2.2-3.75-4.37-7.53-6.57-11.28a16.17,16.17,0,0,0-4.05-4.39,1.23,1.23,0,0,0-1.43-.14,10.34,10.34,0,0,0-1.58.92c-1.35,1-2.71,2-4,3.07a37.53,37.53,0,0,1-11.93,6.68c-3.41,1.17-6.79,2.41-10.08,3.89A36.86,36.86,0,0,0,222,401a3.6,3.6,0,0,0-1.83,3.53,4.4,4.4,0,0,1-.13,1.39,1.65,1.65,0,0,1-.8,1.11c-.53.31-1.06.18-1.23-.4a19.56,19.56,0,0,1-.83-2.52c-.21-1.39-.28-2.79-.38-4.19-.21-3-.34-6-.48-8.95a126.14,126.14,0,0,1,0-13.75c.32-4.9.51-9.8,1-14.69.2-2.19.19-4.4.41-6.58.66-6.42.9-12.87,1.52-19.3.48-5.07,1-10.14,1.54-15.21.7-6,1.47-12.07,2.19-18.1.5-4.09.84-8.19,1.21-12.29.44-4.88,1-9.77,1.6-14.64a52.78,52.78,0,0,1,2-10.73c.47-1.35.39-2.29-.76-3.18a4.78,4.78,0,0,1-1.69-3.29,9,9,0,0,1,.65-5.35,5.29,5.29,0,0,0,.08-5.21,4.35,4.35,0,0,1,.12-3.94,9.75,9.75,0,0,1,1.8-2.66,16.09,16.09,0,0,1,3.46-2.62,1.72,1.72,0,0,0,1-1.69,6.67,6.67,0,0,1,2.23-5.12,26.93,26.93,0,0,1,3.18-2.75,59.93,59.93,0,0,1,9.18-5.93,3.2,3.2,0,0,0,1.84-2.3,17,17,0,0,1,.81-2.69,8.74,8.74,0,0,0,.33-4.56,17.3,17.3,0,0,0-.57-2.31,1.56,1.56,0,0,1,.28-1.7,1.53,1.53,0,0,0,.31-1.57,26.21,26.21,0,0,0-1.52-5.1c-.62-1.4-1.27-2.8-1.77-4.27-.63-1.86-.85-3.84-1.5-5.68a43.18,43.18,0,0,1-2.8-10.54,1.91,1.91,0,0,0-1.6-1.73,5.61,5.61,0,0,1-3.08-2.48c-.56-.79-1.06-1.64-1.61-2.45a21,21,0,0,1-3.28-7.54,18.25,18.25,0,0,1-.47-5.56,14.08,14.08,0,0,1,2-5.65c1.37-2.35,2.94-4.56,4.41-6.84a1.08,1.08,0,0,0,.31-.93,36.13,36.13,0,0,0-4.1,3.58c-.46.51-.71,1.1-1.54.56-.4-.27-.81.1-1.18.26-2.12.89-4.21,1.82-6.34,2.67a1.86,1.86,0,0,0-1.31,1.75,92,92,0,0,0-.51,9.24,14.1,14.1,0,0,1-.43,3.61,2.41,2.41,0,0,1-2.82,1.94,2.53,2.53,0,0,1-1.88-1.72,28.48,28.48,0,0,1-2.31-7.19c-.17-1.07-.34-2.13-.48-3.2-.08-.61-.37-.82-.95-.63l-.53.19c-4.46,1.68-9,3.11-13.58,4.5a23.71,23.71,0,0,0-6.69,2.81c-.92.62-2,1-3,1.55a6.16,6.16,0,0,1-4.18.65,7.12,7.12,0,0,1-5.12-3.31,13.68,13.68,0,0,0-2.45-3.06,19.15,19.15,0,0,1-5.39-9.81A61,61,0,0,1,173.06,136c.29-5.32.85-10.63,1.58-15.91.2-1.39.18-2.45-1-3.47s-1.05-1.77-.23-3.1a1.86,1.86,0,0,0,.23-1.32,20.77,20.77,0,0,1,.27-7.12,8.89,8.89,0,0,0,.21-3.33,5.6,5.6,0,0,1,.36-3.31,6.4,6.4,0,0,0,.62-2.29c.47-5.66,3.09-10.35,6.73-14.51a3,3,0,0,0,.84-3.41,9.49,9.49,0,0,1,.71-8A3.81,3.81,0,0,1,186.82,68a1.36,1.36,0,0,0,1.29-.67,4.41,4.41,0,0,1,2.52-1.69,11.78,11.78,0,0,1,3.6-.45c.74,0,1.57.42,2.19,0s.61-1.43.85-2.17a40.65,40.65,0,0,1,2.87-7.31,8.15,8.15,0,0,1,4-4c2.46-1,3.81.22,4.24,2.49a7.25,7.25,0,0,1-.07,2.93q-1,4.66-1.86,9.36a34.67,34.67,0,0,0-.49,4.31,2.81,2.81,0,0,0,.62,2c.49.69.81.77,1.52.32a10,10,0,0,0,1.81-1.55q4.39-4.53,8.8-9.07a17,17,0,0,1,4.7-3.5,6.77,6.77,0,0,1,3.39-.73,2.34,2.34,0,0,1,1.75,3.65,12.85,12.85,0,0,1-1.17,1.39A12.9,12.9,0,0,0,226,64.64c-1.22,1.66-2.54,3.24-3.88,4.8a98,98,0,0,0-8.41,11.74,2.32,2.32,0,0,0-.33,1.87,7.58,7.58,0,0,1-.68,5.18,25.45,25.45,0,0,1-3.27,5.06,17.69,17.69,0,0,0-1.48,2,14.17,14.17,0,0,1-5.34,5.25,1.74,1.74,0,0,0-.83.71c-1,2-1.42,4.41.45,6.66a2.78,2.78,0,0,1,.26,3.4,7.1,7.1,0,0,1-1.95,2.36,2.26,2.26,0,0,0-.95,2.55c.65,3.35,1.24,6.71,1.86,10.07a2.88,2.88,0,0,0,.26.8,8.77,8.77,0,0,1,.61,2.57c.34,1.79.73,3.56,1.19,5.32.2.8.52.9,1.39.72A8.84,8.84,0,0,0,207,135c4.59-2.22,9.11-4.58,13.49-7.2a10.14,10.14,0,0,0,3.64-3.52A97.79,97.79,0,0,1,238,106.85a92.57,92.57,0,0,1,11.51-10.06c1.21-.89,1.2-.91.49-2.27-.08-.17-.18-.33-.27-.5a14.86,14.86,0,0,1-1.83-7.53,5.47,5.47,0,0,1,0-.7c.15-.79-.26-1.08-1-1.23a17.34,17.34,0,0,1-2-.59,10.06,10.06,0,0,1-4.41-2.89,3.48,3.48,0,0,1-1.12-2.2,1,1,0,0,0-.7-.95c-1.86-.78-2.8-2.36-3.64-4.08s-1.32-3.79-2.46-5.47a4.86,4.86,0,0,1-.73-1.81c-.2-1-.06-1.47.92-1.9a1.14,1.14,0,0,0,.78-1.17c0-.66.07-1.31.07-2a18.08,18.08,0,0,1,1.09-6.18,26.91,26.91,0,0,1,4.8-8.19,43.7,43.7,0,0,1,10.18-8.95,3.37,3.37,0,0,1,2.9-.67,2.07,2.07,0,0,0,1.36-.22,58,58,0,0,1,9.64-3c1.38-.29,1.41-.41,1.11-1.83A10.91,10.91,0,0,1,266,24c3.69-5.73,8.75-9.39,15.66-10.2a20.08,20.08,0,0,1,5.31-.19,23.64,23.64,0,0,1,10.08,4,1.83,1.83,0,0,0,2.41.12,5.51,5.51,0,0,1,.86-.47,21.27,21.27,0,0,1,25.11,3.08,15.73,15.73,0,0,1,4.4,8.46,2,2,0,0,0,1.29,1.64,24,24,0,0,1,8.61,5.92,53.63,53.63,0,0,1,9.09,12.75,94.45,94.45,0,0,1,7.95,20,69.43,69.43,0,0,1,2.43,15.63,52.67,52.67,0,0,1-.65,9.64,27.08,27.08,0,0,1-2.86,9.06c-.63,1.15-1.43,2-2.89,1.72-.78-.14-1.14.2-1.23,1,0,.27-.13.54-.18.82a75.59,75.59,0,0,1-5.13,15.71,22,22,0,0,1-2.88,4.64,1.92,1.92,0,0,1-1.47.93c-.65,0-.74.3-.37.79s.7.75,1.06,1.12a17.15,17.15,0,0,1,3.59,5,15.64,15.64,0,0,0,3.68,4.89c3.59,3.49,7.12,7,10.35,10.88A132.67,132.67,0,0,1,372,167.65c2.89,4.76,5.81,9.5,8.9,14.13a7.58,7.58,0,0,0,2.5,2.6,20,20,0,0,1,2.36,1.75,7.9,7.9,0,0,1,3.08,4.39v7a103.24,103.24,0,0,1-3.87,9.94c-2.27,4.8-5.17,9.1-9.62,12.19-1.5,1-3,2.13-4.47,3.15-4.45,3-8.92,6-13.37,9.06a43.12,43.12,0,0,0-4.93,3.93,1.26,1.26,0,0,0-.35,1.73,6.52,6.52,0,0,1,.58,1.42,2.1,2.1,0,0,1-1.36,2.7,2.26,2.26,0,0,1-1,.18,2.3,2.3,0,0,0-1.78.67c-.36.3-.72.6-1.1.86a2.64,2.64,0,0,0-1.39,2.41,1.33,1.33,0,0,1-1.34,1.51,2.19,2.19,0,0,0-1.55,1,42.75,42.75,0,0,1-3.68,4.78,4.42,4.42,0,0,0-1.49,3.39c0,2.24-.15,4.49-.09,6.73a5.14,5.14,0,0,1-.63,2.84,2.62,2.62,0,0,0-.16,2.28c.59,1.88,1.15,3.76,1.65,5.66a170.65,170.65,0,0,1,4.12,20.77c.69,5.14,1.17,10.31,1.47,15.49.19,3.27.48,6.53.65,9.8.3,5.56.72,11.1,1,16.66.13,2.52.17,5,1.16,7.43a8.21,8.21,0,0,1,.32,2.22c.33,3,.24,6.07.77,9.08a9,9,0,0,1-.1,5,2.27,2.27,0,0,0,0,1c.57,5.54,1.11,11.08,1.29,16.64a5.2,5.2,0,0,0,.22,1.24,15.08,15.08,0,0,1,.54,4c0,1.37-.31,2.72-.17,4.06.35,3.49.71,7,1.21,10.45.67,4.72,1.5,9.42,2.21,14.13a17.6,17.6,0,0,1-1.2,10c-1.08,2.44-2.28,4.82-3.42,7.23a1.75,1.75,0,0,1-2.89.68,3.6,3.6,0,0,1-1.31-2.25,4.23,4.23,0,0,0-1.09-2.23,19,19,0,0,1-4.08-6.65,150.77,150.77,0,0,1-4.7-15.29,25,25,0,0,0-2.57-6.3c-1.93-3.27-3.81-6.56-5.86-9.74a44.06,44.06,0,0,0-6.38-8,27.59,27.59,0,0,0-11.75-6.3,16,16,0,0,0-1.91-.45c-.67-.11-1,.21-.88.88s.37,1.11.19,1.66a5.77,5.77,0,0,0,0,2.77c.2,1.4-.11,2.82.12,4.2a62.63,62.63,0,0,1,.72,10.77,2.47,2.47,0,0,0,.95,2.33,2.55,2.55,0,0,1,.65.91,70.53,70.53,0,0,1,6.13,13.68c1,3.08,1.88,6.17,2.87,9.24a24,24,0,0,0,3.24,7.12,8.44,8.44,0,0,1,.88,1.75c1.67,3.81,3.32,7.63,5,11.42,1.12,2.46,1.2,2.37,3.68,3.4a7.45,7.45,0,0,1,4.14,3.36,11.46,11.46,0,0,0,4.73,4.47,12.45,12.45,0,0,1,3.77,3.07,118.51,118.51,0,0,1,9.48,15.24,4.24,4.24,0,0,1,.62,2.28c-.09,1.21-.09,2.42-.28,3.63a45.32,45.32,0,0,1-1.43,5.13,7,7,0,0,1-2.12,3.4,24.83,24.83,0,0,1-2.23,1.71,15.07,15.07,0,0,0-3.76,3.54,25.1,25.1,0,0,0-4.64,11.6,2.63,2.63,0,0,1-2,2.53,44,44,0,0,1-12.63,2.39,53.75,53.75,0,0,1-9-.3q-2.7-.4-5.4-.88c-3.16-.57-6.42-.77-9.4-2.13-.7-.32-1,.1-1.34.62a39.1,39.1,0,0,1-5.92,7.46,14.82,14.82,0,0,0-3.05,3.79c-1.52,3.12-3.32,6.08-5.07,9.06-1.92,3.27-3.75,6.59-5.65,9.87a11.28,11.28,0,0,1-6.19,5,67.35,67.35,0,0,1-8.39,2.24C261.74,540.48,259,540.73,256.38,541.26ZM317.5,221.77c.31,1.25.29,2.51,1.47,3.3a3.43,3.43,0,0,1,1.32,1.78,1.26,1.26,0,0,0,1.23,1c1.63.14,3.26.42,4.89.44,1.31,0,2.73.15,3.78-1a1.53,1.53,0,0,1,1.57-.4,4.8,4.8,0,0,0,3.74-.75,2,2,0,0,0,1.14-1.46c.42-1.79,1.66-2.38,3.41-1.78,1.11.39,1.12.39,1.77-.62a10.73,10.73,0,0,0,.64-1.09q2.73-5.22,5.44-10.46c2-3.77,3.7-7.67,5.81-11.36a37.9,37.9,0,0,1,3.14-5c1.14-1.44,1.07-1.63-.18-2.95-2.25-2.39-4.68-4.58-7.15-6.73a35.85,35.85,0,0,1-7.47-8.87c-1.35-2.31-2.83-4.52-4.35-6.71-1.24-1.81-2.54-3.59-3.85-5.36-.82-1.12-1.18-1.07-1.67.16s-1.07,2.49-1.69,3.7a3.14,3.14,0,0,0-.3,2.44,41.19,41.19,0,0,1,.75,4.42,6.51,6.51,0,0,1-.1,2.78,17.44,17.44,0,0,1-2.06,5.2c-1,1.66-2.12,3.31-3.18,5-2.74,4.27-5.28,8.58-5.8,13.82-.18,1.89-.43,3.94-1.93,5.45a1.27,1.27,0,0,0-.23.65,36.9,36.9,0,0,0-.5,9.5C317.27,218.47,318.32,220.1,317.5,221.77ZM299.23,433.4a3.2,3.2,0,0,0-.57,2.41,3.84,3.84,0,0,1-.2,2.05c-.61,2-1.33,3.89-1.83,5.89-1.37,5.48-2.82,10.94-4.5,16.34a38.15,38.15,0,0,0-1.81,7.77A2.32,2.32,0,0,0,291,470a6.26,6.26,0,0,1,2,3.9,8.16,8.16,0,0,0,2.84,5c.67.6.95.65,1.53,0a11.55,11.55,0,0,1,4-2.55c3.95-1.93,5.9-5.35,6.91-9.36a44.63,44.63,0,0,0,1.13-9.3,1.78,1.78,0,0,1,.47-1.41,1.8,1.8,0,0,0,.48-2c-.19-.63-.34-1.27-.57-1.88-1.14-3.06-2.12-6.19-4-8.94a7.87,7.87,0,0,1-.53-1.14,10.74,10.74,0,0,0-1.51-2.52,27.79,27.79,0,0,1-1.6-2.3A32.43,32.43,0,0,0,299.23,433.4ZM311.65,79.32a5.09,5.09,0,0,0-.88,1.91,6.78,6.78,0,0,1-1.21,2.36c-1.86,2.09-3.33,4.53-5.66,6.2a2.13,2.13,0,0,0-.83,1.55,92.54,92.54,0,0,0-.69,11.89,12,12,0,0,0,3.08,8.06,37.85,37.85,0,0,0,7,6.2,1.51,1.51,0,0,0,1.29.44,7.48,7.48,0,0,1,3.46.18c1.24.22,1.52-.28,1.6-1.31s.09-2.25.23-3.36a1.37,1.37,0,0,0-.87-1.67,2.24,2.24,0,0,1-1.3-2.28,21.52,21.52,0,0,1,.4-4.46,28.68,28.68,0,0,0,.46-7.68,1.85,1.85,0,0,0-.9-1.63,4.28,4.28,0,0,1-1.67-2,33.82,33.82,0,0,1-2.51-7.86C312.28,83.68,312.07,81.5,311.65,79.32ZM246.74,114.7c.17.1.24.17.33.18a3.38,3.38,0,0,0,.55,0c2.24,0,4.49-.2,6.46,1.27a1.65,1.65,0,0,0,2.07-.15c1.27-1,2.48-.76,3.58.5a2.47,2.47,0,0,0,1.95.9,18.19,18.19,0,0,0,7-1.08c1.62-.61,1.68-.71,1.67-2.46,0-1.19,0-1.17-1.2-1.24-2.43-.13-4.71-.82-6.09-2.92a56.9,56.9,0,0,0-4.2-5.58c-.94-1.1-1-1.16-2.08-.24a77.7,77.7,0,0,0-9.1,9.31A5.23,5.23,0,0,0,246.74,114.7Z"/></g></g><g class="cls-5"><path class="cls-3" d="M66.74,288.14c-8.88-1.18-17.62-2.26-26.32-3.5-5.83-.83-11.63-1.81-17.42-2.87a22.55,22.55,0,0,1-10.43-5.18C6.25,271.35.93,265.37-2.34,257.71c-4.29-10.09-4.23-20.08.8-29.84,2.11-4.1,4.8-7.89,7.38-12.06-1.1-1.27-2.19-2.56-3.33-3.82-1.81-2-3.75-3.89-5.46-6-5.34-6.5-8.75-13.64-6.62-22.25-.72-.3-1.2-.7-1.56-.61-8.6,2.08-15.5-.95-21-7.37-9-10.49-10.42-22.39-5.71-35.15,1-2.74,2.47-5.32,3.69-7.89-3.32-11-30.42-61-38-70-.71,0-1.67,0-2.62,0-5.87.32-9.81-2.74-12.52-7.51A32,32,0,0,1-91.14,36a46,46,0,0,1,3.82-14.91c2.55-5.57,5.38-11,8.17-16.47C-78,2.5-76.72.45-75.38-1.85c-1.89-2.78-3.6-5.46-5.47-8C-87.09-18.39-93.15-27-99.71-35.31-120.9-62-135.84-91.84-146.24-124.16c-6.4-19.9-10.86-40.23-14.84-60.72-3.64-18.81-6.29-37.75-8.63-56.75-.72-5.83-1.35-11.68-2-17.52a21.92,21.92,0,0,0-3.6-10.24,49.38,49.38,0,0,1-7.58-20.55c-1.61-10.9,2.8-19.69,10.33-27.1a60.23,60.23,0,0,1,8.23-6.16c4.65-3.2,9.38-6.28,14.07-9.42,10.89-7.28,17.46-17.71,21.59-29.87,1.18-3.48,2-7.08,3.08-10.6a98,98,0,0,1,13-27.9c4.2-6,8.44-12.07,12.66-18.1a222.18,222.18,0,0,1,35-38.69C-46.13-474.41-28.36-492-11-510.13c10-10.46,19.73-21.21,29.47-31.93a100.76,100.76,0,0,0,19.46-31c2.33-5.93,5-11.75,7.58-17.57a349,349,0,0,0,16.06-42.67c9.2-30.58,26.85-55.65,51.37-75.61,26.54-21.61,57.24-29.35,91.09-24a56.61,56.61,0,0,1,16.09,5.09c2.2,1.07,4.45,2,6.87,3.12,5.93-5,11.89-5.64,17.37.64,2-1.57,3.45-2.86,5-4,3.9-2.79,8.29-3.67,12.44-1.17,3.86,2.33,6.9,1.47,10.15-.8,1.81-1.26,3.72-2.39,5.6-3.53,4-2.4,7.88-4.92,13-4.39-1.09-8.38-2.12-16.31-3.18-24.52-1.73,0-3.4.09-5.05,0-3.49-.22-5.35-1.76-6.43-5-.88-2.68-.49-5.31.14-8a84,84,0,0,1,12.74-28.77c2.25-3.24,4.68-6.3,5.58-10.25a5.4,5.4,0,0,1,.92-2,15.91,15.91,0,0,0,3.24-10.32,21.84,21.84,0,0,1,.77-3.94c-1-1.14-2.07-2.4-3.15-3.7-5.81-7-11.77-13.82-17.36-21a91.83,91.83,0,0,1-7.46-11.81,42.46,42.46,0,0,1-5.37-19.68,124.51,124.51,0,0,1,5.23-40,229.31,229.31,0,0,1,21.16-49.26c5.4-9.4,11.6-18.2,20.85-24.37a12.31,12.31,0,0,0,5.1-7c1.14-4,2.4-8,3.23-12.07a71.74,71.74,0,0,0,.74-8.67c-2.59-1.51-5-2.56-7-4.2a33.77,33.77,0,0,1-4.77-5.58,337.39,337.39,0,0,1-24.11-36.1,93.17,93.17,0,0,1-9.88-26c-1.23-5.25-1.51-10.23,2.29-14.3a300.05,300.05,0,0,1-2.23-39.28c.27-12.79,1.3-25.49,4.26-38,.34-1.43.76-2.84,1.12-4.26,1.77-7.16,5.3-12.7,13.29-14.14,1.25-2.5,2.45-4.9,3.67-7.3,8.11-16,17-31.59,28.63-45.34A117.21,117.21,0,0,1,340-1275.14a25.35,25.35,0,0,1,14.84-5.84c7.11-.61,13.1,1.39,17.14,7.69.4.61.91,1.14,1.63,2,1.2.07,2.63.17,4.07.23,5.08.21,8,3.12,9.79,7.61,1.39,3.54,1.09,7.21,1,10.9-.06,2.62-1.24,5.23-.29,8.13a28.6,28.6,0,0,0,3-.41c2.13-.54,4.25-1.17,6.37-1.78,5.76-1.66,11.17-1.5,15.67,3.19,2.79-.78,5.34-1.66,7.95-2.2,8.78-1.79,13.56,1.18,16,9.78.51,1.85,1,3.71,1.52,5.84,6.13-1,11.87-2,17.63-2.93a193.46,193.46,0,0,1,33.74-2.38c29.36.6,58.17,4.5,86,14.38A153.47,153.47,0,0,1,633.66-1185c4.85,4.81,8.86,10.47,13.25,15.75.75.9,1.47,1.84,2.66,3.33.89-1.8,1.57-3,2.08-4.23,6.58-16.39,17.46-29.44,31.26-40.21.77-.6,1.56-1.19,2.39-1.72,2.74-1.79,5.44-2.08,8.07.28.71.64,1.56,1.14,2.47,1.8l21.56-4.74c1.43-.32,2.88-.61,4.32-.9,7.58-1.51,9.69-.6,14.15,6.4,1.44-.67,3-1.3,4.43-2.07a248.63,248.63,0,0,1,37.18-15.89,52.83,52.83,0,0,1,6.34-1.87c4.69-.93,8.25,1,9.91,5.51a21.81,21.81,0,0,1,1.13,5.74,43.64,43.64,0,0,1-2.35,18.12c-1,3-2,6-3,9.23,5.65,5.26,6.58,11.91,5.56,19-.81,5.57-1.82,11.12-2.84,16.66-.43,2.37-1.09,4.7-1.73,7.38a35,35,0,0,0,3.36,1.63c6,2.12,8.66,6.82,9.79,12.72a54.32,54.32,0,0,1-.53,21.22c-2.68,13.14-7.55,25.38-15.56,36.24q-8.74,11.85-17.5,23.66a3.93,3.93,0,0,0-.25,1.43c1.57,6.78-.55,12.7-4.63,17.89a130.64,130.64,0,0,1-12.6,14.37c-8.92,8.41-18.28,16.36-27.44,24.53-3.46,3.09-6.87,6.24-10.45,9.5,1,2.05,1.88,3.76,2.72,5.5,5.59,11.66,5.44,23.2-.74,34.61a50,50,0,0,1-13.53,16.33,140.05,140.05,0,0,1-17,11.58A85.09,85.09,0,0,0,658-890.72c-4.25,5.89-9.06,11-15.73,14-.39.18-.63.7-1,1.13.71,3.52,1.2,7.16,2.21,10.65a55.62,55.62,0,0,0,3.58,8.82c1.61,3.3,3.58,6.43,5.29,9.69A59.54,59.54,0,0,1,659-826.15c5.07,2.09,8.34,6.08,11.53,10.12,20.67,26.23,40.65,53,59.15,80.78,1.77,2.67,3.8,5.22,2.81,9.15,2.6.08,4.75.2,6.9.21,10.3,0,20.59-.12,30.87,1.17a116.55,116.55,0,0,1,54.29,21.11,191.94,191.94,0,0,1,54.76,60.83c4.42,7.64,8.41,15.53,12.53,23.35,7.44,14.1,14.73,28.29,22.29,42.33,2.91,5.39,6.25,10.57,9.64,15.67a85.84,85.84,0,0,0,22.54,23c11.25,7.9,22.16,16.27,33.34,24.27,12.57,9,25.07,18.11,38,26.61,31.36,20.66,62.44,41.72,92.88,63.72a12.93,12.93,0,0,0,2.38,1.72c8.17,3.49,14,9.89,19.68,16.28,6.72,7.49,13.11,15.28,19.78,22.81,4.56,5.14,9.42,10,14,15.1a49.34,49.34,0,0,0,22.9,14.14c3.45,1,6.1,2.94,8.88,4.86,2.41,1.67,4.65,3.6,7.17,5.07,12.54,7.28,17.93,18.36,17.32,32.55-.47,11.1-2.8,21.9-5.84,32.54-1.48,5.19-3.17,10.31-4.79,15.46a38.88,38.88,0,0,0-2.09,15.23c1.12,12.48-1.58,24.43-5.16,36.21-7.45,24.48-19.92,46.27-35.34,66.61a561.49,561.49,0,0,1-64.64,71.44c-2.69,2.52-5.33,5.08-8,7.6-3,2.85-6.25,5.49-6.9,10.05-.15,1.09-1.23,2.06-1.87,3.06.48,1.54.92,2.94,1.35,4.34,3,9.89.4,18.48-6.43,25.79a62.5,62.5,0,0,1-9.71,7.82,75.88,75.88,0,0,1-7.65,4.4A59.82,59.82,0,0,0,1049,2.46c-21.72,25.12-46,47.72-70.32,70.2-10.28,9.48-20.09,19.46-30.12,29.21a22.29,22.29,0,0,0-6.86,11.92c-.1.48-.36.92-.49,1.39-3,10.55-8.32,19.38-18.85,24.34-.14,5.55.87,10.84,1.29,16.17.47,6.11,1,12.22,1.43,18.34a30.24,30.24,0,0,1-7.83,23c-2.12,2.38-4.07,4.9-6.35,7.65.71,1.19,1.37,2.44,2.16,3.59,7.91,11.59,12,24.58,14.17,38.31.18,1.21.11,2.45.19,3.68.45,7.19-2.46,12.24-9.23,15.13-8.57,3.65-17,7.52-25.58,11.28-2.9,1.28-5.9,2.25-8.37,4.47a8.33,8.33,0,0,1-4.75,1.53,19.16,19.16,0,0,1-5.83-.55,9.74,9.74,0,0,0-8.9,2c-3.39,2.62-7.66,3.08-11.83,3.46-1.63.15-3.27.28-5.07.43.16,3.22,1.82,5.44,3,7.8q31,62.25,62.16,124.46,89.37,178.77,178.73,357.53,1.15,2.29,2.29,4.61a6,6,0,0,0,3.65,3.28,11.27,11.27,0,0,1,4.54,3.44c3.46,4.14,6.7,8.47,10,12.74a45.11,45.11,0,0,1,7.23,14.39,18.46,18.46,0,0,1-1.69,14.92c-3,5.5-8.26,7.82-14.3,6.18a27.12,27.12,0,0,1-6.67-3,62.53,62.53,0,0,1-15.1-12.81c-2.54-2.93-5-6.05-8.38-7.76-1.87.58-1.67,1.94-1.65,3.09q.15,7,.44,14c.39,9.26-3.31,17.29-7.95,24.86-3.42,5.57-11.71,7.67-18.44,5.43-.69-.23-1.32-.65-2-.92s-1.33-.44-2-.67a17.5,17.5,0,0,0-1.72,1.47C995.78,910.85,945,952.67,888.48,987.64c-19.22,11.89-38.76,23.15-59.79,31.62-5.21,2.1-10.49,4.07-15.87,6.15-.7,3.91.78,7.42,1.24,11,.83,6.32,1.61,12.73,3.4,18.81s6.84,10,10.45,15c11.76,16,22.75,32.59,33.56,49.28,7.87,12.16,16.12,24.06,24.2,36.07q2.46,3.67,5,7.3c12.66,18.25,20.38,38.52,24.59,60.21,2.81,14.45,5.8,28.87,8.12,43.4,1.7,10.64,2.63,21.43,3.58,32.18,1.26,14.42,2.1,28.88,3.32,43.31,1.08,12.71,2.43,25.41,3.68,38.11,1.22,12.45,2.48,24.91,3.7,37.36.53,5.37.91,10.77,1.61,16.12a14.59,14.59,0,0,0,2,5.41c2.25,3.79,4.83,7.39,7.18,11.13,2.48,4,4.94,7.91,7.26,12a73.8,73.8,0,0,1,10.11,37.2c0,7.58.85,15.17,1.42,22.75a26.88,26.88,0,0,0,3.25,11.24q12.45,22.13,25,44.2c1,1.72,2.07,3.35,4.33,3.63a2.81,2.81,0,0,1,1.94.88c2.33,4.09,6.75,4.58,10.47,6.25,3.36,1.51,6.78,2.87,10.15,4.33,22,9.55,34.74,27.24,42.65,49.06,1.17,3.22,2.06,6.55,2.93,9.87.75,2.84,1.16,5.77,1.95,8.6.72,2.58-1.34,5.86.87,7.66,2.44,2,1.27,4.49,1.94,6.62,1.29,4.16,1.67,8.65,2.12,13a20,20,0,0,0,4.1,10.83c1.84,2.3,3.52,4.72,5.17,7.16a15.59,15.59,0,0,1,2.81,11.86,11,11,0,0,0-.17,4.34c2.17,8.94,1.55,18,1.59,27.09a46.45,46.45,0,0,1-1.55,10.14,21.54,21.54,0,0,1-7.85,12.14,58.36,58.36,0,0,1-6.6,4.68c-22.83,13.81-46.92,24.59-73.19,30-7.44,1.51-15,2.52-22.53,3.51-10.21,1.34-20.46,2.46-30.69,3.63-6.83.78-13.64,1.84-20.49,2.17-22.3,1.06-44.61,2.4-66.94.26-16.63-1.6-33.16-3.64-49.2-8.59a84.11,84.11,0,0,1-21.94-10.19c-7.39-4.9-12.08-11.33-12.81-20.37-1-12.47-2.14-24.93-3.12-37.4-.23-2.92,0-5.86,0-8.72-1.72-1.62-3.18-2.9-4.53-4.28-2.92-3-5.93-5.88-8.65-9a25.86,25.86,0,0,1-6.21-15.44c-.56-8.17,0-16.15,3.45-23.78a19.85,19.85,0,0,0,1.05-5.66c.6-4.87.84-9.8,1.74-14.6a54.52,54.52,0,0,1,11.35-24.47,79.8,79.8,0,0,1,10-10.75,17.2,17.2,0,0,0,5.59-9.1c4.93-17.47,5.87-35.28,5.24-53.27,0-1.47-.54-3-.18-4.38a16.05,16.05,0,0,0-.35-8.7c-1.88-6.64-.22-12.47,3.44-18.15a118.43,118.43,0,0,0,7.75-14.16,36.74,36.74,0,0,0,3-23,7.13,7.13,0,0,1-.39-2.9c1.5-5.5-1.63-9.47-4.46-13.41q-15.9-22.12-32-44.09c-19.25-26.37-38.61-52.65-57.77-79.08a324.65,324.65,0,0,1-25.75-42c-10.11-19.61-16.25-40.47-19.84-62.14-3.09-18.66-4.6-37.5-6.1-56.34-1.08-13.7-2.66-27.36-4.1-41a19.46,19.46,0,0,0-1.34-4.94c-8.53-21.69-16.7-43.54-26.85-64.54s-8.75-18.81-28.15-32.85c-10.62-7.67-11.64-7.54-24.4-8.63-20.28-1.72-40.56-3.58-60.81-5.74-25.37-2.71-50.7-5.8-76.05-8.68a48.75,48.75,0,0,0-5.29,0,21.25,21.25,0,0,1-1.91,3c-1.85,2.07-3.43,2.62-5.79,1.09-2.53-1.63-5.06-1.55-7.75-1.38-18.86,1.18-37.71,2.57-56.58,3.48-20.34,1-40.71,1.52-61.07,2.21-2.93.1-5.88,0-9,0-12.32,13.89-18,29.62-14.81,48.18a33.49,33.49,0,0,0,7.43,16.51c4.9,5.81,9.27,12.06,14,18.06,3.31,4.26,6.48,8.68,10.19,12.58,10.95,11.52,19.24,24.77,26.12,39,7.94,16.39,14.79,33.18,17.88,51.25,3,17.73,4.22,35.5,2.56,53.52a307,307,0,0,1-15.6,72.47c-8.35,24.1-16.41,48.31-24.59,72.47-5.83,17.21-7.71,34.81-6.55,53a147.7,147.7,0,0,0,7.57,38.1c8,23.71,15.51,47.56,23,71.44,2.13,6.77,3.53,13.78,5.05,20.72a49.33,49.33,0,0,1,.61,16.13c-.22,1.93-.51,3.86-.82,6.18,1.31,1,2.6,2.08,4,3,10.1,6.44,13.86,16,13.77,27.54-.08,11-.05,22.1,0,33.15,0,3.88-.33,7.77,1.23,11.59.68,1.67.12,3.84.12,5.67-3.68,3.54-7.13,7-10.76,10.28a12.84,12.84,0,0,1-4.41,2.59c-5.79,2-11.53,4.35-17.5,5.48-11.56,2.19-23.24,3.78-34.9,5.32a151,151,0,0,1-16.88,1.08c-7.36.13-14.73-.19-22.09-.18-20.61,0-41.24-.25-61.84.35-13.45.39-26.93,1.25-40.22,4.13-8.85,1.92-18,2.46-26.84,4.43-14.86,3.32-30,5-44.9,7.93-5,1-9.84,3-14.76,4.46a58.9,58.9,0,0,1-7.73,2.18,367.11,367.11,0,0,1-69,4.09c-26-.79-52-2.38-77.46-8.19-24.79-5.65-47.39-15.91-67.15-32A147.16,147.16,0,0,1-170,1702.86a24.09,24.09,0,0,1-6.2-13.1c-2.42-14.76-5.43-29.43-6.93-44.35a72.84,72.84,0,0,0-1.88-8.28c1.77-4.34,5.84-5.63,10.79-6.11.44-1.29.92-2.62,1.37-4a26.78,26.78,0,0,1,10.47-13.84,31.51,31.51,0,0,0,7.94-7.55c6.21-8.64,15.06-12.34,25.34-12.8,4.13-.19,8.3.5,12.45.78,1.71.12,3.79.9,5,.2,4.2-2.33,8.09-.69,12.1.13.21,0,.45-.12.68-.18,1.9-5.82,1.89-5.83,7.35-9.13a45.48,45.48,0,0,1,5.16-2.84c10.34-4.5,20.64-9.12,31.12-13.28,4-1.61,8.49-2.13,13.54-3.33,1.21-1.52,3-3.81,4.83-6.06,7.13-8.7,16.43-13,27.58-13.36q7.73-.29,15.45-.44c4.42-.11,8.84-.09,13.25-.24,5.17-.17,10.31-.15,15.3,2,9.1-5,18.22-9.79,27.12-14.94,19.12-11.05,38.44-21.8,57.09-33.6,14.08-8.9,27.26-19.22,40.82-28.94a30.57,30.57,0,0,0,3.3-2.93c5.14-5,7-10.67,5-18C158,1411,148.24,1373.28,136.73,1336c-9.76-31.62-17.74-63.8-26.7-95.68-10.49-37.31-21.18-74.56-31.82-111.83-1-3.53-2.2-7-3.38-10.5-4.6-13.67-11.28-26.09-21.71-36.29a57.33,57.33,0,0,1-13-19.43c-3.26-7.91-4.69-15.89-2.74-24.42,2.52-11,4.7-22.07,7-33.11a74.56,74.56,0,0,0,1.42-8A4.14,4.14,0,0,0,43,992.11q-2.78-1-5.52-2.06a652.73,652.73,0,0,1-143.16-76.37c-7.81-5.51-15.39-11.36-23.14-17.09a4.34,4.34,0,0,0-1.36-.15c-10.06,1.88-16.89-2-19.6-11.71a75.1,75.1,0,0,1-2.38-14.47c-.45-6.1,1.14-11.72,6.13-15.83,2.47-2,3-5,4-7.75q16.26-43,32.38-86.1Q-22.88,529.43,63.9,298.26C65.07,295.13,66.89,292.11,66.74,288.14ZM223.27,245c-2-1.5-3.94-2.2-5.85.11a65.14,65.14,0,0,1-6.55-.84,513.94,513.94,0,0,1-51.71-14.3c-8.31-2.84-16.87-5.14-24.61-9.9a55.06,55.06,0,0,1-6.31,5,19.28,19.28,0,0,1-6.8,2.51c-2.6.37-5.32-.07-8-.2-2.49-.13-4.55-2.33-8.39-1.92a41.18,41.18,0,0,0,4.63,3.9,43.32,43.32,0,0,0,6.62,3.18c13.76,5.16,27.39,10.77,41.38,15.25,43.82,14,88.84,22.52,134.44,27.92,25.81,3.06,51.7,5.45,77.57,7.88a943.55,943.55,0,0,0,97,3.9c20.61-.19,41.21-1.07,61.7-3.24C549.87,282,571.25,279,592.61,276a524.75,524.75,0,0,0,88.61-21c1.81-.58,3.52-1.47,5.61-2.36-.46-3.6-.88-6.93-1.35-10.59a32.63,32.63,0,0,0-4,.54c-4.48,1.24-8.93,2.63-13.42,3.87-27,7.52-54.44,12.5-82.14,16.39-28.19,4-56.47,7.12-84.91,8.19a911.74,911.74,0,0,1-101.5-1.55c-24.2-1.79-48.36-4.31-72.52-6.64-26.12-2.52-52.13-5.94-77.94-10.72-8.65-1.6-17.17-3.86-25.74-5.82l1.55-.48Zm572.16,13.84.12,1-.53-.15.63-.77c-2.31-4.24-4.57-8.51-7-12.68-.63-1.08-.62-2.95-2.75-2.9-1.79,2.44-2,4.88.08,7.25,2.22,2.59,4.46,5.17,6.85,7.59C793.38,258.71,794.57,258.6,795.43,258.79ZM441.35-1219.31a35.62,35.62,0,0,0-5.69.82,91.75,91.75,0,0,0-23.77,11.43,156.64,156.64,0,0,0-32.36,28.72,108.13,108.13,0,0,0-21.51,39c-.55,1.79-.89,3.64-1.73,7.11a38.88,38.88,0,0,0,7.72-9.85,37.49,37.49,0,0,1,14.41-14.27,98.89,98.89,0,0,1,19.37-8.8c1.79-.56,3.5-1.38,5.08-2,0-13,2.71-16.69,8.3-25a65.7,65.7,0,0,1,14.05-15c4.24-3.31,8.78-6.25,13.16-9.39,1.11-.8,2.8-1.11,2.84-3l1.25-.09-.48-.74ZM178.93-490.38c.63-.59,1.58-1.07,1.84-1.8,4.94-14.09,10.26-28.08,14.58-42.37q12.33-40.8,23.65-81.9c6.72-24.32,12.87-48.79,19.21-73.21,1.17-4.5,2.31-9,3.06-13.62,1-5.9-.76-11-5.8-15.4-1.07,1.61-2.44,2.86-2.77,4.34a77.67,77.67,0,0,0-2,12.29,103.58,103.58,0,0,1-2.8,19.61c-6.76,26.09-13.17,52.27-20.37,78.23-9.77,35.18-19.7,70.3-27.49,106-.56,2.6-.67,5.3-1,8l-1.1,2.38.94.27Zm301.5,158.74c.82-.28,2-.3,2.41-.87,2.5-3.93,4.94-7.9,7.19-12,10.58-19.17,18.59-39.48,26.15-60q8.4-22.76,15.83-45.86c12.66-39.2,25.94-78.2,38.57-117.41,6.53-20.3,12.13-40.9,18.27-61.33,3.74-12.44,8.06-24.72,11.49-37.25,6-22,11.56-44.11,17.29-66.19a35.15,35.15,0,0,0,.87-4.32,2.33,2.33,0,0,0-3-2.34c-3.1.6-4.25,2.72-5,5.58-3.81,14.46-7.76,28.89-11.68,43.32C593-668.73,588-647,581.17-625.71c-6.52,20.31-12.23,40.87-18.47,61.27-15.23,49.71-32.14,98.87-48.65,148.15-9.67,28.86-20,57.44-33.37,84.83a9.86,9.86,0,0,0-.59,1.17c0,.13.13.35.2.52.25-.25.72-.51.71-.74C481-330.9,480.63-331.26,480.43-331.64ZM232.28,187.49c-.59-1.34-1.42-1.5-2.94-.2h3.13c-.88,1.64-2.43,1.53-3.85,1.26-2.88-.55-5.73-1.27-8.59-1.94-24.77-5.81-49.21-12.68-73.12-22.59a70.06,70.06,0,0,1-1.94,7.27,53.27,53.27,0,0,1-3.37,6.49c-1.15,2.05-4.25,2.29-5.2,5.23,1.65.15,2.91.58,4,.31,3.79-.91,7.26-.12,10.77,1.24,4.11,1.6,8.29,3.05,12.48,4.43,41.14,13.53,83.41,22,126.23,27.91,30.63,4.23,61.38,7.34,92.19,9.84,27.14,2.2,54.34,3.59,81.6,3.62,21.36,0,42.72-.19,64-2.14,19.78-1.8,39.5-4.26,59.21-6.74A553.13,553.13,0,0,0,665.47,206a148.56,148.56,0,0,0,15.84-5.77c3.64-1.49,7.13-3.31,11.38-2.34,5.42-6.5,10.32-13.18,15.56-19.56.5-.6,1.49-1.5-.15-2.81-6.9,3.05-14,6.19-21.13,9.36a4.14,4.14,0,0,0-1.81,1.23c-1.68,2.55-4.44,3-7,3.6-13.59,3.23-27.14,6.72-40.84,9.43-24.31,4.81-48.87,8-73.49,10.75a747,747,0,0,1-77.11,4.51,1130,1130,0,0,1-122.71-6c-29.29-2.95-58.56-6-87.63-10.69-12.82-2.08-25.67-4-38.21-7.54-1.51-.43-2.49-.68-3.09-2.25C234.88,187.51,233.25,187.63,232.28,187.49Zm197.46,826.63c1.66.34,3.05.75,4.47.91q24.85,2.85,49.72,5.64c15.36,1.72,30.72,3.5,46.09,5.07,12.45,1.27,24.92,2.27,37.38,3.4,3.65.33,7.25,1.09,10.94-.18a7.27,7.27,0,0,1,4.32.19c6.42,2.12,13.08,2,19.68,2.32,17.65.82,35.3,1.7,52.95,2.28,18.64.61,37.29,1.16,55.94,1.27,15.47.09,30.95-.86,46.12-4.06,37.44-7.88,73.12-20.52,106.42-39.66A698.92,698.92,0,0,0,1001.09,888c11.66-11.25,23.06-22.75,33.37-35.31a15.48,15.48,0,0,0,4-10.67,75.76,75.76,0,0,0-6.07-27.13,8.16,8.16,0,0,0-1.85-3.13c-3.15-2.68-4.43-6.43-6.11-10Q908.2,558.36,792,314.91c-1.27-2.64-2.58-5.26-3.75-7.63a11.37,11.37,0,0,0-2.35-1.08c-6.82-1.18-12.23-4.86-17.12-9.5s-9.92-9.51-14.91-14.24c-1.19-1.13-2.49-2.15-4.66-4,.59,3.29,1.08,5.34,1.31,7.42.72,6.59-.23,12.75-5,17.82-4.62,4.91-11.77,6.1-17.35,2.3q-14.3-9.75-28.16-20.1a27.62,27.62,0,0,1-10.23-15.76c-.54-2.11-1.12-4.21-1.82-6.82-2.29.59-4.36,1.1-6.42,1.67-14.89,4.12-29.69,8.58-44.67,12.29-22.88,5.66-46.19,9.07-69.55,12.16-29,3.83-58,6.77-87.24,7.26-31.42.54-62.85.46-94.18-2.08-28.12-2.28-56.18-5.28-84.24-8.14a826.78,826.78,0,0,1-92.92-15.09,587.87,587.87,0,0,1-83.14-24.49c-3.78-1.44-6.83-.34-8.49,3.27-1,2.23-1.82,4.55-2.69,6.85L-13,591.17Q-67.81,734.89-122.63,878.58c-1,2.49-1.77,5-2.9,8.3,1,.66,2,1.33,3,2.07,6.84,5.19,13.54,10.58,20.54,15.55A646.41,646.41,0,0,0,41.65,981.39,653.14,653.14,0,0,0,165,1015a544.18,544.18,0,0,0,59.21,6.71c23,1.42,46.09,2.24,69.16,1.94,39.27-.51,78.46-3,117.66-5.4,3.35-.2,6.24-1,8.45-4.13,0-1.72.11-3.67,0-5.61q-2.46-38.57-5-77.15c-1.92-30.12-3.69-60.26-5.76-90.37-1-14.93-2.6-29.82-3.85-44.74-.27-3.16-.94-6.57-.09-9.48.92-3.13.29-5.76-.32-8.59-.42-1.91-1-3.79-1.38-5.72q-3.66-19.89-7.24-39.81c-.17-.9-.15-2-1.89-1.8-.52.88-1.13,1.92-1.75,3a35.65,35.65,0,0,1-1.91,3.15c-1.86,2.5-4.23,3.19-6.33,2-2.28-1.36-3-3.59-1.85-6.34.66-1.58,1.56-3.06,2.27-4.62,1.53-3.34,3.09-6.68,4.5-10.07a27.51,27.51,0,0,0,2.32-14.36,26.45,26.45,0,0,1,.3-5.08,36,36,0,0,0,.3-5.06c-.5-7.1-1.42-14.18-1.62-21.29-.15-5.51-2.93-11.09.08-16.59a1.39,1.39,0,0,0,.06-.71c0-2-3.3-9.86-5.54-13-.72,2.06-1.42,3.77-1.92,5.54-4.25,15.09-11.61,28.56-21.14,41-12.69,16.48-28.26,29.95-44.5,42.72a11.11,11.11,0,0,1-3.17,1.77,4.33,4.33,0,0,1-4.74-1.08,4.55,4.55,0,0,1-.46-5.46,18.92,18.92,0,0,1,3-3.16c2.43-2.06,4.95-4,7.42-6,12.19-10,23.64-20.67,33.55-33A118.34,118.34,0,0,0,377,631a38.85,38.85,0,0,0-1.14-18.85C372.83,602,369.41,592,366,582.05a17.84,17.84,0,0,0-2.82-5c-6.6-8.54-13.36-17-19.94-25.51a102.63,102.63,0,0,1-15.5-29.92c-7.88-23.06-13.24-46.75-17.34-70.68-5.34-31.19-9.89-62.52-14.73-93.79a31.48,31.48,0,0,1-.27-6.58c.09-1.91,1.47-3,3.24-3.56a4.26,4.26,0,0,1,4.93,2.29,21.75,21.75,0,0,1,1.28,4.94c2.28,14.29,4.67,28.57,6.71,42.89,3.43,24,7,48.06,12.1,71.84a429.91,429.91,0,0,0,14.44,53.22c3.72,10.6,9.73,19.76,16.5,28.54.4.51,1.16.74,2.53,1.58-1.63-6.38-3.07-12-4.51-17.69a29,29,0,0,1-1-4.26,4.42,4.42,0,0,1,3-4.53,4.36,4.36,0,0,1,5.16,1.72,23.74,23.74,0,0,1,2.2,5.4c1.8,6.38,3.43,12.8,5.18,19.18,8,29.12,18.09,57.56,27.81,86.12,10.67,31.36,22.11,62.42,35.93,92.57,12,26.19,25.79,51.31,43.41,74.18,8.83,11.46,17.91,22.75,26.87,34.13a40.72,40.72,0,0,1,3.46,4.74,4.7,4.7,0,0,1-1.11,6,4.92,4.92,0,0,1-6.11-.48,27,27,0,0,1-2.94-3.28q-8.81-10.87-17.56-21.78c-19.67-24.65-37-50.82-50-79.59-7.81-17.2-15-34.65-22.54-52-.58-1.34-.79-3-3.07-4,.25,4.26.32,7.93.71,11.57,1.26,11.71,2.43,23.43,4,35.1,2.62,19.22,6.25,38.26,12.49,56.69,3.22,9.52,6.83,18.91,10.26,28.37.92,2.53,1.95,5,2.74,7.61,1,3.3,0,5.63-2.6,6.7-2.36,1-4.88-.34-6.3-3.57-1.29-2.91-2.26-6-3.45-8.92a33.91,33.91,0,0,0-2.33-3.71C421.19,884.83,424.81,949.42,429.74,1014.12ZM627.19-729.65c-.68,1.89-1.27,3.24-1.64,4.64-1.56,5.93-3,11.89-4.6,17.81-6.62,24.63-12.47,49.46-20.49,73.73-6.23,18.85-11.24,38.11-17.12,57.08C565.85-519.91,546.71-464,527.61-408a526.53,526.53,0,0,1-20,49.86c-7.92,17.22-17.18,33.65-28.95,48.58-9.51,12.06-20.29,22.65-33.83,30.2A36.64,36.64,0,0,0,439-275c-16,13.8-34.71,20.86-55.73,22.16a186.29,186.29,0,0,1-39.63-1.94A93.72,93.72,0,0,1,311.9-266c-8.52-4.77-14.82-12-21.57-18.75a32.12,32.12,0,0,1-4.23-5.09c-6-9.25-11.73-18.69-16.05-28.92a219.74,219.74,0,0,1-12.8-42.18c-6.39-31.65-8.48-63.71-8.37-95.92.08-23.08,1.46-46.1,3.6-69.1a557.1,557.1,0,0,1,10.17-66.9c5.32-24.44,10.52-48.92,15.84-73.36,4.23-19.4,7.59-39,15.09-57.58,1.06-2.64.19-5-1.56-7.17-5.43,3.3-10.51,6.27-15.46,9.43-6.06,3.86-12.19,5-18.69,1.15a6.29,6.29,0,0,0-1.76-.3c-3.12,1.73-6.24,4-5.41,8.29,1.21,6.26.09,12.23-1.38,18.18-3.88,15.72-7.66,31.47-11.94,47.08-8.3,30.27-16.89,60.46-25.43,90.67-2.4,8.49-5,16.91-7.59,25.35-1.86,6.09-3.71,12.2-5.8,18.22-5.21,15.07-10.59,30.08-15.84,45.14-4.12,11.84-7.41,23.92-8.72,36.43-.79,7.56-1.17,15.16-1.78,22.74-.32,3.87.16,7.87-2.45,11.31-.63.84-.51,2.37-.46,3.57.61,16.51,2.49,32.79,9.07,48.19,1.15,2.7,2.35,5.41,3.27,8.2s.3,4.75-2.53,6a7.9,7.9,0,0,0-4.2,3.8c-1.55,3.06-3.11,6.12-4.42,9.28a17.68,17.68,0,0,0-.61,12.25c1,3.28,1.54,6.69,2.49,10,2.32,8,1,15.31-3.2,22.56a699.55,699.55,0,0,0-43.07,88.64A1459.41,1459.41,0,0,0,77.45-46c-4,13.44-7.89,26.84-9.39,40.81-2,18.72-1.49,37.26,4.47,55.34,1.84,5.58,4.33,11,5.73,16.68,1.19,4.81,5.31,7.5,7.14,11.79.68,1.58,2.92,2.51,4.48,3.69a226.8,226.8,0,0,1,48.75,49.78c5,7,9.45,14.32,12,22.81,1.27.58,2.56,1.3,3.93,1.78,11.11,3.87,22.12,8.12,33.39,11.46,44.82,13.28,90.68,21.37,137.07,26.5,21.7,2.4,43.46,4.34,65.19,6.38q42.91,4,86,3.92c13.74,0,27.47-.66,41.21-1.08,1,0,2.5.52,3-1.51-2.16-1.09-4.29-2.21-6.46-3.26A251.36,251.36,0,0,1,482.6,181.4a141.3,141.3,0,0,1-25.74-21.89,70,70,0,0,1-12.34-18.21c-2-4.51-3.48-9.18-3.16-14.23.42-6.63,3.94-11.17,10.48-12.44a29.92,29.92,0,0,1,10.21-.17c7.74,1.24,15.4,3,23.08,4.58a16.27,16.27,0,0,1,4.15,1.41,4.32,4.32,0,0,1,2,5.06,3.85,3.85,0,0,1-3.68,3.08A32.83,32.83,0,0,1,481,128c-5-1-10-2.32-15.12-3.16a70.42,70.42,0,0,0-11-.86,3.63,3.63,0,0,0-3.91,4.28,25.43,25.43,0,0,0,1.81,7.81A70.19,70.19,0,0,0,459,146.88a85.77,85.77,0,0,0,16.82,17.43,201.32,201.32,0,0,0,55.37,31.59,5.56,5.56,0,0,1,3.66,3.29c.39,1.08.76,2.17,1.22,3.49,5-.32,9.67-.4,14.27-1,18-2.18,36-4.39,54-6.79a546,546,0,0,0,62.08-12.06c2.58-.66,5.12-1.24,7.11-3.48,1-1.13,3-1.41,4.57-2,1.84-.63,3.79-1,5.58-1.72,5.2-2.19,10.44-4.31,15.48-6.83a115.77,115.77,0,0,0,13.35-7.73c5.38-3.68,9.49-8.62,11.18-15a19.2,19.2,0,0,1,4.5-8.3c3-3.25,5.89-6.66,9.33-9.36,7.11-5.58,12.54-13.17,20.86-17.29,1.05-.52,1.79-1.66,2.7-2.48q17.75-16,35.5-32c6.57-5.91,13.17-11.76,17.9-19.38a9.34,9.34,0,0,0,1.44-7.6c-1.47-6.54-1.86-13.24.8-19.57,1.92-4.57,1.82-8.91.78-13.61a136.17,136.17,0,0,0-12.06-32.32Q791-44.3,776.14-72.68c-5.7-10.87-11.28-21.78-15.7-33.25a223.47,223.47,0,0,1-12-41.67c-.54-3.09-1-6.21-1.44-9.38-2.19-.63-4-1.24-5.94-1.69a141.74,141.74,0,0,1-40.75-16.53c-2.31-1.39-4.71-2.63-7.1-3.89-26-13.69-45.82-33.35-59.24-59.57-12.7-24.8-19.82-51.09-22.23-78.78-2.21-25.51-1.7-51,0-76.5q1.46-22.41,3.33-44.79c1.56-18.34,3.33-36.66,5.07-55,1.7-17.84,3.48-35.66,5.23-53.49,2.12-21.49,4-43,6.41-64.47,3.46-31.23,8.86-62.18,13.7-93.21.83-5.32,1.24-10.72,1.95-16.06.45-3.35-1-5.69-3.57-7.53a13,13,0,0,0-9.7-2.61C632-730.76,629.84-730.21,627.19-729.65Zm10,405.77c5.39-2.23,9.47-4.91,13.71-7.29,10.63-6,18.16-14.78,23.39-25.72a126.1,126.1,0,0,0,8.51-23.49c4.82-19,8.66-38.28,11.82-57.65,1.54-9.45,3-18.91,4.52-28.35a19.61,19.61,0,0,1,1.73-5.57c1.29-2.6,5-2.66,6.77-.31a6.7,6.7,0,0,1,1.06,5.58c-.89,4.83-1.77,9.66-2.47,14.51Q701.2-416.82,693-382a139.86,139.86,0,0,1-11.61,32.5c-5.56,10.7-13.14,19.52-23.6,25.68-5.28,3.11-10.66,6.05-16,9.09-1.44.82-2.84,1.7-4.34,2.6.41,4,.76,7.65,1.18,11.29a199,199,0,0,0,19.76,67.44c12.82,25.59,32.48,44,58.05,56.38a46.13,46.13,0,0,0,11.81,3.95c8.35,1.53,8.36,1.75,16.13-1.56a13.27,13.27,0,0,0,4.62-3.41,14.4,14.4,0,0,0,2.87-5.08c.46-1.52.09-3.3.09-5l8.68-7.87c-1.14-5.13-2.16-9.9-3.25-14.66-4.23-18.42-7.95-36.92-10.1-55.73-1.59-13.95-1.66-27.93-1.57-41.92.15-20.15,1.55-40.23,5.37-60.05,3-15.42,6.21-30.78,9.27-46.17a53,53,0,0,0,.52-5.69c-2.46-1-4.54-1.76-6.47-2.76a4.94,4.94,0,0,1-2.22-5.73,4.4,4.4,0,0,1,5.3-2.85A28,28,0,0,1,763-429.7q25.77,11.77,51.49,23.64c1,.47,2.08.85,3.06,1.25,1.16-1.75.1-2.71-.43-3.68a126,126,0,0,0-14.55-21.22,18.91,18.91,0,0,1-3.09-4.91c-.72-1.75.17-3.36,1.67-4.49a3.61,3.61,0,0,1,4.14-.4,13.72,13.72,0,0,1,3.87,3.31c4.58,6.06,9.34,12,13.39,18.44,4.32,6.83,8.08,14,11.79,21.23a349,349,0,0,0,19.77,32.76C868-342.84,886.43-327,908.41-315.13c2.4,1.29,4.64,2.56,7.62,1.68a3.81,3.81,0,0,1,4.88,2.32c1.07,3.66,4,4.74,6.89,6.07A133,133,0,0,0,962-293.93a13.82,13.82,0,0,1,2.81.79c6.84,2.7,13.67,5.44,20.5,8.15A33.54,33.54,0,0,1,998-276.5c1.49,1.63,3.1,3.15,4.72,4.65a14.19,14.19,0,0,0,8,4.1c1.7-1.38,3.59-2.91,5.47-4.46A86.61,86.61,0,0,1,1038.75-286a20.62,20.62,0,0,1,4.88-1.47,4.2,4.2,0,0,1,4.49,3,3.93,3.93,0,0,1-1.84,4.44,33.34,33.34,0,0,1-4.52,2.44c-13,5.92-23.48,15-32.36,26.1a145.72,145.72,0,0,0-23.21,42.43c-4.15,11.59-6.7,23.59-8.7,35.71-1.5,9.17-3,18.35-3.42,27.83a279.81,279.81,0,0,0,25.09,21.68c25.75,19.29,52.45,37.19,79.41,54.72A44.06,44.06,0,0,0,1083-66.9c1-.84,1.84-1.4,2.54-2.06q10.14-9.65,20.25-19.32a508.64,508.64,0,0,0,63.88-74,182.93,182.93,0,0,0,26.21-54.07c2.67-8.94,5.1-18.05,4.36-27.48-.7-8.75.72-17,3.32-25.34,2.78-8.88,5.16-17.91,7.28-27a72.06,72.06,0,0,0,2.12-20.45c-.61-10.74-7.24-18.92-17.72-21.67-3.5-.92-7.1-1.48-10.9-2.26-.65-2.95-3.51-3.51-5.94-4.47a64.67,64.67,0,0,1-24.48-17.21c-5.73-6.39-11.19-13-16.72-19.6q-7.11-8.44-14.1-17c-.93-1.12-2.12-2.28-2.42-3.6-.63-2.71-2.6-4.12-4.51-5.6-6.8-5.24-13.5-10.64-20.56-15.52-21.4-14.8-42.82-29.56-64.47-44-21.24-14.15-42.78-27.84-63.14-43.29-7.42-5.63-15.06-11-22.8-16.18a110.55,110.55,0,0,1-35.66-38.55c-1.9-3.43-4-6.76-5.84-10.23-6.4-12.16-12.72-24.36-19.06-36.55-3.62-7-7.06-14-10.86-20.9-13.14-23.69-30-44.19-51.79-60.53a109.31,109.31,0,0,0-42.36-19.75A139,139,0,0,0,746-716.43c-18.39.47-36.78,1.29-55.18,2-4.13.16-8.26.41-12.55.62-.94,2.28-1.88,4.26-2.58,6.33a42.67,42.67,0,0,0-1.7,6.39c-1.76,10.15-3.5,20.31-5.09,30.49-2.69,17.21-5.64,34.39-7.77,51.67-3.28,26.55-6.09,53.15-8.84,79.76-3.32,32.22-6.35,64.48-9.52,96.72-2.9,29.56-5.28,59.16-6.13,88.86C636.35-344,636.08-334.5,637.24-323.88ZM275.09,1033.47c-1.91-.18-3.07-.36-4.23-.37-20.14-.14-40.22-1.2-60.29-2.82a565.24,565.24,0,0,1-67.7-9.67A672.12,672.12,0,0,1,61.2,998.74c-1.57-.53-3.21-.8-5.25-1.31-1.42,6.07-2.87,11.75-4.06,17.48-1.94,9.36-3.74,18.75-5.54,28.14a23.15,23.15,0,0,0,1.18,11.59,48.08,48.08,0,0,0,10.09,17.79c2.15,2.35,4.29,4.72,6.47,7a82.75,82.75,0,0,1,14.17,21.39,164.72,164.72,0,0,1,9.19,24.82c10,34.89,20,69.78,29.85,104.73,9,32.12,17.25,64.45,26.65,96.45,8.85,30.12,18.33,60.05,25.81,90.56,2.68,11,5.53,21.88,8.47,32.77,1.37,5,.54,9.65-1.72,14.24a34.9,34.9,0,0,1-10.3,12.31c-14.21,10.91-28.39,21.92-43.8,31.09-22.56,13.41-45.42,26.33-68.16,39.45-4.24,2.45-8.51,4.86-12.73,7.27-3.66,7.65-1.46,15.53-2.05,23.2A453,453,0,0,1,87.66,1617c13.62,12.74,27,25.75,40.51,38.6,1.9,1.81,3.31,4.32,6.34,5,7.37-3.22,14.91-6.07,23-7.47a216.27,216.27,0,0,1,68.88-.75,364.61,364.61,0,0,0,55,3.42,66.39,66.39,0,0,0,23.1-4c8.09-3,14.72-7.77,18.72-15.68,2.1-4.15,4.31-8.26,6.27-12.48a29.66,29.66,0,0,0,2.11-19.41c-1.95-8.6-3.5-17.34-6.12-25.74-7.29-23.42-14.93-46.72-22.68-70a130.65,130.65,0,0,1-6.62-30.1c-1.88-21.73-.86-43.1,6.39-64,8.06-23.16,15.48-46.55,23.64-69.68A297.54,297.54,0,0,0,342,1276.07a193.14,193.14,0,0,0-3.22-61.5c-3.44-15.7-9.73-30.32-16.74-44.68a141.62,141.62,0,0,0-23.89-35.19c-4.18-4.46-7.75-9.5-11.53-14.33-3.33-4.25-6-9.15-10-12.73-5.78-5.28-9-12.07-13.1-18.41-3.83-6-7.74-11.94-11.55-18a36.32,36.32,0,0,1-2.76-5.19,4.35,4.35,0,0,1,1.62-5.19,4.11,4.11,0,0,1,5.41.16,55.61,55.61,0,0,1,4,5.26c.67.88,1,2.27,2.37,1.87,1.39-5.86,2.28-11.74,4.25-17.23C268.9,1045.25,272,1039.92,275.09,1033.47ZM41.08-94.79a29.07,29.07,0,0,0-.46-4.32,94.35,94.35,0,0,1-3.07-23.29c-.26-10.06-1.09-20.12-.88-30.16.22-10.25-2.21-20.45-.38-30.69a2.63,2.63,0,0,0,0-.74c-1.16-11.46-1.76-23-3.58-34.39-6.28-39.33-28.19-68.83-59.17-92.45a4.58,4.58,0,0,0-4-1.19,6.08,6.08,0,0,1-6.54-2.31c-2.41-3-5.74-4.47-9.11-6a90.41,90.41,0,0,1-9.8-5,21.06,21.06,0,0,1-5.48-4.82c-5.84-7.42-4.66-15.63-2-23.78.33-1,2.2-1.87,3.49-2.14a3.64,3.64,0,0,1,4.16,2.34,10.18,10.18,0,0,1,.69,4.27,55.55,55.55,0,0,1-.94,5.8,8.68,8.68,0,0,0,2.17,7.54,27.84,27.84,0,0,0,16.71,8.33c2,.27,3.68.19,5.28,1.55,8.4,7.17,17,14.15,25.26,21.43a142.25,142.25,0,0,1,23,25.72c4.74,6.82,9.21,13.84,13.43,21,1.3,2.21,1.1,5.26,2.06,7.75,1.38,3.6,3.19,7,4.72,10.32,3.72.19,6.11-1.67,8.56-3.23A188.25,188.25,0,0,0,75.15-267c14-13.6,25.49-29.15,36.51-45.14a178.09,178.09,0,0,0,19.82-36.87c5.72-14.84,12.06-29.56,13-45.79a14.28,14.28,0,0,1,.48-2.9,3.55,3.55,0,0,1,1-1.92c4.5-3,7.28-8.81,14-8.4.52-9.1,1-17.9,1.53-26.7a426.37,426.37,0,0,1,6.8-54c5.14-26.51,12-52.61,19.24-78.6,10.68-38.27,21.23-76.57,30.57-115.2A141.1,141.1,0,0,0,220.6-697c.63-4.61.89-9.28,1.28-13.92.14-1.65.21-3.31.31-5a59.86,59.86,0,0,0-18.76-7.25,104.91,104.91,0,0,0-34.45-.66,97.64,97.64,0,0,0-45.17,18.56,146.18,146.18,0,0,0-46.94,58.48,174.39,174.39,0,0,0-6.76,18.66,347.68,347.68,0,0,1-14.17,37.88c-3.11,6.94-6.26,13.87-9,21-5.06,13-12.63,24.37-21.88,34.67-8.69,9.67-17.42,19.32-26.4,28.73-18,18.82-36.3,37.28-55.82,54.51C-71.59-438.64-83.84-424-95.1-408.42c-10.6,14.68-19.54,30-23.35,47.91a25.87,25.87,0,0,1-1.17,3.48c-4.62,12.77-11.75,23.7-23.14,31.5-4.45,3-8.93,6.06-13.39,9.1-2.43,1.65-5,3.14-7.26,5-7.29,6.05-12.08,15.56-8.16,26.26.84,2.3,1.53,4.68,2.56,6.89,2.18,4.66,4.57,9.23,6.81,13.86,1,2,2.17,3.94,2.55,6,1.29,7,2.26,14,3.31,21.08.14.94.42,2.38-.06,2.8-3.07,2.69-1.6,6-1.15,8.91,2.18,14.06,4.45,28.1,7,42.1a431.16,431.16,0,0,0,14.4,57.79c9.77,29.91,23.85,57.47,43.32,82.27,7.27,9.25,14,18.95,21,28.44.86,1.17,1.79,2.3,3.23,4.15C-53.85-29-37.85-45.49-19.78-59.89A231.06,231.06,0,0,1,41.08-94.79ZM802.94,1028.85c-4.35,1.3-7.86,2.3-11.35,3.38a264.52,264.52,0,0,1-51,10.92,349.92,349.92,0,0,1-44.86,1.55c-12-.3-24-.81-36.05-1.2-1.16,0-2.51-.32-3.09,1.68,3.8,5.09,7.87,10.3,11.66,15.71a28.2,28.2,0,0,0,11.16,9.25c8.15,4,16.11,8.36,24.14,12.61a32.07,32.07,0,0,1,4.38,2.68,4.66,4.66,0,0,1,1.66,5.86,4.42,4.42,0,0,1-5.56,2.3,18.86,18.86,0,0,1-3.35-1.48c-9.35-4.88-18.65-9.86-28-14.65a32,32,0,0,1-11.07-9.47c-5-6.63-10.31-13.11-15.4-19.71a46.89,46.89,0,0,1-3-5.08c-11.51-.89-23-1.57-34.53-1.4a.88.88,0,0,0-.57.33,3.72,3.72,0,0,0-.3,1c2,1.56,4,3.29,6.17,4.85a45.33,45.33,0,0,1,14.57,17.26c3.44,7.06,7.17,14,10.21,21.22q12.28,29.16,24,58.56c2.36,5.9,3.89,12.13,5.9,18.18,1,2.88.6,5.27-1.79,7.29a10.16,10.16,0,0,0-1.32,1.78c.42,4.16.87,8.3,1.25,12.44,1.72,18.82,2.86,37.69,5.76,56.39,3.23,20.71,8.39,40.83,17.59,59.77a311,311,0,0,0,28.6,47.16c19.8,27.17,39.77,54.22,59.58,81.39q15.41,21.12,30.48,42.46a98.48,98.48,0,0,1,6.39,10.75,22.14,22.14,0,0,1,2.24,13.55c-.6,4.75-3,8.73-4.45,13.1a87.3,87.3,0,0,1-11.75,24.42,11.27,11.27,0,0,0-2,9.76,60.71,60.71,0,0,0,3.84,11c2.38,4.83,5.36,9.36,8.09,14,.86,1.48,1.88,2.89,2.6,4.44,1.27,2.75.67,5.25-1.37,6.55s-4.62.8-6.47-1.5c-.92-1.14-1.57-2.49-2.45-3.67-.64-.85-1.45-1.56-3-3.14-.48,7.23-.88,13.32-1.3,19.4s-2.56,11.82-2.42,18.55c11-5.12,22.13-8.12,33.14-11.46a73.2,73.2,0,0,0,8.91-3.39,212.07,212.07,0,0,1,72.25-18.9c23.06-1.79,46.1-1.47,68.91,3.15,1.36.27,2.78.3,4.93.53-1.52-2.76-2.68-4.88-3.84-7-6.73-12.25-13.67-24.4-20.11-36.81-5-9.59-8.45-19.86-11.34-30.27-1.56-5.59-.61-7,5-9.4.38-.17.61-.69.9-1.05,0-11.86-5.6-26.81-13-34.18-.73,2.54-.09,4.91.28,7.26,1,6.31,2.06,12.6,3,18.9A17.36,17.36,0,0,1,946,1491a4.62,4.62,0,0,1-3.94,3.84,4.54,4.54,0,0,1-4.7-2.77,16.44,16.44,0,0,1-1-3.52c-2.67-14.74-4.47-29.59-5.88-44.5-2.13-22.48-4.34-44.94-6.41-67.43-2-21.75-3.85-43.51-5.8-65.26-1.14-12.71-2.09-25.44-3.57-38.11-1.93-16.59-6-32.81-9.09-49.19-4.27-22.62-13.45-43-26.8-61.58-.43-.6-.86-1.19-1.27-1.8q-12.72-19-25.43-37.91-12.32-18.33-24.66-36.65c-1.06-1.57-2.36-3-4.52-5.64.27,2.9.29,4.27.53,5.59,2.46,13.52,5,27,7.42,40.54a19.81,19.81,0,0,1,.34,5.09,4.39,4.39,0,0,1-4.1,3.59,4,4,0,0,1-4.24-2.32,28.45,28.45,0,0,1-1.56-5.63c-1.82-9.64-3.51-19.3-5.34-28.94-3.29-17.36-6.67-34.69-10-52C805,1040.79,804.06,1035.24,802.94,1028.85ZM311.48-703.54c-3.13,11.21-6.07,21-8.57,31-1.79,7.13-3.23,14.36-4.41,21.61-1.89,11.61-3.13,23.33-5.2,34.9-2,11.34-4.61,22.59-7.2,33.82-9.82,42.48-14.45,85.58-15.74,129.09-.16,5.64,0,11.31-.53,16.92-1.25,13-1.49,25.94,1.08,38.82a44.15,44.15,0,0,1,.72,5.84,376.3,376.3,0,0,0,4.84,40.17c2.75,16.25,6.76,32.16,13.25,47.37a34.71,34.71,0,0,0,4.06,7.79c11.3,14.5,25.2,25.49,43.28,30.1a139.06,139.06,0,0,0,43.82,3.91c11-.73,21.9-2.65,32.11-7.31,4.13-1.88,7.76-4.26,9.92-8.34a9.5,9.5,0,0,1,6.16-4.83c6.15-1.75,10.81-5.63,14.67-10.55,1.58-2,3.9-3.58,4.4-6.63-4.13-1.6-8-3.11-11.89-4.6a104,104,0,0,1-22.18-11.45,36.25,36.25,0,0,1-3.56-2.58c-2.15-1.9-2.58-4.55-1.21-6.58s4-2.38,6.63-1.07a19,19,0,0,1,2.47,1.6c9.51,6.77,20.24,11,31.14,14.76a54.59,54.59,0,0,0,5.78,1.36,64,64,0,0,0,4-5.53c4.88-8.49,10-16.86,14.4-25.62,10-20,17.94-40.86,25.13-62,9.24-27.16,18.26-54.4,27.46-81.58C539.45-522,552-560.94,563.23-600.34c4.23-14.85,9.53-29.4,13.64-44.29,7.55-27.42,14.59-55,21.79-82.51a20.65,20.65,0,0,0,.22-4.27c-7.86-4-14.32-9.67-22.38-13.82a35.3,35.3,0,0,0,0,4.19c1.44,10.33,5.08,19.92,9.84,29.14.56,1.08,1.32,2.07,1.83,3.18,1.33,2.87.9,5.24-1.07,6.6-2.18,1.5-4.77.76-6.92-2.07a23.84,23.84,0,0,1-2-3.11q-1.41-2.6-2.67-5.25c-6.7-14-9.58-28.8-10.25-44.14-.4-9.31-.57-18.64-.89-28-.05-1.38-.36-2.74-.58-4.35-10.38,3.81-20.12,7.67-30.05,11-10.19,3.4-20.55,6.28-31.12,9.47.13,2.39.19,4.57.38,6.74.5,5.71.67,11.3-3.56,16a9.81,9.81,0,0,0-1.25,2.65c-6.33,14.71-14.72,28.27-23.15,41.81a36,36,0,0,1-2.56,3.59c-2.51,3.12-5.78,4.82-9.71,3.6-4.41-1.36-7.69.22-10.61,3.17-3.62,3.66-7.06,7.5-10.67,11.17q-5.16,5.25-10.52,10.28c-4.25,4-9.07,5.76-14.81,3.24-.32-.14-.88.24-1.09.3-4.5,7-8.78,13.81-13.34,20.48a41.51,41.51,0,0,1-6.72,7.76c-9.52,8.36-16.77,6.63-23.29-.11-3.57-3.69-6.82-7.7-10.15-11.62-1.32-1.55-2.64-2.89-4.87-2.8-4.53.19-8-2.07-11.1-5-13.27-12.57-25.06-26.27-32.31-43.35A27.37,27.37,0,0,0,311.48-703.54Zm309.2-201.9c-3.2.59-5.67,2.72-8.5,4.09-4.51,2.19-8.2,1.05-10.43-3.37a20,20,0,0,1-1.7-5.58A66.56,66.56,0,0,1,601.33-938c1.13-4.48.58-8.2-3-11.34-5.59-5-9.37-11.28-13.32-17.51A51.33,51.33,0,0,1,577-991a8.78,8.78,0,0,0-1.62-4.7c-2.38-3.41-2.24-4.75.72-7.63,6.06-5.9,10.18-13.16,14.61-20.23,3.31-5.27,5.91-10.69,5.16-17.16a7.2,7.2,0,0,1,.12-1.46,150.18,150.18,0,0,0-8.81-65.11A17.24,17.24,0,0,0,584-1113c-10.4-11.47-21.35-22.35-34-31.42-5.37-3.86-11.25-6.19-17.78-6.12s-13.32.17-19.77,1.38c-20,3.75-38.5,11.39-54.88,23.73a42.55,42.55,0,0,1-6.11,4.09,8.77,8.77,0,0,1-11.26-2.28,27.1,27.1,0,0,1-3.11-5,51.06,51.06,0,0,1-6-24.77c.06-2.34.76-4.92-1.2-7.09a17.33,17.33,0,0,0-2.87-.36,92,92,0,0,0-44.59,13.38,21.17,21.17,0,0,0-5.55,4.76c-7.87,10-15.54,20.26-21.44,31.64-.87,1.68-1.47,3.5-2.1,5,.5.57.62.85.8.9a27.19,27.19,0,0,0,2.83.7,145.42,145.42,0,0,1,40.48,13,67.11,67.11,0,0,1,19.27,14.54c5.38,5.8,8.1,12.79,9.37,20.44a13.09,13.09,0,0,1-.07,4.37c-.41,2.38-1.85,4.13-4.34,4.33a14.17,14.17,0,0,1-5.74-.51,25.91,25.91,0,0,1-6.4-3.55c-6.66-4.88-14.21-7.71-22.06-9.81-14.84-4-30-4.67-45.27-4a8.61,8.61,0,0,0-2.19.82,65.12,65.12,0,0,1-6.8,22.36,18.62,18.62,0,0,0-1.89,11.43c1.59,9.92-1.32,18.94-5.62,27.65A26,26,0,0,1,315.52-992a27.44,27.44,0,0,0-9,8.56c-3.28,4.88-6.67,9.72-9.55,14.83a221.89,221.89,0,0,0-15.53,34.92c-5,14.21-8,28.8-8,44a40.08,40.08,0,0,0,5.44,20.36A129.86,129.86,0,0,0,295-847.4a23,23,0,0,0,3,2.31c2.26-5.39,4.74-10.23,6.31-15.35,2-6.39,9.71-10,16.83-5.84a16.63,16.63,0,0,1,8.14,10.9,36,36,0,0,1,.72,9.45,11.2,11.2,0,0,0,1.68,7c1.08,1.64,2.18,3.27,3.17,5,2.93,5,2.68,8.09-1,12.8-.88,1.13-1.87,2.19-2.9,3.38,2.41,4.59,1.66,8.5-1.37,12.45-2.82,3.67-2.53,6.5.36,10a26.28,26.28,0,0,0,20.6,9.74,14.06,14.06,0,0,0,5-1c6.11-2.32,7.79-7.53,4.23-13A36.22,36.22,0,0,0,357-803a37.66,37.66,0,0,1-2.84-3.36c-2.35-3.56-1.38-7.76,2.52-9.12,3.19-1.12,6.82-.94,10-2,6-2,11.58-.94,17.25,1,9.49,3.31,19,6.51,28.53,9.78a18.58,18.58,0,0,1,3.37,1.44c3.8,2.19,4.48,6.06,1.6,9.25-1,1.08-2.27,1.86-3.32,2.89-4,4-3.92,8.1.26,12.08,3.54,3.37,7.7,5.44,12.61,4.95a55.83,55.83,0,0,0,12.23-2.28c10.92-3.69,17.14-14.91,15-24.1a12.53,12.53,0,0,1-.35-2.18,7.29,7.29,0,0,1,3.33-6.93c1-.66,2.08-1.27,3.3-2a29.47,29.47,0,0,1,7.26-13.3,11.69,11.69,0,0,1,4.62-3.45c4.4-1.43,8.95-2.43,13.48-3.47,4-.92,5.32-.3,7.16,3.15q3.32,6.15,6.5,12.37a32.21,32.21,0,0,1,3.9,14.06c.08,3,0,5.89-2.26,8.26a4.06,4.06,0,0,0-1.29,2.53c.24,4.79-.14,9.72,2.08,14.4a27,27,0,0,0,3.21-.46,412.1,412.1,0,0,0,42.68-13.8,137.52,137.52,0,0,0,35.56-20.5c16-12.81,25.36-29.67,30.36-49.19a68.79,68.79,0,0,0,2.29-13.76,41.06,41.06,0,0,1,1.51-9.28c1.62-5.85,2.51-11.91,3.65-17.9C621.28-904.34,620.91-904.81,620.68-905.44Zm66.87-296.19c-14.31,11.24-24.61,25.16-29.52,42.8-1.32,4.71-2.12,9.57-3.17,14.36-.57,2.63-1,5.31-1.8,7.88-.93,3-2.86,5.39-6.3,5.16-2.64-.18-4.06,1.11-5.5,2.89-2.77,3.44-5.31,7.15-8.52,10.13-5.34,5-7.78,11.07-9,18q-2.64,15.22-5.76,30.35c-4.49,21.85-12.49,42.29-25,60.84-2.19,3.25-4.52,6.41-6.67,9.45.15,2.64.39,5.07.42,7.5a34.77,34.77,0,0,0,4.89,17.52c4,6.75,7.93,13.55,13.84,18.94a23.54,23.54,0,0,1,3.7,4.55A14.67,14.67,0,0,1,611.47-940c-.29,1.44-.52,2.9-.89,4.32a64.08,64.08,0,0,0-1.42,20.47c.07,1.12-.24,2.52,1.56,3.18a26.18,26.18,0,0,0,14.16-10.59,77.68,77.68,0,0,1,24.81-23.72c5.23-3.19,10.48-6.38,15.61-9.73,4.92-3.21,9.89-6.4,14.5-10,5.38-4.25,10.44-8.92,15.57-13.49,12.82-11.42,25.67-22.81,38.39-34.35,6.17-5.6,12.2-11.37,18-17.34a65.67,65.67,0,0,0,7.09-9.35c1.54-2.26,2.35-4.7,1.14-7.63s-.15-5.82,1.5-8.37c1.33-2.06,2.88-4,4.34-5.94,4.83-6.49,9.74-12.93,14.49-19.49,7.64-10.55,11.86-22.5,14-35.24a35.84,35.84,0,0,0-.31-14.62c-.63-2.54-1.8-4.49-4.61-5.14a17,17,0,0,1-4.1-1.58,8.28,8.28,0,0,1-4.73-9.12c.38-2.41,1.32-4.73,1.78-7.13,1.21-6.25,2.42-12.51,3.38-18.8.57-3.78,0-7.23-3.55-9.79-2.89-2.12-3.31-5.33-2.33-8.65.76-2.58,1.71-5.11,2.59-7.66,1.68-4.89,3.1-9.84,3-15.07a24,24,0,0,0-1-4.36c-1.67.48-2.83.76-3.94,1.15-14.64,5-28.87,11-42.18,19a32.3,32.3,0,0,1-6.52,3.32c-4.22,1.35-7.22-1-7.6-5.36-.14-1.57,1.36-3.34-.86-5-7.13,1.56-14.58,3-21.92,4.87C696.83-1200.08,692.36-1199.52,687.55-1201.63ZM1074.63-58.55C1068-63,1062-66.86,1056.15-70.84,1027.32-90.35,998-109.23,972-132.58a9,9,0,0,0-3.66-2.24c-5.41-1.21-10.75-1-15.69,1.86-6.4,3.73-11.27,8.64-12.32,16.42-1.21,9-5,16.79-9.94,24.27-17.83,27-35.49,54.13-53.22,81.21-1.21,1.85-2.53,3.62-3.71,5.49-6.25,9.88-14.88,17.5-23.8,24.79-2.21,1.8-5.11,2.84-7.8,3.93a25.75,25.75,0,0,1-5.72,1.34c-6.58,1-9.55,5.26-10.62,11.45a31.22,31.22,0,0,0,1.13,14.54c6.53,21.61,17.83,40.26,34.92,55.17a151.4,151.4,0,0,0,35.81,22.92c2,.93,3.9,2.19,6,2.68,12,2.81,22.21-2.61,26.66-14a79.72,79.72,0,0,0,2.73-8.39,25.85,25.85,0,0,1,6.5-11.36c4.43-4.59,8.64-9.4,13.26-13.78,13.72-13,27.58-25.8,41.4-38.67,14.37-13.39,28.4-27.11,41.24-42,9.25-10.7,19.33-20.14,32.18-26.38a36.72,36.72,0,0,0,6.62-4.61,21.1,21.1,0,0,0,3.54-3.71,14,14,0,0,0-1.43-18.71C1073.52-52.8,1073-55.11,1074.63-58.55ZM962.6-146c.51-2.24,1.07-4.11,1.34-6,1.13-7.77,2-15.57,3.27-23.32,4.86-30,14.9-57.87,34.3-81.79a15,15,0,0,0,1.28-2.1c-4.28-3.74-8.51-7.07-12.3-10.84a30,30,0,0,0-11.67-7.45c-9.74-3.32-19.52-6.5-29.28-9.77-7-2.33-13.92-4.73-20.89-7.05-1.27-.43-2.61-.64-4.14-1,0,2.7-.19,4.9,0,7.06a256.29,256.29,0,0,1,.12,44.84,212,212,0,0,1-18.91,73,104.33,104.33,0,0,1-7.64,13.39,36.94,36.94,0,0,1-6.28,7.17c-13.25,11.92-27.73,4.17-31.54-8.38a63.53,63.53,0,0,1-1.93-10.82c-.35-2.92-.16-5.89-.44-8.82-.29-3.15-.83-6.27-1.33-9.89-2,1.08-3.45,1.91-4.93,2.66-6.54,3.32-12.21,1.41-15-5.32a28.92,28.92,0,0,1-2-7.8c-1.53-13.16-3.05-26.32-4.26-39.5a345,345,0,0,0-9.77-55.74c-7.78-29.77-19-58.28-32.06-86.06-4.37-9.29-10.07-18-15.24-26.86a34.57,34.57,0,0,0-3.24-4,9.89,9.89,0,0,0-1.34,2.29c-2.53,12.49-4.8,25.05-7.58,37.48a94,94,0,0,0-1.21,32.14A479,479,0,0,0,775-264.43c4.75,16.53,11,32.5,17.19,48.53a116,116,0,0,1,6.36,21.1c.87,4.87,1.22,9.8,0,14.62a27.76,27.76,0,0,0,2.76,21.28c2.87,5.13,6,10.15,8.39,15.5,9.89,22,22.14,42.63,35,63,6.16,9.73,11.81,19.8,17.47,29.84a86,86,0,0,1,9.1,24.77c.22,1.07-.09,2.56,2.32,2.92a84.74,84.74,0,0,0,9.08-13.67,112.66,112.66,0,0,1,6.19-10.84q16.74-25.54,33.66-51c3.44-5.18,6-10.65,6.77-16.92a34.75,34.75,0,0,1,1.34-5.73,27.79,27.79,0,0,1,5.91-10.91c5.23-5.73,11.34-10.09,18.93-12.17ZM820.83,66.28c-3.73,4.08-6.64,7.75-10,10.89-7.93,7.32-16.13,14.35-24.16,21.56-7.47,6.7-15.68,12.61-21.93,20.6a5.81,5.81,0,0,1-1.63,1.46c-7.75,4.4-13.91,10.82-20.68,16.45a44.24,44.24,0,0,0-12.17,15.53,112.91,112.91,0,0,0-5.3,13.6,62.36,62.36,0,0,1-10,19.57c-4.46,5.85-9.11,11.56-13.79,17.24-8.78,10.63-9.22,11.9-7.67,26.26.87,8,2.79,15.9,4.21,23.85a19.74,19.74,0,0,1,.68,5.06c-.83,9.45,2.86,16.64,10.47,22,6.2,4.4,12.34,8.9,18.52,13.33,1.6,1.14,3.23,2.24,4.93,3.22,3.42,2,6.52,1.09,7.59-2.58a22.79,22.79,0,0,0,.61-7.95c-.29-4-2.17-7.55-4.35-10.82q-3.89-5.81-8.22-11.31A17.4,17.4,0,0,1,724,252.71a60.69,60.69,0,0,1,.3-6.61c1.39-10.21,2.83-20.41,4.41-30.59a8.09,8.09,0,0,1,2-4.52c1.89-1.72,2.13-3.66,2.28-5.91q.57-8.81,1.39-17.61a34,34,0,0,1,3.55-11.91c5.06-10.29,12.91-18.44,20.28-27a8.47,8.47,0,0,1,1.64-1.47,4.47,4.47,0,0,1,4.86-.28,4.28,4.28,0,0,1,2.17,5,13.91,13.91,0,0,1-2.38,4.46c-2.46,3.06-5.21,5.88-7.67,8.93a10.83,10.83,0,0,0-2.37,4.42c-.65,3.43-1.26,6.12-5.36,7.56-2.88,1-4.1,4.76-4.51,8-.72,5.59-1.3,11.2-1.8,16.81-.29,3.32-1.37,6.77,1.57,9.72.63.63.28,2.35.2,3.56-.82,13,.55,26,2.08,38.9a20.35,20.35,0,0,0,5,11.21,261.59,261.59,0,0,0,26.65,26.41,19.38,19.38,0,0,0,6.29,3.69c5.07,1.75,12.22-.9,11.71-8.88a12.92,12.92,0,0,0-1.33-4.91c-3.92-7.63-7.46-15.51-13.71-21.67-1-1-2-2.2-2.92-3.31a13.91,13.91,0,0,1-3.17-13c1.87-8.35,3.25-16.8,4.82-25.07-1.64-2.13-2.7-4.22-4.37-5.55a11.72,11.72,0,0,1-4.37-9A93.69,93.69,0,0,1,771.1,191c.89-11.12,7.85-18.15,16.75-23.66a4.72,4.72,0,0,1,6,.86,5,5,0,0,1-.38,6.7,24.41,24.41,0,0,1-4,3.23c-7.08,4.71-9.35,11.65-9.23,19.71.06,4,.77,7.68,4.09,10.57,1.82,1.57,3,3.83,4.55,5.76,10.32,13.12,20.54,26.32,31,39.31,4.46,5.53,9.41,10.68,14.19,15.94a25.1,25.1,0,0,0,11,7.14c4.78,1.52,9.55,1.81,14.58-1.08-1.29-1.47-2.34-2.74-3.46-3.94-7.39-7.87-14.81-15.71-22.16-23.62a35.28,35.28,0,0,1-4-5.25,4.74,4.74,0,0,1,1-6.56,4.58,4.58,0,0,1,6.06.43c1.26,1.15,2.27,2.56,3.43,3.83,6.47,7.05,12.89,14.15,19.47,21.09a113,113,0,0,0,8.7,7.94c3.42,2.92,7,3.82,11.51,1.79,11.38-5.17,22.91-10,34.36-15a11,11,0,0,0,2.19-1.6c1.74-12.43-4.81-32.67-13.82-42.13-4.58,4.84-10.2,8.6-14.24,14.21,2,1.81,3.6,3.26,5.19,4.78a46.44,46.44,0,0,1,9.55,13.87,4.47,4.47,0,0,1-1.75,5.81,4.33,4.33,0,0,1-6-.86,64,64,0,0,1-4.12-6.07c-2.6-3.92-5.55-7.43-10-9.5-5.26-2.44-5.27-2.89-4.76-8.34a9.39,9.39,0,0,1,3.42-6.23c6.79-6.39,13.6-12.77,20.24-19.32,3.31-3.27,6.26-6.9,9.38-10.36a20.92,20.92,0,0,0,5.39-16.29c-.13-1.71-.12-3.44-.31-5.15-.81-7.56-1.64-15.12-2.55-22.68a25.79,25.79,0,0,0-1.25-4.17c-2.71-.13-5.16-.14-7.58-.38-4.17-.42-8.31-1.15-12-3.27-4.23-2.46-8.24-5.3-12.47-7.75-24.21-14-43.17-33-55.14-58.55C823.24,70.43,822.2,68.78,820.83,66.28Zm82.76,1684.39a25.46,25.46,0,0,0,2.19,1.8c8.37,5.15,17.6,5.9,27,4.73a70.36,70.36,0,0,0,13.54-3.21c3.47-1.16,4.69-4.29,3.52-7.79a70.17,70.17,0,0,0-3.07-6.66c-1.54-3.4-2.41-6.74-1.49-10.66s.63-7.81,1-11.72c1.07-10.67-2.75-19.19-11.11-25.78-3.28-2.58-6.58-5.14-9.76-7.83a31.16,31.16,0,0,1-4.62-4.71,4.77,4.77,0,0,1,.4-6.64c1.73-1.54,3.9-1.63,6,.11,5.88,4.82,11.88,9.53,17.43,14.71a34.14,34.14,0,0,1,11.23,27.71q-.24,5.14-.56,10.29c-.37,5.84,2.35,11,3.88,16.34.37,1.3,1.67,2.39,2.7,3.43a18.24,18.24,0,0,0,11.11,5.3c8.46.87,16.58-1.1,24.34-4.42a4.16,4.16,0,0,0,2.58-4.82c-.56-2.87-.94-6-2.3-8.46a53.55,53.55,0,0,1-6.7-27.51c.16-6.53-3.05-11.85-8.52-15.47-4.07-2.7-8.41-5-12.65-7.45-1.69-1-3.53-1.73-5.13-2.84a4.32,4.32,0,0,1-1.49-5.24,4.8,4.8,0,0,1,5.44-2.75,13.09,13.09,0,0,1,2.08.71,77.07,77.07,0,0,1,19.07,11,26.25,26.25,0,0,1,10,15.87,81.48,81.48,0,0,1,1.18,12.4c.12,3.23.32,6.37,1.83,9.28,3.74,7.2,6.65,14.68,7.63,22.77a27.51,27.51,0,0,0,3.87.94c2.44.24,4.89.32,7.34.4,7.75.25,14.3-2.65,20.21-7.49,3.7-3,4.59-6.66,3.68-11.15-.71-3.55-2.74-6.23-5.06-8.8-5.12-5.67-8.26-12.16-8.11-20,.2-10.23-7.84-19.5-17.29-22.28-2.35-.7-4.76-1.17-7.1-1.88a15.15,15.15,0,0,1-4-1.74c-1.56-1.06-1.88-2.79-1.5-4.6a3.94,3.94,0,0,1,3.55-3.2,12,12,0,0,1,2.93,0c22.41,3.12,33.23,18.71,33.16,34.25,0,4.45,1.69,8,4.28,11.46,3.08,4.07,6,8.27,9.29,12.82,8.85,2.86,15-3.47,21.93-8a24,24,0,0,0-6.15-9.27,42.91,42.91,0,0,1-5.75,3.26,21.43,21.43,0,0,1-6.38,1.34,3.76,3.76,0,0,1-3.77-3,4.41,4.41,0,0,1,1.8-5.15,27.8,27.8,0,0,1,3.35-1.46l5.93-2.47c-.73-5.48-1.32-10.58-2.1-15.65a31.09,31.09,0,0,0-1.76-7.11c-1.22-2.94-2.93-5.92-6.37-6.59s-5.64-2.7-8.06-4.76c-3.55-3-7.18-6-10.84-8.84a230.6,230.6,0,0,0-53.5-32.06,146.49,146.49,0,0,0-44-11.27c-7.39-.67-14.72-.56-21.78,2.16-5.43,2.09-10.44,5.45-16.6,5.31a6.47,6.47,0,0,0-2.06.76,204.39,204.39,0,0,0-59.43,33.28,256.57,256.57,0,0,0-27.18,25.87,132.68,132.68,0,0,0-20.9,29.25,24.75,24.75,0,0,0-3,14.05c4.15,1.3,5.25,4.86,5.37,9.08,0,1.39.83,2.75,1.2,4.15s1,2.83.87,4.19c-.24,2.52,1,4.2,2.5,5.84,3.64,3.85,8.25,6.15,13.07,8a97.27,97.27,0,0,0,40.31,6.91c3.92-.19,7.85-.35,11.75-.72a89.5,89.5,0,0,0,21.51-4.7c1.28-.45,3.32-1.69,3.27-2.46-.26-3.88,2.77-5.76,4.84-7.76a12.33,12.33,0,0,0,3.71-7.62c.66-4.63,1.26-9.27-1.28-13.63-2.33-4-4.3-8.3-7-12.06-3.41-4.76-4.9-10.06-5.93-15.66-.88-4.82-1.72-9.67-3.06-14.38-1.7-6-5.4-10.4-11.65-12.2-.94-.28-1.92-.46-2.82-.83a4.38,4.38,0,0,1-2.92-4.6,4.5,4.5,0,0,1,3.78-4,13.91,13.91,0,0,1,5.07.27,23.44,23.44,0,0,1,10.09,5.81,31.21,31.21,0,0,1,8.76,16.68c1.06,5,1.86,10.13,3,15.14a20.54,20.54,0,0,0,2.68,6.76c3.56,5.27,6,11.17,9.35,16.53,1,1.58,1.22,3.7,1.61,5.6.34,1.64.41,3.33.65,5.45,6.41,0,12.47.2,18.55-.23a35.38,35.38,0,0,1,6.59,0,3.84,3.84,0,0,1,3.27,3.51,4.07,4.07,0,0,1-2,4.4,10.29,10.29,0,0,1-3.46,1.09,74.51,74.51,0,0,1-23.78.32C905.83,1743.88,904.78,1747.06,903.59,1750.67ZM70.55,73.08c-.93-2.69-1.48-4.53-2.18-6.31C58,40.24,56,13,60.77-15,63-28.12,66.71-40.81,70.69-53.44c2.78-8.81,1.25-17-2.88-24.82-1.55-2.94-4.19-5.4-6.67-7.72a7.85,7.85,0,0,0-7.62-1.6c-1.9.51-3.76,1.13-5.63,1.74A178.3,178.3,0,0,0,15.72-71.38c-33,18.71-60.1,44-82.52,74.35a126,126,0,0,0-9.7,16.46,62.44,62.44,0,0,0-4.24,11,25.22,25.22,0,0,0,.33,15.92c1.32,3.8,3.62,6.34,8.28,6.4.81-1.3,1.73-2.71,2.58-4.17a207.24,207.24,0,0,1,19.07-27,24.72,24.72,0,0,1,4.22-4c1.39-1.06,3.42-.48,4.56,1A4.72,4.72,0,0,1-41.13,24a46,46,0,0,1-3.32,4.83c-5,7-10.11,13.88-15,20.91a72.65,72.65,0,0,0-3.9,6.93c7.08,9.7,12.29,20,17.58,30.22C-40.17,97.74-34.66,108.7-29,119.6a24.31,24.31,0,0,0,2.66,3.4c1.78-1.71,3.19-3.06,4.59-4.42C-10,107.1,2,95.85,15,85.73c1.54-1.2,3.13-2.37,4.78-3.42a3.42,3.42,0,0,1,4.11.34,3.87,3.87,0,0,1,1.38,4.58,10.83,10.83,0,0,1-2,3,37.94,37.94,0,0,1-3.91,3.35A400.37,400.37,0,0,0-12,121.48a108.2,108.2,0,0,0-14.46,16.57c-6.56,9.59-6.24,22.27,1.1,30.78,2.31,2.68,5,4.69,8.65,5.15,1.69.22,3.5,0,5.09.44,1.44.43,2.67,1.58,4.51,2.74a36.43,36.43,0,0,1,12-17.92c3.07-2.54,3.59-6,2.9-10-1.61-9.21.8-17.51,6.65-24.79,5.73-7.13,12-13.64,20.91-16.88.26-9.61,6-16,12-22.28S61.1,75.23,70.55,73.08Zm215-847.2c1.51.13,2,.21,2.46.2s1-.2,1.45-.18c5,.26,7.12,2.2,7.69,7a18.08,18.08,0,0,1,.12,2.21c0,13.65,3.23,26.73,7.27,39.64a24.67,24.67,0,0,0,1.8,3.64c8.11-.9,10,.19,12.57,7.18.68,1.84,1.09,3.78,1.83,5.59A113.77,113.77,0,0,0,326-696.67c6.67,12.18,15.76,22.46,25.78,31.95a7.92,7.92,0,0,0,5.87,2.59c4.56-.14,7.91,2.22,10.65,5.61,1.7,2.1,3.23,4.34,5.06,6.32,2.32,2.52,4.81,4.89,7.33,7.21a3.55,3.55,0,0,0,4.75.3c2.32-1.76,4.86-3.51,6.52-5.82,4.28-6,8.16-12.23,12.16-18.39,1.47-2.26,2.63-4.74,4.27-6.85,2.52-3.22,5.83-4.35,9.81-2.74,1.32.54,2.68,1,4,1.44,4.69-2.94,8.18-6.72,11.69-10.49,3.84-4.14,7.64-8.31,11.61-12.31,4.73-4.77,10.28-7.5,17.26-6.1a9.92,9.92,0,0,0,2.46-.18c.89-1.27,1.95-2.61,2.84-4,3.32-5.44,6.83-10.79,9.83-16.41C482.7-733.66,487.06-743,492-752a12.51,12.51,0,0,0,1.62-8.39c-.77-4.82-1.41-9.66-2-14.51-.48-4.13-.57-8.32-1.15-12.44-.87-6.24-1-12.24,3.52-17-1-7.42-4.56-13.16-8.62-19-2.33.63-4.41,1.55-6.53,1.68-3.15.2-4.75,2.13-6.36,4.38a10.19,10.19,0,0,0-1.82,6.23,6.51,6.51,0,0,1-3.65,6c-1,.58-2,1.24-2.89,1.76-.09.81-.17,1.3-.18,1.78,0,.74,0,1.48.05,2.21.16,11.56-5.08,20.2-14.46,26.55-7,4.72-14.82,6-23.09,6.21-7.92.16-14.29-2.89-19.68-8.4s-6.69-11.77-3.81-18.92c.6-1.5,1.12-3,1.78-4.81l-20.46-7.39c-1.84-.66-3.69-1.33-5.55-2a13.38,13.38,0,0,0-11.65,1c.92,2,1.93,3.86,2.75,5.84a17,17,0,0,1-7.08,21.73c-3.85,2.29-8,3.82-12.55,3.61-11.39-.53-20.92-4.89-28.07-13.91-4.92-6.2-5.74-12.84-1.51-19.8.5-.83,1-1.68,1.66-2.82-4-6.61,0-11.36,4.41-15.73a13.42,13.42,0,0,0-1.1-2.34c-4-5.3-6.16-11.09-5-17.86a7.8,7.8,0,0,0-.16-2.92c-.64-3-1.81-5.56-5.14-6.86-3.43,3.72-5.05,8.26-6.48,12.67,3.78,6,3.83,6.79,1.64,13.26-2.68,7.89-5.33,15.79-7.89,23.72a20.77,20.77,0,0,1-3.78,7C292.27-793.58,288.29-784.45,285.54-774.12ZM-171.28,1656.94a40.74,40.74,0,0,0,0,5q2.23,13.42,4.58,26.84a14.71,14.71,0,0,0,4,7.77,137.57,137.57,0,0,0,10.56,10.22c19.64,16.34,42.22,26.55,67.12,31.89,21.92,4.7,44.18,6.45,66.5,7.18,14.71.49,29.45.16,44.18.11a29.39,29.39,0,0,0,6.53-.8c4.3-1,8.51-2.37,12.81-3.33,11.24-2.5,22.51-4.9,33.79-7.27,14.63-3.08,29.19-6.69,44-9a631.05,631.05,0,0,1,75.44-7c20.84-.7,41.71-.49,62.54-2,14.43-1.06,28.92-1.31,43.39-1.8a63.63,63.63,0,0,0,22.23-4.53A101.13,101.13,0,0,0,345,1700c1.41-1,2.71-2,3.6-2.73,0-12,0-23.08,0-34.12a13.84,13.84,0,0,0-.59-2.49l-3.42,1.24c-3.21,1.21-6.36,2.58-9.63,3.6-7.53,2.35-15.34,3.27-23.17,3.89-9.05.72-18.12,1.2-27.17,1.89-1.92.15-4.17.18-5.64,1.19a19,19,0,0,1-9.69,3c-5.86.46-11.72,1.17-17.59,1.23-14,.14-28-.19-41.94-.06-12.52.12-25,.74-37.53.91-12.77.17-25.28,2.87-38,3.68-5.79.36-11.52,2.27-17.18,3.85-17,4.75-34,9.67-50.93,14.54a158.66,158.66,0,0,1-45,6.7c-14.48-.08-29-.21-43.43-.25a44.78,44.78,0,0,0-8,.5q-14.48,2.55-28.9,5.45a79.92,79.92,0,0,0-11.29,3.11,41.56,41.56,0,0,1-18,2.62,81.27,81.27,0,0,1-28.26-7.64,46.38,46.38,0,0,1-17.56-14.23,18.39,18.39,0,0,0-3.3-3.91c-4.54-3.51-8-8-11.26-12.57a33.08,33.08,0,0,0-8.16-8.4,40.1,40.1,0,0,1-10.51-10.19A45.59,45.59,0,0,0-171.28,1656.94ZM78-78.62c1-2.82,1.65-4.37,2.14-6,9.38-30.22,20.42-59.87,31.71-89.4a738.77,738.77,0,0,1,49.55-105c3.18-5.52,4-10.83,2.13-16.83-1-3.26-1.57-6.68-2.48-10a26.1,26.1,0,0,1,1-16.61,103.69,103.69,0,0,1,4.64-10c1.32-2.6,2.87-5.09,4.34-7.66l-1.85-5c-.59-1.61-1.21-3.21-1.76-4.84s-1.07-3.26-1.56-4.9-.93-3.3-1.35-5-.82-3.33-1.13-5c-.36-1.93-.59-3.88-.9-5.82-.27-1.69-.62-3.38-.84-5.08s-.32-3.42-.5-5.12-.44-3.41-.59-5.12-.15-3.43-.28-5.14c-.12-1.54.24-3.24-1.37-5.37-1.31,3-2.43,5.08-3.21,7.32q-4.56,13.22-8.94,26.48c-4.53,13.78-9.88,27.24-17.17,39.77a305.76,305.76,0,0,1-41.88,56.71c-14,14.84-29.7,27.61-48.56,37,2.72,8.46,2.13,17.76,5.57,26.3a10,10,0,0,1,.48,3.63c.09,13.73.12,27.45.19,41.18,0,4.41-.12,8.83.18,13.22.78,11.25,1.79,22.49,2.64,33.74a68.39,68.39,0,0,0,2,12.89C64.86-100.48,71.17-90.29,78-78.62ZM604.41-1195.73c-1.09-.85-2.12-1.79-3.28-2.54-16.34-10.5-34.52-16.3-53.22-20.74a13.1,13.1,0,0,0-5.81,0c-19.2,4.53-38,10-53.65,22.89a6.64,6.64,0,0,1-3.18,1.65,4.27,4.27,0,0,1-3.22-1.07,4,4,0,0,1-.75-3.32,7.49,7.49,0,0,1,2.59-3.43c4.15-3,8.3-6.11,12.71-8.73a113.32,113.32,0,0,1,22.92-9.91c1.13-.37,2.41-.65,2.44-2.47-16.58-2.27-33.22-2.38-49.88-1.6a14.65,14.65,0,0,0-6.23,1.94c-9.4,5.3-18.89,10.48-27.94,16.34-5.31,3.43-10.05,7.84-14.67,12.21a47.56,47.56,0,0,0-10.2,14.32c-1.56,3.28-3,6.67-1.66,10.87,2.14-.14,4-.25,5.93-.39,3.66-.26,7.33-.81,11-.77,9.29.1,12.16,3,12.56,12.44.16,3.68.08,7.37.33,11,.39,5.75,2.51,10.89,6.62,16.43,1.76-1.14,3.63-2.18,5.32-3.48,9.62-7.4,20.34-12.79,31.59-17.15,14.51-5.63,29.43-9.37,45.15-9.21a43.55,43.55,0,0,1,26.12,8.48c14.94,11,28,23.91,39.88,38a12.53,12.53,0,0,1,2.65,5.13c2.74,12.19,5.38,24.41,6.66,36.87.19,1.85.73,3.67,1.21,6,.71-.9,1.13-1.2,1.2-1.56,1.56-7.69,3-15.4,4.63-23.09,1.37-6.71,2.74-13.43,4.31-20.1a24.84,24.84,0,0,1,6.54-11.34c3.52-3.75,6.81-7.73,10.07-11.72,3.13-3.82,6.12-7.73,10.85-8.79,3-5.31,1.86-9.68-.78-14.29a99.18,99.18,0,0,0-16.44-21.6,12.51,12.51,0,0,0-6.14-3.82c-8.9-1.92-17.87-3.65-27-2.71-7.06.73-14.09,2-21.07,3.3-9,1.7-17.32,5.3-25.28,9.78a35.72,35.72,0,0,1-5.23,2.66,4.49,4.49,0,0,1-5.64-2.21,4.32,4.32,0,0,1,1.07-5.34,21.56,21.56,0,0,1,3.57-2.57,96.58,96.58,0,0,1,24.25-10.46A178.79,178.79,0,0,1,604.41-1195.73ZM782.6-410.11c1.39,2.45,2,3.51,2.59,4.54A240.48,240.48,0,0,1,802-373.67c3.92,9.26,7.82,18.53,11.52,27.88,14.94,37.65,24.68,76.51,27.33,117.05.56,8.57,1.7,17.09,2.66,25.62a22.77,22.77,0,0,0,2.66,9.46,37.64,37.64,0,0,0,3.33-1.77c1.42-.95,2.67-2.2,4.14-3,3.66-2.1,7.24-1.35,9.69,2.09a14,14,0,0,1,2.2,4.6,59.39,59.39,0,0,1,1.53,8.67c.53,5.38.64,10.8,1.31,16.15a24.93,24.93,0,0,0,2.43,8.37c2.62,5,7.88,6.28,12.48,3a28.76,28.76,0,0,0,7.15-7.28A81.12,81.12,0,0,0,898.1-177c3.75-9.32,7.29-18.76,10.19-28.37,5.59-18.45,7.27-37.52,7.65-56.72a255,255,0,0,0-2-35.26,7.29,7.29,0,0,0-4.28-6.28c-4.58-2.35-9-5-13.45-7.6a146.85,146.85,0,0,1-50.44-47.52c-5.22-8-10.17-16.21-15.2-24.35a14.5,14.5,0,0,0-4.17-4.95c-12.46-8.45-26-14.73-39.67-20.89A36.06,36.06,0,0,0,782.6-410.11Zm-405.28-851.1c-1.07,0-2,0-3,0-4.31.12-7.63-1.48-9.62-5.45-.21-.44-.53-.83-.77-1.25a6.81,6.81,0,0,0-6.13-3.4c-4.31-.15-8.41.75-11.68,3.61a104.7,104.7,0,0,0-11,10.75c-11.34,13.35-20,28.47-27.8,44.07-1.21,2.41-2.36,4.85-3.62,7.23-1.44,2.7-3.45,5-6.62,5.31s-4.72,2.48-5.42,5.19a142.05,142.05,0,0,0-3.37,15.05c-2.88,20-2.64,40.1-.36,60.16.9,7.94,1,8.22-2.58,14.85a77,77,0,0,0,9.23,26,314.88,314.88,0,0,0,23.27,34.85c1,1.32,2.25,2.51,4.06,4.51,2.53-8.69,8.46-15.48,7.45-24.94-2.35,0-4.27,0-6.2,0s-3.93.21-5.88.09c-5.47-.33-7.76-2.59-8.6-8.08a14.85,14.85,0,0,0-1.07-4.14c-3.9-8.19-1.86-13.61,6.48-16.81,2.26-.86,4.58-1.58,7-2.42,1.14-6.08,5.57-7.77,10.77-8.44a67.73,67.73,0,0,0,11.21-2,50.62,50.62,0,0,0,.92-5.67c.23-3.9-.21-7.89.45-11.7,2.69-15.58,7.35-30.58,15.83-44,16-25.3,37.29-44.67,64.71-57,1.29-.59,2.51-1.32,4.07-2.15-1.13-3.33.12-7.13-3.59-9.47-1.15.23-2.37.4-3.53.73-1.88.55-3.74,1.17-5.59,1.82-6.55,2.32-7,2.2-11.92-3.23-.29-.32-.87-.37-2-.82-3.62,1.17-7.81,2.5-12,3.88-1.39.46-2.7,1.19-4.12,1.53-5.53,1.32-9.26-1.6-9.27-7.21a19.28,19.28,0,0,1,.36-2.91c.51-3.39,1.06-6.78,1.55-10.18C379.31-1255.56,379.71-1258.26,377.32-1261.21ZM1064.43,805.37c-1.63-3.19-3-5.79-4.31-8.43Q962.86,599.6,865.59,402.24,838.43,347.13,811.23,292c-1.13-2.3-1.75-5-4.59-7a24.83,24.83,0,0,1-9,19c1.27,2.8,2.33,5.26,3.48,7.67q114.74,240.4,229.48,480.79c2.1,4.38,3.65,9.09,7.53,12.47,1,.9,1.5,2.51,2.09,3.85,4.89,11.12,7.92,22.65,7.87,34.9,0,2.66-.41,5.38.66,7.93,6.36.53,7,.2,9.38-4.61,3.39-7,5.61-14.14,4.25-22-.17-1-.09-2-.23-2.93A29.66,29.66,0,0,1,1064.43,805.37ZM138.72,212.1c2.83,1.14,5.51,2.29,8.24,3.29,47.42,17.52,96.67,27.2,146.59,33.89,14.34,1.92,28.73,3.46,43.12,4.91,18.79,1.9,37.58,4,56.42,5.15,21.78,1.38,43.61,2.41,65.43,2.61,19.86.19,39.75-.43,59.57-1.61,17.37-1,34.71-3,52-5.19,17.74-2.28,35.49-4.83,53-8.25,17.78-3.48,35.35-8.09,53-12.4,2.73-.67,5.63-1.56,7.89-3.64-.35-3.38-.89-6.53-.93-9.68,0-3.35.4-6.69.64-10.32-1.14.3-2,.51-2.95.78a528.44,528.44,0,0,1-60.06,14.28c-26.1,4.58-52.34,8-78.71,10.62-21.51,2.12-43.06,3.16-64.65,3.36-15.2.14-30.41-.37-45.62-.68-7.35-.15-14.73-.21-22.06-.82q-37.39-3.09-74.75-6.6c-22.71-2.14-45.34-4.93-67.86-8.63-40.95-6.73-81.36-15.62-120.42-30-2.27-.83-4.52-1.89-7.41-.88.14,3,.43,6.18.37,9.32S139.06,208,138.72,212.1Zm643,1525.23a27.67,27.67,0,0,0-.49,3.67,245.19,245.19,0,0,0,3.34,36.59,11.25,11.25,0,0,0,4.2,7.5,88.44,88.44,0,0,0,9,6.31c6.18,3.61,13,5.7,19.88,7.51,13.8,3.62,27.89,5.33,42.08,6.52,25.76,2.17,51.45,1,77.11-1.37,10.73-1,21.42-2.5,32.12-3.86,8.26-1,16.57-1.88,24.75-3.39,26.37-4.87,50.48-15.56,73.35-29.26,1.47-.89,2.85-1.91,4.25-2.9a16.44,16.44,0,0,0,6.68-10.18c1.52-6.58.69-13.18.73-19.78,0-3.7-1.87-5.27-5.48-5.89-5.13,3.39-11.51,2.67-16.77,3.67-2.33,3.64-3.88,7.08-6.33,9.68a38.23,38.23,0,0,1-22.44,11.59c-5.94.94-11.76.07-17.58-.59a17.74,17.74,0,0,0-9.1,1.37c-13.51,5.39-27.25,8.31-41.19,1.18a4.6,4.6,0,0,0-1.08-.07c-4,6.34-10.65,8.52-17.79,10-6.07,1.27-12.15,1.35-18.29,1.31a42.57,42.57,0,0,1-20.4-5.36c-1.68-.92-3.43-1.72-5.2-2.6-5.23,3.92-11.07,5.73-17.06,7.14a130.58,130.58,0,0,1-41.64,3,100.21,100.21,0,0,1-35.92-10c-7.7-3.83-13.85-9.23-16.66-17.73a11,11,0,0,0-1.76-3.19C783.68,1737.79,782.82,1737.74,781.7,1737.33Zm291.51-934.81c6.1,2.35,10.94,7.2,15.43,12.44a54.08,54.08,0,0,0,14,11.78c4.64,2.67,7.57,1.08,7.8-4.28a11.33,11.33,0,0,0-.81-5,71.44,71.44,0,0,0-5.14-9.71c-2-3.07-4.51-5.81-6.79-8.7-1.37-1.74-2.63-3.44-5.25-3.53-2.13-.08-3.44-1.74-4.39-3.53-1.15-2.17-2.21-4.38-3.31-6.58Q960.92,537.57,837.08,289.72a45.19,45.19,0,0,0-9.33-13c-5.68-5.38-10.65-11.53-15.79-17.46-3.22-3.7-6.18-7.62-9.3-11.41a23.27,23.27,0,0,0-2.29-2.14,24.67,24.67,0,0,0,2.61,7.69Q935.37,522.1,1067.75,790.75C1069.58,794.47,1071.24,798.26,1073.21,802.52Zm-1044,753.25a10.37,10.37,0,0,0-2.34-.94,266.36,266.36,0,0,0-41.12,1.26c-5.29.63-9.62,3.47-13.35,7.23a7.43,7.43,0,0,0-2.15,4.52c-1.83,14.1-4.06,28.16-5.51,42.29a277.12,277.12,0,0,0-1.26,29.39c.09,16.47,2.45,32.75,5.32,48.94a34.76,34.76,0,0,0,1.72,5c6.06.5,11.91.84,17.74,1.48,18.48,2,36.71.27,54.81-3.55a25.94,25.94,0,0,0,4.16-1.7c-1.91-5.47-3.69-10.52-5.46-15.58C34,1652,29.48,1629.27,29.87,1605.68c.17-10.3.17-20.61.23-30.91,0-3.92.08-7.85-.07-11.77C29.94,1560.6,29.49,1558.21,29.19,1555.77ZM99.55,235.14c-3.63,8-7.33,15.22-10.2,22.75-6.82,17.86-14,35.56-20.37,53.62-9,25.7-19,51.06-28.52,76.55Q-48.44,624.72-137.4,861.35c-1.27,3.39-3,6.61-4.87,10.66.58,8.87,1,10.24,4.84,14.13a26.56,26.56,0,0,0,3-3.9,68.46,68.46,0,0,0,2.76-6.82L84.43,308.8q11-28.87,22-57.77c1.12-2.94,2.65-5.86,1.56-9.63C105.61,239.54,103.45,236.84,99.55,235.14Zm947.6,1392.22c-4.15-8.78-10-16-18.15-20.78-5.68-3.35-11.69-6.18-17.68-9a27.36,27.36,0,0,0-12.76-3.09c-1.36,0-3.27-.28-4.06-1.19-3.24-3.74-7.85-3.93-12-4.86a213.63,213.63,0,0,0-46.72-4.92,225.76,225.76,0,0,0-74.44,12.17,142.16,142.16,0,0,0-47.59,27.23c-2,1.77-4.1,3.54-6,5.48-18,18.66-33.81,38.85-44.78,62.56-1.55,3.37-2.08,6.45-.9,9.88.16.47.21,1,.35,1.43,2.05,6.65,9.73,14.91,17,18.28.93-4,1.65-8.06,2.83-12,2.36-7.85,6.66-14.72,11.45-21.3a240.18,240.18,0,0,1,33.78-36.83c28.4-25.59,61.79-41.44,98.81-49.67a155.94,155.94,0,0,1,67.21-.63c20.06,4.31,38.46,11.69,53,26.8A3.39,3.39,0,0,0,1047.15,1627.36Zm-430.48-2424c3.13,20.67,11.5,38.7,23.31,56a30.06,30.06,0,0,1,12.65,7.24c1.53,1.51,3.45,1.6,5.49,1.23,6.21-1.11,11,1.09,14.57,6.27a11.57,11.57,0,0,0,1.83,1.65,67.65,67.65,0,0,0,7.12.45c13-.49,25.94-1.08,38.91-1.7,1.07,0,2.52.28,3-1.29a6.13,6.13,0,0,0-.47-1.41c-19-28.88-39.73-56.53-61.22-83.6-1.48-1.86-2.93-3.9-5.26-4.74C646.53-807.92,639.16-804,616.67-796.64Zm-493,976.79c-11.15-4.05-20-11.23-27.73-20.05-3.87-4.44-7.7-8.91-11.63-13.29-5.41-6-11-11.85-16.32-18-5.42-6.31-12.3-9.53-20.33-10.71a39.53,39.53,0,0,1-4.34-.82c-5-1.33-9.27.13-12.94,3.4-2.75,2.43-5.23,5.16-7.75,7.85-6.12,6.54-6.91,14.33-5.19,22.68a4.77,4.77,0,0,0,3.67,4.12c3.81.91,7.59,2,11.43,2.75a45.21,45.21,0,0,1,21.15,9.71c7.49,6.34,15,12.62,22.45,19,8.71,7.53,17.21,15.32,26,22.72a60.18,60.18,0,0,0,11.61,7.67c5.21,2.62,9.47,1.17,12.68-3.75a21.21,21.21,0,0,0,2.07-20.35C126.93,189.05,125.46,184.93,123.67,180.15ZM-67,1622.33c-3.93,1.54-7.59,2.93-11.22,4.39a22.88,22.88,0,0,0-12.68,11.62,102.41,102.41,0,0,1-8.41,13.79,28,28,0,0,1-14.52,10.8c-1.82.6-3.55,1.44-5.4,2.2,8.4,12.72,22.17,17.09,37.09,11.84.18-1.24.33-2.65.6-4a4.12,4.12,0,0,1,3.38-3.44,4.46,4.46,0,0,1,4.6,1.65c3.15,3.84,4.38,10.74-2.69,14.19a25,25,0,0,1-3.41,1.36c-16.84,5.25-31.44,1.39-43.88-10.94-2.25-2.23-4.23-4.73-6.42-7-.75-.79-2.88-.08-3,1a15,15,0,0,0-.15,2.91c.65,11.11,5.84,19.89,15.07,25.63,12.62,7.83,26.17,12.46,41.28,7.56a20.34,20.34,0,0,1,2.11-.63c11.5-2.46,19.11-9.28,23.06-20.34,2.14-6,2.23-6,8.46-8.43-.75-6.93-1.65-14-2.22-21s-.78-14.13-1.16-21.24Zm194,49.81c-.19-4-2.41-6.43-4.83-8.91-17.63-18.14-36.19-35.3-55.34-51.82-7.61-6.57-15.68-12.6-23.58-18.84a31.43,31.43,0,0,0-3.82-2.07c-.38,20.25-.26,39.45,4.72,57.47,4.59,3.56,8.63,6.37,12.29,9.61,8.26,7.32,16.32,14.87,24.48,22.3,1.61,1.46,3.28,2.84,4.9,4.24ZM630.76-287.29a28.5,28.5,0,0,0,0-3.56,311.66,311.66,0,0,1-3.52-44.73c-.32-20.64.77-41.22,2.46-61.78,2.07-25.19,4.19-50.37,6.53-75.54,2-22,4.56-43.93,6.64-65.91,3.33-35.18,6.64-70.37,12.2-105.28,3.48-21.78,5.86-43.77,11.08-65.27a10.73,10.73,0,0,0-1.08-8.5,40.94,40.94,0,0,1-2.12-4.46c-5.3-.24-5.76,0-6.33,3.87-.07.48-.07,1-.14,1.46-2.2,15.29-4.15,30.62-6.65,45.86q-6.69,40.68-10.89,81.7c-2.3,22.45-4.29,44.94-6.45,67.41-2.92,30.29-6.12,60.55-8.77,90.86-2.37,27.14-4.37,54.31-4.23,81.59,0,4.41.21,8.89-.45,13.23s.34,8.29.78,12.4c.28,2.66,1.05,5.28,1.24,7.94.66,9.18,3.88,17.7,6.5,26.37C627.8-288.79,629.29-288.32,630.76-287.29ZM93.11,217.41c-.78-3.68-3.11-5.2-5.09-7-6.19-5.59-12.36-11.21-18.61-16.73-5.51-4.87-11.18-9.57-16.68-14.45-7.53-6.69-16.06-11.14-26.15-12.41a45.79,45.79,0,0,1-5.73-1.35c-4.69-1.23-8.7.18-12.26,3.19a19.64,19.64,0,0,0-6,9.12c-.61,1.86-.74,4-1.69,5.62-3,5.34-1.45,10,1.92,14.29,2.72,3.45,5.93,6.52,8.86,9.82A16.41,16.41,0,0,0,19.15,212c15.83,5.23,31.67,10.41,47.41,15.88,5.76,2,11.26,4.8,16.89,7.2,1,.44,2.17.75,3.52,1.21,1.71-4.13,4.15-7.56,2.45-12.13-.39-1,.62-2.72,1.28-3.94A17.5,17.5,0,0,1,93.11,217.41ZM758.05-155.54c-.53,5.8,1,10.75,2.21,15.7,5.07,21.13,13.32,41,23.6,60.1,10,18.57,19.6,37.36,29.24,56.12,6.18,12,11.54,24.39,14.37,37.71a10.12,10.12,0,0,0,1.19,2.16c4-1,8.11-1.75,12.06-2.94,3.36-1,4.22-2.61,4-6.07-.09-1.22-.29-2.43-.47-3.65a126.86,126.86,0,0,0-12.5-39.08Q827.1-44.68,822-53.63q-17.4-30.32-35-60.52c-7.18-12.37-13.07-25.26-16.6-39.17-.35-1.39-.91-2.72-1.48-4.38ZM134.54,171.65a89.43,89.43,0,0,0,2.85-9.36,17.86,17.86,0,0,0,.07-7.28c-1.76-7.64-4-15.11-9.39-21.24-4.55-5.13-8.57-10.73-13.09-15.89C104.76,106.19,92.75,96.5,80.69,87.42c-3.86,0-7.28-.11-10.69,0-2.17.1-4.64,0-6.43,1C55.94,92.68,49.24,97.88,47,106.88c1.9,2.42,4.53,2.23,6.87,2.74a34.67,34.67,0,0,1,18.91,10.61c4.61,5.08,9.48,9.93,14.08,15,5.58,6.19,10.89,12.63,16.53,18.77,3.14,3.42,6.7,6.45,10.1,9.62,2.14,2,4.42,3.84,6.49,5.89,2.23,2.19,4.76,3.45,7.91,3.11C130.08,172.42,132.21,172,134.54,171.65ZM71.27,278.38c4.09-10.62,8.21-21,11.8-31.79a45.33,45.33,0,0,0-14.45-7.65c-15.24-5.35-30.53-10.55-45.83-15.74-2.5-.85-5.12-1.35-7.48-2-4.44,3.41-6.93,7.59-9,12a22.81,22.81,0,0,0-.93,17.86c2.23,6.43,6.18,11.59,11.15,16.13A21.1,21.1,0,0,0,28.14,273c13.34,1.82,26.67,3.7,40,5.54A21,21,0,0,0,71.27,278.38ZM783.61-178.86c-2.17,2.33-2.29,5.25-3.75,7.4-2.15,3.17-1.82,6.4-1,9.85a133.5,133.5,0,0,0,13,35c3.09,5.57,6.36,11,9.53,16.58,12.69,22.11,25.48,44.17,38,66.38A127.25,127.25,0,0,1,852.85-7.19c.44,2.12,1,4.22,1.48,6.35,6.77-2.66,8.61-5.1,8.14-11.32-.79-10.37-3-20.43-8-29.63C849-52.16,843.09-62.36,837.13-72.5,831.92-81.38,826.26-90,821-98.86s-10.52-17.69-15-26.9c-2.15-4.37-5.26-8.13-7-12.75-2.45-6.4-5.69-12.48-8.37-18.8a63.13,63.13,0,0,1-2.86-9.06c-.85-3.29-1.37-6.66-2.21-9.95C785.32-177.12,784.46-177.76,783.61-178.86Zm-189.32-631c-3.28,2.53-6.48,5.1-9.79,7.53-3.53,2.6-7.15,5.07-10.69,7.56.25,12.31-.14,24.31,1.12,35.78,13.78,10.8,21.92,16,27.35,17.73,2-1.86,3.74-4.07,6-5.39a17.87,17.87,0,0,1,7.56-2.38c2.51-.17,5.09.82,8.45,1.45A149.86,149.86,0,0,1,607-796.07C599.82-800.66,599.82-800.66,594.29-809.87ZM626-877.38c-.42,2.73-.7,4.4-.93,6.07-2.52,18.85-9.85,35.7-21.15,50.91a13.88,13.88,0,0,0-1.07,2.35c2.28,3.14.65,8.13,4.51,10.71a28.87,28.87,0,0,0,16.74-2.2c5.63-2.36,11.18-4.91,16.68-7.57a27.41,27.41,0,0,0,5.42-3.71,7.73,7.73,0,0,0,2.73-7.9,29.41,29.41,0,0,0-1.9-6.3,136.29,136.29,0,0,0-7.26-14.38c-4.24-6.85-6.18-14.31-7.15-22.13-.15-1.19-.15-2.4-.23-3.79Zm-211.5-183.8c-.24-3.17-1.93-5.5-3.73-7.72a53.34,53.34,0,0,0-17.75-14,135.27,135.27,0,0,0-39.75-12.41,59.35,59.35,0,0,0-18.29,0c-1.7.25-3.49.56-4.09,2.52-1.23,4.07-4.49,5.45-8.12,6.62-2.24.72-5,.48-6.23,2.47l3.92,8.92c13.6-.11,27.05-.48,40.49-.26,18.36.31,35.88,4.22,51.91,13.65C413.22-1061.13,413.72-1061.24,414.54-1061.18ZM261.18-405c0-1.89,0-3.78,0-5.66-.17-9.07-.6-18.15-.48-27.22q.46-34.22,3.64-68.29a562.45,562.45,0,0,1,9.86-66.15q7.26-33.79,14.66-67.54c4.78-21.76,8.25-43.87,16.6-64.72,1-2.49.28-3.73-2.4-5.31a32.29,32.29,0,0,0-3.59-1.54c-.92,2.75-1.81,5-2.42,7.31-1.55,5.92-3.12,11.85-4.43,17.83-6.28,28.73-12.32,57.52-18.76,86.21a642.52,642.52,0,0,0-14.81,112.15C257.81-460.28,257.41-432.58,261.18-405ZM-46.41,1622c.23-1.19.54-2.33.67-3.49.84-7.81,1.58-15.62,2.48-23.42.53-4.63,1.34-9.23,1.93-13.85s-1.22-6.33-5.91-5.14a59.28,59.28,0,0,0-8.32,2.87c-7,2.94-14,6-21,9-2.23,1-4.43,2-6.78,3v8C-76.14,1605.51-52.72,1620.12-46.41,1622ZM788.48-188.64c.62-4.7-.74-8.43-1.93-12.07-2.59-7.9-5.35-15.77-8.35-23.52a415.17,415.17,0,0,1-20.32-68.94,17.22,17.22,0,0,0-2.26-6,11.4,11.4,0,0,0-.47,4.32c.6,9.53.78,19.11,1.93,28.57a453.12,453.12,0,0,0,11.51,59.07c1,3.75,1.54,7.75,5.63,9.8a4.15,4.15,0,0,1,1.65,2.36c1.21,3.78,3.67,5.49,7.66,5.36C784.94-189.76,786.38-189.12,788.48-188.64ZM-141.77,1659c7.58,1,14.2-1.23,20.66-3.21s12.45-5.7,16.09-12c2-3.39,4.21-6.65,5.82-10.2,3.33-7.35,9-12,16.15-15.27,1.66-.75,3.23-1.71,5.5-2.92l-9.17-6.16a56.62,56.62,0,0,0-20.27,8.12c-7.47,4.64-12.66,10.22-13.22,19.73-.28,4.7-2.55,9.06-8.61,10.38C-135.1,1648.85-138.6,1652.63-141.77,1659Zm1201.51,1.25c.57-3.41.38-5.22-1.73-6.87-5.15-4-10-8.3-13.42-14.18-3.58-6.26-8.94-11-14.91-15-15.71-10.34-33.37-14.9-51.82-16.9-1-.1-2.39-.68-3,1.19,1,.42,1.79.85,2.67,1.17a209.09,209.09,0,0,1,40,19.83,242.15,242.15,0,0,1,29.1,21.12A91,91,0,0,0,1059.74,1660.26ZM676.3-922.48c11.67-3.93,25.75-15.27,31.39-25.23a29.9,29.9,0,0,0,4-11.73,23.37,23.37,0,0,0-4.82-17.29,46.76,46.76,0,0,0-9.15,8.56c5.58,16.58-3.29,30.7-23.74,35.33Zm-31.36,15c1.32-2.64,2.39-4.54,3.23-6.54,2.48-6,7-9.21,13.24-10.3,1.87-.33,3.72-.72,5.9-1.14-.45-1.78-.75-3.19-1.17-4.57-1.22-4.06.22-7.21,3.38-9.68,1.73-1.35,3.67-2.43,5.44-3.73,1.1-.8,2.06-1.78,3.16-2.76-3.39-2.87-6.41-2.75-9.7-.58-6.11,4-12.44,7.77-18.49,11.89A52.07,52.07,0,0,0,636-921.11c1.36,2.25,2.64,4.33,3.87,6.43C641.2-912.42,641.92-909.75,644.94-907.45ZM239.85,1663.88c-7-1-14.07-1.89-21.1-2.88-19.62-2.76-39.19-1.91-58.64,1.37-5.5.93-10.82,3.06-16.18,4.76-.63.2-1,1.19-2.15,2.6,3.72-.16,6.38-.19,9-.42,21.05-1.79,42.15-2.37,63.25-2.48A108.79,108.79,0,0,0,239.85,1663.88Zm-355.59-52.68c-.79-.19-1.31-.5-1.7-.39-10,2.77-16.41,9.29-20,18.8-.61,1.6-.91,3.32-1.58,4.89-1.53,3.55-3.66,4.5-7.65,3.53a22.16,22.16,0,0,1-2.45-.86c-6.18,4-7.64,5.79-9.19,11.21-1.84,6.41-.92,8.56,5.69,12.75,2.29-12.81,11.14-19.5,22.12-23.69,1.53-5.24,2.7-10.23,4.45-15C-124.25,1617.46-119.33,1615-115.74,1611.2ZM633.17-909.45c-1.7,5.59-3.19,10.46-4.64,15.34a8.88,8.88,0,0,0-.2,2.2c-.1,4.06,2.8,7.12,6.9,6.74a12.39,12.39,0,0,0,6.1-2.16,35.35,35.35,0,0,0,7.31-7.14,133.68,133.68,0,0,1,17.62-19.72,27.94,27.94,0,0,0,2-2.3c-8.32-.58-10.42.56-13.57,7.08a45.29,45.29,0,0,1-3,5.88c-3.87,5.75-9.67,6-14,.61C636.22-904.79,635-906.85,633.17-909.45ZM314.25,1658.82c8.65.06,19-2.16,24.94-5.08a15.64,15.64,0,0,0,6.63-5.55,6.57,6.57,0,0,0,.82-6.27,15.75,15.75,0,0,0-10.16-9.31C326,1649.32,326,1649.32,314.25,1658.82Zm453.91,4c1.83-2.54,3.64-5.09,5.48-7.62,2-2.78,4-5.56,6.1-8.31,1.92-2.54,3.87-5.06,5.88-7.54s4.06-4.92,6.17-7.32c2.26-2.58,4.64-5.06,6.9-7.64,2-2.3,4.66-4.09,6.87-8.25-5.78,2.93-10.7,4.31-13.95,8.63a5.75,5.75,0,0,1-2.14,1.91c-7.12,3.1-11.47,9.11-15.64,15.15S767,1654.84,768.16,1662.87Zm-895.58-59.43c-.36-.26-.72-.75-1.07-.75-7.28,0-13.49,2.36-17.91,8.37a43.7,43.7,0,0,1-10.51,10.15c-2.33,1.6-4.06,4.19-5.74,6.56a6.83,6.83,0,0,0-.58,7.31c5.57-3.49,10.23-8.42,16.68-10C-140.69,1615.76-141.53,1613.87-127.42,1603.44ZM72,1686.38c-3.25-5.54-15.75-17.18-22.28-21a11.53,11.53,0,0,0,.21,3c2.38,6.62,4.34,13.42,7.59,19.91C62.37,1689,66.73,1687.23,72,1686.38ZM764.62-187.13c-1.68,3.55-3,6.69-4.59,9.61-1.78,3.16-3.91,6.11-5.88,9.15,3.35,2.74,3.72,3.09,4.86,3,2.65-.32,5.45-.39,6.86-2.6.34-2.35,0-4.63,1-6C770.24-179,767.81-182.7,764.62-187.13ZM687.94-949c4.43-6.7,4.49-7.05,2.35-12.55-3.22,1.74-5.83,4.15-8.71,6.75ZM737.11,258.92c0-5.29-1.16-9.2-1.94-13.18-1.43,3.48-2,7-.61,10.51C734.84,257,735.68,257.46,737.11,258.92ZM-40.48,1690.63a11.51,11.51,0,0,0-1.31-1.69c-.12-.1-1,.29-1,.49a8.46,8.46,0,0,0,.28,1.84Z"/><path class="cls-6" d="M429.74,1014.12c-4.93-64.7-8.55-129.29-12.88-195.53a33.91,33.91,0,0,1,2.33,3.71c1.19,3,2.16,6,3.45,8.92,1.42,3.23,3.94,4.53,6.3,3.57,2.64-1.07,3.62-3.4,2.6-6.7-.79-2.57-1.82-5.08-2.74-7.61-3.43-9.46-7-18.85-10.26-28.37-6.24-18.43-9.87-37.47-12.49-56.69-1.59-11.67-2.76-23.39-4-35.1-.39-3.64-.46-7.31-.71-11.57,2.28.92,2.49,2.62,3.07,4,7.51,17.33,14.73,34.78,22.54,52,13.05,28.77,30.35,54.94,50,79.59q8.73,10.92,17.56,21.78a27,27,0,0,0,2.94,3.28,4.92,4.92,0,0,0,6.11.48,4.7,4.7,0,0,0,1.11-6,40.72,40.72,0,0,0-3.46-4.74c-9-11.38-18-22.67-26.87-34.13-17.62-22.87-31.4-48-43.41-74.18-13.82-30.15-25.26-61.21-35.93-92.57-9.72-28.56-19.83-57-27.81-86.12-1.75-6.38-3.38-12.8-5.18-19.18a23.74,23.74,0,0,0-2.2-5.4,4.36,4.36,0,0,0-5.16-1.72,4.42,4.42,0,0,0-3,4.53,29,29,0,0,0,1,4.26c1.44,5.66,2.88,11.31,4.51,17.69-1.37-.84-2.13-1.07-2.53-1.58-6.77-8.78-12.78-17.94-16.5-28.54a429.91,429.91,0,0,1-14.44-53.22c-5.06-23.78-8.67-47.79-12.1-71.84-2-14.32-4.43-28.6-6.71-42.89a21.75,21.75,0,0,0-1.28-4.94,4.26,4.26,0,0,0-4.93-2.29c-1.77.52-3.15,1.65-3.24,3.56a31.48,31.48,0,0,0,.27,6.58c4.84,31.27,9.39,62.6,14.73,93.79,4.1,23.93,9.46,47.62,17.34,70.68a102.63,102.63,0,0,0,15.5,29.92c6.58,8.55,13.34,17,19.94,25.51a17.84,17.84,0,0,1,2.82,5c3.4,10,6.82,20,9.87,30.06A38.85,38.85,0,0,1,377,631a118.34,118.34,0,0,1-24.18,53c-9.91,12.3-21.36,23-33.55,33-2.47,2-5,4-7.42,6a18.92,18.92,0,0,0-3,3.16,4.55,4.55,0,0,0,.46,5.46,4.33,4.33,0,0,0,4.74,1.08,11.11,11.11,0,0,0,3.17-1.77c16.24-12.77,31.81-26.24,44.5-42.72,9.53-12.39,16.89-25.86,21.14-41,.5-1.77,1.2-3.48,1.92-5.54,2.24,3.17,5.5,11,5.54,13a1.39,1.39,0,0,1-.06.71c-3,5.5-.23,11.08-.08,16.59.2,7.11,1.12,14.19,1.62,21.29a36,36,0,0,1-.3,5.06,26.45,26.45,0,0,0-.3,5.08,27.51,27.51,0,0,1-2.32,14.36c-1.41,3.39-3,6.73-4.5,10.07-.71,1.56-1.61,3-2.27,4.62-1.14,2.75-.43,5,1.85,6.34,2.1,1.24,4.47.55,6.33-2a35.65,35.65,0,0,0,1.91-3.15c.62-1,1.23-2.07,1.75-3,1.74-.2,1.72.9,1.89,1.8q3.62,19.9,7.24,39.81c.36,1.93,1,3.81,1.38,5.72.61,2.83,1.24,5.46.32,8.59-.85,2.91-.18,6.32.09,9.48,1.25,14.92,2.83,29.81,3.85,44.74,2.07,30.11,3.84,60.25,5.76,90.37q2.46,38.58,5,77.15c.13,1.94,0,3.89,0,5.61-2.21,3.13-5.1,3.93-8.45,4.13-39.2,2.36-78.39,4.89-117.66,5.4-23.07.3-46.13-.52-69.16-1.94A544.18,544.18,0,0,1,165,1015,653.14,653.14,0,0,1,41.65,981.39,646.41,646.41,0,0,1-102,904.5c-7-5-13.7-10.36-20.54-15.55-1-.74-2-1.41-3-2.07,1.13-3.27,2-5.81,2.9-8.3Q-67.83,734.88-13,591.17L114.44,257c.87-2.3,1.67-4.62,2.69-6.85,1.66-3.61,4.71-4.71,8.49-3.27a587.87,587.87,0,0,0,83.14,24.49,826.78,826.78,0,0,0,92.92,15.09c28.06,2.86,56.12,5.86,84.24,8.14,31.33,2.54,62.76,2.62,94.18,2.08,29.24-.49,58.28-3.43,87.24-7.26,23.36-3.09,46.67-6.5,69.55-12.16,15-3.71,29.78-8.17,44.67-12.29,2.06-.57,4.13-1.08,6.42-1.67.7,2.61,1.28,4.71,1.82,6.82A27.62,27.62,0,0,0,700,285.88q13.88,10.33,28.16,20.1c5.58,3.8,12.73,2.61,17.35-2.3,4.76-5.07,5.71-11.23,5-17.82-.23-2.08-.72-4.13-1.31-7.42,2.17,1.87,3.47,2.89,4.66,4,5,4.73,9.93,9.51,14.91,14.24s10.3,8.32,17.12,9.5a11.37,11.37,0,0,1,2.35,1.08c1.17,2.37,2.48,5,3.75,7.63Q908.2,558.36,1024.4,801.79c1.68,3.52,3,7.27,6.11,10a8.16,8.16,0,0,1,1.85,3.13,75.76,75.76,0,0,1,6.07,27.13,15.48,15.48,0,0,1-4,10.67c-10.31,12.56-21.71,24.06-33.37,35.31A698.92,698.92,0,0,1,863.77,991.3c-33.3,19.14-69,31.78-106.42,39.66-15.17,3.2-30.65,4.15-46.12,4.06-18.65-.11-37.3-.66-55.94-1.27-17.65-.58-35.3-1.46-52.95-2.28-6.6-.31-13.26-.2-19.68-2.32a7.27,7.27,0,0,0-4.32-.19c-3.69,1.27-7.29.51-10.94.18-12.46-1.13-24.93-2.13-37.38-3.4-15.37-1.57-30.73-3.35-46.09-5.07q-24.85-2.79-49.72-5.64C432.79,1014.87,431.4,1014.46,429.74,1014.12Zm417-275.94c-34.65-.79-70.28,26.85-70.4,69.9-.11,41.58,33.56,69.93,69.39,70.3s70.47-27.61,70.76-69.66C916.74,765.68,881.34,737.71,846.69,738.18Zm-206.8,79.69c2.27-.24,4.71-.44,7.13-.79,15.43-2.29,29.9-7.65,44-14a111,111,0,0,0,41.46-32.22,171.87,171.87,0,0,0,19.1-29.65c17.37-34,26.26-70.67,33.51-107.83a9.16,9.16,0,0,0,.07-2.91,4.56,4.56,0,0,0-3.91-3.84,4.17,4.17,0,0,0-4.32,2.2,15.3,15.3,0,0,0-1.4,4.12c-1.47,6.71-2.83,13.44-4.32,20.15-4.86,21.81-10.72,43.32-19.16,64.06-6.5,16-14.41,31.16-24.89,44.93a103.76,103.76,0,0,1-38.33,31.43A185.93,185.93,0,0,1,655,805.75c-5,1.27-10.16,1.51-15.26,2.16-1.69.22-3.44.1-5.12.39a5,5,0,0,0-4.11,4.55,5,5,0,0,0,4.06,4.63A48.11,48.11,0,0,0,639.89,817.87ZM204.11,902.31A131.44,131.44,0,0,0,234,899.12c14.9-3.35,29-9,42.9-15.13a15.64,15.64,0,0,0,1.94-1c2.66-1.67,3.59-3.94,2.53-6.12-1.16-2.38-3.4-3.36-6.18-2.45-1.85.61-3.59,1.57-5.41,2.27-8.69,3.34-17.28,7-26.11,9.88a125.82,125.82,0,0,1-60.27,4.54A186.57,186.57,0,0,1,111.76,864c-5-3.16-9.87-6.4-14.83-9.55a26.92,26.92,0,0,0-4.48-2.48,4.4,4.4,0,0,0-5.17,1.75,4.27,4.27,0,0,0,.35,5.42A18.46,18.46,0,0,0,91,861.93c10.59,7.11,21.27,14.07,32.67,19.82C149,894.52,175.7,901.67,204.11,902.31Z"/><path class="cls-6" d="M627.19-729.65c2.65-.56,4.78-1.11,6.95-1.43a13,13,0,0,1,9.7,2.61c2.55,1.84,4,4.18,3.57,7.53-.71,5.34-1.12,10.74-1.95,16.06-4.84,31-10.24,62-13.7,93.21-2.38,21.46-4.29,43-6.41,64.47-1.75,17.83-3.53,35.65-5.23,53.49-1.74,18.32-3.51,36.64-5.07,55q-1.9,22.38-3.33,44.79c-1.65,25.49-2.16,51,0,76.5,2.41,27.69,9.53,54,22.23,78.78,13.42,26.22,33.29,45.88,59.24,59.57,2.39,1.26,4.79,2.5,7.1,3.89a141.74,141.74,0,0,0,40.75,16.53c1.9.45,3.75,1.06,5.94,1.69.48,3.17.9,6.29,1.44,9.38a223.47,223.47,0,0,0,12,41.67c4.42,11.47,10,22.38,15.7,33.25Q791-44.31,805.49-15.76a136.17,136.17,0,0,1,12.06,32.32c1,4.7,1.14,9-.78,13.61-2.66,6.33-2.27,13-.8,19.57a9.34,9.34,0,0,1-1.44,7.6C809.8,65,803.2,70.81,796.63,76.72q-17.76,16-35.5,32c-.91.82-1.65,2-2.7,2.48-8.32,4.12-13.75,11.71-20.86,17.29-3.44,2.7-6.35,6.11-9.33,9.36a19.2,19.2,0,0,0-4.5,8.3c-1.69,6.42-5.8,11.36-11.18,15a115.77,115.77,0,0,1-13.35,7.73c-5,2.52-10.28,4.64-15.48,6.83-1.79.75-3.74,1.09-5.58,1.72-1.58.55-3.58.83-4.57,2-2,2.24-4.53,2.82-7.11,3.48a546,546,0,0,1-62.08,12.06c-18,2.4-36,4.61-54,6.79-4.6.55-9.26.63-14.27,1-.46-1.32-.83-2.41-1.22-3.49a5.56,5.56,0,0,0-3.66-3.29,201.32,201.32,0,0,1-55.37-31.59A85.77,85.77,0,0,1,459,146.88a70.19,70.19,0,0,1-6.17-10.83,25.43,25.43,0,0,1-1.81-7.81A3.63,3.63,0,0,1,455,124a70.42,70.42,0,0,1,11,.86C471,125.66,476,127,481,128a32.83,32.83,0,0,0,6.56.61,3.85,3.85,0,0,0,3.68-3.08,4.32,4.32,0,0,0-2-5.06,16.27,16.27,0,0,0-4.15-1.41c-7.68-1.6-15.34-3.34-23.08-4.58a29.92,29.92,0,0,0-10.21.17c-6.54,1.27-10.06,5.81-10.48,12.44-.32,5.05,1.13,9.72,3.16,14.23a70,70,0,0,0,12.34,18.21A141.3,141.3,0,0,0,482.6,181.4,251.36,251.36,0,0,0,514,199.13c2.17,1.05,4.3,2.17,6.46,3.26-.53,2-2,1.48-3,1.51-13.74.42-27.47,1-41.21,1.08q-43.1.12-86-3.92c-21.73-2-43.49-4-65.19-6.38-46.39-5.13-92.25-13.22-137.07-26.5-11.27-3.34-22.28-7.59-33.39-11.46-1.37-.48-2.66-1.2-3.93-1.78-2.51-8.49-7-15.78-12-22.81A226.8,226.8,0,0,0,89.88,82.35c-1.56-1.18-3.8-2.11-4.48-3.69-1.83-4.29-6-7-7.14-11.79-1.4-5.69-3.89-11.1-5.73-16.68-6-18.08-6.5-36.62-4.47-55.34,1.5-14,5.44-27.37,9.39-40.81A1459.41,1459.41,0,0,1,126.11-184.8a699.55,699.55,0,0,1,43.07-88.64c4.22-7.25,5.52-14.54,3.2-22.56-.95-3.3-1.5-6.71-2.49-10a17.68,17.68,0,0,1,.61-12.25c1.31-3.16,2.87-6.22,4.42-9.28a7.9,7.9,0,0,1,4.2-3.8c2.83-1.24,3.47-3.13,2.53-6s-2.12-5.5-3.27-8.2c-6.58-15.4-8.46-31.68-9.07-48.19-.05-1.2-.17-2.73.46-3.57,2.61-3.44,2.13-7.44,2.45-11.31.61-7.58,1-15.18,1.78-22.74,1.31-12.51,4.6-24.59,8.72-36.43,5.25-15.06,10.63-30.07,15.84-45.14,2.09-6,3.94-12.13,5.8-18.22,2.58-8.44,5.19-16.86,7.59-25.35,8.54-30.21,17.13-60.4,25.43-90.67,4.28-15.61,8.06-31.36,11.94-47.08,1.47-5.95,2.59-11.92,1.38-18.18-.83-4.3,2.29-6.56,5.41-8.29a6.29,6.29,0,0,1,1.76.3c6.5,3.86,12.63,2.71,18.69-1.15,4.95-3.16,10-6.13,15.46-9.43,1.75,2.14,2.62,4.53,1.56,7.17-7.5,18.55-10.86,38.18-15.09,57.58-5.32,24.44-10.52,48.92-15.84,73.36a557.1,557.1,0,0,0-10.17,66.9c-2.14,23-3.52,46-3.6,69.1-.11,32.21,2,64.27,8.37,95.92a219.74,219.74,0,0,0,12.8,42.18c4.32,10.23,10,19.67,16.05,28.92a32.12,32.12,0,0,0,4.23,5.09c6.75,6.74,13.05,14,21.57,18.75a93.72,93.72,0,0,0,31.74,11.21,186.29,186.29,0,0,0,39.63,1.94c21-1.3,39.69-8.36,55.73-22.16a36.64,36.64,0,0,1,5.87-4.39c13.54-7.55,24.32-18.14,33.83-30.2,11.77-14.93,21-31.36,28.95-48.58a526.53,526.53,0,0,0,20-49.86c19.1-55.94,38.24-111.88,55.73-168.36,5.88-19,10.89-38.23,17.12-57.08,8-24.27,13.87-49.1,20.49-73.73,1.59-5.92,3-11.88,4.6-17.81C625.92-726.41,626.51-727.76,627.19-729.65ZM367.53-124.73c4.6-1.15,9.67-2.13,14.55-3.68a156,156,0,0,0,53.5-30c14.91-12.6,27.31-27.41,38.39-43.39,14.7-21.2,27.06-43.76,38.75-66.71A26.72,26.72,0,0,0,514-271.2c1.07-2.81.43-5.23-1.66-6.45-2.3-1.34-5-.45-6.79,2.4-1,1.65-1.82,3.47-2.77,5.19-7.7,13.94-15.18,28-23.18,41.77a277.57,277.57,0,0,1-30.62,43.11c-17.85,20.52-39,36.44-64.67,45.85-6,2.18-12,4.41-18.47,4.57a8.07,8.07,0,0,0-2.82.7,4.19,4.19,0,0,0-2.73,4,4.06,4.06,0,0,0,2.56,4.1A37,37,0,0,0,367.53-124.73Zm-83-71.26c1.22,0,2.45,0,3.67,0a24,24,0,0,0,2.94-.16,18.6,18.6,0,0,0,3.57-.77,4.46,4.46,0,0,0,2.92-4.61,4.37,4.37,0,0,0-3.72-4,48.75,48.75,0,0,0-5.14-.2c-4.41-.16-8.86,0-13.22-.53-30.71-4.06-55.52-18.29-73.94-43.37-1.45-2-2.8-4-4.23-6a22.67,22.67,0,0,0-2.3-2.86,3.7,3.7,0,0,0-4.67-.81,4.28,4.28,0,0,0-2,5,16.79,16.79,0,0,0,2,3.91c2.81,4,5.53,8.12,8.63,11.91C221.09-211.36,249.79-197.58,284.51-196Z"/><path class="cls-6" d="M70.55,73.08c-9.45,2.15-17.11,5.79-23.23,12.2S35.6,98,35.34,107.56c-8.92,3.24-15.18,9.75-20.91,16.88C8.58,131.72,6.17,140,7.78,149.23c.69,4,.17,7.47-2.9,10a36.43,36.43,0,0,0-12,17.92c-1.84-1.16-3.07-2.31-4.51-2.74-1.59-.48-3.4-.22-5.09-.44-3.61-.46-6.34-2.47-8.65-5.15-7.34-8.51-7.66-21.19-1.1-30.78A108.2,108.2,0,0,1-12,121.48,400.37,400.37,0,0,1,19.38,93.63a37.94,37.94,0,0,0,3.91-3.35,10.83,10.83,0,0,0,2-3,3.87,3.87,0,0,0-1.38-4.58,3.42,3.42,0,0,0-4.11-.34c-1.65,1-3.24,2.22-4.78,3.42C2,95.85-10,107.1-21.79,118.58c-1.4,1.36-2.81,2.71-4.59,4.42A24.31,24.31,0,0,1-29,119.6c-5.62-10.9-11.13-21.86-16.77-32.76-5.29-10.23-10.5-20.52-17.58-30.22a72.65,72.65,0,0,1,3.9-6.93c4.93-7,10-13.94,15-20.91A46,46,0,0,0-41.13,24a4.72,4.72,0,0,0-.57-5.51c-1.14-1.45-3.17-2-4.56-1a24.72,24.72,0,0,0-4.22,4A207.24,207.24,0,0,0-69.55,48.54c-.85,1.46-1.77,2.87-2.58,4.17-4.66-.06-7-2.6-8.28-6.4a25.22,25.22,0,0,1-.33-15.92,62.44,62.44,0,0,1,4.24-11A126,126,0,0,1-66.8,3c22.42-30.39,49.56-55.64,82.52-74.35A178.3,178.3,0,0,1,47.89-85.84c1.87-.61,3.73-1.23,5.63-1.74A7.85,7.85,0,0,1,61.14-86c2.48,2.32,5.12,4.78,6.67,7.72,4.13,7.8,5.66,16,2.88,24.82C66.71-40.81,63-28.12,60.77-15,56,13,58,40.24,68.37,66.77,69.07,68.55,69.62,70.39,70.55,73.08Z"/><path class="cls-6" d="M138.72,212.1c.34-4.14.76-7.3.82-10.47s-.23-6.28-.37-9.32c2.89-1,5.14.05,7.41.88,39.06,14.36,79.47,23.25,120.42,30,22.52,3.7,45.15,6.49,67.86,8.63q37.35,3.54,74.75,6.6c7.33.61,14.71.67,22.06.82,15.21.31,30.42.82,45.62.68,21.59-.2,43.14-1.24,64.65-3.36,26.37-2.61,52.61-6,78.71-10.62a528.44,528.44,0,0,0,60.06-14.28c.9-.27,1.81-.48,2.95-.78-.24,3.63-.68,7-.64,10.32,0,3.15.58,6.3.93,9.68-2.26,2.08-5.16,3-7.89,3.64-17.61,4.31-35.18,8.92-53,12.4-17.55,3.42-35.3,6-53,8.25-17.26,2.22-34.6,4.16-52,5.19-19.82,1.18-39.71,1.8-59.57,1.61-21.82-.2-43.65-1.23-65.43-2.61-18.84-1.19-37.63-3.25-56.42-5.15-14.39-1.45-28.78-3-43.12-4.91-49.92-6.69-99.17-16.37-146.59-33.89C144.23,214.39,141.55,213.24,138.72,212.1Z"/><path class="cls-6" d="M223.29,246.28c8.57,2,17.09,4.22,25.74,5.82,25.81,4.78,51.82,8.2,77.94,10.72,24.16,2.33,48.32,4.85,72.52,6.64A911.74,911.74,0,0,0,501,271c28.44-1.07,56.72-4.23,84.91-8.19,27.7-3.89,55.17-8.87,82.14-16.39,4.49-1.24,8.94-2.63,13.42-3.87a32.63,32.63,0,0,1,4-.54c.47,3.66.89,7,1.35,10.59-2.09.89-3.8,1.78-5.61,2.36a524.75,524.75,0,0,1-88.61,21c-21.36,3-42.74,6-64.19,8.25-20.49,2.17-41.09,3.05-61.7,3.24a943.55,943.55,0,0,1-97-3.9c-25.87-2.43-51.76-4.82-77.57-7.88-45.6-5.4-90.62-13.91-134.44-27.92-14-4.48-27.62-10.09-41.38-15.25a43.32,43.32,0,0,1-6.62-3.18,41.18,41.18,0,0,1-4.63-3.9c3.84-.41,5.9,1.79,8.39,1.92,2.67.13,5.39.57,8,.2a19.28,19.28,0,0,0,6.8-2.51,55.06,55.06,0,0,0,6.31-5c7.74,4.76,16.3,7.06,24.61,9.9a513.94,513.94,0,0,0,51.71,14.3,65.14,65.14,0,0,0,6.55.84l-.11-.23c1.62,2.13,4.16.85,6.14,1.64Z"/><path class="cls-6" d="M232.29,187.48c1,.15,2.59,0,2.77.48.6,1.57,1.58,1.82,3.09,2.25,12.54,3.53,25.39,5.46,38.21,7.54,29.07,4.71,58.34,7.74,87.63,10.69a1130,1130,0,0,0,122.71,6,747,747,0,0,0,77.11-4.51c24.62-2.77,49.18-5.94,73.49-10.75,13.7-2.71,27.25-6.2,40.84-9.43,2.58-.62,5.34-1.05,7-3.6a4.14,4.14,0,0,1,1.81-1.23c7.1-3.17,14.23-6.31,21.13-9.36,1.64,1.31.65,2.21.15,2.81-5.24,6.38-10.14,13.06-15.56,19.56-4.25-1-7.74.85-11.38,2.34A148.56,148.56,0,0,1,665.47,206a553.13,553.13,0,0,1-78.61,15.47c-19.71,2.48-39.43,4.94-59.21,6.74-21.26,1.95-42.62,2.16-64,2.14-27.26,0-54.46-1.42-81.6-3.62-30.81-2.5-61.56-5.61-92.19-9.84C247.06,211,204.79,202.52,163.65,189c-4.19-1.38-8.37-2.83-12.48-4.43-3.51-1.36-7-2.15-10.77-1.24-1.09.27-2.35-.16-4-.31.95-2.94,4-3.18,5.2-5.23a53.27,53.27,0,0,0,3.37-6.49,70.06,70.06,0,0,0,1.94-7.27c23.91,9.91,48.35,16.78,73.12,22.59,2.86.67,5.71,1.39,8.59,1.94,1.42.27,3,.38,3.85-1.26Z"/><path class="cls-6" d="M99.55,235.14c3.9,1.7,6.06,4.4,8.45,6.26,1.09,3.77-.44,6.69-1.56,9.63q-10.95,28.91-22,57.77L-131.69,875.42a68.46,68.46,0,0,1-2.76,6.82,26.56,26.56,0,0,1-3,3.9c-3.83-3.89-4.26-5.26-4.84-14.13,1.86-4,3.6-7.27,4.87-10.66q89-236.62,177.86-473.29C50,362.57,60,337.21,69,311.51c6.33-18.06,13.55-35.76,20.37-53.62C92.22,250.36,95.92,243.15,99.55,235.14Z"/><path class="cls-6" d="M123.67,180.15c1.79,4.78,3.26,8.9,4.86,13a21.21,21.21,0,0,1-2.07,20.35c-3.21,4.92-7.47,6.37-12.68,3.75a60.18,60.18,0,0,1-11.61-7.67c-8.82-7.4-17.32-15.19-26-22.72-7.42-6.42-15-12.7-22.45-19a45.21,45.21,0,0,0-21.15-9.71c-3.84-.74-7.62-1.84-11.43-2.75a4.77,4.77,0,0,1-3.67-4.12c-1.72-8.35-.93-16.14,5.19-22.68,2.52-2.69,5-5.42,7.75-7.85,3.67-3.27,8-4.73,12.94-3.4a39.53,39.53,0,0,0,4.34.82c8,1.18,14.91,4.4,20.33,10.71,5.27,6.14,10.91,12,16.32,18,3.93,4.38,7.76,8.85,11.63,13.29C103.63,168.92,112.52,176.1,123.67,180.15Z"/><path class="cls-6" d="M93.11,217.41a17.5,17.5,0,0,0-2.41,2.84c-.66,1.22-1.67,2.91-1.28,3.94,1.7,4.57-.74,8-2.45,12.13-1.35-.46-2.47-.77-3.52-1.21-5.63-2.4-11.13-5.19-16.89-7.2C50.82,222.44,35,217.26,19.15,212a16.41,16.41,0,0,1-7.43-4.51c-2.93-3.3-6.14-6.37-8.86-9.82-3.37-4.27-5-8.95-1.92-14.29,1-1.65,1.08-3.76,1.69-5.62a19.64,19.64,0,0,1,6-9.12c3.56-3,7.57-4.42,12.26-3.19a45.79,45.79,0,0,0,5.73,1.35c10.09,1.27,18.62,5.72,26.15,12.41,5.5,4.88,11.17,9.58,16.68,14.45,6.25,5.52,12.42,11.14,18.61,16.73C90,212.21,92.33,213.73,93.11,217.41Z"/><path class="cls-6" d="M134.54,171.65c-2.33.36-4.46.77-6.62,1-3.15.34-5.68-.92-7.91-3.11-2.07-2-4.35-3.9-6.49-5.89-3.4-3.17-7-6.2-10.1-9.62-5.64-6.14-11-12.58-16.53-18.77-4.6-5.1-9.47-9.95-14.08-15A34.67,34.67,0,0,0,53.9,109.62c-2.34-.51-5-.32-6.87-2.74,2.21-9,8.91-14.2,16.54-18.42,1.79-1,4.26-.9,6.43-1,3.41-.15,6.83,0,10.69,0,12.06,9.08,24.07,18.77,34.29,30.46,4.52,5.16,8.54,10.76,13.09,15.89,5.43,6.13,7.63,13.6,9.39,21.24a17.86,17.86,0,0,1-.07,7.28A89.43,89.43,0,0,1,134.54,171.65Z"/><path class="cls-6" d="M71.27,278.38a21,21,0,0,1-3.13.2c-13.33-1.84-26.66-3.72-40-5.54a21.1,21.1,0,0,1-11.64-5.77c-5-4.54-8.92-9.7-11.15-16.13a22.81,22.81,0,0,1,.93-17.86c2.1-4.45,4.59-8.63,9-12,2.36.61,5,1.11,7.48,2,15.3,5.19,30.59,10.39,45.83,15.74a45.33,45.33,0,0,1,14.45,7.65C79.48,257.37,75.36,267.76,71.27,278.38Z"/><path class="cls-6" d="M217.42,245.06c1.91-2.31,3.87-1.61,5.85-.11l.22-.16-6.18,0Z"/><path class="cls-6" d="M232.47,187.29h-3.13c1.52-1.3,2.35-1.14,2.95.2Z"/><path class="cls-6" d="M223.27,245l1.57.85-1.55.48.16.19c0-.56,0-1.12,0-1.68Z"/><path class="cls-3" d="M223.49,244.79c0,.56,0,1.12,0,1.68-2-.79-4.52.49-6.14-1.64Z"/></g></svg>