<svg id="Layer_1" data-name="Layer 1" xmlns="http://www.w3.org/2000/svg" xmlns:xlink="http://www.w3.org/1999/xlink" viewBox="0 0 441.45 490.46"><defs><style>.cls-1{fill:none;}.cls-2{clip-path:url(#clip-path);}.cls-3{fill:#fff;}.cls-4{fill:#e74c3c;}.cls-5{fill:#222;}.cls-6{clip-path:url(#clip-path-2);}</style><clipPath id="clip-path"><circle class="cls-1" cx="-333.63" cy="-864.69" r="361.43"/></clipPath><clipPath id="clip-path-2"><path class="cls-1" d="M190.07,152.39,175,106.76,254.87-42.75c80,0,177.31,172.21,177.31,252.21,0,13.94-60.84,69.55-64.51,82.31A145.11,145.11,0,0,1,269,390.69L255.78,350.9Z"/></clipPath></defs><title>5</title><g class="cls-2"><path class="cls-3" d="M-293,214.66c-3.18-41.73-5.51-83.39-8.3-126.13a21.49,21.49,0,0,1,1.5,2.4c.77,1.91,1.39,3.88,2.22,5.76.92,2.08,2.54,2.91,4.07,2.3,1.7-.7,2.33-2.19,1.67-4.32-.51-1.67-1.17-3.28-1.76-4.92-2.22-6.09-4.55-12.15-6.62-18.3-4-11.88-6.37-24.16-8.06-36.56-1-7.53-1.78-15.09-2.59-22.64-.25-2.35-.3-4.72-.46-7.47,1.47.6,1.61,1.7,2,2.56,4.84,11.18,9.51,22.44,14.54,33.53,8.42,18.56,19.57,35.44,32.26,51.33,3.76,4.71,7.55,9.38,11.33,14.06a19.16,19.16,0,0,0,1.9,2.12,3.18,3.18,0,0,0,3.94.3,3,3,0,0,0,.72-3.86,27.44,27.44,0,0,0-2.24-3c-5.78-7.34-11.63-14.62-17.33-22-11.37-14.75-20.25-31-28-47.85-8.91-19.45-16.29-39.48-23.18-59.71-6.26-18.43-12.79-36.77-17.93-55.55-1.13-4.12-2.19-8.26-3.35-12.37a15.56,15.56,0,0,0-1.41-3.49,2.83,2.83,0,0,0-3.33-1.11,2.85,2.85,0,0,0-2,2.92,20.5,20.5,0,0,0,.66,2.76l2.91,11.4c-.88-.54-1.37-.68-1.63-1-4.37-5.66-8.24-11.57-10.64-18.4A277.79,277.79,0,0,1-361.43-137c-3.26-15.33-5.59-30.82-7.8-46.33-1.32-9.24-2.86-18.45-4.33-27.67a13.87,13.87,0,0,0-.83-3.19,2.73,2.73,0,0,0-3.18-1.47,2.54,2.54,0,0,0-2.09,2.29,21.58,21.58,0,0,0,.17,4.25c3.13,20.17,6.06,40.38,9.51,60.49A295.15,295.15,0,0,0-358.8-103a66.5,66.5,0,0,0,10,19.3c4.25,5.51,8.61,10.94,12.87,16.45A11.41,11.41,0,0,1-334.12-64c2.19,6.44,4.4,12.88,6.37,19.39A25,25,0,0,1-327-32.49a76.29,76.29,0,0,1-15.59,34.2A146.45,146.45,0,0,1-364.25,23c-1.6,1.3-3.22,2.57-4.79,3.9a11.82,11.82,0,0,0-2,2,2.93,2.93,0,0,0,.3,3.52,2.78,2.78,0,0,0,3.05.7,7.15,7.15,0,0,0,2-1.15c10.48-8.23,20.52-16.92,28.7-27.55A77.6,77.6,0,0,0-323.26-22c.32-1.14.78-2.24,1.24-3.57,1.44,2,3.55,7.13,3.57,8.4a1,1,0,0,1,0,.46c-1.95,3.55-.16,7.15-.06,10.71.13,4.58.72,9.15,1.05,13.73a25.56,25.56,0,0,1-.19,3.26,16.57,16.57,0,0,0-.2,3.28,17.71,17.71,0,0,1-1.5,9.26c-.91,2.19-1.91,4.34-2.9,6.5-.46,1-1,2-1.46,3a3,3,0,0,0,1.19,4.09c1.35.8,2.88.35,4.08-1.26a21.91,21.91,0,0,0,1.23-2l1.14-1.9c1.12-.13,1.1.57,1.21,1.16,1.56,8.56,3.1,17.12,4.68,25.68.22,1.24.61,2.45.88,3.69a10.46,10.46,0,0,1,.21,5.54c-.55,1.87-.12,4.07.06,6.11.8,9.62,1.82,19.23,2.48,28.86,1.34,19.42,2.48,38.86,3.72,58.3q1.59,24.87,3.2,49.76c.08,1.25,0,2.51,0,3.62-1.42,2-3.28,2.53-5.45,2.66-25.28,1.53-50.56,3.15-75.89,3.48-14.88.2-29.76-.33-44.62-1.25a351.91,351.91,0,0,1-38.19-4.33,420.43,420.43,0,0,1-79.55-21.65A417.17,417.17,0,0,1-636,144c-4.52-3.2-8.84-6.68-13.26-10-.63-.47-1.29-.9-1.91-1.34.74-2.1,1.26-3.74,1.88-5.35Q-614,34.55-578.6-58.16q41.11-107.77,82.21-215.56c.56-1.48,1.08-3,1.74-4.41,1.06-2.33,3-3,5.47-2.11a377.66,377.66,0,0,0,53.63,15.79,532.8,532.8,0,0,0,59.93,9.74c18.11,1.84,36.21,3.78,54.35,5.25,20.21,1.64,40.48,1.69,60.75,1.34a493,493,0,0,0,56.27-4.68c15.07-2,30.1-4.2,44.86-7.85,9.67-2.39,19.22-5.27,28.82-7.92,1.33-.37,2.66-.7,4.14-1.08.45,1.69.83,3,1.17,4.4a17.87,17.87,0,0,0,6.6,10.17q9,6.66,18.16,13a8.59,8.59,0,0,0,11.2-1.49c3.07-3.26,3.68-7.24,3.21-11.49-.14-1.34-.46-2.66-.84-4.78,1.4,1.2,2.24,1.86,3,2.59,3.22,3.05,6.4,6.13,9.62,9.18s6.64,5.37,11,6.13a7.32,7.32,0,0,1,1.51.7c.76,1.53,1.61,3.22,2.42,4.92q75,157,149.91,314.06c1.08,2.27,1.91,4.69,3.93,6.42a5.18,5.18,0,0,1,1.2,2,48.72,48.72,0,0,1,3.92,17.49,10,10,0,0,1-2.57,6.89,267.67,267.67,0,0,1-21.52,22.77A450.27,450.27,0,0,1-13,199.94c-21.47,12.35-44.49,20.5-68.64,25.59a140.07,140.07,0,0,1-29.75,2.61c-12-.07-24.06-.42-36.08-.82-11.4-.37-22.78-.93-34.16-1.47-4.26-.2-8.56-.12-12.69-1.49a4.72,4.72,0,0,0-2.8-.12c-2.37.81-4.7.32-7.05.11-8-.73-16.08-1.37-24.11-2.19-9.92-1-19.82-2.16-29.73-3.27q-16-1.8-32.07-3.64C-291,215.15-291.94,214.89-293,214.66Zm269-178a44.8,44.8,0,0,0-45.4,45.09c-.08,26.82,21.64,45.11,44.75,45.35s45.46-17.82,45.65-44.94A44.81,44.81,0,0,0-24.06,36.67ZM-157.45,88.08c1.46-.17,3-.29,4.6-.52,9.95-1.47,19.29-4.93,28.4-9A71.47,71.47,0,0,0-97.71,57.76,111,111,0,0,0-85.39,38.63C-74.18,16.7-68.45-7-63.77-30.93a5.59,5.59,0,0,0,0-1.87,2.93,2.93,0,0,0-2.52-2.48A2.66,2.66,0,0,0-69-33.86a9.73,9.73,0,0,0-.91,2.66c-1,4.33-1.82,8.67-2.78,13-3.14,14.07-6.92,28-12.36,41.33a125.17,125.17,0,0,1-16.06,29,66.86,66.86,0,0,1-24.73,20.27,119.86,119.86,0,0,1-21.83,7.89,80.36,80.36,0,0,1-9.84,1.39c-1.09.14-2.22.06-3.3.25a3.19,3.19,0,0,0-2.65,2.93,3.23,3.23,0,0,0,2.61,3A32.58,32.58,0,0,0-157.45,88.08Zm-281.1,54.46a84.64,84.64,0,0,0,19.3-2.06c9.61-2.16,18.71-5.77,27.67-9.76a10.81,10.81,0,0,0,1.26-.66c1.71-1.08,2.31-2.54,1.63-4a3,3,0,0,0-4-1.58c-1.19.39-2.31,1-3.49,1.46-5.61,2.16-11.15,4.5-16.84,6.38a81.36,81.36,0,0,1-38.88,2.93,120.38,120.38,0,0,1-46.23-17.5c-3.19-2-6.37-4.13-9.57-6.17a17.23,17.23,0,0,0-2.88-1.59,2.82,2.82,0,0,0-3.34,1.13,2.75,2.75,0,0,0,.22,3.49,11.83,11.83,0,0,0,2.16,1.83,196.34,196.34,0,0,0,21.07,12.79A120.09,120.09,0,0,0-438.55,142.54Z"/><path class="cls-3" d="M-52.28,224.17c.73,4.12,1.31,7.69,2,11.25,2.12,11.2,4.3,22.38,6.42,33.57,1.18,6.22,2.28,12.46,3.45,18.68a17.82,17.82,0,0,0,1,3.62,2.59,2.59,0,0,0,2.73,1.5A2.81,2.81,0,0,0-34,290.47a12.5,12.5,0,0,0-.21-3.28c-1.58-8.72-3.2-17.43-4.79-26.15-.15-.85-.17-1.73-.34-3.6,1.39,1.72,2.23,2.62,2.92,3.64q8,11.79,15.9,23.64,8.2,12.21,16.4,24.45l.82,1.16A99,99,0,0,1,14,350.05c2,10.57,4.62,21,5.86,31.73,1,8.17,1.57,16.39,2.31,24.58,1.25,14,2.45,28.07,3.74,42.1,1.33,14.5,2.76,29,4.13,43.5.91,9.61,2.08,19.19,3.79,28.7a10.52,10.52,0,0,0,.65,2.27,2.92,2.92,0,0,0,3,1.79A3,3,0,0,0,40,522.24a11.15,11.15,0,0,0-.14-2.82c-.63-4.06-1.32-8.12-2-12.19a10.51,10.51,0,0,1-.18-4.68c4.77,4.75,8.41,14.39,8.39,22-.19.23-.34.57-.58.68-3.6,1.58-4.21,2.46-3.21,6.06a100.91,100.91,0,0,0,7.32,19.53c4.15,8,8.63,15.84,13,23.75l2.48,4.51c-1.39-.15-2.3-.17-3.18-.34-14.71-3-29.57-3.19-44.45-2a136.64,136.64,0,0,0-46.61,12.19,45.75,45.75,0,0,1-5.74,2.18c-7.11,2.16-14.28,4.09-21.38,7.39-.09-4.33,1.3-8.08,1.57-12s.52-7.86.83-12.52c1,1,1.5,1.48,1.91,2,.57.76,1,1.64,1.58,2.37a3.08,3.08,0,0,0,4.18,1c1.31-.84,1.7-2.45.87-4.23-.46-1-1.11-1.9-1.67-2.86-1.76-3-3.68-5.93-5.22-9a39.19,39.19,0,0,1-2.47-7.12,7.21,7.21,0,0,1,1.3-6.29,56.5,56.5,0,0,0,7.58-15.76c.91-2.82,2.49-5.38,2.87-8.45a14.26,14.26,0,0,0-1.44-8.74A64.21,64.21,0,0,0-48.5,510q-9.75-13.75-19.66-27.39c-12.78-17.53-25.66-35-38.44-52.51A200.25,200.25,0,0,1-125,399.66c-5.94-12.22-9.27-25.2-11.35-38.56-1.87-12.06-2.6-24.23-3.72-36.37-.24-2.67-.53-5.34-.8-8a6.33,6.33,0,0,1,.85-1.16,3.92,3.92,0,0,0,1.16-4.7c-1.3-3.9-2.29-7.92-3.81-11.73q-7.57-18.94-15.49-37.77c-2-4.66-4.37-9.13-6.58-13.68a29.39,29.39,0,0,0-9.4-11.14c-1.39-1-2.71-2.12-4-3.13a2.58,2.58,0,0,1,.19-.67.52.52,0,0,1,.37-.21c7.43-.11,14.84.33,22.27.9a29.85,29.85,0,0,0,1.93,3.28c3.28,4.26,6.67,8.43,9.93,12.71a20.53,20.53,0,0,0,7.14,6.11c6.06,3.09,12.06,6.3,18.09,9.45a11.82,11.82,0,0,0,2.16.95,2.85,2.85,0,0,0,3.59-1.48,3,3,0,0,0-1.07-3.78,21.4,21.4,0,0,0-2.83-1.73c-5.17-2.74-10.31-5.55-15.57-8.13a18.24,18.24,0,0,1-7.2-6c-2.44-3.49-5.07-6.85-7.52-10.13.38-1.29,1.25-1.11,2-1.09,7.76.26,15.51.59,23.26.78a225.53,225.53,0,0,0,28.94-1,170.7,170.7,0,0,0,32.9-7C-57.35,225.65-55.08,225-52.28,224.17Zm-13,16c0,.77,0,1.09,0,1.4A3,3,0,0,0-63,244.71a2.85,2.85,0,0,0,3.35-2c.8-3,1.47-6.12,2-9.22a3,3,0,0,0-2.53-3.43,3.26,3.26,0,0,0-3.26,2.21,2,2,0,0,0-.17.44C-64.18,235.35-64.77,238-65.26,240.14Z"/><path class="cls-3" d="M116.4,80a19.12,19.12,0,0,0-1.47,10.79c.09.63,0,1.27.15,1.89.87,5.09-.56,9.72-2.75,14.2-1.51,3.11-1.94,3.32-6,3-.69-1.65-.43-3.4-.42-5.12a54.86,54.86,0,0,0-5.08-22.51,6.91,6.91,0,0,0-1.35-2.48c-2.5-2.18-3.5-5.22-4.85-8.05q-74-155.05-148-310.13c-.74-1.56-1.43-3.14-2.25-5a16,16,0,0,0,5.81-12.25c1.83,1.27,2.23,3,3,4.5Q-29.36-215.58-11.86-180,50.87-52.72,113.62,74.57C114.46,76.27,115.34,78,116.4,80Z"/><path class="cls-3" d="M122.06,78.17c-1.27-2.74-2.34-5.19-3.52-7.59Q33.16-102.73-52.25-276a15.62,15.62,0,0,1-1.68-5,16.08,16.08,0,0,1,1.47,1.38c2,2.45,3.93,5,6,7.37,3.32,3.82,6.52,7.78,10.18,11.26a28.73,28.73,0,0,1,6,8.36Q49.6-92.73,129.52,67.13c.71,1.41,1.39,2.84,2.13,4.24.61,1.15,1.46,2.23,2.84,2.28,1.69.06,2.5,1.15,3.38,2.28,1.47,1.86,3.09,3.63,4.38,5.61a45.67,45.67,0,0,1,3.32,6.26,7.4,7.4,0,0,1,.52,3.24c-.15,3.45-2,4.48-5,2.76a34.74,34.74,0,0,1-9-7.61C129.12,82.82,126,79.69,122.06,78.17Z"/><path class="cls-3" d="M-24.61,122.68c-17.18-1.12-34.26-10.82-39.5-32.85a34.24,34.24,0,0,1,.64-18.24c5.22-17.4,17-27.12,34.72-30.21a32.18,32.18,0,0,1,14.51,1.18c18.78,5.3,28.55,19.31,30.73,36.9a28.66,28.66,0,0,1-.83,9.88C11,110.34-4.89,121-22.59,122.58-23.38,122.65-24.17,122.66-24.61,122.68Z"/></g><path class="cls-4" d="M138.33,231.49,80.63,410.23a212.92,212.92,0,0,0,31.43,23.08l26.34-79.65,34.49,104.18a211,211,0,0,0,42.51,5.37Z"/><path class="cls-5" d="M220.72,40.34c-116.8,0-211.5,94.7-211.5,211.5a210.52,210.52,0,0,0,39.49,123l87.86-265.75a1.79,1.79,0,0,1,3.4,0L259.32,459.77c98.37-18.15,172.9-104.31,172.9-207.93C432.22,135,337.53,40.34,220.72,40.34Zm-30.65,112L175,106.76h53.5A144.86,144.86,0,0,1,269,390.69L255.78,350.9"/><g class="cls-6"><g id="bbOPGu"><path class="cls-4" d="M232.78,108.12h1.05a4.65,4.65,0,0,1,2.31,1.66,29.31,29.31,0,0,0,3.36,3.51,77.84,77.84,0,0,0,9.3,7A54.72,54.72,0,0,1,261,131.45a1.8,1.8,0,0,0,1,.78c1.92.43,3.83,1,5.76,1.29,4.22.75,8.5,1.23,12.36,3.31.16.08.34.1.5.18a1.15,1.15,0,0,0,1.59-.37,148.73,148.73,0,0,1,10.67-10.49,55.42,55.42,0,0,1,6.42-5,7.52,7.52,0,0,1,5.5-1.23,5.49,5.49,0,0,0,.91.07c1.65,0,2.41.48,2.83,2.09a41.79,41.79,0,0,0,2,5.56c.9,2.13,1.81,4.27,2.77,6.38a76,76,0,0,1,6.14,19.47,40.76,40.76,0,0,1,.34,12.8c-.54,3.33-1.31,6.59-3.54,9.34a3.57,3.57,0,0,0-.42,4.25,29.39,29.39,0,0,1,2.65,7.54,10.8,10.8,0,0,1-2,9.66,38.13,38.13,0,0,1-4.88,5.12,57.17,57.17,0,0,1-9.67,7,2.25,2.25,0,0,0-1.32,2.33,23.68,23.68,0,0,0,.66,4.67,62.69,62.69,0,0,0,6.26,15.12,3.29,3.29,0,0,1,.69,1.54c0,1.51.82,2.65,1.5,3.86.46.82.7.81,1.13,0,.77-1.43,1.47-2.89,2.26-4.31a3.88,3.88,0,0,0,.63-3,3.94,3.94,0,0,1,.11-1.56,3.2,3.2,0,0,1,2.49-3,1.3,1.3,0,0,0,.88-.72c.45-.85.92-1.69,1.38-2.54a2.55,2.55,0,0,0-.12-2.93,25.88,25.88,0,0,1-2.86-5.89,14,14,0,0,1-.86-3.56,3.1,3.1,0,0,1,1.91-3.51,4.81,4.81,0,0,0,.78-.48,7.94,7.94,0,0,1,4.47-1.3,12,12,0,0,1,5.19,1.25c1,.48,1,.48,1.58-.37,2.95-4.3,5.92-8.57,8.8-12.91,4.54-6.81,9.13-13.58,13.86-20.26a2.23,2.23,0,0,0,.48-.78,8,8,0,0,1,1.72-2.9c.82-1.17,2-2.08,2.33-3.58a1.7,1.7,0,0,1,.45-.64,7,7,0,0,1,10.26-.37l1.49,1.48a2.12,2.12,0,0,0,1.08.71,1.51,1.51,0,0,1,1.19.92,5,5,0,0,0,.78.88,8.27,8.27,0,0,1,2.34,4.7c.18,2.46.18,4.9.13,7.35a6.34,6.34,0,0,1-1.09,3.86,23,23,0,0,0-2.2,3.57c-1.21,2.29-2.55,4.49-3.95,6.66-1.7,2.65-3.66,5.13-5.28,7.83-1.2,2-2.41,4-3.67,5.91-3.08,4.74-6.19,9.45-9.28,14.17-.52.79-.52.88.15,1.56a11.73,11.73,0,0,1,2,2.56,5.42,5.42,0,0,1-.68,6.56c-.25.3-.49.62-.71.94a4.37,4.37,0,0,1-2.6,1.87,11,11,0,0,1-5.07.23,14.36,14.36,0,0,0-2.07-.31,1.65,1.65,0,0,0-1.72.9c-1.05,1.87-2.16,3.71-3.12,5.63a2.5,2.5,0,0,0-.32,1.51,2.13,2.13,0,0,1-1.6,2.52,2.76,2.76,0,0,0-1.41,1.28c-2,3.21-4,6.39-5.92,9.62-1.57,2.65-1.95,2,0,5.12q11.82,18.8,22.27,38.38A129.58,129.58,0,0,1,360.79,339c.45,2.63,1.32,5.15,1.66,7.79a2.11,2.11,0,0,0,.26.74,2,2,0,0,1,0,2,2.79,2.79,0,0,0-.11,2.56,60.26,60.26,0,0,0,2.52-11.95c.32-2.83.38-5.68.6-8.51.44-5.59.63-11.18,1-16.77.18-3,.49-6,1-9a50.67,50.67,0,0,1,3.83-12.25,28.09,28.09,0,0,1,15.19-14.88,41.87,41.87,0,0,1,20.5-3.39,43.9,43.9,0,0,1,15.16,3.93,24.14,24.14,0,0,0,2.78,1.18,19.87,19.87,0,0,1,8.11,4.94c6.29,6.26,10.69,13.57,12.34,22.4v5.52a11.19,11.19,0,0,1-.84,2.88,11.83,11.83,0,0,1-4.09,4.71c-3,1.88-6.1,2.3-9.31.53a4,4,0,0,0-1.22-.45c-.83-.18-1.11-.53-1.08-1.37a7,7,0,0,1,.23-1.42,8.76,8.76,0,0,0,0-3.64,29.27,29.27,0,0,0-.66-2.95c-.88-2.91-1.42-5.91-3.18-8.53a20.07,20.07,0,0,0-6.57-6.49,15.65,15.65,0,0,0-11.67-1.6c-7.84,1.79-13.66,6-16.63,13.76a38.86,38.86,0,0,0-2.44,12.82q-.24,6.89-.25,13.78a160.92,160.92,0,0,1-1.07,19.51,84.13,84.13,0,0,1-3.62,16.77A50.54,50.54,0,0,1,366,395.91a18.93,18.93,0,0,1-6.94,3.88c-1.77.44-3.34,1.28-5,1.83a.91.91,0,0,0-.62.45c-.47,1.13-1.33,2-1.83,3.15a34.44,34.44,0,0,1-8.19,12.07,2,2,0,0,0-.62,1,5.29,5.29,0,0,1-2.76,3.17,10,10,0,0,1-2.56,1,90.65,90.65,0,0,1-12,2.27c-2.52.29-5.05.45-7.58.67a99.27,99.27,0,0,1-12.31.68,6.13,6.13,0,0,1-3.14-.75,3.92,3.92,0,0,0-1.11-.37.92.92,0,0,0-1.21.46,1.83,1.83,0,0,1-1.55,1.08c-1.19,0-2.34.26-3.52.33-3.76.22-7.51.45-11.27.66a10.87,10.87,0,0,1-3.88-.48c-.62-.19-1.16-.95-1.76-.66s-.85,1-1.26,1.47H273a3.81,3.81,0,0,0-1.42-.19c-1.32-.05-2.63-.11-3.94-.18-2-.12-4-.48-6-.56-1,0-1.7-.28-2.05-1.25a1.21,1.21,0,0,0-1-.87,5.09,5.09,0,0,1-3.22-1.9,12,12,0,0,1-3.12-6.8c-.2-2.17-.13-4.35,1.28-6.16a12.77,12.77,0,0,1,5.64-4.35c2.15-.81,2.14-.81,1.33-2.94-4.19-11-8.44-22-12.17-33.15-.09-.28-.09-.62-.49-.78a3.94,3.94,0,0,0-.71,1.36c-1.51,3.74-3,7.48-4.74,11.11a10.47,10.47,0,0,1-1.31,2.27,3.71,3.71,0,0,1-4.47,1.23,5.23,5.23,0,0,1-1.69-1,10.07,10.07,0,0,1-2.93-4.13,25.25,25.25,0,0,1-1.57-8,52.5,52.5,0,0,1,1.59-15.74c1.51-5.76,2.9-11.56,5.47-17,.39-.8,1-1.59.44-2.58a.62.62,0,0,1,0-.51c.58-.94.21-1.87,0-2.79a208.53,208.53,0,0,1-4.27-22,118.73,118.73,0,0,1-1.37-15.42c-.09-2.84-.44-5.67-.66-8.5a18.41,18.41,0,0,1,0-4.45c.69-4.28,1.45-8.55,2.11-12.83.6-3.93,1.47-7.83,1.52-11.83a2.41,2.41,0,0,1,.49-1.61,3.86,3.86,0,0,0,.75-1.92c1.83-9.5,3.86-18.95,6.53-28.26a5.28,5.28,0,0,0,.12-2.44c-.28-1.7-.36-3.41,1-4.84.71-.77.68-.84-.32-1.38a32.13,32.13,0,0,1-7.84-6.12c-3.23-3.33-6.32-6.8-9.23-10.41a52.19,52.19,0,0,1-7.11-11.62,31.32,31.32,0,0,1-2.77-9,2.2,2.2,0,0,0-1.22-2.09c-.9-.44-1-1.11-.52-2a14.12,14.12,0,0,1,.88-1.3c.84-1.22.86-1.25-.18-2.31a27.61,27.61,0,0,1-5.77-9.31,8.49,8.49,0,0,1-.6-3.73,1.43,1.43,0,0,1,.58-1.26c1.11-.67,2.14-1.49,3.57-1.47,2.23,0,4.45-.29,6.68-.24,1.14,0,2.28,0,3.42,0,.8,0,.93-.21.65-1a26.13,26.13,0,0,1-1-3.26c-.8-3.65-.38-7.32-.11-11a3.45,3.45,0,0,1,.36-1.25,3.25,3.25,0,0,0,.31-1.65,70.69,70.69,0,0,1,1.33-15,32.56,32.56,0,0,1,4.46-11.56A14.77,14.77,0,0,1,232.78,108.12Z"/></g></g></svg>