<svg xmlns="http://www.w3.org/2000/svg" width="146.703" height="93.998" viewBox="0 0 146.703 93.998"><defs><style>.a{fill:#e6e6e6;}.b{fill:#fff;}.c{fill:#e74c3c;}.d{fill:#a0616a;}.e{fill:#4e4e4e;}.f{fill:#222;}.g{fill:#ffb8b8;}</style></defs><rect class="a" width="146.641" height="93.915" transform="translate(0.063 0.083)"/><rect class="b" width="141.142" height="82.889" transform="translate(2.812 8.725)"/><rect class="c" width="146.641" height="6.23"/><circle class="b" cx="1.155" cy="1.155" r="1.155" transform="translate(3.475 2.03)"/><circle class="b" cx="1.155" cy="1.155" r="1.155" transform="translate(7.858 2.03)"/><circle class="b" cx="1.155" cy="1.155" r="1.155" transform="translate(12.24 2.03)"/><path class="d" d="M454.49,364.7s.53,7.314.288,7.744,4.244,8.156,4.244,8.156l7.172-6.721s-.434-9.3.028-9.717S454.49,364.7,454.49,364.7Z" transform="translate(-407.589 -332.676)"/><circle class="d" cx="8.383" cy="8.383" r="8.383" transform="translate(44.617 20.839)"/><path class="b" d="M446.115,406.742l-.86-.483-4.244-3.823s-.423-.158-.487,1.164l-.064,1.322-2.74,1.855-.126,30.032,18.95.916.8-30.22-4.279-2.857-.784-1.672-4.82,3.389Z" transform="translate(-393.764 -364.078)"/><path class="e" d="M412.589,409.524l-2.1,30.57H378.847c-4.033-4.774-7.254-29.339-3.817-30.067,1.123-.388,8.736-2.78,8.736-2.78a11.06,11.06,0,0,0,3-2.725,9.988,9.988,0,0,1,1.624-2.094l0,0,0,0c.018-.018.033-.035.051-.051a.03.03,0,0,1,.015-.013c.022-.024.044-.046.068-.068v.033l-.161,5.59,6.062,20.834s1.708-12.506,3.442-16.4a26.336,26.336,0,0,0,1.749-6.846c.2-1.507.252-2.555.252-2.555l.024.031v0h0c.026.033.068.088.13.163l0,0c.507.635,2.135,2.559,3.239,2.612,1.321.064,4.951,2.669,4.951,2.669A11.152,11.152,0,0,1,412.589,409.524Z" transform="translate(-341.383 -363.962)"/><path class="d" d="M532.167,537.676s2.388-8.278,5.871-7.226-.341,7.051-.341,7.051Z" transform="translate(-471.145 -468.751)"/><path class="d" d="M427.023,571.115s-7.785-3.689-6.187-6.957,6.9,1.471,6.9,1.471Z" transform="translate(-379.875 -495.467)"/><path class="b" d="M453.346,576.609h-1.869a18.953,18.953,0,0,0-2.281-.419c-.176-.009-.234-.285-.212-.721a13.715,13.715,0,0,1,.355-2.142c.267-1.191.624-2.48.854-3.3v0c.135-.479.223-.8.225-.843a6.14,6.14,0,0,1,2.072.21c.443.082.781.15.781.15l.042,3.978Z" transform="translate(-403.08 -500.477)"/><path class="e" d="M492.987,468.677c-.538,1.524-.927,2.731-1.244,3.651H467.271c-.082-.843-.185-2-.251-3.139-.108-1.829-.126-3.629.172-4.079a.21.21,0,0,1,.132-.1c.571-.113,7.026-.214,11.6-.274l1.776-.02c1.648-.02,2.764-.031,2.764-.031s.088-3.018.357-6.865c.474-6.764,1.511-16.094,3.625-16.133l1.544.075s.88.042,1.257,1.385S494.523,464.333,492.987,468.677Z" transform="translate(-417.781 -396.196)"/><path class="f" d="M434.943,287.315l-1.561-.655a11.311,11.311,0,0,1,8.09-2.649l-1.237-1.363a5.9,5.9,0,0,1,5.976,2.171,25.836,25.836,0,0,1,4.1,5.791l1.7.082-.779,1.386,2.417,1.54-2.539-.378a7.176,7.176,0,0,1-.419,3.667l-.654,1.561a45.869,45.869,0,0,1-2.06-5.311l-.07,1.444s-1.526-1.377-1.484-2.243l-.915.969-.357-1.61-5.421,1.331.929-1.258-3.343.273,1.377-1.526s-3.846,1.7-4.067,3.278-2.2,3.513-2.2,3.513l-.8-1.486S430.65,289.279,434.943,287.315Z" transform="translate(-388.808 -265.947)"/><path class="a" d="M396.708,330.759H286.2V268.442H396.708ZM286.566,330.4H396.345v-61.59H286.566Z" transform="translate(-269.891 -254.445)"/><path class="f" d="M739.981,302.6a4.059,4.059,0,0,0-3.112-1.848s-2.014-.258-3.307,2.431c-1.2,2.506-2.867,4.926-.268,5.513l.47-1.461.291,1.57a10.166,10.166,0,0,0,1.112.019c2.784-.09,5.434.026,5.349-.973C740.4,306.527,740.987,304.3,739.981,302.6Z" transform="translate(-634.587 -280.879)"/><path class="g" d="M748.659,333.329a1.1,1.1,0,0,1-.1.581c-.2.342-.674.393-.961.663a1.614,1.614,0,0,0-.351,1.158,3.2,3.2,0,0,0,.13,1.284,3.122,3.122,0,0,0,.365.626q.263.379.531.756a3.263,3.263,0,0,0,.318.4,2.71,2.71,0,0,0,1.2.635,1.5,1.5,0,0,0,.87.058,1.666,1.666,0,0,0,.506-.311,2.711,2.711,0,0,0,.573-.555,2.584,2.584,0,0,0,.35-1.184,25.541,25.541,0,0,0,.168-3.68.9.9,0,0,0-.07-.391c-.146-.284-.535-.345-.741-.589a1.179,1.179,0,0,1-.181-.78l0-.7a.291.291,0,0,0-.034-.169.287.287,0,0,0-.2-.093,6.719,6.719,0,0,0-1.308-.087,3.228,3.228,0,0,0-1.343.179c-.279.179.07.675.135.953A6.212,6.212,0,0,1,748.659,333.329Z" transform="translate(-647.12 -305.59)"/><circle class="g" cx="2.809" cy="2.809" r="2.809" transform="translate(99.544 20.927)"/><path class="b" d="M740.991,349.915a.77.77,0,0,0-.937.239,1.7,1.7,0,0,0-.308.988,6.457,6.457,0,0,1-.075,1.049c-.169.758-.795,1.381-.841,2.156a5.757,5.757,0,0,0,.734,2.146,3.578,3.578,0,0,1,.192,1.4.56.56,0,0,0,.09.436.5.5,0,0,0,.194.1,12.65,12.65,0,0,0,3.9.508l2.173.055a.692.692,0,0,0,.384-.064c.195-.12.221-.387.224-.616.029-1.969-.055-3.938-.139-5.906a12.538,12.538,0,0,0-.212-2.128.61.61,0,0,0-.266-.454.586.586,0,0,0-.448.03c-.673.25-2.814,1.21-3.025.869C742.383,350.329,740.871,350.212,740.991,349.915Z" transform="translate(-640.24 -321.012)"/><path class="e" d="M731.916,345.014c-.055.039-.11.081-.162.124a3.137,3.137,0,0,0-.522.55,4.352,4.352,0,0,0-.591,1.115,10.8,10.8,0,0,0-.471,2.175,5.256,5.256,0,0,0-.074.82c.016,1.01.613,1.946.614,2.956,0,.038,0,.076,0,.114a3.31,3.31,0,0,1-.058.493c-.044.237-.107.471-.169.7a6.73,6.73,0,0,1-.631,1.7c-.031.052-.064.1-.1.153H727.6c.017-.051.035-.1.051-.154l1.1-3.253c.112-.332.224-.665.3-1.005a9.524,9.524,0,0,0,.185-1.276q.127-1.334.167-2.674a3.25,3.25,0,0,1,.121-.952,3.113,3.113,0,0,1,.382-.7l.665-1a1.538,1.538,0,0,1,.444-.493c.159-.1.348-.133.515-.215a2.631,2.631,0,0,0,.3-.2c.25-.177.544-.364.76-.183a.424.424,0,0,1,.089.1.508.508,0,0,1,.033.059C732.924,344.43,732.194,344.817,731.916,345.014Z" transform="translate(-631.055 -316.061)"/><path class="e" d="M745.48,396.972h-9.953c.054-.049.107-.1.158-.154l.022-.023a3.612,3.612,0,0,0,.659-1.4l.431-1.162a.6.6,0,0,1,.11-.206.34.34,0,0,1,.151-.091.587.587,0,0,1,.134-.025,1.483,1.483,0,0,1,.194,0q2.679.138,5.354.337l.691.053c.188.14.374.288.551.444a4.932,4.932,0,0,1,1.362,1.807c.035.085.066.172.092.26C745.452,396.869,745.467,396.92,745.48,396.972Z" transform="translate(-637.54 -357.109)"/><path class="f" d="M552.75,113.757l-2.042-1.07-2.82.438L547.3,115.7l1.453-.056.406-.947v.931l.67-.026.389-1.507.243,1.6,2.383-.049Z" transform="translate(-447.818 -92.203)"/><path class="e" d="M771.894,354.119h-2.247c-.016-.051-.031-.1-.046-.154a12.063,12.063,0,0,1-.348-1.741c-.024-.168-.044-.337-.064-.505-.012-.107-.024-.213-.035-.319a17.8,17.8,0,0,0-.59-3.516c-.044-.137-.091-.274-.137-.411a4.844,4.844,0,0,1-.2-.722c-.1-.562-.025-1.144-.126-1.7-.057-.313-.17-.589-.238-.876a1.774,1.774,0,0,1-.051-.53,1.142,1.142,0,0,1,.6-.3.315.315,0,0,0,.212-.085.266.266,0,0,0,.035-.157,7.522,7.522,0,0,0-.062-1.083q-.023-.189-.058-.377c0-.006,0-.012,0-.018a1.486,1.486,0,0,1,.6-.081l.664,0,1.227,0a2.7,2.7,0,0,1,1.12.162,1.783,1.783,0,0,1,.809.829,4.77,4.77,0,0,1,.365,1.118,1.5,1.5,0,0,1,.038.323c.017.864-.628,1.735-.692,2.618-.021.286,0,.575-.023.861s-.1.568-.117.855c0,.015,0,.03,0,.044a3.077,3.077,0,0,0,.226,1.092c.195.547.432,1.078.677,1.6.236.51.479,1.018.7,1.536a2.629,2.629,0,0,1,.226.759,1.053,1.053,0,0,1-.116.613.716.716,0,0,1-.091.13l0,0-.021.022Z" transform="translate(-663.954 -314.256)"/><path class="g" d="M794.986,403.931a.849.849,0,0,1-.082.294l-.011.027c-.045.105-.09.209-.137.313l-.07.154h-1.271a1.421,1.421,0,0,0,.127-.154c.195-.271.308-.6.507-.893a.683.683,0,0,1,.093-.111C794.46,403.254,795.006,403.317,794.986,403.931Z" transform="translate(-684.906 -364.856)"/><path class="e" d="M791.226,359.232a1.513,1.513,0,0,0,.041-.154c.009-.041.017-.081.023-.121.041-.268.04-.542.1-.805.09-.377.359-.823.137-1.14a1.2,1.2,0,0,0,.477-.213.41.41,0,0,0,.129-.471c-.079-.154-.293-.256-.264-.428a.407.407,0,0,1,.075-.149,1.115,1.115,0,0,0-.019-1.223c-.07-.1-.156-.187-.22-.292a1.74,1.74,0,0,1-.159-.4,7.533,7.533,0,0,0-.969-2.009,1.332,1.332,0,0,1-.214-.4,1.634,1.634,0,0,1-.017-.47,3.153,3.153,0,0,0-.55-1.748c-.025-.038-.05-.076-.075-.114a10.123,10.123,0,0,0-1.121-1.306.719.719,0,0,0-.394.286.85.85,0,0,0-.076.286c-.109.76-.2,1.524-.277,2.288a5.589,5.589,0,0,0-.031,1.16,1.873,1.873,0,0,0,.436,1.058c.163.18.371.313.548.479q.043.04.083.083a2.721,2.721,0,0,1,.338.444,3.831,3.831,0,0,1,.563,2.3,3.73,3.73,0,0,1-.058.433,1.792,1.792,0,0,1-.2.583c-.081.133-.187.249-.259.386a.488.488,0,0,0-.035.446.909.909,0,0,1,.317.057,1.346,1.346,0,0,1,.6.457,1.978,1.978,0,0,1,.152.233,2.864,2.864,0,0,1,.152.313c.018.042.036.086.053.13a.128.128,0,0,1,.009.024Z" transform="translate(-680.318 -319.369)"/><path class="a" d="M695.08,310.959H655.333V288.442H695.08ZM655.7,310.6h39.02v-21.79H655.7Z" transform="translate(-571.923 -270.81)"/><circle class="a" cx="4.089" cy="4.089" r="4.089" transform="translate(69.233 79.587)"/><circle class="b" cx="3.135" cy="3.135" r="3.135" transform="translate(70.187 80.541)"/><path class="c" d="M593.71,645.781a.142.142,0,0,1-.1-.042l-3.142-3.142a.143.143,0,0,1,.2-.2l3.142,3.142a.143.143,0,0,1-.1.244Z" transform="translate(-518.816 -560.392)"/><path class="c" d="M597.23,652.6l-.462-.462a.018.018,0,0,0-.03.015.572.572,0,0,0,.477.477.018.018,0,0,0,.018-.01A.018.018,0,0,0,597.23,652.6Z" transform="translate(-523.979 -568.394)"/><path class="c" d="M600.21,648.693l.463.463a.018.018,0,0,0,.03-.015.572.572,0,0,0-.478-.478.018.018,0,0,0-.015.03Z" transform="translate(-526.816 -565.551)"/><path class="c" d="M598.93,645.5a.287.287,0,0,0,0-.31,3.025,3.025,0,0,0-.886-.9,2.246,2.246,0,0,0-1.213-.375,2.024,2.024,0,0,0-.641.105.036.036,0,0,0-.014.059l.422.422a.036.036,0,0,0,.034.009.857.857,0,0,1,1.035,1.035.036.036,0,0,0,.009.034l.606.607a.036.036,0,0,0,.048,0A3.066,3.066,0,0,0,598.93,645.5Z" transform="translate(-523.51 -561.665)"/><path class="c" d="M590.2,648.829a.857.857,0,0,1-.833-1.059.036.036,0,0,0-.009-.034l-.6-.6a.036.036,0,0,0-.048,0,3.565,3.565,0,0,0-.6.676.285.285,0,0,0-.006.317,2.981,2.981,0,0,0,.877.9,2.211,2.211,0,0,0,1.217.372,2.126,2.126,0,0,0,.648-.1.036.036,0,0,0,.014-.059l-.424-.424a.036.036,0,0,0-.034-.009A.855.855,0,0,1,590.2,648.829Z" transform="translate(-516.876 -564.297)"/><circle class="a" cx="4.089" cy="4.089" r="4.089" transform="translate(53.717 79.587)"/><circle class="b" cx="3.135" cy="3.135" r="3.135" transform="translate(54.671 80.541)"/><path class="c" d="M506.689,644.78a1.682,1.682,0,0,1-.785-.268,5.106,5.106,0,0,1-1.234-.923,4.682,4.682,0,0,1-.926-1.233c-.329-.6-.273-.911-.21-1.045a.835.835,0,0,1,.327-.351,1.581,1.581,0,0,1,.256-.136l.025-.011a.239.239,0,0,1,.2-.018.573.573,0,0,1,.186.143,3.094,3.094,0,0,1,.466.691.688.688,0,0,1,.091.283.447.447,0,0,1-.114.266l-.035.046c-.068.089-.083.115-.073.161a1.693,1.693,0,0,0,.412.612,1.623,1.623,0,0,0,.6.4c.048.01.074-.005.166-.076l.041-.031a.45.45,0,0,1,.27-.121h0a.646.646,0,0,1,.284.1,3.407,3.407,0,0,1,.689.462.574.574,0,0,1,.143.186.241.241,0,0,1-.018.2l-.011.025a1.57,1.57,0,0,1-.136.255.835.835,0,0,1-.352.327.6.6,0,0,1-.264.058Z" transform="translate(-447.678 -559.104)"/><circle class="a" cx="4.089" cy="4.089" r="4.089" transform="translate(84.87 79.587)"/><circle class="b" cx="3.135" cy="3.135" r="3.135" transform="translate(85.824 80.541)"/><path class="c" d="M683.219,660.7h-1.142a.143.143,0,0,1,0-.286h1.142a.143.143,0,0,1,0,.286Z" transform="translate(-593.689 -575.17)"/><path class="c" d="M680.077,650.347a1.287,1.287,0,0,1-1.285-1.285v-.286a.143.143,0,0,1,.286,0v.286a1,1,0,1,0,2,0v-.286a.143.143,0,0,1,.286,0v.286A1.287,1.287,0,0,1,680.077,650.347Z" transform="translate(-591.118 -565.528)"/><path class="c" d="M685.219,657.489a.143.143,0,0,1-.143-.143v-.714a.143.143,0,0,1,.286,0v.714a.143.143,0,0,1-.143.143Z" transform="translate(-596.26 -571.956)"/><path class="c" d="M682.648,643.99a.7.7,0,0,1-.5-.215.722.722,0,0,1-.209-.508v-.991a.711.711,0,0,1,.708-.714h.006a.706.706,0,0,1,.714.714v.991A.719.719,0,0,1,682.648,643.99Z" transform="translate(-593.689 -559.742)"/></svg>