<svg xmlns="http://www.w3.org/2000/svg" width="180" height="111.975" viewBox="0 0 180 111.975"><defs><style>.a{fill:#e6e6e6;}.b{fill:#fff;}.c{fill:#222;}.d{fill:#e74c3c;}.e{fill:#ffb8b8;}.f{fill:#8e3026;}.g{fill:#4e4e4e;}</style></defs><g transform="translate(0.176)"><rect class="a" width="36" height="66" transform="translate(124.824 22.824)"/><path class="b" d="M788,358.975h29.98V298.61H788Z" transform="translate(-659.98 -273.289)"/><rect class="a" width="8.756" height="0.813" transform="translate(139.543 38.268)"/><rect class="a" width="15.26" height="0.813" transform="translate(139.543 41.081)"/><rect class="a" width="15.245" height="0.813" transform="translate(139.543 43.893)"/><rect class="a" width="6.505" height="6.505" transform="translate(131.224 38.28)"/><rect class="a" width="8.756" height="0.813" transform="translate(139.543 52.245)"/><rect class="a" width="15.26" height="0.813" transform="translate(139.543 55.058)"/><rect class="a" width="15.245" height="0.813" transform="translate(139.543 57.87)"/><rect class="a" width="6.505" height="6.505" transform="translate(131.224 52.257)"/><rect class="a" width="8.756" height="0.813" transform="translate(139.543 66.222)"/><rect class="a" width="15.26" height="0.813" transform="translate(139.543 69.035)"/><rect class="a" width="15.245" height="0.813" transform="translate(139.543 71.848)"/><rect class="a" width="6.505" height="6.505" transform="translate(131.224 66.234)"/><rect class="a" width="37" height="66" transform="translate(21.824 22.824)"/><path class="b" d="M280,358.975h29.98V298.61H280Z" transform="translate(-254.884 -273.289)"/><rect class="a" width="8.756" height="0.813" transform="translate(36.639 38.268)"/><rect class="a" width="15.26" height="0.813" transform="translate(36.639 41.081)"/><rect class="a" width="15.245" height="0.813" transform="translate(36.639 43.893)"/><rect class="a" width="6.505" height="6.505" transform="translate(28.32 38.28)"/><rect class="a" width="8.756" height="0.813" transform="translate(36.639 52.245)"/><rect class="a" width="15.26" height="0.813" transform="translate(36.639 55.058)"/><rect class="a" width="15.245" height="0.813" transform="translate(36.639 57.87)"/><rect class="a" width="6.505" height="6.505" transform="translate(28.32 52.257)"/><rect class="a" width="8.756" height="0.813" transform="translate(36.639 66.222)"/><rect class="a" width="15.26" height="0.813" transform="translate(36.639 69.035)"/><rect class="a" width="15.245" height="0.813" transform="translate(36.639 71.848)"/><rect class="a" width="6.505" height="6.505" transform="translate(28.32 66.234)"/><ellipse class="a" cx="90" cy="3.5" rx="90" ry="3.5" transform="translate(-0.176 86.824)"/><rect class="c" width="50.193" height="91.56" transform="translate(66.465)"/><path class="b" d="M494.82,272.011h45.855v-86.9H494.82Z" transform="translate(-426.185 -182.78)"/><rect class="d" width="11.92" height="1.107" transform="translate(86.837 22.315)"/><rect class="a" width="20.776" height="1.107" transform="translate(86.837 26.144)"/><rect class="a" width="20.756" height="1.107" transform="translate(86.837 29.974)"/><rect class="d" width="8.856" height="8.856" transform="translate(75.511 22.331)"/><rect class="d" width="11.92" height="1.107" transform="translate(86.837 41.344)"/><rect class="a" width="20.776" height="1.107" transform="translate(86.837 45.173)"/><rect class="a" width="20.756" height="1.107" transform="translate(86.837 49.003)"/><rect class="d" width="8.856" height="8.856" transform="translate(75.511 41.361)"/><rect class="d" width="11.92" height="1.107" transform="translate(86.837 60.373)"/><rect class="a" width="20.776" height="1.107" transform="translate(86.837 64.203)"/><rect class="a" width="20.756" height="1.107" transform="translate(86.837 68.032)"/><rect class="d" width="8.856" height="8.856" transform="translate(75.511 60.39)"/><path class="e" d="M504.567,492.515l-.608,2.633s.2,6.077-1.418,5.469-1.215-5.874-1.215-5.874l1.418-2.633Z" transform="translate(-431.338 -427.592)"/><ellipse class="e" cx="4.5" cy="4" rx="4.5" ry="4" transform="translate(59.824 27.824)"/><path class="e" d="M455.909,337.11l-.405,5.874,5.064.608s0-4.862.405-5.469S455.909,337.11,455.909,337.11Z" transform="translate(-394.833 -303.99)"/><path class="f" d="M435.653,358.6l-6.56-2.778s-3.134-2.418-4.972-.63l-.825,1.18S416,359.208,416,361.436l2.836,11.141s-1.621,6.28.81,6.685l13.167,1.215a4.557,4.557,0,0,0,.2-5.064l.608-6.685Z" transform="translate(-363.335 -317.884)"/><path class="f" d="M491,374.812l4.456-.2s1.418.405,2.431,4.254a58.2,58.2,0,0,1,1.215,10.128l-2.431,11.344-3.038-.405,1.215-10.939-2.026-7.292Z" transform="translate(-423.142 -333.894)"/><path class="f" d="M408.865,381.61l-2.2.684s-1.854,2.759-1.854,4.177-.81,12.154-.81,12.154l5.267,8.71,1.621-4.254-3.241-5.469,2.633-6.685Z" transform="translate(-353.766 -339.476)"/><path class="c" d="M435.019,475.565l-14.564-1.281s-1.439,9.182-1.236,12.828.405,9.318.405,9.318L418,521.143l6.28-.81.81-20.459,2.633-11.141,3.039,14.18,2.026,18.231,5.469-.608-1.823-22.08S438.058,478.6,435.019,475.565Z" transform="translate(-364.93 -413.377)"/><path class="c" d="M496.055,697.609l1.823.608s3.849-1.013,2.836,1.621a3.638,3.638,0,0,1-3.849,2.228s-3.444,2.633-4.862.608l.81-4.254Z" transform="translate(-423.94 -591.464)"/><path class="c" d="M423.055,697.609l1.823.608s3.849-1.013,2.836,1.621a3.638,3.638,0,0,1-3.849,2.228s-3.444,2.633-4.862.608l.81-4.254Z" transform="translate(-365.727 -591.464)"/><path class="g" d="M446.987,314.206s-4.254-3.039-2.026-6.685c1.546-2.53,4.749-2.329,6.566-1.969a3.07,3.07,0,0,1,2.246,1.767c.3.709.3,1.418-.912,1.418-2.431,0-1.215,1.823-1.215,1.823s-1.621.405-1.215,1.823S446.987,314.206,446.987,314.206Z" transform="translate(-385.912 -278.655)"/></g></svg>