<svg xmlns="http://www.w3.org/2000/svg" width="141.959" height="110.484" viewBox="0 0 141.959 110.484"><defs><style>.a{fill:#3f3d56;}.b{fill:#ddd;}.c{fill:#222;}.d,.h{fill:#4e4e4e;}.e{fill:#a0616a;}.f{fill:#2f2e41;}.g{opacity:0.15;}.h{opacity:0.1;}.i{fill:#e74c3c;}</style></defs><path class="a" d="M964.353,667.177a11.633,11.633,0,0,1,7.481-13.874l.2-.075.047.208A11.633,11.633,0,0,1,964.6,667.31l-.2.075Zm7.407-13.442a11.218,11.218,0,0,0-7.087,13.143,11.218,11.218,0,0,0,7.087-13.143Z" transform="translate(-839.279 -564.428)"/><path class="b" d="M971.1,691.18a13.3,13.3,0,0,0-5.086,6.6,11.447,11.447,0,0,0,13.3-8A13.3,13.3,0,0,0,971.1,691.18Z" transform="translate(-840.893 -595.103)"/><path class="a" d="M269.81,171.78c-.437,0-.878-.007-1.311-.02l.01-.314c.622.019,1.256.025,1.881.016l0,.315Q270.1,171.78,269.81,171.78Zm2.478-.073-.018-.314c.623-.037,1.253-.088,1.874-.153l.033.313C273.551,171.618,272.916,171.67,272.288,171.707Zm-5.681-.049c-.628-.048-1.262-.111-1.886-.188l.038-.312c.619.076,1.248.138,1.871.186Zm9.449-.346-.047-.311c.619-.094,1.242-.2,1.852-.324l.061.309C277.308,171.107,276.68,171.217,276.056,171.312Zm-13.21-.115c-.62-.105-1.246-.226-1.861-.359l.067-.308c.61.132,1.231.252,1.847.357Zm16.926-.624-.076-.306c.607-.15,1.218-.316,1.815-.493l.089.3C281,170.255,280.385,170.422,279.773,170.573Zm-20.629-.18c-.608-.162-1.221-.34-1.82-.529l.095-.3c.595.188,1.2.365,1.806.525Zm24.262-.9-.1-.3c.589-.2,1.182-.426,1.762-.658l.117.292C284.6,169.066,284,169.289,283.406,169.5Zm-27.88-.247c-.591-.217-1.185-.452-1.767-.7l.122-.29c.577.243,1.167.476,1.753.691Zm31.394-1.16-.13-.286c.566-.257,1.135-.532,1.691-.816l.143.28C288.063,167.553,287.49,167.83,286.92,168.089Zm3.368-1.722-.156-.273c.543-.31,1.084-.635,1.61-.968l.168.266C291.38,165.728,290.834,166.056,290.288,166.368Zm3.2-2.024-.18-.258c.511-.357,1.021-.731,1.516-1.111l.192.25C294.515,163.608,294,163.984,293.486,164.344Zm-47.974-.443c-.508-.369-1.016-.756-1.509-1.149l.2-.246c.489.391.993.774,1.5,1.14Zm50.977-1.864-.2-.241c.476-.4.95-.821,1.409-1.245l.214.231C297.446,161.209,296.968,161.632,296.488,162.036Zm-53.94-.5c-.473-.414-.943-.845-1.4-1.281l.218-.227c.451.432.917.86,1.386,1.271Zm56.721-2.071-.224-.221c.439-.445.873-.905,1.291-1.368l.234.211C300.15,158.552,299.712,159.015,299.27,159.464Zm-59.455-.553c-.434-.456-.863-.928-1.274-1.4l.238-.206c.408.47.834.939,1.265,1.392Zm61.992-2.263-.243-.2c.4-.483.787-.981,1.161-1.481l.252.188C302.6,155.66,302.207,156.162,301.807,156.648Zm-64.475-.6c-.39-.493-.774-1-1.141-1.512l.255-.184c.364.506.745,1.011,1.132,1.5Zm66.746-2.439-.26-.177c.351-.517.695-1.049,1.022-1.581l.268.165C304.778,152.555,304.431,153.091,304.078,153.611Zm-68.957-.634c-.343-.526-.679-1.067-1-1.608l.271-.16c.317.537.65,1.074.99,1.6Zm70.943-2.6-.275-.152c.3-.547.6-1.108.873-1.669l.282.14C306.664,149.262,306.368,149.828,306.063,150.379Zm1.681-3.4-.288-.126c.251-.573.492-1.159.716-1.743l.294.113C308.24,145.808,308,146.4,307.744,146.976Zm-76.158-.679c-.241-.579-.472-1.172-.687-1.761l.3-.108c.213.585.442,1.173.681,1.748Zm77.519-2.867-.3-.1c.2-.592.382-1.2.551-1.8l.3.085C309.49,142.224,309.3,142.834,309.105,143.43Zm-78.812-.69c-.187-.6-.363-1.213-.523-1.822l.3-.08c.159.6.333,1.212.519,1.808Zm79.838-2.958-.307-.071c.141-.607.27-1.226.383-1.841l.31.057C310.4,138.546,310.273,139.171,310.131,139.782Zm-80.8-.707c-.131-.615-.25-1.241-.353-1.862l.31-.052c.1.616.22,1.238.35,1.848Zm81.485-3.019-.312-.043c.085-.616.156-1.245.213-1.868l.314.028C310.974,134.8,310.9,135.434,310.817,136.056Zm-82.106-.719c-.074-.623-.135-1.258-.181-1.886l.314-.023c.046.624.106,1.254.18,1.872Zm82.448-3.055-.314-.014c.028-.624.042-1.256.042-1.88h.315C311.2,131.017,311.188,131.654,311.159,132.282Zm-82.725-.724c-.011-.386-.016-.78-.016-1.17q0-.363.006-.725l.315.006q-.006.359-.006.72c0,.387.006.778.016,1.161Zm.379-3.769-.314-.02c.039-.629.094-1.264.161-1.888l.313.034c-.067.619-.121,1.25-.16,1.874Zm81.87-1.92c-.063-.621-.149-.923-.241-1.541l.311-.046c.092.623.171,1.1.234,1.723Zm-81.465-1.818-.311-.048c.1-.623.208-1.25.333-1.866l.308.062C229.426,122.81,229.315,123.433,229.219,124.051Zm80.906-1.576c-.12-.614-.255-1.232-.4-1.837l.306-.074c.148.61.285,1.232.406,1.851Zm-80.161-2.109-.305-.077c.153-.61.322-1.224.5-1.827l.3.091C230.284,119.15,230.116,119.76,229.965,120.365Zm79.271-1.544c-.175-.6-.367-1.2-.57-1.792l.3-.1c.2.594.4,1.2.575,1.806Zm-78.188-2.062-.3-.1c.209-.6.435-1.193.671-1.777l.292.118C231.48,115.575,231.256,116.169,231.048,116.759Zm76.965-1.494c-.23-.579-.476-1.161-.731-1.728l.287-.129c.257.572.505,1.158.736,1.741Zm-75.553-2-.286-.131c.263-.573.543-1.147.832-1.706l.28.144C233,112.128,232.722,112.7,232.461,113.266Zm74.012-1.422c-.282-.556-.58-1.113-.887-1.655l.274-.155c.309.547.61,1.108.894,1.668Zm-72.285-1.925-.273-.157c.314-.545.645-1.091.984-1.622l.265.169C234.829,108.836,234.5,109.378,234.189,109.919Zm70.435-1.343c-.333-.529-.681-1.057-1.035-1.568l.259-.179c.357.515.708,1.046,1.043,1.58Zm-68.409-1.829-.257-.181c.363-.515.742-1.028,1.128-1.525l.249.193C236.951,105.727,236.575,106.236,236.215,106.746Zm66.268-1.258c-.379-.5-.774-.991-1.174-1.468l.241-.2c.4.481.8.979,1.183,1.479Zm-63.962-1.715-.24-.2c.407-.478.832-.954,1.261-1.415l.23.215C239.346,102.826,238.925,103.3,238.521,103.773Zm61.548-1.166c-.423-.46-.861-.916-1.3-1.356l.222-.223c.445.443.887.9,1.313,1.366Zm-58.982-1.584-.22-.225c.45-.44.916-.876,1.384-1.294l.21.235c-.465.415-.927.847-1.374,1.284ZM297.4,99.956c-.463-.42-.942-.835-1.422-1.232l.2-.243c.484.4.966.818,1.433,1.241Zm-53.51-1.437-.2-.244c.487-.4.99-.787,1.5-1.162l.188.253c-.5.372-1,.76-1.484,1.153Zm3.019-2.238-.176-.261c.521-.351,1.057-.694,1.594-1.021l.164.269c-.533.324-1.065.665-1.582,1.013Zm3.209-1.952-.151-.276c.551-.3,1.116-.594,1.68-.87l.138.283C251.227,93.74,250.666,94.03,250.119,94.33Zm37.988-.729c-.56-.279-1.134-.549-1.705-.8l.127-.288c.576.255,1.154.526,1.718.807Zm-34.616-.92-.125-.289c.576-.25,1.165-.489,1.751-.712l.112.294C254.647,92.2,254.062,92.433,253.49,92.681Zm31.17-.6c-.583-.226-1.179-.442-1.773-.641l.1-.3c.6.2,1.2.418,1.787.646ZM257,91.348l-.1-.3c.6-.2,1.208-.381,1.814-.549l.084.3C258.2,90.97,257.595,91.153,257,91.348Zm24.09-.468c-.6-.171-1.213-.331-1.82-.474l.072-.306c.612.144,1.229.3,1.834.477Zm-20.466-.538-.07-.307c.613-.14,1.238-.268,1.857-.379l.056.31C261.853,90.076,261.233,90.2,260.624,90.342Zm16.807-.325c-.613-.115-1.237-.217-1.856-.3l.044-.312c.623.088,1.252.191,1.87.307Zm-13.106-.343-.042-.312c.623-.083,1.257-.153,1.883-.208l.027.314C265.572,89.522,264.943,89.592,264.325,89.674Zm9.383-.181c-.62-.058-1.251-.1-1.876-.134l.015-.314c.629.031,1.265.076,1.89.135Zm-5.637-.146-.013-.314c.578-.024,1.168-.036,1.753-.037h.142v.315h-.142C269.23,89.311,268.645,89.324,268.071,89.347Z" transform="translate(-219.382 -88.996)"/><rect class="a" width="115.362" height="0.315" transform="translate(26.598 102.66)"/><path class="c" d="M637.05,405l1.574,24.394s3.777,9.6,3.62,18.729c0,0-1.417,3.62-.315,4.249s1.731,1.1,1.1,1.574-1.1,1.574-.63,1.889.63.787.472.787h-4.721s.944-2.361-.472-2.99-.63-2.2-.63-2.2l-10.545-30.847-8.341,28.329s1.416.944.315,1.416-1.574-.472-1.1.472a1.465,1.465,0,0,1-.157,1.574c0,.157-4.721-.472-4.721-.472s2.361-2.046,1.259-2.518-1.574-.944-1.259-1.259a29.812,29.812,0,0,0,1.574-3.305s.63-11.332.787-11.8a29.782,29.782,0,0,0,0-3.777c0-1.1-.157-5.508.315-6.61s.944-14.637,3.462-16.21S637.05,405,637.05,405Z" transform="translate(-542.933 -355.261)"/><path class="d" d="M575.431,699.1s3.148,6.453.944,7.24-5.036.157-5.666,1.1-7.554,2.046-7.712-.315,7.554-6.767,7.554-6.767l1-1.618Z" transform="translate(-501.302 -602.78)"/><path class="d" d="M737.431,729.1s3.148,6.453.944,7.24-5.036.157-5.666,1.1-7.554,2.046-7.712-.315,7.554-6.767,7.554-6.767l1-1.618Z" transform="translate(-637.806 -628.058)"/><circle class="e" cx="5.194" cy="5.194" r="5.194" transform="translate(79.873 9.683)"/><path class="e" d="M527.621,112.025l-.63,4.564-4.721,3.62-1.259-1.731V112.5Z" transform="translate(-439.013 -94.394)"/><path class="d" d="M654.149,231.281s4.879.472,7.4-1.259l5.036,29.745s-17.784,1.416-18.571.472v-9.286l3.148-15.109Z" transform="translate(-572.938 -207.826)"/><path class="b" d="M706.509,220.985l1.692,1.422s6.925,1.1,6.453,2.99l-1.889,22.348.63,7.554s-5.351-1.416-9.443,0-.841-30.438-.841-30.438S706.862,221.452,706.509,220.985Z" transform="translate(-618.334 -200.212)"/><path class="b" d="M647.352,231.931s-5.036,3.634-5.666,5.995-2.675,27.227-2.675,27.227.944-.472,1.416.315S648.139,233.176,647.352,231.931Z" transform="translate(-565.354 -209.435)"/><path class="f" d="M676.409,138.814a2.483,2.483,0,0,1-.346-1.752,5.309,5.309,0,0,0,.151-1.579,15.625,15.625,0,0,1,.908-2.292c.454-.822.238-1.168,1.665-1.427s.843-2.119,4.606-.108a1.1,1.1,0,0,0,1.146.432c.778-.151,1.06.93,1.06.93s.519-.3.714.13,1.582-.26,1.582,2.66a12.087,12.087,0,0,1-1.579,5.527s.116-4.911-2.458-5.408-5.341-1.946-6.012-.087a14.177,14.177,0,0,1-1.438,2.973Z" transform="translate(-596.533 -124.164)"/><ellipse class="e" cx="0.508" cy="0.677" rx="0.508" ry="0.677" transform="translate(89.332 14.464)"/><path class="b" d="M588.538,490.886a5.665,5.665,0,0,0-3.318-.634,4.892,4.892,0,0,0,5.433,3.269A5.669,5.669,0,0,0,588.538,490.886Z" transform="translate(-520.029 -427.075)"/><path class="b" d="M592.435,588.87h-7.784a1.751,1.751,0,0,0,0,3.5h7.784a1.751,1.751,0,1,0,0-3.5Z" transform="translate(-518.074 -510.198)"/><path class="b" d="M613.1,471.412h-43.64a3.866,3.866,0,0,0-3.866,3.866V496.54a3.866,3.866,0,0,0,3.866,3.866H613.1a3.866,3.866,0,0,0,3.866-3.866V475.278A3.866,3.866,0,0,0,613.1,471.412Zm-44.72,2.637a5.335,5.335,0,0,1,6.191,3.724l.068.212-.22.039a5.828,5.828,0,0,1-.947.07,5.639,5.639,0,0,1-2.875-.725,6.106,6.106,0,0,1-2.369-3.07l-.068-.212Zm9.473,19.741h-7.784a2.14,2.14,0,1,1,0-4.281h7.784a2.14,2.14,0,0,1,0,4.281Zm35.415-.389a2.342,2.342,0,0,1-2.335,2.335h-5.838a2.342,2.342,0,0,1-2.335-2.335v-3.5a2.342,2.342,0,0,1,2.335-2.335h5.838a2.342,2.342,0,0,1,2.335,2.335Z" transform="translate(-503.489 -411.226)"/><path class="b" d="M811.136,606.8h-2.53a.681.681,0,0,0,0,1.362h2.53a.681.681,0,0,0,0-1.362Zm0,.973h-2.53a.292.292,0,0,1,0-.584h2.53a.292.292,0,0,1,0,.584Z" transform="translate(-707.684 -525.305)"/><path class="b" d="M840.809,606.8h-2.53a.681.681,0,0,0,0,1.362h2.53a.681.681,0,0,0,0-1.362Zm0,.973h-2.53a.292.292,0,0,1,0-.584h2.53a.292.292,0,0,1,0,.584Z" transform="translate(-732.688 -525.305)"/><path class="b" d="M811.136,595.67h-2.53a.681.681,0,0,0,0,1.362h2.53a.681.681,0,0,0,0-1.362Zm0,.973h-2.53a.292.292,0,0,1,0-.584h2.53a.292.292,0,0,1,0,.584Z" transform="translate(-707.684 -515.928)"/><path class="b" d="M840.809,595.67h-2.53a.681.681,0,0,0,0,1.362h2.53a.681.681,0,0,0,0-1.362Zm0,.973h-2.53a.292.292,0,0,1,0-.584h2.53a.292.292,0,0,1,0,.584Z" transform="translate(-732.688 -515.928)"/><path class="b" d="M811.136,584.542h-2.53a.681.681,0,0,0,0,1.362h2.53a.681.681,0,0,0,0-1.362Zm0,.973h-2.53a.292.292,0,0,1,0-.584h2.53a.292.292,0,0,1,0,.584Z" transform="translate(-707.684 -506.552)"/><path class="b" d="M840.809,584.542h-2.53a.681.681,0,0,0,0,1.362h2.53a.681.681,0,0,0,0-1.362Zm0,.973h-2.53a.292.292,0,0,1,0-.584h2.53a.292.292,0,0,1,0,.584Z" transform="translate(-732.688 -506.552)"/><path class="e" d="M744.527,435.123,743.4,438.8s-.288,6.863-4.065,5.919,1.1-8.971,1.1-8.971l1.1-1.731Z" transform="translate(-648.679 -379.72)"/><path class="e" d="M608.527,435.123,607.4,438.8s-.288,6.863-4.066,5.919,1.1-8.971,1.1-8.971l1.1-1.731Z" transform="translate(-534.083 -379.72)"/><path class="b" d="M757.316,241.845s2.518-.63,3.3,3.62,1.731,16.368,1.731,16.368l-3.777,12.748s-3.777-2.046-4.564-1.731l2.972-11.067-2.5-11.281S756.686,241.845,757.316,241.845Z" transform="translate(-662.255 -217.762)"/><path class="g" d="M580.747,209.393l3.3,11.017-3.3,11.174,1.889-11.174Z" transform="translate(-489.347 -176.438)"/><path class="b" d="M625.677,297.021l-5.666,22.348a22.245,22.245,0,0,1,4.09,1.773Z" transform="translate(-549.344 -264.282)"/><circle class="c" cx="15.738" cy="15.738" r="15.738" transform="translate(1.159 57.427)"/><circle class="h" cx="13.535" cy="13.535" r="13.535" transform="translate(3.362 59.63)"/><path class="i" d="M260.177,518.894v-1.97a4.574,4.574,0,0,1-2.627-.858l.412-1.307a4.2,4.2,0,0,0,2.472.839,1.894,1.894,0,0,0,2.043-1.911c0-1.073-.67-1.736-1.94-2.321-1.751-.78-2.833-1.677-2.833-3.374a3.067,3.067,0,0,1,2.593-3.14v-1.97h1.064v1.892a4.177,4.177,0,0,1,2.232.683l-.429,1.287a3.794,3.794,0,0,0-2.163-.663,1.648,1.648,0,0,0-1.82,1.677c0,1.014.635,1.521,2.129,2.224,1.768.819,2.661,1.833,2.661,3.569a3.264,3.264,0,0,1-2.713,3.316v2.029Z" transform="translate(-243.929 -437.742)"/><path class="c" d="M204.523,737.066a113.634,113.634,0,0,1-33.523,0v-3.777a126.273,126.273,0,0,0,33.523,0Z" transform="translate(-171 -631.888)"/><path class="c" d="M204.523,700.066a113.634,113.634,0,0,1-33.523,0v-3.777a126.276,126.276,0,0,0,33.523,0Z" transform="translate(-171 -600.711)"/><path class="c" d="M204.523,663.066a113.634,113.634,0,0,1-33.523,0v-3.777a126.276,126.276,0,0,0,33.523,0Z" transform="translate(-171 -569.534)"/></svg>