<?xml version="1.0" standalone="no"?>
<!DOCTYPE svg PUBLIC "-//W3C//DTD SVG 20010904//EN"
 "http://www.w3.org/TR/2001/REC-SVG-20010904/DTD/svg10.dtd">
<svg version="1.0" xmlns="http://www.w3.org/2000/svg"
 width="504.000000pt" height="299.000000pt" viewBox="0 0 504.000000 299.000000"
 preserveAspectRatio="xMidYMid meet">
<metadata>
Created by potrace 1.16, written by Peter Selinger 2001-2019
</metadata>
<g transform="translate(0.000000,299.000000) scale(0.100000,-0.100000)"
fill="#000000" stroke="none">
<path d="M2316 2980 c-503 -42 -982 -235 -1376 -554 -99 -80 -279 -261 -360
-361 -293 -365 -483 -809 -540 -1265 -27 -219 -22 -506 14 -715 l11 -70 377
-3 376 -2 155 467 c85 258 246 743 357 1078 111 336 206 614 211 619 5 5 11 7
15 3 3 -3 62 -169 129 -369 120 -354 345 -1014 486 -1428 39 -113 82 -241 97
-285 l27 -80 697 -2 696 -2 26 72 c45 126 57 196 63 362 4 121 1 182 -11 251
-129 741 -859 1191 -1588 978 -13 -4 -30 38 -99 243 -45 136 -84 254 -87 261
-7 19 729 17 860 -3 589 -89 1079 -463 1318 -1006 143 -323 179 -734 96 -1074
-9 -33 -15 -66 -16 -72 0 -10 78 -13 359 -13 334 0 360 1 365 18 3 9 12 67 20
127 74 548 -33 1096 -307 1575 -334 585 -908 1022 -1551 1180 -258 63 -573 90
-820 70z"/>
<path d="M1481 538 c-35 -106 -87 -267 -116 -358 l-53 -165 235 -3 c130 -1
238 0 241 2 6 6 -231 716 -239 716 -3 0 -34 -87 -68 -192z"/>
</g>
</svg>
