<svg xmlns="http://www.w3.org/2000/svg" xmlns:xlink="http://www.w3.org/1999/xlink" width="1366" height="814" viewBox="0 0 1366 814"><defs><style>.a{fill:#fff;stroke:#707070;}.b{clip-path:url(#a);}.c{clip-path:url(#b);}.d{fill:#222;}.e{fill:#e74c3c;}</style><clipPath id="a"><rect class="a" width="1366" height="814"/></clipPath><clipPath id="b"><rect class="a" width="667" height="335" transform="translate(350 478)"/></clipPath></defs><g class="b"><g class="c"><g transform="translate(-70.833 201.049)"><path class="d" d="M577.967,343.155,505.38,567.994a266.5,266.5,0,0,0,39.548,29.032l33.131-100.189,43.382,131.057a266.36,266.36,0,0,0,53.476,6.753Z" transform="translate(72.157 193.171)"/><path class="d" d="M753.772,295.87c-146.939,0-266.055,119.117-266.055,266.055A264.718,264.718,0,0,0,537.39,716.634l110.523-334.3a2.249,2.249,0,0,1,4.272,0L802.321,823.486c123.745-22.828,217.512-131.21,217.512-261.56C1019.833,414.987,900.711,295.87,753.772,295.87Zm-22.518,189.41H756.7a61.383,61.383,0,0,1,6.794.341c38.688,3.438,68.991,36.136,68.991,75.994a76.331,76.331,0,0,1-51.966,72.49ZM814.47,736.594l-16.593-50.059A131.514,131.514,0,0,0,763.49,430.3c-2.248-.122-4.521-.183-6.794-.183a130.412,130.412,0,0,0-41.485,6.7l-19.024-57.4h67.3c100.642,0,182.23,81.557,182.23,182.2A182.257,182.257,0,0,1,814.47,736.594Z" transform="translate(0 0)"/><path class="e" d="M535.608,333.117H561.05a61.378,61.378,0,0,1,6.794.341c38.688,3.438,68.991,36.136,68.991,75.994a76.331,76.331,0,0,1-51.966,72.49Z" transform="translate(195.646 152.163)"/></g></g></g></svg>