<?xml version="1.0" encoding="UTF-8"?>
<svg xmlns="http://www.w3.org/2000/svg" xmlns:xlink="http://www.w3.org/1999/xlink" width="481pt" height="337pt" viewBox="0 0 481 337" version="1.1">
<g id="surface1">
<path style=" stroke:none;fill-rule:nonzero;fill:rgb(0%,0%,0%);fill-opacity:1;" d="M 316.597656 36.917969 L 102.410156 36.917969 C 165.039062 -12.230469 253.988281 -12.230469 316.617188 36.917969 Z M 316.597656 36.917969 "/>
<path style=" stroke:none;fill-rule:nonzero;fill:rgb(0%,0%,0%);fill-opacity:1;" d="M 381.039062 168.496094 C 381.039062 261.527344 304.238281 336.9375 209.492188 336.9375 C 114.742188 336.9375 37.945312 261.527344 37.945312 168.496094 C 37.945312 116.949219 61.519531 70.824219 98.664062 39.917969 L 320.300781 39.917969 C 357.464844 70.824219 381.039062 116.949219 381.039062 168.496094 Z M 381.039062 168.496094 "/>
<path style=" stroke:none;fill-rule:nonzero;fill:rgb(0%,0%,0%);fill-opacity:1;" d="M 74.105469 40.21875 L 482.878906 40.21875 L 482.878906 297.273438 L 74.105469 297.273438 Z M 74.105469 40.21875 "/>
<path style=" stroke:none;fill-rule:nonzero;fill:rgb(0%,0%,0%);fill-opacity:1;" d="M 85.792969 68.214844 L 471.1875 68.214844 L 471.1875 286.238281 L 85.792969 286.238281 Z M 85.792969 68.214844 "/>
<path style=" stroke:none;fill-rule:nonzero;fill:rgb(0%,0%,0%);fill-opacity:1;" d="M 73.929688 39.992188 L 482.703125 39.992188 L 482.703125 57.046875 L 73.929688 57.046875 Z M 73.929688 39.992188 "/>
<path style=" stroke:none;fill-rule:nonzero;fill:rgb(0%,0%,0%);fill-opacity:1;" d="M 237.238281 117.820312 L 320.257812 117.820312 L 320.257812 189.015625 L 237.238281 189.015625 Z M 237.238281 117.820312 "/>
<path style=" stroke:none;fill-rule:nonzero;fill:rgb(0%,0%,0%);fill-opacity:1;" d="M 265.910156 123.054688 L 268.460938 133.0625 L 267.367188 147.71875 L 277.195312 155.226562 L 280.472656 130.199219 L 278.652344 124.128906 Z M 265.910156 123.054688 "/>
<path style=" stroke:none;fill-rule:nonzero;fill:rgb(0%,0%,0%);fill-opacity:1;" d="M 275.015625 145.574219 L 276.835938 135.921875 L 280.472656 129.128906 L 289.578125 165.234375 L 268.824219 168.09375 L 263.363281 139.140625 L 268.019531 131.332031 L 271.375 137.351562 Z M 275.015625 145.574219 "/>
<path style=" stroke:none;fill-rule:nonzero;fill:rgb(0%,0%,0%);fill-opacity:1;" d="M 298.429688 189.015625 L 263.90625 189.015625 L 264.089844 186.324219 L 272.097656 181.320312 L 283.019531 181.320312 L 298.3125 187.753906 Z M 298.429688 189.015625 "/>
<path style=" stroke:none;fill-rule:nonzero;fill:rgb(0%,0%,0%);fill-opacity:1;" d="M 281.566406 119.835938 C 281.566406 124.574219 277.65625 128.414062 272.832031 128.414062 C 268.007812 128.414062 264.09375 124.574219 264.09375 119.835938 C 264.09375 115.097656 268.007812 111.257812 272.832031 111.257812 C 277.65625 111.257812 281.566406 115.097656 281.566406 119.835938 Z M 281.566406 119.835938 "/>
<path style=" stroke:none;fill-rule:nonzero;fill:rgb(0%,0%,0%);fill-opacity:1;" d="M 305.960938 161.304688 L 297.585938 154.507812 L 298.421875 172.277344 L 298.503906 173.984375 L 298.609375 176.238281 L 298.84375 181.15625 L 299.214844 189.015625 L 280.988281 189.015625 L 279.734375 185.25 L 279.242188 189.015625 L 262.578125 189.015625 C 262.46875 187.039062 262.402344 184.664062 262.503906 182.261719 C 262.570312 180.054688 262.855469 177.859375 263.359375 175.703125 C 263.675781 174.246094 264.296875 172.867188 265.183594 171.65625 L 261.90625 160.246094 L 260.453125 167.394531 L 250.257812 168.105469 C 250.257812 168.105469 250.257812 167.925781 250.285156 167.582031 C 250.429688 164.0625 251.503906 144.140625 256.8125 140.234375 L 267.625 129.800781 C 267.625 129.800781 267.625 130.558594 267.734375 131.847656 C 267.816406 132.933594 267.96875 134.390625 268.238281 136.070312 C 268.847656 139.863281 270.058594 144.800781 272.464844 149.15625 C 273.351562 150.765625 274.074219 152.136719 274.660156 153.300781 C 277.203125 158.347656 277.203125 159.527344 277.203125 159.527344 L 278.253906 147.234375 L 278.253906 147.132812 L 279.65625 130.65625 L 279.863281 128.195312 C 279.863281 128.195312 296.484375 130.933594 301.570312 138.441406 C 305.664062 144.46875 313.28125 154.191406 316.117188 157.78125 C 316.152344 157.820312 316.179688 157.859375 316.214844 157.902344 L 316.632812 158.441406 L 316.855469 158.722656 L 317.023438 158.9375 L 317.210938 159.171875 Z M 305.960938 161.304688 "/>
<path style=" stroke:none;fill-rule:nonzero;fill:rgb(0%,0%,0%);fill-opacity:1;" d="M 279.019531 164.878906 C 279.019531 165.46875 278.53125 165.949219 277.925781 165.949219 C 277.324219 165.949219 276.835938 165.46875 276.835938 164.878906 C 276.835938 164.285156 277.324219 163.804688 277.925781 163.804688 C 278.53125 163.804688 279.019531 164.285156 279.019531 164.878906 Z M 279.019531 164.878906 "/>
<path style=" stroke:none;fill-rule:nonzero;fill:rgb(0%,0%,0%);fill-opacity:1;" d="M 280.476562 174.527344 C 280.476562 175.121094 279.988281 175.601562 279.382812 175.601562 C 278.78125 175.601562 278.289062 175.121094 278.289062 174.527344 C 278.289062 173.9375 278.78125 173.453125 279.382812 173.453125 C 279.988281 173.453125 280.476562 173.9375 280.476562 174.527344 Z M 280.476562 174.527344 "/>
<path style=" stroke:none;fill-rule:nonzero;fill:rgb(0%,0%,0%);fill-opacity:1;" d="M 301.589844 178.460938 L 298.3125 181.675781 L 296.128906 175.953125 L 298.503906 173.988281 Z M 301.589844 178.460938 "/>
<path style=" stroke:none;fill-rule:nonzero;fill:rgb(0%,0%,0%);fill-opacity:1;" d="M 260.089844 179.890625 L 263.363281 183.105469 L 264.089844 175.953125 L 261.90625 175.242188 Z M 260.089844 179.890625 "/>
<path style=" stroke:none;fill-rule:nonzero;fill:rgb(0%,0%,0%);fill-opacity:1;" d="M 262.632812 113.234375 C 262.632812 113.234375 260.089844 110.058594 262.632812 108.472656 L 262.632812 109.265625 C 262.632812 109.265625 268.113281 103.316406 271.375 104.917969 L 274.296875 104.121094 L 274.296875 104.917969 L 276.117188 104.121094 L 275.75 105.316406 L 278.300781 105.316406 L 277.207031 106.105469 C 277.207031 106.105469 285.578125 105.695312 280.480469 111.664062 C 280.480469 111.664062 282.90625 115.230469 280.601562 117.21875 C 280.601562 117.21875 278.664062 112.851562 276.117188 114.046875 C 274.703125 114.757812 272.996094 114.597656 271.746094 113.636719 C 271.746094 113.636719 266.648438 113.226562 267.375 115.617188 C 268.101562 118.011719 267.742188 118.789062 267.742188 118.789062 C 267.742188 118.789062 265.917969 119.984375 266.285156 120.773438 C 266.652344 121.566406 266.648438 123.949219 266.648438 123.949219 C 266.648438 123.949219 264.828125 121.171875 264.097656 121.570312 C 263.367188 121.96875 259.347656 117.996094 262.632812 113.234375 Z M 262.632812 113.234375 "/>
<path style=" stroke:none;fill-rule:nonzero;fill:rgb(0%,0%,0%);fill-opacity:1;" d="M 251.714844 166.664062 L 250.257812 167.578125 L 250.257812 168.441406 C 250.339844 169.976562 250.84375 171.457031 251.714844 172.734375 C 253.171875 174.878906 261.183594 182.023438 261.183594 182.023438 L 263.363281 174.519531 L 260.441406 167.367188 L 258.625 165.226562 Z M 251.714844 166.664062 "/>
<path style=" stroke:none;fill-rule:nonzero;fill:rgb(0%,0%,0%);fill-opacity:1;" d="M 312.144531 157.378906 L 316.140625 157.785156 L 317.246094 159.175781 C 317.246094 159.175781 317.972656 162.394531 316.515625 164.179688 C 315.058594 165.96875 302.324219 180.621094 302.324219 180.621094 L 296.855469 174.179688 L 306.324219 162.742188 L 305.960938 161.3125 Z M 312.144531 157.378906 "/>
<path style=" stroke:none;fill-rule:nonzero;fill:rgb(0%,0%,0%);fill-opacity:1;" d="M 362.148438 117.121094 L 445.980469 117.121094 L 445.980469 189.015625 L 362.148438 189.015625 Z M 362.148438 117.121094 "/>
<path style=" stroke:none;fill-rule:nonzero;fill:rgb(0%,0%,0%);fill-opacity:1;" d="M 413.941406 132.75 L 395.015625 133.105469 L 392.464844 115.949219 L 413.941406 115.949219 Z M 413.941406 132.75 "/>
<path style=" stroke:none;fill-rule:nonzero;fill:rgb(0%,0%,0%);fill-opacity:1;" d="M 423.226562 135.59375 C 423.226562 135.59375 429.777344 135.59375 430.507812 142.386719 C 431.238281 149.175781 428.691406 166.691406 428.691406 166.691406 L 426.503906 189.214844 L 421.371094 189.214844 L 421.789062 172.054688 L 423.242188 147.390625 L 418.875 142.742188 Z M 423.226562 135.59375 "/>
<path style=" stroke:none;fill-rule:nonzero;fill:rgb(0%,0%,0%);fill-opacity:1;" d="M 396.289062 135.429688 C 396.289062 135.429688 390.097656 134.015625 384.273438 142.214844 C 384.273438 142.214844 369.347656 152.9375 374.082031 156.867188 C 378.816406 160.800781 391.554688 163.304688 391.554688 163.304688 C 391.554688 163.304688 386.820312 172.949219 389.734375 173.320312 C 392.648438 173.6875 397.019531 162.953125 395.925781 161.167969 C 394.832031 159.382812 390.828125 158.300781 390.828125 158.300781 L 381.363281 153.652344 C 381.363281 153.652344 393.507812 143.40625 394.171875 147.816406 L 397.746094 146.148438 Z M 396.289062 135.429688 "/>
<path style=" stroke:none;fill-rule:nonzero;fill:rgb(0%,0%,0%);fill-opacity:1;" d="M 409.757812 123.273438 C 411.316406 128.46875 415.203125 132.683594 420.316406 134.71875 L 410.863281 142.578125 L 399.59375 135.429688 C 399.59375 135.429688 403.601562 132.925781 402.515625 127.566406 Z M 409.757812 123.273438 "/>
<path style=" stroke:none;fill-rule:nonzero;fill:rgb(0%,0%,0%);fill-opacity:1;" d="M 411.214844 120.417969 C 411.214844 125.15625 407.300781 128.996094 402.476562 128.996094 C 397.652344 128.996094 393.742188 125.15625 393.742188 120.417969 C 393.742188 115.679688 397.652344 111.839844 402.476562 111.839844 C 407.300781 111.839844 411.214844 115.679688 411.214844 120.417969 Z M 411.214844 120.417969 "/>
<path style=" stroke:none;fill-rule:nonzero;fill:rgb(0%,0%,0%);fill-opacity:1;" d="M 394.832031 134.71875 L 401.476562 133.433594 C 401.476562 133.433594 403.5625 138.289062 410.488281 137.574219 C 417.410156 136.855469 418.621094 133.925781 418.621094 133.925781 L 425.050781 135.429688 C 425.050781 135.429688 421.40625 139.359375 423.226562 147.226562 C 423.226562 147.226562 423.957031 160.09375 419.949219 164.742188 L 419.585938 171.890625 C 419.585938 171.890625 424.320312 184.046875 421.773438 189.050781 L 386.09375 189.050781 C 386.09375 189.050781 387.550781 171.175781 394.105469 166.527344 L 395.5625 163.3125 C 395.5625 163.3125 392.640625 150.800781 394.105469 148.65625 C 394.105469 148.65625 395.195312 135.074219 394.832031 134.71875 Z M 394.832031 134.71875 "/>
<path style=" stroke:none;fill-rule:nonzero;fill:rgb(0%,0%,0%);fill-opacity:1;" d="M 419.089844 128.480469 C 417.101562 127.410156 416.167969 125.007812 416.117188 122.785156 C 416.066406 120.566406 416.597656 118.367188 416.644531 116.148438 C 416.71875 115.109375 416.40625 114.078125 415.765625 113.25 C 413.1875 109.371094 408.703125 106.644531 403.980469 106.597656 C 403.296875 106.589844 402.621094 106.714844 401.984375 106.960938 C 401.496094 107.152344 401.339844 107.128906 401.246094 107.71875 C 400.128906 107.351562 398.914062 107.390625 397.820312 107.824219 C 396.738281 108.253906 395.726562 108.84375 394.828125 109.574219 C 394.296875 109.96875 393.796875 110.398438 393.332031 110.859375 C 390.828125 113.402344 390.261719 117.3125 390.988281 120.769531 C 391.21875 121.894531 390.09375 122.976562 389.160156 123.667969 C 388.222656 124.359375 387.148438 124.992188 386.691406 126.046875 C 386.238281 127.097656 386.492188 128.222656 386.402344 129.324219 C 386.191406 131.445312 384.773438 133.261719 382.742188 134.015625 C 383.148438 134.496094 383.789062 134.71875 384.414062 134.601562 C 385.058594 134.46875 385.664062 134.1875 386.179688 133.78125 C 388.109375 132.375 389.492188 130.363281 390.097656 128.078125 C 390.367188 129.308594 390.265625 130.566406 390.253906 131.816406 C 390.277344 133.21875 390.015625 134.613281 389.480469 135.914062 C 388.941406 137.21875 387.949219 138.292969 386.679688 138.945312 C 387.902344 139.535156 389.25 139.105469 390.289062 138.242188 C 391.289062 137.316406 392.011719 136.140625 392.375 134.839844 C 393.074219 132.769531 393.359375 130.585938 393.210938 128.410156 C 394.351562 130.292969 394.769531 132.515625 394.386719 134.671875 C 393.988281 136.871094 392.820312 138.859375 391.082031 140.304688 C 394.113281 140.277344 397.09375 139.542969 399.773438 138.15625 C 400.464844 137.847656 401.074219 137.386719 401.554688 136.808594 C 402.414062 135.632812 402.210938 134.027344 401.972656 132.601562 C 401.785156 131.472656 403.226562 129.839844 402.390625 129.027344 C 402.175781 128.816406 401.894531 128.683594 401.59375 128.65625 C 398.613281 128.246094 395.933594 126.558594 394.644531 123.886719 C 394.085938 122.789062 393.777344 121.582031 393.746094 120.355469 C 393.742188 116.824219 395.941406 113.648438 399.289062 112.355469 C 402.640625 111.066406 406.453125 111.921875 408.898438 114.511719 C 411.34375 117.101562 411.921875 120.902344 410.355469 124.082031 C 410.257812 125.8125 409.964844 127.527344 409.484375 129.191406 C 408.859375 131.320312 407.816406 133.496094 405.855469 134.605469 C 406.535156 134.894531 407.269531 135.046875 408.011719 135.054688 C 410.460938 135.320312 413.019531 135.261719 415.257812 134.203125 C 417.496094 133.148438 419.246094 130.894531 419.089844 128.480469 Z M 419.089844 128.480469 "/>
<path style=" stroke:none;fill-rule:nonzero;fill:rgb(0%,0%,0%);fill-opacity:1;" d="M 412.855469 118.441406 C 406.304688 115.863281 399.847656 115.316406 393.558594 118.441406 L 393.558594 113.253906 C 393.558594 112.355469 393.921875 111.496094 394.566406 110.863281 C 395.214844 110.226562 396.089844 109.871094 397.003906 109.871094 L 410.128906 109.871094 C 410.851562 109.871094 411.542969 110.152344 412.054688 110.652344 C 412.566406 111.15625 412.855469 111.835938 412.855469 112.546875 Z M 412.855469 118.441406 "/>
<path style=" stroke:none;fill-rule:nonzero;fill:rgb(0%,0%,0%);fill-opacity:1;" d="M 412.578125 119.523438 C 412.578125 118.339844 411.96875 117.382812 411.214844 117.382812 C 410.460938 117.382812 409.847656 118.339844 409.847656 119.523438 C 409.847656 120.707031 410.460938 121.667969 411.214844 121.667969 C 411.96875 121.667969 412.578125 120.707031 412.578125 119.523438 Z M 412.578125 119.523438 "/>
<path style=" stroke:none;fill-rule:nonzero;fill:rgb(0%,0%,0%);fill-opacity:1;" d="M 116.972656 117.601562 L 200.246094 117.601562 L 200.246094 189.015625 L 116.972656 189.015625 Z M 116.972656 117.601562 "/>
<path style=" stroke:none;fill-rule:nonzero;fill:rgb(0%,0%,0%);fill-opacity:1;" d="M 164.582031 134.8125 L 146.742188 134.449219 L 146.742188 110.144531 L 164.582031 111.933594 Z M 164.582031 134.8125 "/>
<path style=" stroke:none;fill-rule:nonzero;fill:rgb(0%,0%,0%);fill-opacity:1;" d="M 180.917969 189.015625 L 142.367188 189.015625 C 142.617188 187.640625 143.046875 186.300781 143.644531 185.03125 C 144.738281 183.066406 146.101562 178.773438 147.195312 174.976562 C 147.828125 172.773438 148.367188 170.738281 148.710938 169.417969 C 148.960938 168.453125 149.109375 167.871094 149.109375 167.871094 L 168.035156 160.363281 C 168.035156 160.363281 168.570312 161.320312 169.429688 162.921875 C 169.441406 162.945312 169.453125 162.96875 169.46875 162.992188 C 170.082031 164.128906 170.84375 165.585938 171.695312 167.257812 C 174.800781 173.328125 179.039062 182.238281 180.917969 189.015625 Z M 180.917969 189.015625 "/>
<path style=" stroke:none;fill-rule:nonzero;fill:rgb(0%,0%,0%);fill-opacity:1;" d="M 150.378906 124.441406 L 147.835938 136.953125 L 156.570312 137.667969 C 156.570312 137.667969 158.027344 126.601562 158.390625 126.230469 C 158.753906 125.855469 150.378906 124.441406 150.378906 124.441406 Z M 150.378906 124.441406 "/>
<path style=" stroke:none;fill-rule:nonzero;fill:rgb(0%,0%,0%);fill-opacity:1;" d="M 164.761719 119.976562 C 164.761719 124.710938 160.847656 128.554688 156.023438 128.554688 C 151.199219 128.554688 147.289062 124.710938 147.289062 119.976562 C 147.289062 115.238281 151.199219 111.398438 156.023438 111.398438 C 160.847656 111.398438 164.761719 115.238281 164.761719 119.976562 Z M 164.761719 119.976562 "/>
<path style=" stroke:none;fill-rule:nonzero;fill:rgb(0%,0%,0%);fill-opacity:1;" d="M 147.835938 133.382812 C 147.835938 133.382812 156.207031 135.167969 156.570312 134.8125 C 156.933594 134.453125 166.761719 136.242188 167.488281 139.453125 C 168.214844 142.667969 166.398438 155.183594 166.398438 155.183594 C 166.398438 155.183594 170.402344 156.972656 170.039062 157.6875 C 169.675781 158.40625 172.222656 159.117188 171.496094 160.1875 C 170.769531 161.257812 157.660156 179.859375 151.460938 179.492188 C 145.261719 179.121094 133.984375 138.742188 133.984375 138.742188 C 133.984375 138.742188 134.347656 133.738281 139.082031 133.738281 C 143.816406 133.738281 147.835938 133.382812 147.835938 133.382812 Z M 147.835938 133.382812 "/>
<path style=" stroke:none;fill-rule:nonzero;fill:rgb(0%,0%,0%);fill-opacity:1;" d="M 171.695312 162.15625 C 171.695312 162.15625 166.597656 163.289062 167.523438 165.582031 C 168.449219 167.871094 173.898438 167.160156 173.898438 167.160156 Z M 171.695312 162.15625 "/>
<path style=" stroke:none;fill-rule:nonzero;fill:rgb(0%,0%,0%);fill-opacity:1;" d="M 155.753906 189.015625 L 142.367188 189.015625 C 142.324219 189.222656 142.277344 189.425781 142.234375 189.644531 C 141.589844 189.382812 140.925781 189.171875 140.246094 189.015625 L 140.007812 188.964844 C 140.007812 188.964844 137.085938 178.238281 133.089844 165.015625 C 129.539062 153.28125 133.148438 141.246094 134.007812 138.699219 C 134.113281 138.382812 134.183594 138.214844 134.183594 138.214844 L 137.457031 135.714844 L 148.726562 169.425781 L 151.664062 178.238281 C 151.664062 178.238281 151.753906 178.730469 151.914062 179.488281 C 152.386719 181.75 153.476562 186.371094 154.570312 187.179688 C 155.117188 187.683594 155.523438 188.316406 155.753906 189.015625 Z M 155.753906 189.015625 "/>
<path style=" stroke:none;fill-rule:nonzero;fill:rgb(0%,0%,0%);fill-opacity:1;" d="M 162.578125 138.203125 L 167.105469 138.667969 L 177.492188 151.429688 C 177.492188 151.429688 181.492188 155.007812 178.945312 156.433594 C 176.402344 157.859375 175.308594 160.726562 175.308594 160.726562 C 175.308594 160.726562 178.585938 167.878906 173.851562 168.945312 C 173.851562 168.945312 170.574219 161.800781 169.480469 161.082031 C 168.386719 160.363281 170.9375 157.507812 170.9375 157.507812 L 162.566406 152.148438 Z M 162.578125 138.203125 "/>
<path style=" stroke:none;fill-rule:nonzero;fill:rgb(0%,0%,0%);fill-opacity:1;" d="M 156.023438 106.03125 C 156.023438 106.03125 145.832031 104.246094 144.011719 113.183594 C 143.574219 115.257812 143.285156 117.359375 143.148438 119.476562 C 142.859375 124.652344 141.414062 129.707031 138.914062 134.273438 L 155.296875 138.933594 C 155.296875 138.933594 150.925781 132.140625 151.652344 129.28125 C 151.789062 128.566406 151.78125 127.828125 151.625 127.113281 C 148.121094 124.996094 146.597656 120.769531 147.960938 116.957031 C 149.328125 113.148438 153.214844 110.789062 157.296875 111.292969 C 161.375 111.792969 164.546875 115.023438 164.914062 119.046875 C 165.277344 123.070312 162.734375 126.796875 158.808594 128 C 157.589844 130.601562 156.925781 133.417969 158.574219 135.355469 C 160.652344 137.847656 163.109375 140.015625 165.855469 141.777344 C 165.855469 141.777344 164.035156 133.199219 166.945312 128.195312 C 169.859375 123.191406 166.945312 106.75 156.023438 106.03125 Z M 156.023438 106.03125 "/>
<path style=" stroke:none;fill-rule:nonzero;fill:rgb(0%,0%,0%);fill-opacity:1;" d="M 165.078125 117.5 L 147.996094 118.484375 L 147.527344 110.621094 L 162.394531 110.097656 Z M 165.078125 117.5 "/>
<path style=" stroke:none;fill-rule:nonzero;fill:rgb(0%,0%,0%);fill-opacity:1;" d="M 123.296875 215.621094 C 123.296875 217.199219 121.996094 218.476562 120.390625 218.476562 C 118.785156 218.476562 117.484375 217.199219 117.484375 215.621094 C 117.484375 214.046875 118.785156 212.769531 120.390625 212.769531 C 121.996094 212.769531 123.296875 214.046875 123.296875 215.621094 Z M 123.296875 215.621094 "/>
<path style=" stroke:none;fill-rule:nonzero;fill:rgb(0%,0%,0%);fill-opacity:1;" d="M 123.296875 231.59375 C 123.296875 233.167969 121.996094 234.445312 120.390625 234.445312 C 118.785156 234.445312 117.484375 233.167969 117.484375 231.59375 C 117.484375 230.019531 118.785156 228.742188 120.390625 228.742188 C 121.996094 228.742188 123.296875 230.019531 123.296875 231.59375 Z M 123.296875 231.59375 "/>
<path style=" stroke:none;fill-rule:nonzero;fill:rgb(0%,0%,0%);fill-opacity:1;" d="M 123.296875 247.570312 C 123.296875 249.144531 121.996094 250.421875 120.390625 250.421875 C 118.785156 250.421875 117.484375 249.144531 117.484375 247.570312 C 117.484375 245.996094 118.785156 244.71875 120.390625 244.71875 C 121.996094 244.71875 123.296875 245.996094 123.296875 247.570312 Z M 123.296875 247.570312 "/>
<path style=" stroke:none;fill-rule:nonzero;fill:rgb(0%,0%,0%);fill-opacity:1;" d="M 132.59375 213.339844 L 187.792969 213.339844 L 187.792969 217.90625 L 132.59375 217.90625 Z M 132.59375 213.339844 "/>
<path style=" stroke:none;fill-rule:nonzero;fill:rgb(0%,0%,0%);fill-opacity:1;" d="M 132.59375 229.316406 L 187.792969 229.316406 L 187.792969 233.882812 L 132.59375 233.882812 Z M 132.59375 229.316406 "/>
<path style=" stroke:none;fill-rule:nonzero;fill:rgb(0%,0%,0%);fill-opacity:1;" d="M 132.59375 245.285156 L 187.792969 245.285156 L 187.792969 249.851562 L 132.59375 249.851562 Z M 132.59375 245.285156 "/>
<path style=" stroke:none;fill-rule:nonzero;fill:rgb(0%,0%,0%);fill-opacity:1;" d="M 249.40625 215.621094 C 249.40625 217.199219 248.105469 218.476562 246.503906 218.476562 C 244.898438 218.476562 243.597656 217.199219 243.597656 215.621094 C 243.597656 214.046875 244.898438 212.769531 246.503906 212.769531 C 248.105469 212.769531 249.40625 214.046875 249.40625 215.621094 Z M 249.40625 215.621094 "/>
<path style=" stroke:none;fill-rule:nonzero;fill:rgb(0%,0%,0%);fill-opacity:1;" d="M 249.40625 231.59375 C 249.40625 233.167969 248.105469 234.445312 246.503906 234.445312 C 244.898438 234.445312 243.597656 233.167969 243.597656 231.59375 C 243.597656 230.019531 244.898438 228.742188 246.503906 228.742188 C 248.105469 228.742188 249.40625 230.019531 249.40625 231.59375 Z M 249.40625 231.59375 "/>
<path style=" stroke:none;fill-rule:nonzero;fill:rgb(0%,0%,0%);fill-opacity:1;" d="M 249.40625 247.570312 C 249.40625 249.144531 248.105469 250.421875 246.503906 250.421875 C 244.898438 250.421875 243.597656 249.144531 243.597656 247.570312 C 243.597656 245.996094 244.898438 244.71875 246.503906 244.71875 C 248.105469 244.71875 249.40625 245.996094 249.40625 247.570312 Z M 249.40625 247.570312 "/>
<path style=" stroke:none;fill-rule:nonzero;fill:rgb(0%,0%,0%);fill-opacity:1;" d="M 258.703125 213.339844 L 313.898438 213.339844 L 313.898438 217.90625 L 258.703125 217.90625 Z M 258.703125 213.339844 "/>
<path style=" stroke:none;fill-rule:nonzero;fill:rgb(0%,0%,0%);fill-opacity:1;" d="M 258.703125 229.316406 L 313.898438 229.316406 L 313.898438 233.882812 L 258.703125 233.882812 Z M 258.703125 229.316406 "/>
<path style=" stroke:none;fill-rule:nonzero;fill:rgb(0%,0%,0%);fill-opacity:1;" d="M 258.703125 245.285156 L 313.898438 245.285156 L 313.898438 249.851562 L 258.703125 249.851562 Z M 258.703125 245.285156 "/>
<path style=" stroke:none;fill-rule:nonzero;fill:rgb(0%,0%,0%);fill-opacity:1;" d="M 374.726562 215.621094 C 374.726562 217.199219 373.425781 218.476562 371.820312 218.476562 C 370.214844 218.476562 368.914062 217.199219 368.914062 215.621094 C 368.914062 214.046875 370.214844 212.769531 371.820312 212.769531 C 373.425781 212.769531 374.726562 214.046875 374.726562 215.621094 Z M 374.726562 215.621094 "/>
<path style=" stroke:none;fill-rule:nonzero;fill:rgb(0%,0%,0%);fill-opacity:1;" d="M 374.726562 231.59375 C 374.726562 233.167969 373.425781 234.445312 371.820312 234.445312 C 370.214844 234.445312 368.914062 233.167969 368.914062 231.59375 C 368.914062 230.019531 370.214844 228.742188 371.820312 228.742188 C 373.425781 228.742188 374.726562 230.019531 374.726562 231.59375 Z M 374.726562 231.59375 "/>
<path style=" stroke:none;fill-rule:nonzero;fill:rgb(0%,0%,0%);fill-opacity:1;" d="M 374.726562 247.570312 C 374.726562 249.144531 373.425781 250.421875 371.820312 250.421875 C 370.214844 250.421875 368.914062 249.144531 368.914062 247.570312 C 368.914062 245.996094 370.214844 244.71875 371.820312 244.71875 C 373.425781 244.71875 374.726562 245.996094 374.726562 247.570312 Z M 374.726562 247.570312 "/>
<path style=" stroke:none;fill-rule:nonzero;fill:rgb(0%,0%,0%);fill-opacity:1;" d="M 384.019531 213.339844 L 439.214844 213.339844 L 439.214844 217.90625 L 384.019531 217.90625 Z M 384.019531 213.339844 "/>
<path style=" stroke:none;fill-rule:nonzero;fill:rgb(0%,0%,0%);fill-opacity:1;" d="M 384.019531 229.316406 L 439.214844 229.316406 L 439.214844 233.882812 L 384.019531 233.882812 Z M 384.019531 229.316406 "/>
<path style=" stroke:none;fill-rule:nonzero;fill:rgb(0%,0%,0%);fill-opacity:1;" d="M 384.019531 245.285156 L 439.214844 245.285156 L 439.214844 249.851562 L 384.019531 249.851562 Z M 384.019531 245.285156 "/>
<path style=" stroke:none;fill-rule:nonzero;fill:rgb(0%,0%,0%);fill-opacity:1;" d="M 320.316406 39.917969 L 98.683594 39.917969 C 99.90625 38.898438 101.15625 37.898438 102.410156 36.917969 L 316.617188 36.917969 C 317.851562 37.898438 319.09375 38.898438 320.316406 39.917969 Z M 320.316406 39.917969 "/>
</g>
</svg>
