<?xml version="1.0" encoding="UTF-8"?>
<svg xmlns="http://www.w3.org/2000/svg" xmlns:xlink="http://www.w3.org/1999/xlink" width="481pt" height="337pt" viewBox="0 0 481 337" version="1.1">
<g id="surface1">
<path style=" stroke:none;fill-rule:nonzero;fill:rgb(0%,0%,0%);fill-opacity:1;" d="M 381.59375 168.5 C 381.59375 261.527344 304.789062 336.941406 210.046875 336.941406 C 115.304688 336.941406 38.5 261.527344 38.5 168.5 C 38.5 75.472656 115.304688 0.0585938 210.046875 0.0585938 C 304.789062 0.0585938 381.59375 75.472656 381.59375 168.5 Z M 381.59375 168.5 "/>
<path style=" stroke:none;fill-rule:nonzero;fill:rgb(0%,0%,0%);fill-opacity:1;" d="M 442.503906 324.199219 C 433.019531 318.324219 359.9375 313.753906 271.175781 313.753906 C 182.410156 313.753906 109.324219 318.324219 99.84375 324.199219 Z M 442.503906 324.199219 "/>
<path style=" stroke:none;fill-rule:nonzero;fill:rgb(0%,0%,0%);fill-opacity:1;" d="M 235.867188 132.027344 L 235.425781 132.921875 L 232.574219 138.679688 L 202.636719 199.027344 L 151.851562 321.226562 L 144.585938 321.28125 L 195.410156 199.027344 L 230.039062 129.195312 L 232.574219 130.425781 L 235.425781 131.816406 Z M 235.867188 132.027344 "/>
<path style=" stroke:none;fill-rule:nonzero;fill:rgb(0%,0%,0%);fill-opacity:1;" d="M 324.980469 321.28125 L 319.003906 321.226562 L 268.207031 199.027344 L 239.0625 140.261719 L 235.425781 132.921875 L 234.980469 132.027344 L 235.425781 131.816406 L 239.0625 130.046875 L 240.8125 129.195312 L 274.921875 199.027344 Z M 324.980469 321.28125 "/>
<path style=" stroke:none;fill-rule:nonzero;fill:rgb(0%,0%,0%);fill-opacity:1;" d="M 232.574219 112.78125 L 239.066406 112.78125 L 239.066406 321.28125 L 232.574219 321.28125 Z M 232.574219 112.78125 "/>
<path style=" stroke:none;fill-rule:nonzero;fill:rgb(0%,0%,0%);fill-opacity:1;" d="M 235.078125 78.433594 C 230.515625 78.4375 226.816406 82.070312 226.8125 86.550781 L 226.8125 89.445312 C 226.734375 92.355469 228.246094 95.082031 230.777344 96.597656 C 233.308594 98.109375 236.472656 98.179688 239.066406 96.777344 C 241.664062 95.371094 243.296875 92.710938 243.347656 89.804688 C 243.347656 89.683594 243.347656 89.5625 243.347656 89.445312 L 243.347656 86.550781 C 243.339844 82.070312 239.640625 78.4375 235.078125 78.433594 Z M 241.277344 89.433594 C 241.277344 92.796875 238.5 95.523438 235.074219 95.523438 C 231.648438 95.523438 228.871094 92.796875 228.871094 89.433594 L 228.871094 86.535156 C 228.871094 83.171875 231.648438 80.445312 235.074219 80.445312 C 238.5 80.445312 241.277344 83.171875 241.277344 86.535156 Z M 241.277344 89.433594 "/>
<path style=" stroke:none;fill-rule:nonzero;fill:rgb(0%,0%,0%);fill-opacity:1;" d="M 274.921875 199.027344 L 268.207031 199.027344 L 239.0625 140.261719 L 239.0625 199.027344 L 232.574219 199.027344 L 232.574219 138.679688 L 202.636719 199.027344 L 195.410156 199.027344 L 230.039062 129.195312 L 232.574219 130.425781 L 232.574219 112.78125 L 239.0625 112.78125 L 239.0625 130.046875 L 240.8125 129.195312 Z M 274.921875 199.027344 "/>
<path style=" stroke:none;fill-rule:nonzero;fill:rgb(0%,0%,0%);fill-opacity:1;" d="M 243.347656 86.839844 L 243.347656 89.445312 C 243.425781 92.355469 241.914062 95.082031 239.382812 96.597656 C 236.851562 98.109375 233.691406 98.179688 231.09375 96.777344 C 228.496094 95.371094 226.863281 92.710938 226.8125 89.804688 C 226.8125 89.683594 226.8125 89.5625 226.8125 89.445312 L 226.8125 86.839844 L 228.902344 86.839844 L 228.902344 89.445312 C 228.902344 92.808594 231.675781 95.535156 235.101562 95.535156 C 238.527344 95.535156 241.304688 92.808594 241.304688 89.445312 L 241.304688 86.839844 Z M 243.347656 86.839844 "/>
<path style=" stroke:none;fill-rule:nonzero;fill:rgb(0%,0%,0%);fill-opacity:1;" d="M 110.195312 87.421875 L 359.964844 87.421875 L 359.964844 198.160156 L 110.195312 198.160156 Z M 110.195312 87.421875 "/>
<path style=" stroke:none;fill-rule:nonzero;fill:rgb(0%,0%,0%);fill-opacity:1;" d="M 114.621094 90.898438 L 354.945312 90.898438 L 354.945312 191.78125 L 114.621094 191.78125 Z M 114.621094 90.898438 "/>
<path style=" stroke:none;fill-rule:nonzero;fill:rgb(0%,0%,0%);fill-opacity:1;" d="M 138.355469 101.863281 L 149.71875 101.863281 L 149.71875 106.945312 L 138.355469 106.945312 Z M 138.355469 101.863281 "/>
<path style=" stroke:none;fill-rule:nonzero;fill:rgb(0%,0%,0%);fill-opacity:1;" d="M 138.355469 111.691406 L 149.71875 111.691406 L 149.71875 116.773438 L 138.355469 116.773438 Z M 138.355469 111.691406 "/>
<path style=" stroke:none;fill-rule:nonzero;fill:rgb(0%,0%,0%);fill-opacity:1;" d="M 138.355469 121.515625 L 149.71875 121.515625 L 149.71875 126.597656 L 138.355469 126.597656 Z M 138.355469 121.515625 "/>
<path style=" stroke:none;fill-rule:nonzero;fill:rgb(0%,0%,0%);fill-opacity:1;" d="M 138.355469 131.34375 L 149.71875 131.34375 L 149.71875 136.425781 L 138.355469 136.425781 Z M 138.355469 131.34375 "/>
<path style=" stroke:none;fill-rule:nonzero;fill:rgb(0%,0%,0%);fill-opacity:1;" d="M 138.355469 141.171875 L 149.71875 141.171875 L 149.71875 146.253906 L 138.355469 146.253906 Z M 138.355469 141.171875 "/>
<path style=" stroke:none;fill-rule:nonzero;fill:rgb(0%,0%,0%);fill-opacity:1;" d="M 138.355469 150.996094 L 149.71875 150.996094 L 149.71875 156.078125 L 138.355469 156.078125 Z M 138.355469 150.996094 "/>
<path style=" stroke:none;fill-rule:nonzero;fill:rgb(0%,0%,0%);fill-opacity:1;" d="M 138.355469 160.820312 L 149.71875 160.820312 L 149.71875 165.902344 L 138.355469 165.902344 Z M 138.355469 160.820312 "/>
<path style=" stroke:none;fill-rule:nonzero;fill:rgb(0%,0%,0%);fill-opacity:1;" d="M 138.355469 170.644531 L 149.71875 170.644531 L 149.71875 175.726562 L 138.355469 175.726562 Z M 138.355469 170.644531 "/>
<path style=" stroke:none;fill-rule:nonzero;fill:rgb(0%,0%,0%);fill-opacity:1;" d="M 159.746094 175.730469 L 171.109375 175.730469 L 171.109375 180.8125 L 159.746094 180.8125 Z M 159.746094 175.730469 "/>
<path style=" stroke:none;fill-rule:nonzero;fill:rgb(0%,0%,0%);fill-opacity:1;" d="M 179.765625 175.730469 L 191.125 175.730469 L 191.125 180.8125 L 179.765625 180.8125 Z M 179.765625 175.730469 "/>
<path style=" stroke:none;fill-rule:nonzero;fill:rgb(0%,0%,0%);fill-opacity:1;" d="M 199.773438 175.730469 L 211.136719 175.730469 L 211.136719 180.8125 L 199.773438 180.8125 Z M 199.773438 175.730469 "/>
<path style=" stroke:none;fill-rule:nonzero;fill:rgb(0%,0%,0%);fill-opacity:1;" d="M 219.789062 175.730469 L 231.152344 175.730469 L 231.152344 180.8125 L 219.789062 180.8125 Z M 219.789062 175.730469 "/>
<path style=" stroke:none;fill-rule:nonzero;fill:rgb(0%,0%,0%);fill-opacity:1;" d="M 239.796875 175.730469 L 251.160156 175.730469 L 251.160156 180.8125 L 239.796875 180.8125 Z M 239.796875 175.730469 "/>
<path style=" stroke:none;fill-rule:nonzero;fill:rgb(0%,0%,0%);fill-opacity:1;" d="M 259.816406 175.730469 L 271.179688 175.730469 L 271.179688 180.8125 L 259.816406 180.8125 Z M 259.816406 175.730469 "/>
<path style=" stroke:none;fill-rule:nonzero;fill:rgb(0%,0%,0%);fill-opacity:1;" d="M 279.828125 175.730469 L 291.1875 175.730469 L 291.1875 180.8125 L 279.828125 180.8125 Z M 279.828125 175.730469 "/>
<path style=" stroke:none;fill-rule:nonzero;fill:rgb(0%,0%,0%);fill-opacity:1;" d="M 299.839844 175.730469 L 311.203125 175.730469 L 311.203125 180.8125 L 299.839844 180.8125 Z M 299.839844 175.730469 "/>
<path style=" stroke:none;fill-rule:nonzero;fill:rgb(0%,0%,0%);fill-opacity:1;" d="M 319.851562 175.730469 L 331.210938 175.730469 L 331.210938 180.8125 L 319.851562 180.8125 Z M 319.851562 175.730469 "/>
<path style=" stroke:none;fill-rule:nonzero;fill:rgb(0%,0%,0%);fill-opacity:1;" d="M 159.746094 138.800781 L 171.109375 138.800781 L 171.109375 170.648438 L 159.746094 170.648438 Z M 159.746094 138.800781 "/>
<path style=" stroke:none;fill-rule:nonzero;fill:rgb(0%,0%,0%);fill-opacity:1;" d="M 179.765625 124.0625 L 191.125 124.0625 L 191.125 170.648438 L 179.765625 170.648438 Z M 179.765625 124.0625 "/>
<path style=" stroke:none;fill-rule:nonzero;fill:rgb(0%,0%,0%);fill-opacity:1;" d="M 199.773438 111.691406 L 211.136719 111.691406 L 211.136719 170.648438 L 199.773438 170.648438 Z M 199.773438 111.691406 "/>
<path style=" stroke:none;fill-rule:nonzero;fill:rgb(0%,0%,0%);fill-opacity:1;" d="M 219.789062 118.101562 L 231.152344 118.101562 L 231.152344 170.644531 L 219.789062 170.644531 Z M 219.789062 118.101562 "/>
<path style=" stroke:none;fill-rule:nonzero;fill:rgb(0%,0%,0%);fill-opacity:1;" d="M 239.796875 106.949219 L 251.160156 106.949219 L 251.160156 170.648438 L 239.796875 170.648438 Z M 239.796875 106.949219 "/>
<path style=" stroke:none;fill-rule:nonzero;fill:rgb(0%,0%,0%);fill-opacity:1;" d="M 259.816406 131.34375 L 271.179688 131.34375 L 271.179688 170.644531 L 259.816406 170.644531 Z M 259.816406 131.34375 "/>
<path style=" stroke:none;fill-rule:nonzero;fill:rgb(0%,0%,0%);fill-opacity:1;" d="M 279.828125 131.34375 L 291.1875 131.34375 L 291.1875 170.644531 L 279.828125 170.644531 Z M 279.828125 131.34375 "/>
<path style=" stroke:none;fill-rule:nonzero;fill:rgb(0%,0%,0%);fill-opacity:1;" d="M 299.839844 131.34375 L 311.203125 131.34375 L 311.203125 170.644531 L 299.839844 170.644531 Z M 299.839844 131.34375 "/>
<path style=" stroke:none;fill-rule:nonzero;fill:rgb(0%,0%,0%);fill-opacity:1;" d="M 319.851562 131.34375 L 331.210938 131.34375 L 331.210938 170.644531 L 319.851562 170.644531 Z M 319.851562 131.34375 "/>
<path style=" stroke:none;fill-rule:nonzero;fill:rgb(0%,0%,0%);fill-opacity:1;" d="M 318.546875 131.253906 L 221.253906 137.136719 L 221.253906 138.996094 L 320.617188 135.128906 Z M 318.546875 131.253906 "/>
<path style=" stroke:none;fill-rule:nonzero;fill:rgb(0%,0%,0%);fill-opacity:1;" d="M 433.734375 170.082031 C 433.734375 170.082031 438.828125 161.859375 437.492188 148.964844 C 436.15625 136.066406 431.230469 115.191406 431.230469 115.191406 C 431.230469 115.191406 433.355469 103.496094 421.832031 101.855469 C 421.832031 101.855469 414.664062 100.546875 409.542969 97.382812 C 407.640625 96.203125 406.015625 94.777344 405.140625 93.0625 C 405.140625 93.0625 405.074219 93.253906 404.941406 93.605469 C 404.828125 93.429688 404.722656 93.25 404.632812 93.0625 C 404.632812 93.0625 404.601562 93.132812 404.554688 93.257812 L 402.597656 90.261719 C 402.597656 90.261719 402.332031 90.539062 401.878906 91 C 401.09375 89.890625 400.421875 88.707031 399.878906 87.464844 C 400.363281 87.347656 400.84375 87.199219 401.308594 87.015625 C 401.753906 86.871094 402.152344 86.621094 402.472656 86.285156 C 402.753906 85.902344 402.933594 85.457031 403 84.992188 C 403.3125 83.5 403.402344 81.96875 403.265625 80.449219 C 403.15625 79.269531 402.910156 78.089844 402.996094 76.894531 C 403.082031 75.613281 403.546875 74.382812 403.609375 73.101562 C 403.722656 70.84375 402.582031 68.699219 401.171875 66.910156 C 400.28125 65.886719 399.445312 64.820312 398.667969 63.71875 C 398.03125 62.726562 397.574219 61.636719 396.894531 60.671875 C 395.292969 58.429688 392.621094 57.109375 389.886719 56.644531 C 387.148438 56.175781 384.328125 56.46875 381.589844 56.910156 C 379.1875 57.320312 376.785156 57.871094 374.386719 58.011719 C 372.300781 58.128906 370.582031 57.433594 368.660156 58.796875 C 367.371094 59.71875 366.554688 61.144531 366.410156 62.703125 C 366.382812 62.96875 366.402344 63.234375 366.472656 63.492188 C 366.589844 63.757812 366.730469 64.015625 366.890625 64.257812 C 367.726562 65.898438 366.445312 67.867188 366.613281 69.714844 C 366.824219 71.390625 368.183594 72.707031 369.894531 72.890625 C 369.820312 73.046875 369.734375 73.195312 369.664062 73.359375 C 367.503906 78.144531 367.816406 83.652344 370.5 88.171875 C 373.183594 92.691406 377.914062 95.671875 383.21875 96.179688 L 383.960938 96.742188 C 385.632812 98.019531 387.53125 99.550781 389.355469 101.210938 L 389.316406 101.238281 L 389.019531 101.074219 C 388.46875 101.503906 387.882812 101.898438 387.277344 102.25 C 385.605469 103.265625 382.871094 104.582031 379.816406 104.730469 C 379.816406 104.730469 374.339844 107.578125 372.453125 116.976562 C 369.75 119.355469 363.960938 123.65625 356.308594 124.761719 C 345.554688 126.335938 332.292969 126.847656 332.292969 126.847656 C 332.292969 126.847656 332.1875 127.039062 332.035156 127.386719 L 330.8125 127.164062 C 330.808594 127.300781 330.789062 127.4375 330.757812 127.574219 L 330.277344 127.359375 C 326.480469 125.722656 318.890625 123.351562 317.929688 129.90625 C 316.640625 138.691406 325.175781 137.691406 325.175781 137.691406 C 326.863281 137.066406 328.589844 136.550781 330.347656 136.148438 L 330.828125 136.058594 C 330.90625 136.289062 331.019531 136.503906 331.160156 136.703125 L 332.320312 136.703125 C 332.726562 137.523438 333.210938 138.296875 333.773438 139.019531 L 360.820312 138.4375 C 360.820312 138.4375 365.445312 137.449219 369.710938 138.078125 C 367.851562 151.738281 365.652344 166.71875 365.652344 166.71875 C 365.652344 166.71875 361.058594 190.441406 364.273438 192.921875 C 366.136719 192.300781 368.035156 191.789062 369.957031 191.394531 C 369.988281 192.859375 370.144531 194.320312 370.429688 195.757812 L 372.496094 209.015625 C 372.496094 209.015625 373.296875 222.539062 375.972656 230.632812 L 378.335938 241.671875 L 380.3125 250.019531 L 381.425781 264.183594 C 382.953125 270.1875 384.058594 276.285156 384.730469 282.433594 C 385.773438 291.953125 391.445312 307.335938 392.203125 309.355469 C 390.265625 312.050781 386.285156 316.613281 381.292969 317.085938 C 374.175781 317.761719 374 321.980469 378.976562 323.496094 C 383.957031 325.011719 394.421875 323.496094 394.421875 323.496094 L 409.199219 319.910156 C 408.753906 322.585938 408.519531 324.699219 408.847656 324.925781 C 409.789062 325.601562 424.132812 329.25 424.648438 323.410156 C 424.6875 322.929688 424.722656 322.464844 424.753906 322.007812 C 424.96875 318.269531 424.460938 314.519531 423.253906 310.96875 C 423.136719 310.613281 423.035156 310.261719 422.941406 309.910156 C 423.15625 309.675781 423.351562 309.425781 423.527344 309.164062 C 423.527344 309.164062 424.558594 293.402344 425.332031 287.75 C 425.390625 287.296875 425.429688 286.746094 425.449219 286.109375 C 425.808594 279.335938 423.292969 261.519531 423.292969 261.519531 C 423.292969 261.519531 420.179688 249.929688 420.296875 244.597656 C 420.316406 244.15625 420.394531 243.71875 420.527344 243.296875 C 420.523438 243.199219 420.507812 243.105469 420.484375 243.011719 C 420.492188 242.933594 420.515625 242.859375 420.546875 242.785156 C 420.546875 242.785156 418.96875 232.179688 419.191406 225.867188 C 419.222656 224.925781 419.363281 223.992188 419.605469 223.078125 C 419.855469 221.878906 419.984375 220.660156 419.988281 219.433594 C 420.1875 215.109375 419.953125 207.644531 419.632812 200.644531 C 419.671875 200.519531 419.707031 200.398438 419.734375 200.269531 C 419.796875 199.714844 419.730469 199.15625 419.535156 198.632812 C 419.535156 198.179688 419.496094 197.730469 419.46875 197.285156 C 419.601562 196.84375 419.710938 196.371094 419.808594 195.886719 L 420.011719 195.886719 L 420.011719 195.902344 C 420.011719 195.902344 433.46875 195.269531 436.5625 191.730469 C 436.5625 191.730469 433.433594 182.191406 431.703125 174.4375 Z M 375.75 140.402344 L 375.542969 140.328125 C 375.882812 139.148438 376.285156 137.773438 376.742188 136.335938 C 376.351562 137.894531 376.019531 139.308594 375.75 140.402344 Z M 389.410156 101.304688 L 389.46875 101.359375 L 389.40625 101.324219 Z M 406.21875 305.851562 C 405.496094 303.394531 402.617188 293.421875 402.707031 288.664062 C 402.726562 288.246094 402.800781 287.832031 402.929688 287.433594 C 403.199219 286.574219 403.339844 285.675781 403.34375 284.773438 C 403.632812 279.808594 401.675781 270.90625 401.675781 270.90625 C 401.675781 270.90625 397.339844 258.902344 397.671875 249.367188 C 397.671875 249.128906 397.703125 248.890625 397.71875 248.648438 C 397.789062 247.746094 397.84375 246.765625 397.886719 245.734375 C 398.050781 242.046875 398.011719 237.617188 397.90625 233.484375 L 397.882812 233.332031 C 397.730469 227.855469 397.464844 222.929688 397.339844 220.980469 C 397.757812 223.800781 400.304688 241.335938 401.410156 244.203125 C 401.410156 244.203125 402.011719 252.296875 404.75 259.136719 L 407.757812 276.921875 C 407.757812 276.921875 408.53125 298.089844 409.816406 304.074219 C 410.390625 306.738281 410.878906 308.53125 411.242188 309.703125 C 410.726562 312.089844 409.882812 316.085938 409.320312 319.394531 C 408.988281 317.238281 407.820312 309.015625 406.210938 305.867188 Z M 406.21875 305.851562 "/>
<path style=" stroke:none;fill-rule:nonzero;fill:rgb(0%,0%,0%);fill-opacity:1;" d="M 393.332031 306.398438 C 393.332031 306.398438 388.324219 315.339844 381.25 316.007812 C 374.175781 316.675781 374.015625 320.851562 378.949219 322.355469 C 383.882812 323.859375 394.273438 322.355469 394.273438 322.355469 L 409.082031 318.765625 C 409.082031 318.765625 407.289062 304.390625 404.90625 303.640625 C 402.523438 302.890625 393.332031 306.398438 393.332031 306.398438 Z M 393.332031 306.398438 "/>
<path style=" stroke:none;fill-rule:nonzero;fill:rgb(0%,0%,0%);fill-opacity:1;" d="M 411.402344 306.558594 C 411.402344 306.558594 407.644531 323.097656 408.601562 323.769531 C 409.554688 324.441406 423.746094 328.03125 424.261719 322.265625 C 424.296875 321.78125 424.335938 321.320312 424.371094 320.878906 C 424.578125 317.167969 424.074219 313.453125 422.878906 309.929688 C 422.464844 308.855469 422.265625 307.707031 422.304688 306.558594 C 422.550781 304.226562 411.402344 306.558594 411.402344 306.558594 Z M 411.402344 306.558594 "/>
<path style=" stroke:none;fill-rule:nonzero;fill:rgb(0%,0%,0%);fill-opacity:1;" d="M 406.753906 97.105469 C 406.753906 97.105469 395.265625 124.820312 397.308594 115.917969 C 398.664062 110.023438 389.917969 102.191406 383.871094 97.589844 C 380.792969 95.234375 378.414062 93.734375 378.414062 93.734375 C 378.414062 93.734375 399.984375 69.039062 398.449219 79.691406 C 398.03125 82.613281 398.4375 85.589844 399.625 88.300781 C 401.207031 91.78125 403.660156 94.808594 406.753906 97.105469 Z M 406.753906 97.105469 "/>
<path style=" stroke:none;fill-rule:nonzero;fill:rgb(0%,0%,0%);fill-opacity:1;" d="M 333.355469 136.476562 C 332.480469 136.351562 331.585938 136.40625 330.726562 136.636719 C 328.988281 137.03125 327.273438 137.542969 325.601562 138.164062 C 325.601562 138.164062 317.144531 139.167969 318.421875 130.460938 C 319.371094 123.96875 326.890625 126.324219 330.65625 127.933594 C 331.9375 128.488281 332.785156 128.953125 332.785156 128.953125 Z M 333.355469 136.476562 "/>
<path style=" stroke:none;fill-rule:nonzero;fill:rgb(0%,0%,0%);fill-opacity:1;" d="M 333.355469 136.476562 C 332.480469 136.351562 331.585938 136.40625 330.726562 136.636719 C 329.808594 134.355469 330.511719 128.953125 330.65625 127.933594 C 331.9375 128.488281 332.785156 128.953125 332.785156 128.953125 Z M 333.355469 136.476562 "/>
<path style=" stroke:none;fill-rule:nonzero;fill:rgb(0%,0%,0%);fill-opacity:1;" d="M 333.394531 128.160156 L 331.183594 127.75 C 331.183594 127.75 330.046875 135.21875 331.527344 137.175781 L 334.0625 137.175781 Z M 333.394531 128.160156 "/>
<path style=" stroke:none;fill-rule:nonzero;fill:rgb(0%,0%,0%);fill-opacity:1;" d="M 377.785156 141.804688 C 377.785156 141.804688 371.019531 137.832031 370.207031 142.84375 C 369.398438 147.855469 368.339844 156.425781 368.339844 156.425781 L 366.464844 167.332031 L 364.039062 189.179688 L 364.378906 192.898438 C 364.378906 192.898438 371.582031 190.515625 373.273438 191.351562 C 374.964844 192.1875 376.335938 182.164062 376.335938 182.164062 L 379.140625 171.777344 L 379.558594 149.804688 Z M 377.785156 141.804688 "/>
<path style=" stroke:none;fill-rule:nonzero;fill:rgb(0%,0%,0%);fill-opacity:1;" d="M 377.785156 141.804688 C 377.785156 141.804688 371.019531 137.832031 370.207031 142.84375 C 369.398438 147.855469 368.339844 156.425781 368.339844 156.425781 L 366.464844 167.332031 L 364.039062 189.179688 L 364.378906 192.898438 C 364.378906 192.898438 371.582031 190.515625 373.273438 191.351562 C 374.964844 192.1875 376.335938 182.164062 376.335938 182.164062 L 379.140625 171.777344 L 379.558594 149.804688 Z M 377.785156 141.804688 "/>
<path style=" stroke:none;fill-rule:nonzero;fill:rgb(0%,0%,0%);fill-opacity:1;" d="M 374.132812 116.046875 C 374.132812 116.046875 367.113281 123.832031 356.457031 125.382812 C 345.800781 126.929688 332.664062 127.449219 332.664062 127.449219 C 332.664062 127.449219 329.324219 133.277344 334.132812 139.484375 L 360.945312 138.902344 C 360.945312 138.902344 366.882812 137.640625 371.480469 138.902344 Z M 374.132812 116.046875 "/>
<path style=" stroke:none;fill-rule:nonzero;fill:rgb(0%,0%,0%);fill-opacity:1;" d="M 374.132812 116.046875 C 374.132812 116.046875 367.113281 123.832031 356.457031 125.382812 C 345.800781 126.929688 332.664062 127.449219 332.664062 127.449219 C 332.664062 127.449219 329.324219 133.277344 334.132812 139.484375 L 360.945312 138.902344 C 360.945312 138.902344 366.882812 137.640625 371.480469 138.902344 Z M 374.132812 116.046875 "/>
<path style=" stroke:none;fill-rule:nonzero;fill:rgb(0%,0%,0%);fill-opacity:1;" d="M 398.5 88.054688 C 395.878906 93.554688 391.328125 97.609375 384.726562 97.609375 C 384.433594 97.609375 384.148438 97.609375 383.867188 97.609375 C 380.789062 95.253906 378.410156 93.753906 378.410156 93.753906 C 378.410156 93.753906 399.980469 69.0625 398.445312 79.714844 C 397.988281 82.953125 397.445312 85.605469 398.5 88.054688 Z M 398.5 88.054688 "/>
<path style=" stroke:none;fill-rule:nonzero;fill:rgb(0%,0%,0%);fill-opacity:1;" d="M 401.171875 80.960938 C 401.148438 89.855469 393.792969 97.054688 384.730469 97.042969 C 375.671875 97.03125 368.332031 89.816406 368.332031 80.921875 C 368.332031 72.023438 375.671875 64.808594 384.730469 64.796875 C 393.792969 64.785156 401.148438 71.984375 401.171875 80.882812 Z M 401.171875 80.960938 "/>
<path style=" stroke:none;fill-rule:nonzero;fill:rgb(0%,0%,0%);fill-opacity:1;" d="M 411.222656 179.636719 C 411.222656 179.636719 374.546875 182.816406 373.203125 178.21875 C 371.859375 173.617188 376.957031 161.167969 376.957031 161.167969 L 375.289062 143.785156 L 375.230469 143.121094 C 375.230469 143.121094 379.820312 124.320312 379.65625 122.820312 C 379.496094 121.46875 387.050781 105.6875 388.601562 102.464844 C 388.785156 102.089844 388.882812 101.886719 388.882812 101.886719 L 389.175781 102.050781 L 389.304688 102.128906 L 391.105469 103.15625 L 398.199219 101.515625 L 406.75 97.117188 L 407.554688 145.222656 Z M 411.222656 179.636719 "/>
<path style=" stroke:none;fill-rule:nonzero;fill:rgb(0%,0%,0%);fill-opacity:1;" d="M 392.160156 102.460938 C 392.160156 102.460938 389.65625 101.789062 388.671875 104.253906 C 388.285156 105.3125 387.832031 106.347656 387.308594 107.347656 L 386.332031 113.085938 L 384.542969 122.101562 L 383.222656 162.089844 L 383.820312 169.1875 L 387.097656 163.449219 L 387.695312 126.074219 L 387.695312 121.453125 C 387.878906 117.4375 388.800781 113.484375 390.410156 109.78125 L 390.867188 108.734375 L 393.714844 105.140625 Z M 392.160156 102.460938 "/>
<path style=" stroke:none;fill-rule:nonzero;fill:rgb(0%,0%,0%);fill-opacity:1;" d="M 391.664062 101.964844 C 391.664062 101.964844 389.160156 101.296875 388.171875 103.757812 C 387.789062 104.820312 387.335938 105.851562 386.808594 106.851562 L 385.832031 112.589844 L 384.042969 121.628906 L 382.726562 161.613281 L 383.316406 168.703125 L 386.589844 162.96875 L 387.1875 125.617188 L 387.1875 120.949219 C 387.382812 116.933594 388.308594 112.980469 389.917969 109.28125 L 390.378906 108.234375 L 393.226562 104.640625 Z M 391.664062 101.964844 "/>
<path style=" stroke:none;fill-rule:nonzero;fill:rgb(0%,0%,0%);fill-opacity:1;" d="M 402.375 91.644531 C 402.375 91.644531 393.691406 100.683594 390.628906 101.753906 C 390.628906 101.753906 392.160156 108.609375 393.691406 109.949219 C 393.691406 109.949219 402.800781 100.828125 404.414062 100.089844 L 405.765625 96.839844 Z M 402.375 91.644531 "/>
<path style=" stroke:none;fill-rule:nonzero;fill:rgb(0%,0%,0%);fill-opacity:1;" d="M 402.375 91.132812 C 402.375 91.132812 393.691406 100.148438 390.628906 101.242188 C 390.628906 101.242188 392.160156 108.09375 393.691406 109.4375 C 393.691406 109.4375 402.800781 100.320312 404.414062 99.578125 L 405.765625 96.332031 Z M 402.375 91.132812 "/>
<path style=" stroke:none;fill-rule:nonzero;fill:rgb(0%,0%,0%);fill-opacity:1;" d="M 389.386719 101.886719 L 389.300781 102.121094 L 386.519531 109.425781 L 381.546875 123.238281 C 381.546875 123.238281 381.5 123.382812 381.410156 123.648438 C 380.578125 126.164062 376.15625 139.8125 375.285156 143.773438 L 375.226562 143.109375 C 375.226562 143.109375 379.816406 124.308594 379.648438 122.808594 C 379.492188 121.453125 387.046875 105.675781 388.597656 102.449219 C 388.796875 102.324219 388.988281 102.1875 389.171875 102.039062 Z M 389.386719 101.886719 "/>
<path style=" stroke:none;fill-rule:nonzero;fill:rgb(0%,0%,0%);fill-opacity:1;" d="M 388.878906 101.882812 L 386.007812 109.425781 L 381.03125 123.238281 C 381.03125 123.238281 380.988281 123.382812 380.902344 123.648438 C 380.027344 126.328125 375.058594 141.628906 374.640625 144.425781 C 374.1875 147.496094 367.933594 164.097656 367.933594 164.097656 L 364.355469 192.859375 C 361.15625 190.402344 365.707031 166.925781 365.707031 166.925781 C 365.707031 166.925781 370.824219 132.089844 372.046875 120.492188 C 373.269531 108.894531 379.769531 105.511719 379.769531 105.511719 C 382.78125 105.363281 385.492188 104.058594 387.164062 103.054688 C 387.761719 102.699219 388.335938 102.308594 388.878906 101.882812 Z M 388.878906 101.882812 "/>
<path style=" stroke:none;fill-rule:nonzero;fill:rgb(0%,0%,0%);fill-opacity:1;" d="M 424.921875 286.925781 C 424.15625 292.527344 423.132812 308.148438 423.132812 308.148438 C 419.5625 313.410156 411.644531 310.570312 411.644531 310.570312 C 411.644531 310.570312 410.808594 308.996094 409.519531 303.050781 C 408.230469 297.101562 407.476562 276.140625 407.476562 276.140625 L 404.496094 258.535156 C 401.777344 251.765625 401.160156 243.746094 401.160156 243.746094 C 399.957031 240.652344 397.074219 220.347656 397.074219 220.347656 C 397.074219 220.347656 398.273438 238.5625 397.488281 248.171875 C 396.703125 257.78125 401.394531 270.714844 401.394531 270.714844 C 401.394531 270.714844 404.039062 282.832031 402.671875 286.59375 C 401.308594 290.355469 406.078125 305.894531 406.078125 305.894531 C 405.664062 310.402344 392.128906 308.570312 392.128906 308.570312 C 392.128906 308.570312 385.753906 291.765625 384.617188 281.660156 C 383.945312 275.566406 382.851562 269.527344 381.335938 263.582031 L 380.234375 249.539062 L 378.273438 241.242188 L 375.933594 230.296875 C 373.292969 222.273438 372.488281 208.863281 372.488281 208.863281 L 370.441406 195.703125 C 369.105469 189.195312 370.859375 181.558594 371.996094 177.5625 C 372.496094 175.828125 372.898438 174.769531 372.898438 174.769531 C 374.070312 175.589844 380.785156 176.546875 384.257812 177.324219 C 386.160156 177.753906 388.117188 177.910156 390.0625 177.777344 C 398.847656 177.097656 407.535156 175.53125 415.992188 173.109375 C 416.566406 172.941406 416.871094 172.84375 416.871094 172.84375 L 417.046875 174.347656 L 417.464844 177.933594 L 418.222656 184.296875 C 418.222656 184.296875 420.515625 218.222656 419.15625 222.820312 C 417.796875 227.417969 420.09375 242.859375 420.09375 242.859375 C 418.820312 246.550781 422.816406 261.425781 422.816406 261.425781 C 422.816406 261.425781 425.6875 281.328125 424.921875 286.925781 Z M 424.921875 286.925781 "/>
<path style=" stroke:none;fill-rule:nonzero;fill:rgb(0%,0%,0%);fill-opacity:1;" d="M 424.921875 286.4375 C 424.15625 292.035156 423.132812 307.65625 423.132812 307.65625 C 419.5625 312.921875 411.644531 310.078125 411.644531 310.078125 C 411.644531 310.078125 410.808594 308.503906 409.519531 302.5625 C 408.230469 296.617188 407.476562 275.648438 407.476562 275.648438 L 404.496094 258.023438 C 401.796875 251.253906 401.160156 243.214844 401.160156 243.214844 C 399.957031 240.121094 397.074219 219.816406 397.074219 219.816406 C 397.074219 219.816406 398.273438 238.027344 397.488281 247.644531 C 396.703125 257.257812 401.394531 270.183594 401.394531 270.183594 C 401.394531 270.183594 404.039062 282.304688 402.671875 286.0625 C 401.308594 289.820312 406.078125 305.363281 406.078125 305.363281 C 405.664062 309.871094 392.128906 308.035156 392.128906 308.035156 C 392.128906 308.035156 385.753906 291.257812 384.617188 281.144531 C 383.945312 275.050781 382.851562 269.011719 381.335938 263.066406 L 380.234375 249.027344 L 378.273438 240.757812 L 375.933594 229.8125 C 373.292969 221.785156 372.488281 208.378906 372.488281 208.378906 L 370.441406 195.21875 C 369.105469 188.710938 370.859375 181.070312 371.996094 177.074219 C 372.496094 175.34375 372.898438 174.285156 372.898438 174.285156 C 374.070312 175.105469 380.785156 176.058594 384.257812 176.835938 C 386.160156 177.269531 388.117188 177.421875 390.0625 177.289062 C 398.847656 176.609375 407.535156 175.042969 415.992188 172.621094 L 416.871094 172.359375 L 417.046875 173.859375 L 417.464844 177.449219 L 418.222656 183.8125 C 418.222656 183.8125 420.515625 217.734375 419.15625 222.335938 C 417.796875 226.9375 420.09375 242.378906 420.09375 242.378906 C 418.820312 246.035156 422.816406 260.9375 422.816406 260.9375 C 422.816406 260.9375 425.6875 280.828125 424.921875 286.4375 Z M 424.921875 286.4375 "/>
<path style=" stroke:none;fill-rule:nonzero;fill:rgb(0%,0%,0%);fill-opacity:1;" d="M 401.171875 80.960938 C 401.175781 83.78125 400.421875 86.558594 398.992188 89.007812 C 396.433594 89.449219 393.707031 88.960938 391.792969 87.300781 C 390.476562 86.164062 389.628906 84.609375 388.5 83.296875 C 387.769531 82.484375 386.984375 81.726562 386.152344 81.019531 C 385.605469 80.488281 384.980469 80.042969 384.300781 79.691406 C 383.597656 79.351562 382.777344 79.351562 382.074219 79.691406 C 381.171875 80.1875 380.878906 81.289062 380.351562 82.152344 C 379.957031 82.90625 379.285156 83.484375 378.46875 83.765625 C 377.632812 84.027344 376.71875 83.726562 376.214844 83.015625 C 375.65625 82.078125 376.066406 80.609375 375.132812 80.035156 C 374.886719 79.917969 374.632812 79.816406 374.375 79.730469 C 373.171875 79.195312 373.03125 77.609375 372.925781 76.316406 C 372.875 75.679688 372.734375 74.960938 372.191406 74.617188 C 371.648438 74.277344 370.9375 74.445312 370.285156 74.460938 C 370.09375 74.46875 369.902344 74.453125 369.710938 74.417969 C 372.863281 67.445312 380.554688 63.589844 388.15625 65.175781 C 395.753906 66.757812 401.191406 73.347656 401.1875 80.976562 Z M 401.171875 80.960938 "/>
<path style=" stroke:none;fill-rule:nonzero;fill:rgb(0%,0%,0%);fill-opacity:1;" d="M 368.707031 59.960938 C 367.429688 60.886719 366.621094 62.308594 366.492188 63.863281 C 366.460938 64.121094 366.480469 64.382812 366.550781 64.632812 C 366.667969 64.894531 366.808594 65.152344 366.96875 65.394531 C 367.804688 67.03125 366.527344 68.976562 366.691406 70.804688 C 366.921875 72.589844 368.460938 73.929688 370.292969 73.945312 C 370.9375 73.945312 371.652344 73.757812 372.199219 74.101562 C 372.746094 74.445312 372.882812 75.164062 372.9375 75.800781 C 373.042969 77.097656 373.171875 78.667969 374.378906 79.214844 C 374.636719 79.304688 374.890625 79.40625 375.136719 79.519531 C 376.074219 80.09375 375.667969 81.570312 376.222656 82.5 C 376.726562 83.207031 377.640625 83.511719 378.476562 83.25 C 379.292969 82.972656 379.964844 82.394531 380.355469 81.640625 C 380.875 80.753906 381.191406 79.675781 382.089844 79.179688 C 382.789062 78.839844 383.609375 78.839844 384.308594 79.179688 C 384.992188 79.527344 385.617188 79.976562 386.160156 80.507812 C 386.996094 81.210938 387.78125 81.972656 388.507812 82.78125 C 389.636719 84.09375 390.484375 85.652344 391.800781 86.78125 C 394.273438 88.917969 398.0625 89.144531 401.109375 87.910156 C 401.546875 87.765625 401.945312 87.519531 402.265625 87.1875 C 402.542969 86.808594 402.726562 86.367188 402.789062 85.902344 C 403.101562 84.417969 403.1875 82.902344 403.054688 81.394531 C 402.945312 80.214844 402.703125 79.03125 402.785156 77.855469 C 402.871094 76.589844 403.328125 75.367188 403.390625 74.101562 C 403.503906 71.859375 402.375 69.738281 400.992188 67.953125 C 400.15625 66.898438 399.222656 65.90625 398.488281 64.785156 C 397.855469 63.808594 397.402344 62.738281 396.730469 61.773438 C 395.152344 59.554688 392.492188 58.238281 389.78125 57.777344 C 387.066406 57.320312 384.277344 57.601562 381.5625 58.046875 C 379.191406 58.453125 376.808594 58.996094 374.402344 59.136719 C 372.300781 59.300781 370.605469 58.605469 368.707031 59.960938 Z M 368.707031 59.960938 "/>
<path style=" stroke:none;fill-rule:nonzero;fill:rgb(0%,0%,0%);fill-opacity:1;" d="M 388.878906 101.882812 L 386.007812 109.425781 L 381.03125 123.238281 C 381.03125 123.238281 380.988281 123.382812 380.902344 123.648438 L 380.902344 123.667969 L 387.164062 103.054688 C 387.761719 102.703125 388.335938 102.308594 388.878906 101.882812 Z M 388.878906 101.882812 "/>
<path style=" stroke:none;fill-rule:nonzero;fill:rgb(0%,0%,0%);fill-opacity:1;" d="M 419.945312 188.410156 C 419.945312 188.410156 420.242188 197.558594 417.734375 199.855469 L 411.054688 187.492188 L 416.65625 184.835938 Z M 419.945312 188.410156 "/>
<path style=" stroke:none;fill-rule:nonzero;fill:rgb(0%,0%,0%);fill-opacity:1;" d="M 435.539062 191.75 C 432.472656 195.257812 419.128906 195.890625 419.128906 195.890625 L 405.921875 175.453125 C 405.921875 175.453125 402.792969 173.324219 396.925781 163.730469 C 391.058594 154.136719 391.246094 146.75 391.574219 141.234375 C 391.90625 135.71875 395.578125 119.859375 395.578125 119.859375 C 396.148438 116.289062 404.378906 93.921875 404.378906 93.921875 C 405.246094 95.617188 406.855469 97.03125 408.734375 98.199219 C 413.816406 101.34375 420.914062 102.632812 420.914062 102.632812 C 432.347656 104.269531 430.234375 115.855469 430.234375 115.855469 C 430.234375 115.855469 430.363281 160.9375 429.65625 166.308594 C 428.953125 171.675781 435.539062 191.75 435.539062 191.75 Z M 435.539062 191.75 "/>
<path style=" stroke:none;fill-rule:nonzero;fill:rgb(0%,0%,0%);fill-opacity:1;" d="M 420.117188 190.164062 L 419.734375 193.507812 L 415.09375 191.835938 L 411.695312 186.777344 L 414.246094 184.816406 Z M 420.117188 190.164062 "/>
<path style=" stroke:none;fill-rule:nonzero;fill:rgb(0%,0%,0%);fill-opacity:1;" d="M 419.953125 177.210938 L 417.527344 177.453125 L 394.15625 179.75 C 390.394531 180.121094 386.601562 179.9375 382.898438 179.203125 L 372.046875 177.078125 C 372.546875 175.347656 372.945312 174.289062 372.945312 174.289062 C 374.121094 175.109375 380.835938 176.0625 384.308594 176.839844 C 386.210938 177.273438 388.167969 177.425781 390.113281 177.296875 C 398.898438 176.613281 407.585938 175.046875 416.042969 172.628906 L 417.097656 173.855469 Z M 419.953125 177.210938 "/>
<path style=" stroke:none;fill-rule:nonzero;fill:rgb(0%,0%,0%);fill-opacity:1;" d="M 373.199219 174.417969 C 373.117188 174.378906 373.042969 174.335938 372.972656 174.289062 C 372.96875 174.3125 372.960938 174.332031 372.945312 174.347656 Z M 373.199219 174.417969 "/>
<path style=" stroke:none;fill-rule:nonzero;fill:rgb(0%,0%,0%);fill-opacity:1;" d="M 422.902344 260.9375 C 422.902344 260.9375 418.898438 246.039062 420.179688 242.378906 C 420.179688 242.378906 417.878906 226.933594 419.246094 222.335938 C 420.609375 217.738281 418.304688 183.8125 418.304688 183.8125 L 417.542969 177.460938 L 417.125 173.867188 L 416.949219 172.367188 L 416.066406 172.632812 L 415.523438 172.789062 L 415.59375 173.367188 L 416.007812 176.953125 L 416.769531 183.316406 C 416.769531 183.316406 419.066406 217.242188 417.707031 221.839844 C 416.351562 226.4375 418.640625 241.882812 418.640625 241.882812 C 417.386719 245.570312 421.359375 260.445312 421.359375 260.445312 C 421.359375 260.445312 424.164062 280.335938 423.40625 285.933594 C 422.644531 291.53125 421.621094 307.15625 421.621094 307.15625 C 419.011719 311 414.082031 310.519531 411.601562 309.984375 L 411.644531 310.078125 C 411.644531 310.078125 419.574219 312.921875 423.132812 307.65625 C 423.132812 307.65625 424.15625 292.027344 424.925781 286.4375 C 425.691406 280.847656 422.902344 260.9375 422.902344 260.9375 Z M 422.902344 260.9375 "/>
<path style=" stroke:none;fill-rule:nonzero;fill:rgb(0%,0%,0%);fill-opacity:1;" d="M 402.730469 286.09375 C 404.09375 282.332031 401.453125 270.214844 401.453125 270.214844 C 401.453125 270.214844 396.777344 257.246094 397.539062 247.671875 C 397.859375 243.667969 397.839844 238.171875 397.707031 233.132812 C 396.621094 226.628906 395.582031 219.378906 395.582031 219.378906 C 395.582031 219.378906 396.78125 237.589844 396 247.199219 C 395.21875 256.8125 399.910156 269.742188 399.910156 269.742188 C 399.910156 269.742188 402.550781 281.855469 401.1875 285.617188 C 399.824219 289.382812 404.601562 304.917969 404.601562 304.917969 C 404.261719 308.53125 395.515625 308.0625 392.046875 307.746094 L 392.179688 308.09375 C 392.179688 308.09375 405.707031 309.933594 406.132812 305.421875 C 406.136719 305.398438 401.371094 289.855469 402.730469 286.09375 Z M 402.730469 286.09375 "/>
<path style=" stroke:none;fill-rule:nonzero;fill:rgb(0%,0%,0%);fill-opacity:1;" d="M 436.042969 191.75 C 432.984375 195.257812 419.628906 195.902344 419.628906 195.902344 L 406.421875 175.46875 C 406.421875 175.46875 403.296875 173.335938 397.421875 163.742188 C 391.550781 154.148438 391.746094 146.761719 392.070312 141.246094 C 392.398438 135.730469 396.070312 119.871094 396.070312 119.871094 C 396.648438 116.304688 404.878906 93.933594 404.878906 93.933594 C 405.738281 95.632812 407.34375 97.046875 409.230469 98.214844 C 414.316406 101.355469 421.410156 102.644531 421.410156 102.644531 C 432.835938 104.28125 430.726562 115.867188 430.726562 115.867188 C 430.726562 115.867188 430.855469 160.949219 430.152344 166.320312 C 429.445312 171.6875 436.042969 191.75 436.042969 191.75 Z M 436.042969 191.75 "/>
<path style=" stroke:none;fill-rule:nonzero;fill:rgb(0%,0%,0%);fill-opacity:1;" d="M 407.332031 105.011719 L 404.457031 106.0625 L 406.371094 107.382812 L 392.082031 141.222656 C 392.410156 135.722656 396.078125 119.847656 396.078125 119.847656 C 396.652344 116.277344 404.886719 93.914062 404.886719 93.914062 C 405.746094 95.605469 407.351562 97.019531 409.238281 98.1875 Z M 407.332031 105.011719 "/>
<path style=" stroke:none;fill-rule:nonzero;fill:rgb(0%,0%,0%);fill-opacity:1;" d="M 410.773438 165.304688 L 425.390625 161.605469 L 427.308594 167.433594 L 412.375 171.007812 Z M 410.773438 165.304688 "/>
<path style=" stroke:none;fill-rule:nonzero;fill:rgb(0%,0%,0%);fill-opacity:1;" d="M 419.136719 107.378906 C 419.136719 107.378906 412.5 113.523438 415.003906 127.183594 C 417.507812 140.84375 421.515625 155.695312 421.515625 155.695312 L 410.707031 185.09375 C 410.707031 185.09375 418.222656 192.804688 421.945312 193.738281 L 432.730469 170.234375 C 432.730469 170.234375 437.773438 162.085938 436.433594 149.304688 C 435.09375 136.519531 430.238281 115.835938 430.238281 115.835938 C 430.238281 115.835938 430.242188 103.277344 419.136719 107.378906 Z M 419.136719 107.378906 "/>
<path style=" stroke:none;fill-rule:nonzero;fill:rgb(0%,0%,0%);fill-opacity:1;" d="M 419.628906 107.378906 C 419.628906 107.378906 412.984375 113.523438 415.484375 127.183594 C 417.984375 140.84375 421.992188 155.695312 421.992188 155.695312 L 411.183594 185.09375 C 411.183594 185.09375 418.71875 192.804688 422.417969 193.738281 L 433.222656 170.234375 C 433.222656 170.234375 438.265625 162.085938 436.925781 149.304688 C 435.585938 136.519531 430.734375 115.835938 430.734375 115.835938 C 430.734375 115.835938 430.75 103.277344 419.628906 107.378906 Z M 419.628906 107.378906 "/>
<path style=" stroke:none;fill-rule:nonzero;fill:rgb(0%,0%,0%);fill-opacity:1;" d="M 411.558594 185.734375 C 411.558594 185.734375 419.988281 197.183594 419.347656 200.234375 C 418.710938 203.28125 416.242188 201.652344 416.242188 201.652344 L 412.925781 197.183594 L 409.945312 188.828125 C 409.945312 188.828125 410.238281 185.21875 411.558594 185.734375 Z M 411.558594 185.734375 "/>
<path style=" stroke:none;fill-rule:nonzero;fill:rgb(0%,0%,0%);fill-opacity:1;" d="M 410.542969 185.734375 C 410.542969 185.734375 418.945312 197.183594 418.332031 200.234375 C 417.714844 203.28125 415.226562 201.652344 415.226562 201.652344 L 411.886719 197.183594 L 408.90625 188.828125 C 408.90625 188.828125 409.214844 185.21875 410.542969 185.734375 Z M 410.542969 185.734375 "/>
<path style=" stroke:none;fill-rule:nonzero;fill:rgb(0%,0%,0%);fill-opacity:1;" d="M 411.050781 185.734375 C 411.050781 185.734375 419.457031 197.183594 418.835938 200.234375 C 418.214844 203.28125 415.730469 201.652344 415.730469 201.652344 L 412.410156 197.183594 L 409.433594 188.828125 C 409.433594 188.828125 409.722656 185.21875 411.050781 185.734375 Z M 411.050781 185.734375 "/>
</g>
</svg>
