<?xml version="1.0" encoding="UTF-8"?>
<svg xmlns="http://www.w3.org/2000/svg" xmlns:xlink="http://www.w3.org/1999/xlink" width="481pt" height="337pt" viewBox="0 0 481 337" version="1.1">
<g id="surface1">
<path style=" stroke:none;fill-rule:nonzero;fill:rgb(0%,0%,0%);fill-opacity:1;" d="M 314.445312 168.539062 C 314.496094 210.21875 297.183594 250.105469 266.527344 278.9375 L 266.527344 114.34375 L 57.183594 114.34375 L 57.183594 284.835938 C 22.539062 255.785156 2.605469 213.277344 2.652344 168.539062 C 2.652344 84.015625 72.449219 15.472656 158.546875 15.472656 C 244.640625 15.472656 314.445312 84.015625 314.445312 168.539062 Z M 314.445312 168.539062 "/>
<path style=" stroke:none;fill-rule:nonzero;fill:rgb(0%,0%,0%);fill-opacity:1;" d="M 266.527344 114.265625 L 266.527344 278.859375 C 208.683594 333.40625 118.125 335.960938 57.183594 284.761719 L 57.183594 114.269531 Z M 266.527344 114.265625 "/>
<path style=" stroke:none;fill-rule:nonzero;fill:rgb(0%,0%,0%);fill-opacity:1;" d="M 87.511719 167.300781 C 98.46875 163.878906 109.835938 161.886719 121.320312 161.378906 C 127.078125 161.140625 132.847656 161.359375 138.570312 162.039062 C 144.234375 162.773438 149.832031 163.949219 155.304688 165.558594 C 160.730469 167.097656 166.050781 168.871094 171.441406 170.476562 C 176.925781 172.117188 182.5 173.453125 188.136719 174.472656 C 193.742188 175.464844 199.398438 176.128906 205.085938 176.453125 C 210.722656 176.839844 216.382812 176.769531 222.007812 176.25 C 227.25 175.75 232.378906 174.472656 237.226562 172.453125 C 241.75 170.519531 245.929688 167.890625 249.613281 164.667969 C 250.53125 163.847656 251.414062 163.007812 252.261719 162.148438 C 252.761719 161.632812 251.96875 160.847656 251.46875 161.363281 C 244.292969 168.742188 234.859375 173.296875 224.636719 174.820312 C 219.0625 175.640625 213.367188 175.699219 207.757812 175.484375 C 202.011719 175.261719 196.285156 174.691406 190.613281 173.769531 C 185.007812 172.859375 179.460938 171.617188 174.003906 170.058594 C 168.644531 168.53125 163.359375 166.777344 158.015625 165.191406 C 152.625 163.527344 147.125 162.242188 141.554688 161.339844 C 135.964844 160.503906 130.316406 160.117188 124.664062 160.1875 C 113.367188 160.367188 102.140625 161.996094 91.273438 165.039062 C 89.910156 165.417969 88.550781 165.816406 87.199219 166.234375 C 86.511719 166.445312 86.78125 167.511719 87.5 167.300781 Z M 87.511719 167.300781 "/>
<path style=" stroke:none;fill-rule:nonzero;fill:rgb(0%,0%,0%);fill-opacity:1;" d="M 87.511719 195.296875 C 98.46875 191.875 109.835938 189.882812 121.320312 189.371094 C 127.078125 189.136719 132.847656 189.355469 138.570312 190.035156 C 144.234375 190.773438 149.832031 191.949219 155.304688 193.554688 C 160.730469 195.09375 166.050781 196.867188 171.441406 198.472656 C 176.925781 200.113281 182.5 201.449219 188.136719 202.46875 C 193.742188 203.460938 199.398438 204.125 205.085938 204.449219 C 210.722656 204.835938 216.382812 204.769531 222.007812 204.246094 C 227.25 203.746094 232.378906 202.46875 237.226562 200.449219 C 241.75 198.515625 245.929688 195.886719 249.613281 192.664062 C 250.53125 191.84375 251.414062 191.003906 252.261719 190.144531 C 252.761719 189.628906 251.96875 188.84375 251.46875 189.359375 C 244.292969 196.738281 234.859375 201.289062 224.636719 202.816406 C 219.0625 203.636719 213.367188 203.695312 207.757812 203.480469 C 202.011719 203.261719 196.285156 202.695312 190.609375 201.777344 C 185.003906 200.867188 179.457031 199.625 174 198.066406 C 168.640625 196.539062 163.351562 194.785156 158.011719 193.199219 C 152.621094 191.539062 147.121094 190.25 141.546875 189.347656 C 135.960938 188.511719 130.3125 188.128906 124.660156 188.195312 C 113.363281 188.375 102.136719 190.003906 91.269531 193.050781 C 89.90625 193.425781 88.546875 193.824219 87.195312 194.242188 C 86.507812 194.453125 86.777344 195.519531 87.496094 195.308594 Z M 87.511719 195.296875 "/>
<path style=" stroke:none;fill-rule:nonzero;fill:rgb(0%,0%,0%);fill-opacity:1;" d="M 87.511719 141.882812 C 98.46875 138.460938 109.835938 136.46875 121.320312 135.960938 C 127.078125 135.722656 132.847656 135.941406 138.570312 136.621094 C 144.234375 137.359375 149.832031 138.539062 155.304688 140.144531 C 160.730469 141.679688 166.050781 143.453125 171.441406 145.0625 C 176.925781 146.703125 182.5 148.039062 188.136719 149.058594 C 193.742188 150.054688 199.398438 150.714844 205.085938 151.039062 C 210.722656 151.425781 216.382812 151.359375 222.007812 150.835938 C 227.25 150.335938 232.382812 149.054688 237.226562 147.035156 C 241.75 145.101562 245.929688 142.472656 249.613281 139.25 C 250.53125 138.445312 251.414062 137.605469 252.261719 136.730469 C 252.761719 136.214844 251.96875 135.429688 251.46875 135.945312 C 244.292969 143.324219 234.859375 147.878906 224.636719 149.402344 C 219.0625 150.222656 213.367188 150.28125 207.757812 150.066406 C 202.015625 149.847656 196.285156 149.277344 190.613281 148.359375 C 185.007812 147.449219 179.460938 146.210938 174.003906 144.652344 C 168.644531 143.121094 163.359375 141.371094 158.015625 139.78125 C 152.625 138.121094 147.125 136.832031 141.554688 135.929688 C 135.964844 135.09375 130.316406 134.710938 124.664062 134.777344 C 113.367188 134.957031 102.140625 136.589844 91.273438 139.632812 C 89.910156 140.007812 88.550781 140.40625 87.199219 140.824219 C 86.511719 141.035156 86.78125 142.101562 87.5 141.890625 Z M 87.511719 141.882812 "/>
<path style=" stroke:none;fill-rule:nonzero;fill:rgb(0%,0%,0%);fill-opacity:1;" d="M 86.167969 93.824219 C 88.894531 92.640625 92.011719 92.847656 94.839844 93.53125 C 97.886719 94.273438 100.757812 95.5625 103.753906 96.449219 C 109.121094 98.023438 114.828125 98.132812 120.253906 96.757812 C 123.308594 95.996094 126.222656 94.769531 128.894531 93.121094 C 129.507812 92.746094 128.945312 91.785156 128.324219 92.167969 C 123.570312 95.082031 118.070312 96.625 112.464844 96.613281 C 109.648438 96.609375 106.851562 96.203125 104.15625 95.410156 C 101.179688 94.53125 98.332031 93.261719 95.3125 92.507812 C 92.117188 91.710938 88.691406 91.53125 85.617188 92.867188 C 84.957031 93.15625 85.53125 94.097656 86.1875 93.824219 Z M 86.167969 93.824219 "/>
<path style=" stroke:none;fill-rule:nonzero;fill:rgb(0%,0%,0%);fill-opacity:1;" d="M 187.054688 246.332031 C 187.054688 255.691406 179.324219 263.277344 169.792969 263.277344 C 160.261719 263.277344 152.535156 255.691406 152.535156 246.332031 C 152.535156 236.972656 160.261719 229.386719 169.792969 229.386719 C 179.324219 229.386719 187.054688 236.972656 187.054688 246.332031 Z M 187.054688 246.332031 "/>
<path style=" stroke:none;fill-rule:nonzero;fill:rgb(0%,0%,0%);fill-opacity:1;" d="M 126.890625 28.628906 C 126.890625 33.714844 122.691406 37.835938 117.511719 37.835938 C 112.332031 37.835938 108.132812 33.714844 108.132812 28.628906 C 108.132812 23.542969 112.332031 19.417969 117.511719 19.417969 C 122.691406 19.417969 126.890625 23.542969 126.890625 28.628906 Z M 126.890625 28.628906 "/>
<path style=" stroke:none;fill-rule:nonzero;fill:rgb(0%,0%,0%);fill-opacity:1;" d="M 206.046875 54.777344 C 206.046875 58.238281 203.191406 61.039062 199.671875 61.039062 C 196.148438 61.039062 193.292969 58.238281 193.292969 54.777344 C 193.292969 51.320312 196.148438 48.515625 199.671875 48.515625 C 203.191406 48.515625 206.046875 51.320312 206.046875 54.777344 Z M 206.046875 54.777344 "/>
<path style=" stroke:none;fill-rule:nonzero;fill:rgb(0%,0%,0%);fill-opacity:1;" d="M 102.503906 114.824219 C 102.503906 118.28125 99.652344 121.085938 96.128906 121.085938 C 92.605469 121.085938 89.75 118.28125 89.75 114.824219 C 89.75 111.363281 92.605469 108.5625 96.128906 108.5625 C 99.652344 108.5625 102.503906 111.363281 102.503906 114.824219 Z M 102.503906 114.824219 "/>
<path style=" stroke:none;fill-rule:nonzero;fill:rgb(0%,0%,0%);fill-opacity:1;" d="M 69.746094 68.304688 L 70.449219 68.304688 L 70.449219 191.796875 L 69.746094 191.796875 Z M 69.746094 68.304688 "/>
<path style=" stroke:none;fill-rule:nonzero;fill:rgb(0%,0%,0%);fill-opacity:1;" d="M 83.949219 150.480469 C 83.949219 133.507812 77.808594 119.75 70.234375 119.75 C 62.65625 119.75 56.515625 133.507812 56.515625 150.480469 C 56.515625 167.449219 62.65625 181.210938 70.234375 181.210938 C 77.808594 181.210938 83.949219 167.449219 83.949219 150.480469 Z M 83.949219 150.480469 "/>
<path style=" stroke:none;fill-rule:nonzero;fill:rgb(0%,0%,0%);fill-opacity:1;" d="M 83.949219 80.386719 C 83.949219 63.414062 77.808594 49.65625 70.234375 49.65625 C 62.65625 49.65625 56.515625 63.414062 56.515625 80.386719 C 56.515625 97.355469 62.65625 111.113281 70.234375 111.113281 C 77.808594 111.113281 83.949219 97.355469 83.949219 80.386719 Z M 83.949219 80.386719 "/>
<path style=" stroke:none;fill-rule:nonzero;fill:rgb(0%,0%,0%);fill-opacity:1;" d="M 70.570312 55.277344 L 69.894531 55.082031 C 69.9375 54.941406 74.070312 41.027344 67.28125 32.074219 C 63.449219 27.015625 56.847656 24.449219 47.726562 24.449219 L 47.726562 23.769531 C 57.105469 23.769531 63.875 26.429688 67.851562 31.675781 C 74.863281 40.902344 70.613281 55.140625 70.570312 55.277344 Z M 70.570312 55.277344 "/>
<path style=" stroke:none;fill-rule:nonzero;fill:rgb(0%,0%,0%);fill-opacity:1;" d="M 56.515625 24.105469 C 56.515625 28.875 52.582031 32.738281 47.726562 32.738281 C 42.871094 32.738281 38.9375 28.875 38.9375 24.105469 C 38.9375 19.339844 42.871094 15.476562 47.726562 15.476562 C 52.582031 15.476562 56.515625 19.339844 56.515625 24.105469 Z M 56.515625 24.105469 "/>
<path style=" stroke:none;fill-rule:nonzero;fill:rgb(0%,0%,0%);fill-opacity:1;" d="M 343.867188 241.835938 L 336.476562 308.578125 L 387.457031 308.578125 L 389.671875 303.5 L 392.628906 308.578125 L 440.652344 308.578125 C 440.652344 308.578125 436.957031 239.660156 430.308594 237.484375 C 423.660156 235.308594 343.867188 241.835938 343.867188 241.835938 Z M 343.867188 241.835938 "/>
<path style=" stroke:none;fill-rule:nonzero;fill:rgb(0%,0%,0%);fill-opacity:1;" d="M 413.3125 69.902344 C 413.3125 83.921875 401.734375 95.289062 387.457031 95.289062 C 373.175781 95.289062 361.597656 83.921875 361.597656 69.902344 C 361.597656 55.878906 373.175781 44.511719 387.457031 44.511719 C 401.734375 44.511719 413.3125 55.878906 413.3125 69.902344 Z M 413.3125 69.902344 "/>
<path style=" stroke:none;fill-rule:nonzero;fill:rgb(0%,0%,0%);fill-opacity:1;" d="M 372.679688 85.859375 C 372.679688 85.859375 374.894531 109.078125 372.679688 110.527344 C 370.464844 111.980469 408.160156 111.253906 408.160156 111.253906 C 408.160156 111.253906 402.984375 90.21875 408.160156 80.058594 Z M 372.679688 85.859375 "/>
<path style=" stroke:none;fill-rule:nonzero;fill:rgb(0%,0%,0%);fill-opacity:1;" d="M 385.976562 105.449219 C 385.976562 105.449219 404.988281 108.355469 406.566406 102.550781 L 416.289062 115.605469 L 417.027344 246.1875 C 417.027344 246.1875 337.96875 255.613281 335.015625 240.386719 C 332.058594 225.15625 365.308594 104.730469 365.308594 104.730469 L 373.65625 104.195312 C 373.65625 104.195312 384.5 105.449219 385.976562 105.449219 Z M 385.976562 105.449219 "/>
<path style=" stroke:none;fill-rule:nonzero;fill:rgb(0%,0%,0%);fill-opacity:1;" d="M 373.535156 98.234375 L 360.859375 102.550781 L 324.65625 111.253906 L 326.132812 198.308594 C 326.132812 198.308594 295.101562 285.363281 309.140625 291.894531 C 323.175781 298.421875 343.125 283.1875 349.039062 272.308594 C 354.953125 261.425781 375.636719 110.527344 375.636719 107.628906 C 375.636719 104.726562 373.535156 98.234375 373.535156 98.234375 Z M 373.535156 98.234375 "/>
<path style=" stroke:none;fill-rule:nonzero;fill:rgb(0%,0%,0%);fill-opacity:1;" d="M 406.09375 98.234375 L 411.101562 102.550781 L 446.578125 118.507812 L 428.847656 206.285156 C 428.847656 206.285156 452.488281 286.089844 443.625 290.441406 C 434.757812 294.796875 421.460938 307.128906 418.503906 299.867188 C 415.550781 292.609375 398.128906 106.253906 406.09375 98.234375 Z M 406.09375 98.234375 "/>
<path style=" stroke:none;fill-rule:nonzero;fill:rgb(0%,0%,0%);fill-opacity:1;" d="M 426.617188 214.269531 C 426.617188 214.269531 393.367188 200.484375 392.628906 212.820312 C 391.886719 225.15625 430.308594 233.855469 430.308594 230.230469 C 430.308594 226.601562 426.617188 214.269531 426.617188 214.269531 Z M 426.617188 214.269531 "/>
<path style=" stroke:none;fill-rule:nonzero;fill:rgb(0%,0%,0%);fill-opacity:1;" d="M 345.332031 209.1875 C 345.332031 209.1875 383.734375 237.46875 368.972656 244.738281 C 354.214844 252.007812 334.984375 219.347656 334.984375 219.347656 Z M 345.332031 209.1875 "/>
<path style=" stroke:none;fill-rule:nonzero;fill:rgb(0%,0%,0%);fill-opacity:1;" d="M 398.9375 32.710938 C 399.179688 32.183594 399.726562 31.859375 400.3125 31.890625 C 388.46875 31.191406 376.003906 32.550781 366.085938 38.953125 C 363.308594 40.746094 360.71875 42.941406 357.5625 43.949219 L 360.125 45.925781 L 357.0625 46.84375 L 361.570312 49.714844 C 360.644531 50.75 359.222656 51.21875 357.851562 50.941406 C 359.808594 51.503906 361.25 53.21875 361.980469 55.085938 C 362.710938 56.953125 362.847656 58.996094 362.972656 60.996094 C 363.726562 58.105469 366.9375 56.410156 369.960938 56.238281 C 372.988281 56.066406 375.949219 57.058594 378.898438 57.75 C 385.320312 59.285156 391.992188 59.535156 398.515625 58.492188 C 396.304688 62.855469 398.171875 68.066406 400.050781 72.578125 L 403.808594 81.59375 C 405.894531 81.800781 407.371094 79.765625 408.9375 78.402344 C 410.371094 77.171875 404.671875 88.078125 405.554688 87.675781 C 406.703125 87.15625 418.792969 74.046875 419.359375 72.921875 C 421.945312 67.863281 423.496094 62.230469 423.265625 56.578125 C 423.03125 50.925781 420.921875 45.273438 416.957031 41.175781 C 414.265625 38.394531 410.539062 37.898438 407.773438 35.589844 C 406.691406 34.679688 406.6875 33.949219 405.203125 33.4375 C 404.734375 33.277344 399.015625 32.53125 398.9375 32.710938 Z M 398.9375 32.710938 "/>
<path style=" stroke:none;fill-rule:nonzero;fill:rgb(0%,0%,0%);fill-opacity:1;" d="M 329.828125 113.429688 L 324.65625 111.253906 L 283.28125 177.996094 C 283.28125 177.996094 275.890625 195.40625 289.191406 203.386719 C 302.496094 211.363281 333.519531 235.308594 333.519531 235.308594 L 351.253906 208.464844 C 351.253906 208.464844 315.050781 191.777344 317.265625 185.246094 C 319.484375 178.714844 331.304688 161.308594 331.304688 161.308594 Z M 329.828125 113.429688 "/>
<path style=" stroke:none;fill-rule:nonzero;fill:rgb(0%,0%,0%);fill-opacity:1;" d="M 436.957031 117.058594 L 446.558594 118.507812 C 446.558594 118.507812 486.457031 195.40625 476.851562 209.902344 C 467.25 224.398438 428.089844 244.738281 428.089844 244.738281 C 428.089844 244.738281 427.351562 220.800781 420.699219 212.09375 L 443.601562 203.386719 L 431.042969 155.507812 Z M 436.957031 117.058594 "/>
</g>
</svg>
