<?xml version="1.0" encoding="UTF-8"?>
<svg xmlns="http://www.w3.org/2000/svg" xmlns:xlink="http://www.w3.org/1999/xlink" width="481pt" height="337pt" viewBox="0 0 481 337" version="1.1">
<g id="surface1">
<path style=" stroke:none;fill-rule:nonzero;fill:rgb(0%,0%,0%);fill-opacity:1;" d="M 479.9375 319.804688 C 479.9375 311.09375 387.894531 304.03125 274.355469 304.03125 C 160.816406 304.03125 68.773438 311.09375 68.773438 319.804688 C 68.773438 328.511719 160.816406 335.574219 274.355469 335.574219 C 387.894531 335.574219 479.9375 328.511719 479.9375 319.804688 Z M 479.9375 319.804688 "/>
<path style=" stroke:none;fill-rule:nonzero;fill:rgb(0%,0%,0%);fill-opacity:1;" d="M 312.84375 154.496094 C 312.84375 239.035156 243.046875 307.566406 156.949219 307.566406 C 70.855469 307.566406 1.058594 239.035156 1.058594 154.496094 C 1.058594 69.957031 70.855469 1.425781 156.949219 1.425781 C 243.046875 1.425781 312.84375 69.957031 312.84375 154.496094 Z M 312.84375 154.496094 "/>
<path style=" stroke:none;fill-rule:nonzero;fill:rgb(0%,0%,0%);fill-opacity:1;" d="M 452.128906 295.082031 L 453.863281 307.550781 L 441.742188 308.679688 L 443.472656 293.382812 Z M 452.128906 295.082031 "/>
<path style=" stroke:none;fill-rule:nonzero;fill:rgb(0%,0%,0%);fill-opacity:1;" d="M 395.003906 123.960938 C 395.003906 123.960938 396.15625 139.257812 396.15625 139.824219 C 396.15625 140.390625 388.074219 179.507812 388.074219 179.507812 C 388.074219 179.507812 376.53125 201.039062 388.074219 200.476562 C 399.613281 199.910156 396.152344 180.074219 396.152344 180.074219 L 408.257812 147.210938 L 403.066406 123.980469 Z M 395.003906 123.960938 "/>
<path style=" stroke:none;fill-rule:nonzero;fill:rgb(0%,0%,0%);fill-opacity:1;" d="M 414.042969 295.082031 L 412.3125 307.550781 L 424.433594 308.679688 L 422.699219 293.382812 Z M 414.042969 295.082031 "/>
<path style=" stroke:none;fill-rule:nonzero;fill:rgb(0%,0%,0%);fill-opacity:1;" d="M 400.769531 178.355469 L 397.886719 182.320312 C 397.886719 182.320312 396.152344 199.320312 397.886719 204.988281 C 399.617188 210.65625 403.078125 236.71875 403.078125 238.417969 C 403.078125 240.117188 403.65625 241.25 403.078125 241.820312 C 402.503906 242.390625 400.769531 242.386719 401.921875 243.519531 C 403.074219 244.65625 403.078125 248.054688 403.078125 248.054688 L 403.078125 250.886719 L 410.589844 292.816406 C 410.589844 292.816406 405.976562 297.914062 409.441406 297.914062 C 412.902344 297.914062 425.597656 297.914062 425.019531 292.25 L 423.863281 291.683594 C 423.863281 291.683594 422.136719 254.28125 422.710938 252.585938 C 423.289062 250.890625 422.710938 247.484375 422.710938 247.484375 C 422.710938 247.484375 421.554688 245.785156 422.710938 245.21875 C 423.867188 244.648438 423.863281 240.117188 423.863281 240.117188 L 429.0625 205.554688 C 429.0625 205.554688 433.675781 228.785156 436.574219 231.054688 C 439.472656 233.320312 438.882812 238.984375 438.882812 238.984375 L 441.191406 288.847656 C 441.191406 288.847656 438.882812 294.515625 441.191406 295.648438 C 443.5 296.777344 453.296875 300.75 453.886719 295.082031 C 454.480469 289.414062 457.347656 240.117188 457.347656 237.851562 C 457.347656 235.585938 456.773438 234.449219 457.347656 232.753906 C 457.925781 231.058594 456.773438 231.054688 457.347656 231.054688 C 457.925781 231.054688 456.195312 229.351562 456.195312 228.222656 L 456.195312 200.453125 C 456.195312 200.453125 456.773438 194.785156 457.347656 193.65625 C 457.925781 192.523438 456.773438 191.390625 457.347656 189.6875 C 457.925781 187.988281 456.195312 182.3125 456.195312 182.3125 L 430.226562 175.511719 Z M 400.769531 178.355469 "/>
<path style=" stroke:none;fill-rule:nonzero;fill:rgb(0%,0%,0%);fill-opacity:1;" d="M 423.277344 64.460938 C 423.277344 72.597656 416.558594 79.191406 408.269531 79.191406 C 399.984375 79.191406 393.265625 72.597656 393.265625 64.460938 C 393.265625 56.320312 399.984375 49.726562 408.269531 49.726562 C 416.558594 49.726562 423.277344 56.320312 423.277344 64.460938 Z M 423.277344 64.460938 "/>
<path style=" stroke:none;fill-rule:nonzero;fill:rgb(0%,0%,0%);fill-opacity:1;" d="M 403.078125 75.226562 C 403.078125 75.226562 405.386719 86.5625 405.386719 88.257812 C 405.386719 89.953125 415.195312 95.058594 415.195312 95.058594 L 426.160156 81.460938 C 426.160156 81.460938 419.234375 71.828125 419.234375 69.574219 Z M 403.078125 75.226562 "/>
<path style=" stroke:none;fill-rule:nonzero;fill:rgb(0%,0%,0%);fill-opacity:1;" d="M 411.734375 89.960938 C 411.734375 89.960938 406.6875 88.644531 405.183594 86.476562 C 405.183594 86.476562 389.230469 101.867188 389.230469 104.699219 L 401.921875 126.800781 C 401.921875 126.800781 401.921875 134.734375 403.078125 135.300781 C 404.234375 135.863281 403.078125 135.300781 403.078125 137.566406 C 403.078125 139.832031 399.613281 154.566406 400.769531 156.828125 C 401.925781 159.089844 403.078125 157.394531 401.921875 160.796875 C 400.765625 164.195312 397.886719 182.324219 397.886719 182.324219 C 397.886719 182.324219 408.269531 178.925781 423.277344 184.59375 C 438.28125 190.261719 456.171875 182.324219 456.171875 182.324219 C 456.171875 182.324219 451.554688 172.128906 452.707031 168.726562 C 453.859375 165.324219 449.824219 159.09375 449.824219 159.09375 L 446.9375 106.96875 C 446.9375 106.96875 450.980469 83.734375 448.089844 82.601562 L 442.320312 80.328125 L 423.839844 78.097656 C 423.839844 78.097656 419.234375 89.394531 411.734375 89.960938 Z M 411.734375 89.960938 "/>
<path style=" stroke:none;fill-rule:nonzero;fill:rgb(0%,0%,0%);fill-opacity:1;" d="M 395.003906 100.726562 L 389.234375 104.691406 C 389.234375 104.691406 386.34375 113.191406 389.234375 117.160156 C 392.121094 121.128906 393.273438 126.789062 393.273438 126.789062 L 404.816406 125.660156 Z M 395.003906 100.726562 "/>
<path style=" stroke:none;fill-rule:nonzero;fill:rgb(0%,0%,0%);fill-opacity:1;" d="M 396.816406 48.890625 L 394.214844 47.867188 C 394.214844 47.867188 399.640625 41.984375 407.226562 42.496094 L 405.097656 40.195312 C 405.097656 40.195312 410.304688 38.148438 415.035156 43.519531 C 417.542969 46.34375 420.398438 49.667969 422.195312 53.402344 L 424.984375 53.402344 L 423.820312 55.917969 L 427.890625 58.429688 L 423.71875 57.980469 C 424.117188 60.148438 423.980469 62.382812 423.328125 64.492188 L 423.4375 66.480469 C 423.4375 66.480469 418.59375 59.101562 418.59375 58.097656 L 418.59375 60.65625 C 418.59375 60.65625 415.988281 58.355469 415.988281 56.820312 L 414.570312 58.609375 L 413.859375 55.796875 L 405.09375 58.609375 L 406.515625 56.308594 L 401.085938 57.078125 L 403.214844 54.261719 C 403.214844 54.261719 397.0625 57.585938 396.832031 60.410156 C 396.597656 63.234375 393.515625 66.804688 393.515625 66.804688 L 392.097656 64.246094 C 392.097656 64.246094 389.957031 52.730469 396.816406 48.890625 Z M 396.816406 48.890625 "/>
<path style=" stroke:none;fill-rule:nonzero;fill:rgb(0%,0%,0%);fill-opacity:1;" d="M 439.433594 82.59375 L 448.089844 82.59375 C 448.089844 82.59375 454.4375 83.726562 456.171875 95.058594 C 457.902344 106.390625 459.632812 109.226562 457.902344 109.226562 C 456.175781 109.226562 435.398438 108.660156 435.398438 108.089844 C 435.398438 107.519531 439.433594 82.59375 439.433594 82.59375 Z M 439.433594 82.59375 "/>
<path style=" stroke:none;fill-rule:nonzero;fill:rgb(0%,0%,0%);fill-opacity:1;" d="M 136.0625 143.640625 L 391.296875 143.640625 L 391.296875 319.683594 L 136.0625 319.683594 Z M 136.0625 143.640625 "/>
<path style=" stroke:none;fill-rule:nonzero;fill:rgb(0%,0%,0%);fill-opacity:1;" d="M 157.550781 210.808594 L 221.636719 210.808594 L 221.636719 320.65625 L 157.550781 320.65625 Z M 157.550781 210.808594 "/>
<path style=" stroke:none;fill-rule:nonzero;fill:rgb(0%,0%,0%);fill-opacity:1;" d="M 169.40625 217.398438 L 186.667969 217.398438 L 186.667969 233.199219 L 169.40625 233.199219 Z M 169.40625 217.398438 "/>
<path style=" stroke:none;fill-rule:nonzero;fill:rgb(0%,0%,0%);fill-opacity:1;" d="M 192.519531 217.398438 L 209.785156 217.398438 L 209.785156 233.199219 L 192.519531 233.199219 Z M 192.519531 217.398438 "/>
<path style=" stroke:none;fill-rule:nonzero;fill:rgb(0%,0%,0%);fill-opacity:1;" d="M 169.40625 238.945312 L 186.667969 238.945312 L 186.667969 255.324219 L 169.40625 255.324219 Z M 169.40625 238.945312 "/>
<path style=" stroke:none;fill-rule:nonzero;fill:rgb(0%,0%,0%);fill-opacity:1;" d="M 192.519531 238.945312 L 209.785156 238.945312 L 209.785156 255.324219 L 192.519531 255.324219 Z M 192.519531 238.945312 "/>
<path style=" stroke:none;fill-rule:nonzero;fill:rgb(0%,0%,0%);fill-opacity:1;" d="M 217.558594 273.128906 C 217.558594 275.335938 215.734375 277.128906 213.488281 277.128906 C 211.238281 277.128906 209.414062 275.335938 209.414062 273.128906 C 209.414062 270.917969 211.238281 269.128906 213.488281 269.128906 C 215.734375 269.128906 217.558594 270.917969 217.558594 273.128906 Z M 217.558594 273.128906 "/>
<path style=" stroke:none;fill-rule:nonzero;fill:rgb(0%,0%,0%);fill-opacity:1;" d="M 243.121094 200.382812 L 369.8125 200.382812 L 369.8125 304.769531 L 243.121094 304.769531 Z M 243.121094 200.382812 "/>
<path style=" stroke:none;fill-rule:nonzero;fill:rgb(0%,0%,0%);fill-opacity:1;" d="M 417.972656 176.78125 L 109.394531 176.78125 L 129.964844 134.546875 L 134.574219 125.085938 L 140.597656 112.722656 L 145.199219 103.265625 L 150.539062 92.308594 L 393.65625 92.308594 L 396.808594 103.265625 L 399.535156 112.722656 L 403.089844 125.085938 L 405.816406 134.546875 Z M 417.972656 176.78125 "/>
<path style=" stroke:none;fill-rule:nonzero;fill:rgb(0%,0%,0%);fill-opacity:1;" d="M 247.566406 243.664062 L 252.011719 243.664062 L 252.011719 270.582031 L 247.566406 270.582031 Z M 247.566406 243.664062 "/>
<path style=" stroke:none;fill-rule:nonzero;fill:rgb(0%,0%,0%);fill-opacity:1;" d="M 247.566406 247.667969 L 252.011719 247.667969 L 252.011719 250.941406 L 247.566406 250.941406 Z M 247.566406 247.667969 "/>
<path style=" stroke:none;fill-rule:nonzero;fill:rgb(0%,0%,0%);fill-opacity:1;" d="M 247.566406 263.308594 L 252.011719 263.308594 L 252.011719 266.582031 L 247.566406 266.582031 Z M 247.566406 263.308594 "/>
<path style=" stroke:none;fill-rule:nonzero;fill:rgb(0%,0%,0%);fill-opacity:1;" d="M 254.238281 243.664062 L 264.980469 243.664062 L 264.980469 270.582031 L 254.238281 270.582031 Z M 254.238281 243.664062 "/>
<path style=" stroke:none;fill-rule:nonzero;fill:rgb(0%,0%,0%);fill-opacity:1;" d="M 254.238281 247.667969 L 264.980469 247.667969 L 264.980469 250.941406 L 254.238281 250.941406 Z M 254.238281 247.667969 "/>
<path style=" stroke:none;fill-rule:nonzero;fill:rgb(0%,0%,0%);fill-opacity:1;" d="M 254.238281 263.308594 L 264.980469 263.308594 L 264.980469 266.582031 L 254.238281 266.582031 Z M 254.238281 263.308594 "/>
<path style=" stroke:none;fill-rule:nonzero;fill:rgb(0%,0%,0%);fill-opacity:1;" d="M 267.570312 243.664062 L 272.015625 243.664062 L 272.015625 270.582031 L 267.570312 270.582031 Z M 267.570312 243.664062 "/>
<path style=" stroke:none;fill-rule:nonzero;fill:rgb(0%,0%,0%);fill-opacity:1;" d="M 267.570312 247.667969 L 272.015625 247.667969 L 272.015625 250.941406 L 267.570312 250.941406 Z M 267.570312 247.667969 "/>
<path style=" stroke:none;fill-rule:nonzero;fill:rgb(0%,0%,0%);fill-opacity:1;" d="M 267.570312 263.308594 L 272.015625 263.308594 L 272.015625 266.582031 L 267.570312 266.582031 Z M 267.570312 263.308594 "/>
<path style=" stroke:none;fill-rule:nonzero;fill:rgb(0%,0%,0%);fill-opacity:1;" d="M 274.238281 243.664062 L 278.683594 243.664062 L 278.683594 270.582031 L 274.238281 270.582031 Z M 274.238281 243.664062 "/>
<path style=" stroke:none;fill-rule:nonzero;fill:rgb(0%,0%,0%);fill-opacity:1;" d="M 274.238281 247.667969 L 278.683594 247.667969 L 278.683594 250.941406 L 274.238281 250.941406 Z M 274.238281 247.667969 "/>
<path style=" stroke:none;fill-rule:nonzero;fill:rgb(0%,0%,0%);fill-opacity:1;" d="M 274.238281 263.308594 L 278.683594 263.308594 L 278.683594 266.582031 L 274.238281 266.582031 Z M 274.238281 263.308594 "/>
<path style=" stroke:none;fill-rule:nonzero;fill:rgb(0%,0%,0%);fill-opacity:1;" d="M 278.796875 245.324219 L 282.957031 243.78125 L 292.625 268.972656 L 288.464844 270.511719 Z M 278.796875 245.324219 "/>
<path style=" stroke:none;fill-rule:nonzero;fill:rgb(0%,0%,0%);fill-opacity:1;" d="M 280.238281 249.066406 L 284.394531 247.527344 L 285.574219 250.59375 L 281.414062 252.132812 Z M 280.238281 249.066406 "/>
<path style=" stroke:none;fill-rule:nonzero;fill:rgb(0%,0%,0%);fill-opacity:1;" d="M 285.855469 263.707031 L 290.015625 262.167969 L 291.191406 265.230469 L 287.03125 266.769531 Z M 285.855469 263.707031 "/>
<path style=" stroke:none;fill-rule:nonzero;fill:rgb(0%,0%,0%);fill-opacity:1;" d="M 354.996094 243.664062 L 365.738281 243.664062 L 365.738281 270.582031 L 354.996094 270.582031 Z M 354.996094 243.664062 "/>
<path style=" stroke:none;fill-rule:nonzero;fill:rgb(0%,0%,0%);fill-opacity:1;" d="M 354.996094 247.667969 L 365.738281 247.667969 L 365.738281 250.941406 L 354.996094 250.941406 Z M 354.996094 247.667969 "/>
<path style=" stroke:none;fill-rule:nonzero;fill:rgb(0%,0%,0%);fill-opacity:1;" d="M 354.996094 263.308594 L 365.738281 263.308594 L 365.738281 266.582031 L 354.996094 266.582031 Z M 354.996094 263.308594 "/>
<path style=" stroke:none;fill-rule:nonzero;fill:rgb(0%,0%,0%);fill-opacity:1;" d="M 347.957031 243.664062 L 352.402344 243.664062 L 352.402344 270.582031 L 347.957031 270.582031 Z M 347.957031 243.664062 "/>
<path style=" stroke:none;fill-rule:nonzero;fill:rgb(0%,0%,0%);fill-opacity:1;" d="M 347.957031 247.667969 L 352.402344 247.667969 L 352.402344 250.941406 L 347.957031 250.941406 Z M 347.957031 247.667969 "/>
<path style=" stroke:none;fill-rule:nonzero;fill:rgb(0%,0%,0%);fill-opacity:1;" d="M 347.957031 263.308594 L 352.402344 263.308594 L 352.402344 266.582031 L 347.957031 266.582031 Z M 347.957031 263.308594 "/>
<path style=" stroke:none;fill-rule:nonzero;fill:rgb(0%,0%,0%);fill-opacity:1;" d="M 341.289062 243.664062 L 345.734375 243.664062 L 345.734375 270.582031 L 341.289062 270.582031 Z M 341.289062 243.664062 "/>
<path style=" stroke:none;fill-rule:nonzero;fill:rgb(0%,0%,0%);fill-opacity:1;" d="M 341.289062 247.667969 L 345.734375 247.667969 L 345.734375 250.941406 L 341.289062 250.941406 Z M 341.289062 247.667969 "/>
<path style=" stroke:none;fill-rule:nonzero;fill:rgb(0%,0%,0%);fill-opacity:1;" d="M 341.289062 263.308594 L 345.734375 263.308594 L 345.734375 266.582031 L 341.289062 266.582031 Z M 341.289062 263.308594 "/>
<path style=" stroke:none;fill-rule:nonzero;fill:rgb(0%,0%,0%);fill-opacity:1;" d="M 327.320312 268.921875 L 336.988281 243.734375 L 341.148438 245.273438 L 331.480469 270.460938 Z M 327.320312 268.921875 "/>
<path style=" stroke:none;fill-rule:nonzero;fill:rgb(0%,0%,0%);fill-opacity:1;" d="M 334.378906 250.539062 L 335.554688 247.476562 L 339.710938 249.015625 L 338.535156 252.078125 Z M 334.378906 250.539062 "/>
<path style=" stroke:none;fill-rule:nonzero;fill:rgb(0%,0%,0%);fill-opacity:1;" d="M 328.757812 265.175781 L 329.933594 262.109375 L 334.09375 263.652344 L 332.917969 266.714844 Z M 328.757812 265.175781 "/>
<path style=" stroke:none;fill-rule:nonzero;fill:rgb(0%,0%,0%);fill-opacity:1;" d="M 243.121094 270.582031 L 369.8125 270.582031 L 369.8125 273.128906 L 243.121094 273.128906 Z M 243.121094 270.582031 "/>
<path style=" stroke:none;fill-rule:nonzero;fill:rgb(0%,0%,0%);fill-opacity:1;" d="M 298.316406 243.664062 L 321.652344 243.664062 L 321.652344 270.582031 L 298.316406 270.582031 Z M 298.316406 243.664062 "/>
<path style=" stroke:none;fill-rule:nonzero;fill:rgb(0%,0%,0%);fill-opacity:1;" d="M 304.058594 249.484375 L 315.914062 249.484375 L 315.914062 254.578125 L 304.058594 254.578125 Z M 304.058594 249.484375 "/>
<path style=" stroke:none;fill-rule:nonzero;fill:rgb(0%,0%,0%);fill-opacity:1;" d="M 305.355469 200.382812 L 307.578125 200.382812 L 307.578125 223.660156 L 305.355469 223.660156 Z M 305.355469 200.382812 "/>
<path style=" stroke:none;fill-rule:nonzero;fill:rgb(0%,0%,0%);fill-opacity:1;" d="M 310.175781 223.660156 C 310.175781 225.667969 308.515625 227.300781 306.46875 227.300781 C 304.421875 227.300781 302.761719 225.667969 302.761719 223.660156 C 302.761719 221.648438 304.421875 220.019531 306.46875 220.019531 C 308.515625 220.019531 310.175781 221.648438 310.175781 223.660156 Z M 310.175781 223.660156 "/>
<path style=" stroke:none;fill-rule:nonzero;fill:rgb(0%,0%,0%);fill-opacity:1;" d="M 399.535156 112.722656 L 140.597656 112.722656 L 145.199219 103.265625 L 396.808594 103.265625 Z M 399.535156 112.722656 "/>
<path style=" stroke:none;fill-rule:nonzero;fill:rgb(0%,0%,0%);fill-opacity:1;" d="M 405.816406 134.546875 L 129.964844 134.546875 L 134.574219 125.085938 L 403.089844 125.085938 Z M 405.816406 134.546875 "/>
<path style=" stroke:none;fill-rule:nonzero;fill:rgb(0%,0%,0%);fill-opacity:1;" d="M 148.597656 159.175781 C 168.117188 178.34375 168.117188 209.421875 148.597656 228.589844 C 129.074219 247.757812 97.425781 247.757812 77.90625 228.589844 C 58.382812 209.421875 58.382812 178.34375 77.90625 159.175781 C 97.425781 140.007812 129.074219 140.007812 148.597656 159.175781 Z M 148.597656 159.175781 "/>
<path style=" stroke:none;fill-rule:nonzero;fill:rgb(0%,0%,0%);fill-opacity:1;" d="M 113.261719 145.355469 C 140.558594 145.355469 162.6875 167.082031 162.691406 193.882812 C 162.691406 220.683594 140.5625 242.414062 113.269531 242.414062 C 85.972656 242.414062 63.84375 220.6875 63.84375 193.886719 C 63.839844 167.085938 85.96875 145.355469 113.261719 145.355469 M 113.261719 144.246094 C 89.144531 144.246094 68.382812 160.976562 63.679688 184.203125 C 58.972656 207.429688 71.632812 230.683594 93.917969 239.746094 C 116.199219 248.808594 141.898438 241.152344 155.296875 221.460938 C 168.695312 201.769531 166.0625 175.527344 149.007812 158.78125 C 139.542969 149.449219 126.671875 144.222656 113.261719 144.261719 Z M 113.261719 144.246094 "/>
<path style=" stroke:none;fill-rule:nonzero;fill:rgb(0%,0%,0%);fill-opacity:1;" d="M 155.75 193.886719 C 155.75 216.933594 136.722656 235.613281 113.25 235.613281 C 89.777344 235.613281 70.75 216.933594 70.75 193.886719 C 70.75 170.839844 89.777344 152.15625 113.25 152.15625 C 136.722656 152.15625 155.75 170.839844 155.75 193.886719 Z M 155.75 193.886719 "/>
<path style=" stroke:none;fill-rule:nonzero;fill:rgb(0%,0%,0%);fill-opacity:1;" d="M 111.210938 218.507812 L 111.210938 212.433594 C 108.085938 212.371094 104.851562 211.289062 102.964844 209.785156 L 104.257812 205.757812 C 106.5 207.410156 109.21875 208.316406 112.023438 208.34375 C 115.851562 208.34375 118.4375 205.886719 118.4375 202.449219 C 118.4375 199.144531 116.351562 197.097656 112.34375 195.296875 C 106.847656 192.890625 103.449219 190.121094 103.449219 184.894531 C 103.449219 179.902344 106.628906 176.109375 111.589844 175.210938 L 111.589844 169.136719 L 114.925781 169.136719 L 114.925781 174.96875 C 117.417969 175.003906 119.851562 175.734375 121.933594 177.074219 L 120.585938 181.039062 C 118.589844 179.695312 116.21875 178.980469 113.796875 178.992188 C 109.621094 178.992188 108.082031 181.757812 108.082031 184.160156 C 108.082031 187.285156 110.078125 188.851562 114.761719 191.015625 C 120.3125 193.546875 123.109375 196.671875 123.109375 202.023438 C 123.109375 206.773438 120.140625 211.226562 114.589844 212.246094 L 114.589844 218.5 Z M 111.210938 218.507812 "/>
<path style=" stroke:none;fill-rule:nonzero;fill:rgb(0%,0%,0%);fill-opacity:1;" d="M 437.707031 105.824219 C 437.707031 105.824219 434.367188 114.261719 435.058594 122.628906 C 435.1875 124.121094 435.699219 125.558594 436.550781 126.808594 L 395.605469 145.894531 C 395.605469 145.894531 377.109375 147.773438 381.726562 155.703125 C 386.339844 163.636719 403.078125 151.738281 403.078125 151.738281 C 403.078125 151.738281 446.9375 145.507812 450.398438 139.273438 C 453.859375 133.039062 456.171875 106.96875 456.171875 106.96875 Z M 437.707031 105.824219 "/>
<path style=" stroke:none;fill-rule:nonzero;fill:rgb(0%,0%,0%);fill-opacity:1;" d="M 420.96875 305.28125 C 420.96875 305.28125 423.851562 302.449219 419.816406 302.449219 C 417.21875 302.5 414.660156 303.078125 412.304688 304.148438 L 409.425781 314.34375 C 409.425781 314.34375 397.597656 323.691406 410.871094 322.539062 C 424.144531 321.390625 422.140625 322.257812 422.140625 322.257812 C 422.140625 322.257812 426.175781 321.121094 426.757812 319.992188 C 427.335938 318.859375 425.601562 302.425781 425.601562 302.425781 C 425.601562 302.425781 423.851562 306.96875 420.96875 305.28125 Z M 420.96875 305.28125 "/>
<path style=" stroke:none;fill-rule:nonzero;fill:rgb(0%,0%,0%);fill-opacity:1;" d="M 445.78125 305.28125 C 445.78125 305.28125 442.898438 302.449219 446.9375 302.449219 C 449.535156 302.5 452.09375 303.078125 454.453125 304.148438 L 457.335938 314.347656 C 457.335938 314.347656 469.167969 323.695312 455.894531 322.546875 C 442.621094 321.394531 442.910156 322.261719 442.910156 322.261719 C 442.910156 322.261719 438.871094 321.128906 438.292969 319.996094 C 437.71875 318.863281 441.164062 302.460938 441.164062 302.460938 C 441.164062 302.460938 442.898438 306.96875 445.78125 305.28125 Z M 445.78125 305.28125 "/>
</g>
</svg>
