<svg xmlns="http://www.w3.org/2000/svg" width="481" height="337" viewBox="0 0 481 337"><defs><style>.a{fill:#e74c3c;}.b{fill:#e6e6e6;}.c{fill:#fff;}.d{fill:#222;}.e{fill:#ffb8b8;}.f{fill:#8e3026;}.g{fill:#4e4e4e;}</style></defs><g transform="translate(-743 -1615)"><circle class="a" cx="168.5" cy="168.5" r="168.5" transform="translate(743 1615)"/><g transform="translate(834 1657.857)"><rect class="b" width="78" height="143" transform="translate(41 49.143)"/><path class="c" d="M852.96,429.4H788V298.61H852.96Z" transform="translate(-740.726 -243.748)"/><rect class="b" width="18.97" height="1.762" transform="translate(68.305 82.914)"/><rect class="b" width="33.064" height="1.762" transform="translate(54.212 89.008)"/><rect class="b" width="33.032" height="1.762" transform="translate(54.244 95.102)"/><rect class="b" width="14.093" height="14.093" transform="translate(91.207 82.94)"/><rect class="b" width="18.97" height="1.762" transform="translate(68.305 113.198)"/><rect class="b" width="33.064" height="1.762" transform="translate(54.212 119.292)"/><rect class="b" width="33.032" height="1.762" transform="translate(54.244 125.386)"/><rect class="b" width="14.093" height="14.093" transform="translate(91.207 113.224)"/><rect class="b" width="18.97" height="1.762" transform="translate(68.305 143.481)"/><rect class="b" width="33.064" height="1.762" transform="translate(54.212 149.576)"/><rect class="b" width="33.032" height="1.762" transform="translate(54.244 155.67)"/><rect class="b" width="14.093" height="14.093" transform="translate(91.207 143.508)"/><rect class="b" width="80" height="143" transform="translate(262 49.143)"/><path class="c" d="M344.96,429.4H280V298.61H344.96Z" transform="translate(-9.767 -243.748)"/><rect class="b" width="18.97" height="1.762" transform="translate(291.264 82.914)"/><rect class="b" width="33.064" height="1.762" transform="translate(277.171 89.008)"/><rect class="b" width="33.032" height="1.762" transform="translate(277.203 95.102)"/><rect class="b" width="14.093" height="14.093" transform="translate(314.166 82.94)"/><rect class="b" width="18.97" height="1.762" transform="translate(291.264 113.198)"/><rect class="b" width="33.064" height="1.762" transform="translate(277.171 119.292)"/><rect class="b" width="33.032" height="1.762" transform="translate(277.203 125.386)"/><rect class="b" width="14.093" height="14.093" transform="translate(314.166 113.224)"/><rect class="b" width="18.97" height="1.762" transform="translate(291.264 143.481)"/><rect class="b" width="33.064" height="1.762" transform="translate(277.171 149.576)"/><rect class="b" width="33.032" height="1.762" transform="translate(277.203 155.67)"/><rect class="b" width="14.093" height="14.093" transform="translate(314.166 143.508)"/><ellipse class="b" cx="195" cy="7.5" rx="195" ry="7.5" transform="translate(0 188.143)"/><rect class="d" width="108.751" height="198.381" transform="translate(136.86)"/><path class="c" d="M594.172,373.4H494.82V185.11h99.352Z" transform="translate(-353.26 -180.062)"/><rect class="a" width="25.827" height="2.398" transform="translate(175.646 48.349)"/><rect class="b" width="45.015" height="2.398" transform="translate(156.458 56.646)"/><rect class="b" width="44.971" height="2.398" transform="translate(156.502 64.943)"/><rect class="a" width="19.188" height="19.188" transform="translate(206.825 48.385)"/><rect class="a" width="25.827" height="2.398" transform="translate(175.646 89.579)"/><rect class="b" width="45.015" height="2.398" transform="translate(156.458 97.876)"/><rect class="b" width="44.971" height="2.398" transform="translate(156.502 106.173)"/><rect class="a" width="19.188" height="19.188" transform="translate(206.825 89.614)"/><rect class="a" width="25.827" height="2.398" transform="translate(175.646 130.809)"/><rect class="b" width="45.015" height="2.398" transform="translate(156.458 139.106)"/><rect class="b" width="44.971" height="2.398" transform="translate(156.502 147.403)"/><rect class="a" width="19.188" height="19.188" transform="translate(206.825 130.844)"/><path class="e" d="M501.281,492.987l1.317,5.705s-.439,13.167,3.072,11.85,2.633-12.728,2.633-12.728l-3.072-5.706Z" transform="translate(-270.326 -352.321)"/><ellipse class="e" cx="10" cy="8.5" rx="10" ry="8.5" transform="translate(240 60.143)"/><path class="e" d="M466.522,337.11l.878,12.728-10.972,1.317s0-10.533-.878-11.85S466.522,337.11,466.522,337.11Z" transform="translate(-209.233 -265.35)"/><path class="f" d="M416,363.345l14.213-6.019s6.789-5.239,10.772-1.366l1.788,2.556s15.8,6.144,15.8,10.972l-6.144,24.139s3.511,13.606-1.755,14.484l-28.528,2.633a9.873,9.873,0,0,1-.439-10.972l-1.317-14.484Z" transform="translate(-183.073 -275.127)"/><path class="f" d="M508.559,375.048l-9.656-.439s-3.072.878-5.267,9.217S491,405.771,491,405.771l5.267,24.578,6.583-.878-2.633-23.7,4.389-15.8Z" transform="translate(-265.973 -286.392)"/><path class="f" d="M408.393,381.609l4.76,1.483s4.017,5.979,4.017,9.051,1.756,26.334,1.756,26.334l-11.411,18.872L404,428.132l7.022-11.85L405.32,401.8Z" transform="translate(-138.156 -290.319)"/><path class="d" d="M425.026,477.06l31.555-2.776s3.118,19.893,2.679,27.794-.878,20.189-.878,20.189l3.511,53.545-13.606-1.755-1.756-44.328-5.706-24.139-6.583,30.723-4.389,39.5L418,574.495l3.95-47.839S418.443,483.643,425.026,477.06Z" transform="translate(-187.268 -342.319)"/><path class="d" d="M502.466,697.609l-3.95,1.317s-8.339-2.194-6.145,3.511,8.339,4.828,8.339,4.828,7.461,5.706,10.533,1.317l-1.755-9.217Z" transform="translate(-269.097 -467.628)"/><path class="d" d="M429.466,697.609l-3.95,1.317s-8.339-2.194-6.145,3.511,8.339,4.828,8.339,4.828,7.461,5.706,10.533,1.317l-1.756-9.217Z" transform="translate(-164.057 -467.628)"/><path class="g" d="M459.385,324.55s9.217-6.583,4.389-14.483c-3.349-5.481-10.29-5.047-14.226-4.267a6.651,6.651,0,0,0-4.866,3.828c-.658,1.536-.658,3.072,1.975,3.072,5.267,0,2.633,3.95,2.633,3.95s3.511.878,2.633,3.95S459.385,324.55,459.385,324.55Z" transform="translate(-202.095 -247.524)"/></g></g></svg>