<svg xmlns="http://www.w3.org/2000/svg" width="152.637" height="40.362" viewBox="0 0 152.637 40.362"><defs><style>.a{fill:#222;}.b{fill:#e74c3c;}.c{fill:#4e4e4e;}</style></defs><g transform="translate(-326.068 -745.579)"><g transform="translate(326.068 745.579)"><path class="a" d="M349.239,792.864l-5.508,17.06a20.3,20.3,0,0,0,3,2.2l2.514-7.6,3.291,9.944a20.214,20.214,0,0,0,4.058.512Z" transform="translate(-336.916 -774.619)"/><path class="a" d="M346.256,745.579a20.182,20.182,0,0,0-16.419,31.926l8.386-25.366a.171.171,0,0,1,.324,0l11.392,33.473a20.186,20.186,0,0,0-3.684-40.034Zm-1.709,14.372h1.931a4.745,4.745,0,0,1,.515.025,5.8,5.8,0,0,1,1.292,11.267Zm6.314,19.068-1.259-3.8a9.979,9.979,0,0,0-2.61-19.442c-.17-.009-.343-.014-.515-.014a9.9,9.9,0,0,0-3.148.508l-1.443-4.356h5.106a13.827,13.827,0,0,1,3.869,27.1Z" transform="translate(-326.068 -745.579)"/><path class="b" d="M373.959,782.827h1.931a4.729,4.729,0,0,1,.515.025,5.8,5.8,0,0,1,1.292,11.267Z" transform="translate(-355.48 -768.455)"/></g><g transform="translate(377.132 755.825)"><path class="c" d="M463.494,782.311l-1.988-3.65h-.8v3.465a.385.385,0,0,1-.386.386h-1.531a.385.385,0,0,1-.386-.386v-9.318h3.7c1.864,0,3.714.713,3.714,2.933a2.639,2.639,0,0,1-2.015,2.618l2.177,3.566a.386.386,0,0,1-.329.587h-1.824A.386.386,0,0,1,463.494,782.311Zm-1.549-7.612H460.7v2.262h1.11c.754,0,1.7-.192,1.7-1.179C463.508,774.877,462.644,774.7,461.945,774.7Z" transform="translate(-458.409 -772.547)"/><path class="c" d="M489.068,782.126v-8.932a.386.386,0,0,1,.386-.386h5.753a.386.386,0,0,1,.386.386v1.216a.386.386,0,0,1-.386.386H491.33v1.823h3.644a.386.386,0,0,1,.386.386v1.106a.386.386,0,0,1-.386.386H491.33v2.015h4.124a.386.386,0,0,1,.386.386v1.229a.386.386,0,0,1-.386.386h-6A.386.386,0,0,1,489.068,782.126Z" transform="translate(-477.238 -772.547)"/><path class="c" d="M522.142,774.645a.392.392,0,0,1-.542.017,2.384,2.384,0,0,0-1.462-.562c-.6,0-1.357.205-1.357.973,0,.644.576.85,1.494,1.138,1.316.424,3.015.987,3.015,2.919,0,2.235-1.8,3.235-3.715,3.235a5.31,5.31,0,0,1-3.323-1.11.389.389,0,0,1-.03-.572l.976-.994a.385.385,0,0,1,.537-.01,2.882,2.882,0,0,0,1.84.753c.713,0,1.344-.274,1.344-1.055,0-.74-.74-.973-2.015-1.384-1.234-.4-2.481-1.028-2.481-2.782,0-2.152,1.946-3.043,3.756-3.043a4.949,4.949,0,0,1,2.843.917.388.388,0,0,1,.05.578Z" transform="translate(-493.848 -772.154)"/><path class="c" d="M545.837,782.126v-8.932a.386.386,0,0,1,.386-.386h1.586a.386.386,0,0,1,.386.386v8.932a.386.386,0,0,1-.386.386h-1.586A.386.386,0,0,1,545.837,782.126Z" transform="translate(-512.103 -772.547)"/><path class="c" d="M564.24,782.126v-8.932a.386.386,0,0,1,.386-.386h1.586a.386.386,0,0,1,.386.386v7.276h3.37a.386.386,0,0,1,.386.386v1.27a.386.386,0,0,1-.386.386h-5.342A.385.385,0,0,1,564.24,782.126Z" transform="translate(-523.405 -772.547)"/><path class="c" d="M590.032,782.126v-8.932a.386.386,0,0,1,.386-.386H592a.386.386,0,0,1,.386.386v8.932a.386.386,0,0,1-.386.386h-1.586A.386.386,0,0,1,590.032,782.126Z" transform="translate(-539.245 -772.547)"/><path class="c" d="M608.433,782.126v-8.932a.386.386,0,0,1,.386-.386h5.753a.386.386,0,0,1,.386.386v1.216a.386.386,0,0,1-.386.386h-3.877v1.823h3.644a.386.386,0,0,1,.386.386v1.106a.386.386,0,0,1-.386.386h-3.644v2.015h4.124a.386.386,0,0,1,.386.386v1.229a.386.386,0,0,1-.386.386h-6A.386.386,0,0,1,608.433,782.126Z" transform="translate(-550.546 -772.547)"/><path class="c" d="M643.487,782.512a.386.386,0,0,1-.328-.183l-3.794-6.162h-.041l.052,5.957a.386.386,0,0,1-.386.389h-1.5a.386.386,0,0,1-.386-.386v-8.932a.386.386,0,0,1,.386-.386h2.072a.386.386,0,0,1,.329.184l3.779,6.148h.041l-.051-5.943a.386.386,0,0,1,.386-.389h1.5a.386.386,0,0,1,.386.386v8.932a.386.386,0,0,1-.386.386Z" transform="translate(-568.154 -772.547)"/><path class="c" d="M676.324,782.358a5.114,5.114,0,1,1,.041-10.225,5.2,5.2,0,0,1,3.345,1.136.388.388,0,0,1,.014.563l-1.031,1.031a.387.387,0,0,1-.538,0,2.559,2.559,0,0,0-1.707-.61,2.793,2.793,0,0,0-2.8,2.974,2.74,2.74,0,0,0,2.755,2.974,2.546,2.546,0,0,0,1.808-.7.388.388,0,0,1,.541-.014l1.056.994a.39.39,0,0,1,0,.565A4.9,4.9,0,0,1,676.324,782.358Z" transform="translate(-589.034 -772.133)"/><path class="c" d="M704.106,782.126v-8.932a.386.386,0,0,1,.386-.386h5.753a.386.386,0,0,1,.386.386v1.216a.386.386,0,0,1-.386.386h-3.877v1.823h3.644a.386.386,0,0,1,.386.386v1.106a.386.386,0,0,1-.386.386h-3.644v2.015h4.124a.386.386,0,0,1,.386.386v1.229a.386.386,0,0,1-.386.386h-6A.386.386,0,0,1,704.106,782.126Z" transform="translate(-609.304 -772.547)"/></g><g transform="translate(376.557 769.244)"><path class="a" d="M458.415,811.119l-.809,1.87h-.688l2.525-5.764h.761l2.615,5.764h-.7l-.85-1.87Zm2.623-.574c-.753-1.668-1.1-2.445-1.23-2.826H459.8c-.122.365-.543,1.385-1.158,2.826Z" transform="translate(-456.918 -807.104)"/><path class="a" d="M491.868,812.8h-.51a8.837,8.837,0,0,1-.057-.931,2.173,2.173,0,0,1-2.145,1.053,2.77,2.77,0,0,1-2.939-3,2.89,2.89,0,0,1,3.044-3.011,2.416,2.416,0,0,1,2.647,1.692h-.68a1.9,1.9,0,0,0-1.976-1.133,2.447,2.447,0,0,0-.024,4.889,1.775,1.775,0,0,0,2.016-1.911v-.194h-2v-.567h2.623Z" transform="translate(-474.912 -806.911)"/><path class="a" d="M521.532,810.237h-3.521v2.186h3.877l-.089.566h-4.436v-5.764h4.355v.567h-3.707v1.878h3.521Z" transform="translate(-494.04 -807.104)"/><path class="a" d="M544.859,812.989v-5.764h.777c1.206,1.611,3.4,4.4,3.716,4.971h.016c-.049-.794-.041-1.66-.041-2.59v-2.38h.615v5.764H549.2c-.939-1.23-3.319-4.412-3.756-5.084h-.016c.049.745.049,1.563.049,2.583v2.5Z" transform="translate(-510.927 -807.104)"/><path class="a" d="M579.728,811.153a2.491,2.491,0,0,1-2.647,1.765,2.794,2.794,0,0,1-2.922-2.987,2.894,2.894,0,0,1,2.963-3.02,2.429,2.429,0,0,1,2.631,1.814h-.672a1.907,1.907,0,0,0-1.976-1.247,2.223,2.223,0,0,0-2.258,2.429,2.26,2.26,0,0,0,2.267,2.445,1.89,1.89,0,0,0,1.959-1.2Z" transform="translate(-528.922 -806.911)"/><path class="a" d="M604.8,812.989v-2.234a.172.172,0,0,0-.057-.129l-2.42-3.4h.777c.7,1.012,1.789,2.485,2.048,2.947.283-.47,1.311-1.935,2.024-2.947h.737l-2.421,3.408a.216.216,0,0,0-.04.138v2.218Z" transform="translate(-546.22 -807.104)"/></g></g></svg>