<svg xmlns="http://www.w3.org/2000/svg" width="436.94" height="336.933" viewBox="0 0 436.94 336.933"><defs><style>.a{fill:#e74c3c;}.b{fill:#e2e2e2;}.c{fill:#fff;}.d{fill:#ffb8b8;}.e{fill:#2f2e41;}.f{fill:#222;}.g{fill:#a0616a;}</style></defs><path class="a" d="M-3146.13,37.009h-210.357A167.712,167.712,0,0,1-3251.314.147,167.739,167.739,0,0,1-3146.13,37.009Z" transform="translate(3419.775 -0.147)"/><path class="a" d="M-3173.953,226a168.469,168.469,0,0,1-168.472,168.471A168.467,168.467,0,0,1-3510.886,226,168.1,168.1,0,0,1-3451.25,97.4h217.661A168.1,168.1,0,0,1-3173.953,226Z" transform="translate(3510.886 -57.536)"/><g transform="translate(35.335 39.937)"><rect class="b" width="401.434" height="257.096" transform="translate(0.171 0.228)"/><rect class="c" width="378.476" height="218.06" transform="translate(11.65 28.227)"/><rect class="a" width="401.434" height="17.054"/><rect class="b" width="81.528" height="71.206" transform="translate(160.376 77.841)"/><path class="d" d="M-2964.728,300.248l2.5,10.01-1.073,14.658,9.653,7.508,3.217-25.026-1.787-6.078Z" transform="translate(3153.263 -217.174)"/><path class="c" d="M-2959.393,331.521l1.787-9.653,3.575-6.793,8.938,36.109-20.378,2.86-5.363-28.959,4.573-7.807,3.293,6.019Z" transform="translate(3156.866 -225.924)"/><path class="e" d="M-2935.631,450.118h-33.9l.183-2.693,7.863-5h10.727l15.017,6.436Z" transform="translate(3156.099 -301.07)"/><circle class="d" cx="8.58" cy="8.58" r="8.58" transform="translate(186.748 71.276)"/><path class="a" d="M-2947.531,345.887l-8.222-6.8.822,17.773.08,1.706.1,2.254.228,4.918.365,7.863h-17.9l-1.221-3.766-.485,3.766h-16.369c-.115-1.974-.177-4.354-.074-6.756a33.446,33.446,0,0,1,.839-6.544,10.67,10.67,0,0,1,1.792-4.051l-3.218-11.44-1.432,7.149-10.007.713s.005-.183.022-.525v-.006c.143-3.52,1.2-23.445,6.413-27.353l10.618-10.436s.006.759.109,2.037v.006c.079,1.084.228,2.539.5,4.222v.017a41.742,41.742,0,0,0,4.148,13.089c.873,1.609,1.581,2.978,2.157,4.142,2.493,5.05,2.493,6.23,2.493,6.23l1.033-12.307.006-.046.006-.046,1.375-16.478.206-2.459v-.006s16.323,2.739,21.327,10.247c4.022,6.025,11.5,15.753,14.287,19.342.034.04.063.08.1.12l.417.542c.08.1.154.194.217.28s.126.154.171.217l.182.234Z" transform="translate(3175.393 -224.557)"/><circle class="e" cx="1.073" cy="1.073" r="1.073" transform="translate(199.261 123.831)"/><circle class="e" cx="1.073" cy="1.073" r="1.073" transform="translate(200.691 133.484)"/><path class="d" d="M-2886.972,429l-3.218,3.218-2.145-5.72,2.332-1.971Z" transform="translate(3110.544 -290.511)"/><path class="d" d="M-2978.683,432.238l3.218,3.217.715-7.15-2.146-.715Z" transform="translate(3161.498 -292.319)"/><path class="f" d="M-2974.375,263.149s-2.5-3.175,0-4.762v.794s5.363-5.953,8.58-4.365l2.86-.794v.794l1.788-.794-.357,1.191h2.5l-1.072.794s8.223-.4,3.218,5.556c0,0,2.379,3.569.117,5.555,0,0-1.9-4.364-4.407-3.173a3.985,3.985,0,0,1-4.29-.4s-5.005-.4-4.291,1.984.358,3.175.358,3.175-1.788,1.19-1.43,1.984a12.341,12.341,0,0,1,.357,3.175s-1.788-2.778-2.5-2.381S-2977.593,267.911-2974.375,263.149Z" transform="translate(3159.693 -189.895)"/><path class="a" d="M-3000.8,404.6l-1.43.916v.871a8.522,8.522,0,0,0,1.43,4.29c1.43,2.145,9.3,9.3,9.3,9.3l2.145-7.508-2.86-7.15-1.788-2.145Z" transform="translate(3175.395 -277.908)"/><path class="a" d="M-2875.574,383.98l3.923.4,1.083,1.39s.715,3.218-.716,5.005-13.943,16.446-13.943,16.446l-5.363-6.435,9.3-11.441-.357-1.43Z" transform="translate(3109.514 -266.584)"/><rect class="b" width="82.327" height="71.905" transform="translate(283.045 77.142)"/><path class="e" d="M-2640.435,299.718l-18.591.357-2.5-17.161h21.094Z" transform="translate(2974.345 -206.946)"/><path class="g" d="M-2594,330.849a7.27,7.27,0,0,1,7.15,6.793c.715,6.793-1.788,24.311-1.788,24.311l-2.145,22.524h-5.04l.393-17.161,1.43-24.669-4.29-4.648Z" transform="translate(2937.03 -235.232)"/><path class="g" d="M-2685.077,330.313s-6.078-1.43-11.8,6.793c0,0-14.658,10.725-10.01,14.658s17.161,6.435,17.161,6.435-4.648,9.653-1.788,10.011,7.15-10.368,6.078-12.156-5.005-2.86-5.005-2.86l-9.3-4.648s11.927-10.245,12.578-5.838l3.51-1.67Z" transform="translate(3001.647 -234.859)"/><path class="g" d="M-2634.51,300.8a17.754,17.754,0,0,0,10.368,11.44l-9.3,7.866-11.083-7.15a7.518,7.518,0,0,0,2.86-7.866Z" transform="translate(2964.308 -217.497)"/><circle class="g" cx="8.58" cy="8.58" r="8.58" transform="translate(314.068 71.858)"/><path class="a" d="M-2668.211,326.864l6.525-1.279s2.055,4.854,8.848,4.139,7.99-3.649,7.99-3.649l6.311,1.5s-3.575,3.933-1.787,11.8c0,0,.715,12.87-3.218,17.518l-.357,7.15s4.648,12.156,2.145,17.161h-35.037s1.43-17.876,7.865-22.524l1.43-3.218s-2.86-12.513-1.43-14.658C-2668.927,340.807-2667.854,327.222-2668.211,326.864Z" transform="translate(2983.352 -232.125)"/><path class="f" d="M-2649.132,281.982c-1.948-1.069-2.854-3.47-2.919-5.691s.474-4.419.516-6.641a5.141,5.141,0,0,0-.115-1.354,5.207,5.207,0,0,0-.745-1.542,14.4,14.4,0,0,0-11.573-6.654,5.137,5.137,0,0,0-1.958.36c-.48.192-.637.168-.729.757a4.9,4.9,0,0,0-3.363.107,11.389,11.389,0,0,0-2.941,1.751,13.228,13.228,0,0,0-1.487,1.288c-2.451,2.539-3.015,6.452-2.3,9.908.231,1.124-.877,2.209-1.793,2.9a6.655,6.655,0,0,0-2.425,2.38,10.313,10.313,0,0,0-.282,3.276,5.6,5.6,0,0,1-3.575,4.708,1.724,1.724,0,0,0,1.664.585,4.089,4.089,0,0,0,1.734-.826,10.31,10.31,0,0,0,3.845-5.7,16.721,16.721,0,0,1,.155,3.74,10.44,10.44,0,0,1-.757,4.086,5.979,5.979,0,0,1-2.755,3.032,3.247,3.247,0,0,0,3.546-.706,7.408,7.408,0,0,0,2.041-3.4,16.934,16.934,0,0,0,.816-6.431,9.182,9.182,0,0,1,1.152,6.26,9.571,9.571,0,0,1-3.246,5.634,18.645,18.645,0,0,0,8.534-2.149,4.829,4.829,0,0,0,1.75-1.348c.847-1.175.647-2.778.409-4.207-.188-1.13,1.224-2.764.415-3.575a1.282,1.282,0,0,0-.781-.373,8.791,8.791,0,0,1-6.827-4.77,8.386,8.386,0,0,1-.879-3.53,8.581,8.581,0,0,1,8.583-8.578,8.581,8.581,0,0,1,8.578,8.583,8.578,8.578,0,0,1-.851,3.723,23.147,23.147,0,0,1-.855,5.109c-.611,2.13-1.648,4.3-3.566,5.415a5.565,5.565,0,0,0,2.12.449,13.024,13.024,0,0,0,7.115-.851A6.3,6.3,0,0,0-2649.132,281.982Z" transform="translate(2988.093 -193.482)"/><path class="f" d="M-2639.964,276.667c-6.432-2.578-12.772-3.128-18.948,0v-5.2a3.385,3.385,0,0,1,3.384-3.384h12.891a2.673,2.673,0,0,1,2.673,2.674h0Z" transform="translate(2972.801 -198.196)"/><ellipse class="g" cx="1.341" cy="2.145" rx="1.341" ry="2.145" transform="translate(329.888 77.399)"/><rect class="b" width="81.779" height="71.423" transform="translate(42.268 77.625)"/><path class="e" d="M-3232.725,293.423l-17.518-.357V268.754l17.518,1.787Z" transform="translate(3321.746 -198.589)"/><path class="f" d="M-3222.865,419.948h-37.857a16.248,16.248,0,0,1,1.255-3.983,62.181,62.181,0,0,0,3.486-10.059c.622-2.2,1.153-4.239,1.489-5.557.246-.965.388-1.546.388-1.546l18.589-7.509s.525.953,1.369,2.556a.4.4,0,0,0,.04.068c.6,1.135,1.352,2.6,2.185,4.268h.006C-3228.867,404.257-3224.708,413.169-3222.865,419.948Z" transform="translate(3327.929 -270.9)"/><path class="d" d="M-3245.124,303.642l-2.5,12.513,8.58.715s1.43-11.083,1.788-11.441S-3245.124,303.642-3245.124,303.642Z" transform="translate(3320.202 -219.177)"/><circle class="d" cx="8.58" cy="8.58" r="8.58" transform="translate(72.039 71.416)"/><path class="a" d="M-3267.185,325.447s8.223,1.788,8.58,1.43,10.011,1.43,10.726,4.648-1.073,15.731-1.073,15.731,3.933,1.788,3.575,2.5,2.145,1.43,1.43,2.5-13.586,19.663-19.664,19.306-17.161-40.757-17.161-40.757.358-5,5.005-5S-3267.185,325.447-3267.185,325.447Z" transform="translate(3339.76 -232.044)"/><path class="d" d="M-3196.575,395.66s-5.011,1.134-4.115,3.427,6.26,1.578,6.26,1.578Z" transform="translate(3292.568 -273.477)"/><path class="a" d="M-3262.862,384.439h-13.146c-.04.205-.086.416-.131.628a12.682,12.682,0,0,0-1.952-.628c-.148-.034-.233-.052-.233-.052s-2.865-10.727-6.8-23.952c-3.486-11.737.058-23.758.9-26.32v-.006c.108-.32.171-.491.171-.491l3.218-2.5,11.052,33.72,2.893,8.821s.091.491.245,1.25c.468,2.259,1.541,6.887,2.613,7.691A4.434,4.434,0,0,1-3262.862,384.439Z" transform="translate(3343.215 -235.392)"/><path class="a" d="M-3212.3,337.222l4.461.463,10.2,12.765s3.933,3.575,1.43,5.005a9.209,9.209,0,0,0-3.575,4.29s3.218,7.15-1.43,8.223c0,0-3.218-7.15-4.29-7.866s1.43-3.575,1.43-3.575l-8.223-5.363Z" transform="translate(3299.357 -238.992)"/><path class="f" d="M-3252.193,258.514s-10.01-1.788-11.8,7.15a45.58,45.58,0,0,0-.848,6.292,35.28,35.28,0,0,1-4.158,14.8h0l16.088,4.648s-4.29-6.793-3.575-9.653a5.56,5.56,0,0,0-.029-2.168,8.577,8.577,0,0,1-2.8-11.8,8.578,8.578,0,0,1,11.8-2.8,8.579,8.579,0,0,1,2.8,11.8,8.581,8.581,0,0,1-4.75,3.689c-1.2,2.6-1.847,5.419-.231,7.358a31.723,31.723,0,0,0,7.151,6.435s-1.788-8.58,1.072-13.586S-3241.467,259.229-3252.193,258.514Z" transform="translate(3332.812 -192.461)"/><path class="f" d="M-3231.126,276.043l-16.774.984-.462-7.859,14.6-.525Z" transform="translate(3320.635 -198.524)"/><circle class="b" cx="2.853" cy="2.853" r="2.853" transform="translate(42.775 172.806)"/><circle class="b" cx="2.853" cy="2.853" r="2.853" transform="translate(42.775 188.782)"/><circle class="b" cx="2.853" cy="2.853" r="2.853" transform="translate(42.775 204.757)"/><rect class="b" width="54.203" height="4.564" transform="translate(57.61 173.376)"/><rect class="b" width="54.203" height="4.564" transform="translate(57.61 189.352)"/><rect class="b" width="54.203" height="4.564" transform="translate(57.61 205.328)"/><circle class="b" cx="2.853" cy="2.853" r="2.853" transform="translate(166.621 172.806)"/><circle class="b" cx="2.853" cy="2.853" r="2.853" transform="translate(166.621 188.782)"/><circle class="b" cx="2.853" cy="2.853" r="2.853" transform="translate(166.621 204.757)"/><rect class="b" width="54.203" height="4.564" transform="translate(181.456 173.376)"/><rect class="b" width="54.203" height="4.564" transform="translate(181.456 189.352)"/><rect class="b" width="54.203" height="4.564" transform="translate(181.456 205.328)"/><circle class="b" cx="2.853" cy="2.853" r="2.853" transform="translate(289.69 172.806)"/><circle class="b" cx="2.853" cy="2.853" r="2.853" transform="translate(289.69 188.782)"/><circle class="b" cx="2.853" cy="2.853" r="2.853" transform="translate(289.69 204.757)"/><rect class="b" width="54.203" height="4.564" transform="translate(304.524 173.376)"/><rect class="b" width="54.203" height="4.564" transform="translate(304.524 189.352)"/><rect class="b" width="54.203" height="4.564" transform="translate(304.524 205.328)"/></g><path class="c" d="M-3147.736,93.079H-3365.4q1.8-1.531,3.652-3h210.357Q-3149.542,91.548-3147.736,93.079Z" transform="translate(3425.033 -53.215)"/></svg>