<svg xmlns="http://www.w3.org/2000/svg" width="472" height="337" viewBox="0 0 472 337"><defs><style>.a{fill:#e74c3c;}.b{fill:#e6e6e6;}.c{fill:#fff;}.d{fill:#222;}.e{fill:#ffb8b8;}.f{fill:#8e3026;}.g{fill:#4e4e4e;}</style></defs><g transform="translate(-146 -1190)"><circle class="a" cx="168.5" cy="168.5" r="168.5" transform="translate(281 1190)"/><g transform="translate(146.176 1232.857)"><rect class="b" width="78" height="143" transform="translate(270.824 49.143)"/><path class="c" d="M788,429.4H852.96V298.61H788Z" transform="translate(-510.414 -243.748)"/><rect class="b" width="18.97" height="1.762" transform="translate(302.549 82.914)"/><rect class="b" width="33.064" height="1.762" transform="translate(302.549 89.008)"/><rect class="b" width="33.032" height="1.762" transform="translate(302.549 95.102)"/><rect class="b" width="14.093" height="14.093" transform="translate(284.524 82.94)"/><rect class="b" width="18.97" height="1.762" transform="translate(302.549 113.198)"/><rect class="b" width="33.064" height="1.762" transform="translate(302.549 119.292)"/><rect class="b" width="33.032" height="1.762" transform="translate(302.549 125.386)"/><rect class="b" width="14.093" height="14.093" transform="translate(284.524 113.224)"/><rect class="b" width="18.97" height="1.762" transform="translate(302.549 143.481)"/><rect class="b" width="33.064" height="1.762" transform="translate(302.549 149.576)"/><rect class="b" width="33.032" height="1.762" transform="translate(302.549 155.67)"/><rect class="b" width="14.093" height="14.093" transform="translate(284.524 143.508)"/><rect class="b" width="80" height="143" transform="translate(47.824 49.143)"/><path class="c" d="M280,429.4H344.96V298.61H280Z" transform="translate(-225.373 -243.748)"/><rect class="b" width="18.97" height="1.762" transform="translate(79.59 82.914)"/><rect class="b" width="33.064" height="1.762" transform="translate(79.59 89.008)"/><rect class="b" width="33.032" height="1.762" transform="translate(79.59 95.102)"/><rect class="b" width="14.093" height="14.093" transform="translate(61.565 82.94)"/><rect class="b" width="18.97" height="1.762" transform="translate(79.59 113.198)"/><rect class="b" width="33.064" height="1.762" transform="translate(79.59 119.292)"/><rect class="b" width="33.032" height="1.762" transform="translate(79.59 125.386)"/><rect class="b" width="14.093" height="14.093" transform="translate(61.565 113.224)"/><rect class="b" width="18.97" height="1.762" transform="translate(79.59 143.481)"/><rect class="b" width="33.064" height="1.762" transform="translate(79.59 149.576)"/><rect class="b" width="33.032" height="1.762" transform="translate(79.59 155.67)"/><rect class="b" width="14.093" height="14.093" transform="translate(61.565 143.508)"/><ellipse class="b" cx="195" cy="7.5" rx="195" ry="7.5" transform="translate(-0.176 188.143)"/><rect class="d" width="108.751" height="198.381" transform="translate(144.213)"/><path class="c" d="M494.82,373.4h99.352V185.11H494.82Z" transform="translate(-345.907 -180.062)"/><rect class="a" width="25.827" height="2.398" transform="translate(188.351 48.349)"/><rect class="b" width="45.015" height="2.398" transform="translate(188.351 56.646)"/><rect class="b" width="44.971" height="2.398" transform="translate(188.351 64.943)"/><rect class="a" width="19.188" height="19.188" transform="translate(163.811 48.385)"/><rect class="a" width="25.827" height="2.398" transform="translate(188.351 89.579)"/><rect class="b" width="45.015" height="2.398" transform="translate(188.351 97.876)"/><rect class="b" width="44.971" height="2.398" transform="translate(188.351 106.173)"/><rect class="a" width="19.188" height="19.188" transform="translate(163.811 89.614)"/><rect class="a" width="25.827" height="2.398" transform="translate(188.351 130.809)"/><rect class="b" width="45.015" height="2.398" transform="translate(188.351 139.106)"/><rect class="b" width="44.971" height="2.398" transform="translate(188.351 147.403)"/><rect class="a" width="19.188" height="19.188" transform="translate(163.811 130.844)"/><path class="e" d="M508.4,492.987l-1.317,5.705s.439,13.167-3.072,11.85-2.633-12.728-2.633-12.728l3.072-5.706Z" transform="translate(-349.532 -352.321)"/><ellipse class="e" cx="10" cy="8.5" rx="10" ry="8.5" transform="translate(129.824 60.143)"/><path class="e" d="M456.381,337.11l-.878,12.728,10.972,1.317s0-10.533.878-11.85S456.381,337.11,456.381,337.11Z" transform="translate(-323.846 -265.35)"/><path class="f" d="M458.577,363.345l-14.213-6.019s-6.789-5.239-10.772-1.366l-1.788,2.556S416,364.661,416,369.489l6.144,24.139s-3.511,13.606,1.755,14.484l28.528,2.633a9.873,9.873,0,0,0,.439-10.972l1.317-14.484Z" transform="translate(-301.683 -275.127)"/><path class="f" d="M491,375.048l9.656-.439s3.072.878,5.267,9.217,2.633,21.945,2.633,21.945l-5.267,24.578-6.583-.878,2.633-23.7-4.389-15.8Z" transform="translate(-343.766 -286.392)"/><path class="f" d="M414.537,381.609l-4.76,1.483s-4.017,5.979-4.017,9.051S404,418.477,404,418.477l11.411,18.872,3.511-9.217-7.022-11.85,5.706-14.483Z" transform="translate(-294.949 -290.319)"/><path class="d" d="M454.871,477.06l-31.555-2.776s-3.118,19.893-2.679,27.794.878,20.189.878,20.189L418,575.811l13.606-1.755,1.756-44.328,5.706-24.139,6.583,30.723,4.389,39.5,11.85-1.317-3.95-47.839S461.454,483.643,454.871,477.06Z" transform="translate(-302.805 -342.319)"/><path class="d" d="M500.782,697.609l3.95,1.317s8.339-2.194,6.145,3.511-8.339,4.828-8.339,4.828-7.461,5.706-10.533,1.317l1.755-9.217Z" transform="translate(-344.327 -467.628)"/><path class="d" d="M427.782,697.609l3.95,1.317s8.339-2.194,6.145,3.511-8.339,4.828-8.339,4.828-7.461,5.706-10.533,1.317l1.756-9.217Z" transform="translate(-303.366 -467.628)"/><path class="g" d="M450.1,324.55s-9.217-6.583-4.389-14.484c3.349-5.481,10.29-5.047,14.226-4.267a6.651,6.651,0,0,1,4.866,3.828c.658,1.536.658,3.072-1.975,3.072-5.267,0-2.633,3.95-2.633,3.95s-3.511.878-2.633,3.95S450.1,324.55,450.1,324.55Z" transform="translate(-317.569 -247.524)"/></g></g></svg>