<svg xmlns="http://www.w3.org/2000/svg" width="1079.889" height="1079.549" viewBox="0 0 1079.889 1079.549">
  <g id="Grupo_13" data-name="Grupo 13" transform="translate(-487.717 -295.87)">
    <path id="Trazado_36" data-name="Trazado 36" d="M652.69,343.155,505.38,799.45a540.845,540.845,0,0,0,80.26,58.918L652.876,655.04l88.041,265.971a540.542,540.542,0,0,0,108.526,13.705Z" transform="translate(164.621 440.702)" fill="#222"/>
    <path id="Trazado_37" data-name="Trazado 37" d="M1027.656,295.87c-298.2,0-539.939,241.739-539.939,539.939a537.225,537.225,0,0,0,100.807,313.97l224.3-678.436a4.564,4.564,0,0,1,8.669,0l304.691,895.282c251.13-46.327,441.423-266.28,441.423-530.816C1567.606,537.609,1325.857,295.87,1027.656,295.87Zm-45.7,384.394h51.632a124.561,124.561,0,0,1,13.788.691c78.515,6.977,140.013,73.335,140.013,154.224A154.908,154.908,0,0,1,1081.93,982.293Zm168.879,510.021-33.675-101.591c106.452-35.109,183.286-135.328,183.286-253.514,0-142.758-112.128-259.314-253.07-266.487-4.562-.248-9.175-.372-13.788-.372A264.664,264.664,0,0,0,949.4,581.914L910.791,465.42h136.588c204.245,0,369.821,165.514,369.821,369.76C1417.2,1003.5,1304.752,1145.569,1150.837,1190.285Z" transform="translate(0 0)" fill="#222"/>
    <path id="Trazado_38" data-name="Trazado 38" d="M535.608,333.117H587.24a124.561,124.561,0,0,1,13.788.691c78.515,6.977,140.013,73.335,140.013,154.224A154.908,154.908,0,0,1,635.58,635.146Z" transform="translate(446.35 347.147)" fill="#e74c3c"/>
  </g>
</svg>
